<?xml version="1.0" encoding="UTF-8" standalone="no"?>
<svg
   id="SvgjsSvg1147"
   width="247.99265"
   height="219.5632"
   version="1.1"
   sodipodi:docname="login_final.svg"
   inkscape:version="1.1 (c68e22c387, 2021-05-23)"
   xmlns:inkscape="http://www.inkscape.org/namespaces/inkscape"
   xmlns:sodipodi="http://sodipodi.sourceforge.net/DTD/sodipodi-0.dtd"
   xmlns="http://www.w3.org/2000/svg"
   xmlns:svg="http://www.w3.org/2000/svg">
  <sodipodi:namedview
     id="namedview481"
     pagecolor="#ffffff"
     bordercolor="#666666"
     borderopacity="1.0"
     inkscape:pageshadow="2"
     inkscape:pageopacity="0.0"
     inkscape:pagecheckerboard="0"
     showgrid="false"
     width="248.99265px"
     inkscape:zoom="2.9305556"
     inkscape:cx="144"
     inkscape:cy="109.87678"
     inkscape:window-width="1920"
     inkscape:window-height="1052"
     inkscape:window-x="-8"
     inkscape:window-y="-8"
     inkscape:window-maximized="1"
     inkscape:current-layer="svg477" />
  <defs
     id="SvgjsDefs1148" />
  <g
     id="SvgjsG1149"
     transform="translate(0,-34.222411)">
    <svg
       width="288"
       height="288"
       viewBox="0 0 666.667 508.267"
       version="1.1"
       id="svg477">
      <g
         transform="matrix(0.13333,0,0,-0.13333,-60.185216,508.267)"
         fill="#000000"
         class="color000 svgShape"
         id="g475">
        <path
           fill="#e7e8e5"
           d="m 0,449.129 h 5000 v 2.5 H 0 Z M 4167.79,290.672 h 331.22 v -2.5 h -331.22 v 2.5 m -942.52,-29.633 h 86.9297 v 2.5 H 3225.27 Z m 740.59,122.492 h 191.92 v -2.5 h -191.92 v 2.5 M 524.59,366.73 h 431.933 v -2.5 H 524.59 v 2.5 m 520.97,0 h 63.33 v -2.5 h -63.33 v 2.5 m 269.15,-44.718 h 936.758 v 2.5 H 1314.71 Z M 439.152,3723.59 c -30.101,0 -54.582,-24.48 -54.582,-54.57 V 954.699 c 0,-30.097 24.481,-54.578 54.582,-54.578 H 2370.14 c 30.08,0 54.57,24.481 54.57,54.578 V 3669.02 c 0,30.09 -24.49,54.57 -54.57,54.57 H 439.152 M 2370.14,897.621 H 439.152 c -31.476,0 -57.082,25.598 -57.082,57.078 V 3669.02 c 0,31.46 25.606,57.07 57.082,57.07 H 2370.14 c 31.46,0 57.07,-25.61 57.07,-57.07 V 954.699 c 0,-31.48 -25.61,-57.078 -57.07,-57.078 m 231.98,2825.969 c -30.09,0 -54.57,-24.48 -54.57,-54.57 V 954.699 c 0,-30.097 24.48,-54.578 54.57,-54.578 h 1930.99 c 30.09,0 54.58,24.481 54.58,54.578 V 3669.02 c 0,30.09 -24.49,54.57 -54.58,54.57 H 2602.12 M 4533.11,897.621 H 2602.12 c -31.47,0 -57.07,25.598 -57.07,57.078 V 3669.02 c 0,31.46 25.6,57.07 57.07,57.07 h 1930.99 c 31.47,0 57.08,-25.61 57.08,-57.07 V 954.699 c 0,-31.48 -25.61,-57.078 -57.08,-57.078"
           class="colore7e8e5 svgShape"
           id="path247" />
        <path
           fill="#dadbd8"
           d="m 856.328,3247.11 c 1.098,131.02 107.61,236.91 238.892,236.91 31.63,0 61.8,-6.21 89.43,-17.37 46.92,95.98 145.48,162.1 259.51,162.1 137.91,0 253.16,-96.71 281.81,-225.98 129.7,-8.35 232.33,-116.13 232.33,-247.93 0,-137.24 -111.26,-248.5 -248.5,-248.5 H 919.059 c -97.293,0 -176.161,78.87 -176.161,176.16 0,75.18 47.122,139.33 113.43,164.61 M 3660.87,1297.98 c 0.68,80.85 66.4,146.18 147.41,146.18 19.51,0 38.13,-3.83 55.18,-10.72 28.95,59.23 89.77,100.03 160.13,100.03 85.09,0 156.21,-59.67 173.89,-139.44 80.03,-5.15 143.35,-71.65 143.35,-152.98 0,-84.69 -68.65,-153.34 -153.34,-153.34 h -487.91 c -60.03,0 -108.7,48.67 -108.7,108.7 0,46.39 29.08,85.97 69.99,101.57"
           class="colordadbd8 svgShape"
           id="path249" />
        <path
           fill="#ededeb"
           d="m 1021.51,1733.36 c 1.15,137.34 112.8,248.34 250.41,248.34 33.16,0 64.79,-6.51 93.75,-18.21 49.18,100.62 152.5,169.94 272.04,169.94 144.56,0 265.38,-101.39 295.41,-236.91 135.96,-8.74 243.54,-121.72 243.54,-259.88 0,-143.87 -116.62,-260.5 -260.49,-260.5 h -828.9 c -101.993,0 -184.668,82.67 -184.668,184.66 0,78.81 49.402,146.06 118.908,172.56"
           class="colorededeb svgShape"
           id="path251" />
        <path
           fill="#e2e2e0"
           d="m 1193.93,1495.67 c 0,-20.87 -16.92,-37.79 -37.8,-37.79 -20.88,0 -37.8,16.92 -37.8,37.79 0,20.88 16.92,37.8 37.8,37.8 20.88,0 37.8,-16.92 37.8,-37.8"
           class="colore2e2e0 svgShape"
           id="path253" />
        <path
           fill="#ffffff"
           d="m 1336.43,1495.67 c 0,-20.87 -16.92,-37.79 -37.8,-37.79 -20.88,0 -37.8,16.92 -37.8,37.79 0,20.88 16.92,37.8 37.8,37.8 20.88,0 37.8,-16.92 37.8,-37.8"
           class="colorfff svgShape"
           id="path255" />
        <path
           fill="#f3f2f1"
           d="m 3607.01,2943 c 0.79,95.12 78.12,171.99 173.43,171.99 22.97,0 44.87,-4.5 64.93,-12.61 34.07,69.69 105.63,117.7 188.41,117.7 100.13,0 183.8,-70.22 204.61,-164.08 94.16,-6.05 168.67,-84.3 168.67,-179.99 0,-99.64 -80.78,-180.42 -180.42,-180.42 h -574.09 c -70.64,0 -127.9,57.26 -127.9,127.89 0,54.59 34.22,101.16 82.36,119.52"
           class="colorf3f2f1 svgShape"
           id="path257" />
        <path
           fill="#ffffff"
           d="m 4130.81,2785.38 c 0,-13.5 -10.95,-24.45 -24.45,-24.45 -13.51,0 -24.46,10.95 -24.46,24.45 0,13.51 10.95,24.46 24.46,24.46 13.5,0 24.45,-10.95 24.45,-24.46 m 92.19,0 c 0,-13.5 -10.95,-24.45 -24.46,-24.45 -13.5,0 -24.45,10.95 -24.45,24.45 0,13.51 10.95,24.46 24.45,24.46 13.51,0 24.46,-10.95 24.46,-24.46"
           class="colorfff svgShape"
           id="path259" />
        <path
           fill="#e2e2e0"
           d="m 4038.62,2785.38 c 0,-13.5 -10.95,-24.45 -24.45,-24.45 -13.51,0 -24.46,10.95 -24.46,24.45 0,13.51 10.95,24.46 24.46,24.46 13.5,0 24.45,-10.95 24.45,-24.46"
           class="colore2e2e0 svgShape"
           id="path261" />
        <path
           fill="#f3f2f1"
           d="M 4438.89,113.238 C 4438.89,50.6992 3570.83,0 2500,0 1429.18,0 561.109,50.6992 561.109,113.238 c 0,62.532 868.071,113.231 1938.891,113.231 1070.83,0 1938.89,-50.699 1938.89,-113.231"
           class="colorf3f2f1 svgShape"
           id="path263" />
        <path
           fill="#406fbf"
           d="m 2014.44,3301.33 h -183.88 c -244.03,0 -453.26,-148.5 -542.58,-360 h -146.32 c -278.59,0 -504.437,-225.85 -504.437,-504.45 0,-278.6 225.847,-504.45 504.437,-504.45 h 872.78 v 1368.9 m -434.51,-28.29 -4.09,9.13 c 22.94,10.24 46.75,19.18 70.77,26.57 l 2.94,-9.55 c -23.64,-7.28 -47.06,-16.07 -69.62,-26.15"
           class="color406fbf svgShape"
           id="path265" />
        <path
           fill="#406fbf"
           d="m 1351.73,3096.77 -7.8,6.25 c 46.13,57.58 101.58,106.07 164.79,144.11 l 5.15,-8.56 c -62.19,-37.44 -116.74,-85.15 -162.14,-141.8"
           class="color406fbf svgShape"
           id="path267" />
        <path
           fill="#3563b7"
           d="m 1325.56,1932.43 h -183.9 c -278.59,0 -504.437,225.85 -504.437,504.45 0,55.09 8.836,108.14 25.164,157.77 -5.258,-16.01 -9.739,-32.37 -13.387,-49.03 h 183.859 c -7.691,-35.02 -11.75,-71.42 -11.75,-108.74 0,-278.6 225.851,-504.45 504.451,-504.45 m -618.837,760.12 c 87.699,148.89 249.648,248.78 434.937,248.78 h 146.32 c 46.25,109.51 124.64,202.12 223.36,265.99 h 183.87 c -11.46,-7.42 -22.66,-15.23 -33.56,-23.4 H 1477.9 c -62.4,-46.8 -115.3,-105.71 -155,-173.3 h 183.77 c -16.56,-28.15 -30.86,-57.82 -42.62,-88.7 -44.03,12.54 -90.45,19.41 -138.49,19.41 -174.13,0 -327.65,-88.23 -418.302,-222.41 h -183.86 c -5.82,-8.6 -11.386,-17.4 -16.675,-26.37 m 870.717,551.71 c 76.67,36.59 162.48,57.07 253.12,57.07 h 183.88 c -75.79,0 -148.22,-14.32 -214.75,-40.41 H 1615.9 c -13.05,-5.11 -25.88,-10.67 -38.46,-16.66"
           class="color3563b7 svgShape"
           id="path269" />
        <path
           fill="#3b69bc"
           d="M 1506.67,3010.62 H 1322.9 c 39.7,67.59 92.6,126.5 155,173.3 h 183.75 c -62.42,-46.82 -115.24,-105.74 -154.98,-173.3"
           class="color3b69bc svgShape"
           id="path271" />
        <path
           fill="#8eb4e3"
           d="m 662.387,2594.65 c 11.308,34.43 26.234,67.22 44.336,97.9 -18.082,-30.7 -33.016,-63.48 -44.336,-97.9"
           class="color8eb4e3 svgShape"
           id="path273" />
        <path
           fill="#3b69bc"
           d="M 832.859,2545.62 H 649 c 3.648,16.66 8.129,33.02 13.387,49.03 11.32,34.42 26.254,67.2 44.336,97.9 5.289,8.97 10.855,17.77 16.675,26.37 h 183.86 c -34.961,-51.75 -60.563,-110.31 -74.399,-173.3"
           class="color3b69bc svgShape"
           id="path275" />
        <path
           fill="#7fa5dc"
           d="m 1511.34,3207.32 h -0.04 c 21.11,13.68 43.22,26.03 66.14,36.94 -22.89,-10.92 -44.96,-23.27 -66.1,-36.94"
           class="color7fa5dc svgShape"
           id="path277" />
        <path
           fill="#3b69bc"
           d="m 1695.21,3207.32 h -183.87 c 21.14,13.67 43.21,26.02 66.1,36.94 12.58,5.99 25.41,11.55 38.46,16.66 h 183.79 c -36.77,-14.42 -71.74,-32.43 -104.48,-53.6"
           class="color3b69bc svgShape"
           id="path279" />
        <path
           fill="#406fbf"
           d="m 3018.56,2553.31 c -50.37,213.11 -235.79,373.94 -461,387.07 -89.1,212.03 -298.7,360.95 -543.12,360.95 -251.43,0 -465.93,-157.63 -550.39,-379.41 -44.03,12.54 -90.45,19.41 -138.49,19.41 -278.6,0 -504.451,-225.85 -504.451,-504.45 0,-278.6 225.851,-504.45 504.451,-504.45 h 1606.59 c 174.78,0 316.46,141.69 316.46,316.47 0,144.79 -97.29,266.8 -230.05,304.41"
           class="color406fbf svgShape"
           id="path281" />
        <path
           fill="#3563b7"
           d="m 2975.87,2552.51 c 0.01,0.01 0.01,0.01 0.01,0.01 0,0 0,0 0.01,0 -0.02,-0.01 0,0 -0.02,-0.01 m -183.15,231.63 c -76.26,67.47 -174.25,110.15 -280.02,116.35 l -24.9,1.4 -9.6,23 c -83.1,197.8 -271.9,327.8 -484.9,336 7,0.3 14,0.4 21.1,0.4 221.7,0 420.4,-132 506.3,-336.4 l 9.6,-23 24.9,-1.4 c 84.07,-4.92 163.25,-32.92 230.49,-78.08 l 7.03,-38.27"
           class="color3563b7 svgShape"
           id="path283" />
        <path
           fill="#ffffff"
           d="m 2965.2,2514.79 -22.7,6.4 -5.4,22.9 c -46.8,198 -221.3,344.5 -424.4,356.4 l -24.9,1.4 -9.6,23 c -83.1,197.8 -271.9,327.8 -484.9,336 h -0.7 c -217.6,-8.8 -413.2,-148.5 -491.2,-353.2 l -13,-34.3 -35.3,10.1 c -1,0.3 -2.1,0.6 -3.1,0.8 -40.6,11.3 -82.6,17 -124.4,17 -7.3,0 -14.5,-0.2 -21.8,-0.5 -246,-11.4 -442.702,-215.1 -442.702,-463.9 0,-256.1 208.402,-464.5 464.502,-464.5 h 1564.1 c 152.4,0 276.4,124.1 276.4,276.5 0,123.1 -82.6,232.4 -200.9,265.9"
           class="colorfff svgShape"
           id="path285" />
        <path
           fill="#406fbf"
           d="m 1813.59,2568.45 v -396.96 h 400.02 v 396.96 H 2340 l -326.4,366.85 -326.4,-366.85 h 126.39 m -60.01,-1163.76 h -20.49 c -28.71,0 -51.98,23.27 -51.98,51.98 v 205.58 h 124.45 v -205.58 c 0,-28.71 -23.28,-51.98 -51.98,-51.98"
           class="color406fbf svgShape"
           id="path287" />
        <path
           fill="#3563b7"
           d="m 1753.58,1404.69 h -20.49 c -28.71,0 -51.98,23.27 -51.98,51.98 v 151.39 c 12.95,-6.28 27.48,-9.79 42.83,-9.79 h 38.78 c 15.36,0 29.89,3.52 42.84,9.79 v -151.39 c 0,-28.71 -23.28,-51.98 -51.98,-51.98"
           class="color3563b7 svgShape"
           id="path289" />
        <path
           fill="#406fbf"
           d="m 1762.72,1598.27 h -38.78 c -54.34,0 -98.38,44.05 -98.38,98.39 v 235.77 h 235.55 v -235.77 c 0,-54.34 -44.05,-98.39 -98.39,-98.39"
           class="color406fbf svgShape"
           id="path291" />
        <path
           fill="#3563b7"
           d="m 1625.56,1837.84 v 94.59 h 235.55 v -59.04 l -235.55,-35.55"
           class="color3563b7 svgShape"
           id="path293" />
        <path
           fill="#ffffff"
           d="m 1842.92,1754.78 c 0,-17.26 -13.99,-31.25 -31.25,-31.25 -17.26,0 -31.25,13.99 -31.25,31.25 0,17.26 13.99,31.25 31.25,31.25 17.26,0 31.25,-13.99 31.25,-31.25"
           class="colorfff svgShape"
           id="path295" />
        <path
           fill="#90b4e3"
           d="m 1728.34,1723.53 c -17.27,0 -31.25,13.99 -31.25,31.25 0,17.26 13.98,31.25 31.25,31.25 17.25,0 31.25,-13.99 31.25,-31.25 0,-17.26 -14,-31.25 -31.25,-31.25"
           class="color90b4e3 svgShape"
           id="path297" />
        <path
           fill="#406fbf"
           d="m 2527.78,1058.95 h -524.45 c -157.14,0 -285,127.85 -285,285 v 60.74 h 50 v -60.74 c 0,-129.58 105.42,-235 235,-235 h 524.45 v -50 m 1224.11,1253.33 h -859.44 c -71.73,0 -130.41,-58.68 -130.41,-130.41 V 243.648 c 0,-71.726 58.68,-130.41 130.41,-130.41 h 859.44 c 71.73,0 130.41,58.684 130.41,130.41 V 2181.87 c 0,71.73 -58.68,130.41 -130.41,130.41"
           class="color406fbf svgShape"
           id="path299" />
        <path
           fill="#3563b7"
           d="m 3751.89,113.238 h -234.26 c 71.73,0 130.42,58.684 130.42,130.41 V 2181.87 c 0,71.73 -58.69,130.41 -130.42,130.41 h -37.8 v 0 h 272.06 c 71.73,0 130.41,-58.68 130.41,-130.41 v -718.05 -376.11 -187.589 -2.5 -445.992 -2.5 -205.481 c 0,-71.726 -58.68,-130.41 -130.41,-130.41 m -37.28,1745.022 c -16.3,0 -29.65,-13.35 -29.65,-29.66 v -124.92 c 0,-16.31 13.35,-29.65 29.65,-29.65 h 101.12 c 16.31,0 29.66,13.34 29.66,29.65 v 124.92 c 0,16.31 -13.35,29.66 -29.66,29.66 h -101.12"
           class="color3563b7 svgShape"
           id="path301" />
        <path
           fill="#406fbf"
           d="m 3517.63,2312.28 h -859.44 c -71.73,0 -130.41,-58.68 -130.41,-130.41 V 243.648 c 0,-71.726 58.68,-130.41 130.41,-130.41 h 859.44 c 71.73,0 130.42,58.684 130.42,130.41 V 2181.87 c 0,71.73 -58.69,130.41 -130.42,130.41"
           class="color406fbf svgShape"
           id="path303" />
        <path
           fill="#3563b7"
           d="m 2611.7,918.648 h -40.45 V 2181.87 c 0,20.65 7.24,39.64 19.31,54.58 l 31.41,-13.62 c -6.55,-12.21 -10.27,-26.16 -10.27,-40.96 V 918.648"
           class="color3563b7 svgShape"
           id="path305" />
        <path
           fill="#ffffff"
           d="m 2698.64,156.699 c -47.94,0 -86.94,39.012 -86.94,86.949 V 2181.87 c 0,47.94 39,86.94 86.94,86.94 h 819 c 47.93,0 86.94,-39 86.94,-86.94 V 243.648 c 0,-47.937 -39.01,-86.949 -86.94,-86.949 h -819"
           class="colorfff svgShape"
           id="path307" />
        <path
           fill="#b8d2ef"
           d="m 3469.33,2014.54 h -402.75 c 5.45,17.03 10.77,34.72 15.88,52.83 h 148.69 c 8.14,0 14.79,6.66 14.79,14.8 0,8.13 -6.65,14.79 -14.79,14.79 h -140.64 c 4.55,17.4 8.87,35.08 12.86,52.83 h 365.96 c 37.19,0 67.62,-30.43 67.62,-67.62 0,-37.2 -30.43,-67.63 -67.62,-67.63 m -580.77,0 h -141.62 c -37.19,0 -67.62,30.43 -67.62,67.63 0,37.19 30.43,67.62 67.62,67.62 h 137.33 c 0.58,-17.77 1.14,-35.43 1.7,-52.83 h -149.9 c -8.13,0 -14.79,-6.66 -14.79,-14.79 0,-8.14 6.66,-14.8 14.79,-14.8 h 150.84 c 0.57,-18.08 1.12,-35.75 1.65,-52.83"
           class="colorb8d2ef svgShape"
           id="path309" />
        <path
           fill="#ffffff"
           d="m 3231.15,2067.37 h -495.08 c -8.13,0 -14.79,6.66 -14.79,14.8 0,8.13 6.66,14.79 14.79,14.79 h 495.08 c 8.14,0 14.79,-6.66 14.79,-14.79 0,-8.14 -6.65,-14.8 -14.79,-14.8"
           class="colorfff svgShape"
           id="path311" />
        <path
           fill="#406fbf"
           d="m 3424.65,2082.17 c 0,-8.17 -6.62,-14.8 -14.79,-14.8 -8.17,0 -14.79,6.63 -14.79,14.8 0,8.16 6.62,14.79 14.79,14.79 8.17,0 14.79,-6.63 14.79,-14.79 m 65.21,0 c 0,-8.17 -6.62,-14.8 -14.79,-14.8 -8.17,0 -14.79,6.63 -14.79,14.8 0,8.16 6.62,14.79 14.79,14.79 8.17,0 14.79,-6.63 14.79,-14.79 m -130.41,0 c 0,-8.17 -6.62,-14.8 -14.79,-14.8 -8.17,0 -14.79,6.63 -14.79,14.8 0,8.16 6.62,14.79 14.79,14.79 8.17,0 14.79,-6.63 14.79,-14.79"
           class="color406fbf svgShape"
           id="path313" />
        <path
           fill="#b8d2ef"
           d="m 3469.33,1797.19 h -722.39 c -37.19,0 -67.62,30.43 -67.62,67.62 v 0.01 c 0,37.18 30.43,67.61 67.62,67.61 h 169.12 l -1.11,-59.09 90.84,4.14 9.25,54.95 h 454.29 c 37.19,0 67.62,-30.43 67.62,-67.61 v -0.01 c 0,-37.19 -30.43,-67.62 -67.62,-67.62 m -124.67,82.42 c -8.17,0 -14.79,-6.63 -14.79,-14.8 0,-8.17 6.62,-14.79 14.79,-14.79 8.17,0 14.79,6.62 14.79,14.79 0,8.17 -6.62,14.8 -14.79,14.8"
           class="colorb8d2ef svgShape"
           id="path315" />
        <path
           fill="#ffffff"
           d="m 3231.15,1850.02 h -495.08 c -8.13,0 -14.79,6.66 -14.79,14.79 0,8.14 6.66,14.79 14.79,14.79 h 495.08 c 8.14,0 14.79,-6.65 14.79,-14.79 0,-8.13 -6.65,-14.79 -14.79,-14.79"
           class="colorfff svgShape"
           id="path317" />
        <path
           fill="#406fbf"
           d="m 3424.65,1864.81 c 0,-8.17 -6.62,-14.79 -14.79,-14.79 -8.17,0 -14.79,6.62 -14.79,14.79 0,8.17 6.62,14.79 14.79,14.79 8.17,0 14.79,-6.62 14.79,-14.79 m 65.21,0 c 0,-8.17 -6.62,-14.79 -14.79,-14.79 -8.17,0 -14.79,6.62 -14.79,14.79 0,8.17 6.62,14.79 14.79,14.79 8.17,0 14.79,-6.62 14.79,-14.79"
           class="color406fbf svgShape"
           id="path319" />
        <path
           fill="#8db2e2"
           d="m 3344.66,1850.02 c -8.17,0 -14.79,6.62 -14.79,14.79 0,8.17 6.62,14.8 14.79,14.8 8.17,0 14.79,-6.63 14.79,-14.8 0,-8.17 -6.62,-14.79 -14.79,-14.79"
           class="color8db2e2 svgShape"
           id="path321" />
        <path
           fill="#b8d2ef"
           d="m 3469.33,1579.84 h -722.39 c -37.19,0 -67.62,30.43 -67.62,67.62 0,37.19 30.43,67.62 67.62,67.62 h 722.39 c 37.19,0 67.62,-30.43 67.62,-67.62 0,-37.19 -30.43,-67.62 -67.62,-67.62 m -124.67,82.41 c -8.17,0 -14.79,-6.62 -14.79,-14.79 0,-8.17 6.62,-14.79 14.79,-14.79 8.17,0 14.79,6.62 14.79,14.79 0,8.17 -6.62,14.79 -14.79,14.79"
           class="colorb8d2ef svgShape"
           id="path323" />
        <path
           fill="#ffffff"
           d="m 3231.15,1632.67 h -495.08 c -8.13,0 -14.79,6.66 -14.79,14.79 0,8.14 6.66,14.79 14.79,14.79 h 495.08 c 8.14,0 14.79,-6.65 14.79,-14.79 0,-8.13 -6.65,-14.79 -14.79,-14.79"
           class="colorfff svgShape"
           id="path325" />
        <path
           fill="#406fbf"
           d="m 3424.65,1647.46 c 0,-8.17 -6.62,-14.79 -14.79,-14.79 -8.17,0 -14.79,6.62 -14.79,14.79 0,8.17 6.62,14.79 14.79,14.79 8.17,0 14.79,-6.62 14.79,-14.79 m 65.21,0 c 0,-8.17 -6.62,-14.79 -14.79,-14.79 -8.17,0 -14.79,6.62 -14.79,14.79 0,8.17 6.62,14.79 14.79,14.79 8.17,0 14.79,-6.62 14.79,-14.79"
           class="color406fbf svgShape"
           id="path327" />
        <path
           fill="#6993d4"
           d="m 3344.66,1632.67 c -8.17,0 -14.79,6.62 -14.79,14.79 0,8.17 6.62,14.79 14.79,14.79 8.17,0 14.79,-6.62 14.79,-14.79 0,-8.17 -6.62,-14.79 -14.79,-14.79"
           class="color6993d4 svgShape"
           id="path329" />
        <path
           fill="#b8d2ef"
           d="m 3469.33,1362.49 h -722.39 c -37.19,0 -67.62,30.43 -67.62,67.62 0,37.19 30.43,67.62 67.62,67.62 h 722.39 c 37.19,0 67.62,-30.43 67.62,-67.62 0,-37.19 -30.43,-67.62 -67.62,-67.62 m 5.74,82.41 c -8.17,0 -14.79,-6.62 -14.79,-14.79 0,-8.17 6.62,-14.79 14.79,-14.79 8.17,0 14.79,6.62 14.79,14.79 0,8.17 -6.62,14.79 -14.79,14.79 m -130.41,0 c -8.17,0 -14.79,-6.62 -14.79,-14.79 0,-8.17 6.62,-14.79 14.79,-14.79 8.17,0 14.79,6.62 14.79,14.79 0,8.17 -6.62,14.79 -14.79,14.79"
           class="colorb8d2ef svgShape"
           id="path331" />
        <path
           fill="#ffffff"
           d="m 3231.15,1415.32 h -495.08 c -8.13,0 -14.79,6.66 -14.79,14.79 0,8.14 6.66,14.79 14.79,14.79 h 495.08 c 8.14,0 14.79,-6.65 14.79,-14.79 0,-8.13 -6.65,-14.79 -14.79,-14.79"
           class="colorfff svgShape"
           id="path333" />
        <path
           fill="#406fbf"
           d="m 3424.65,1430.11 c 0,-8.17 -6.62,-14.79 -14.79,-14.79 -8.17,0 -14.79,6.62 -14.79,14.79 0,8.17 6.62,14.79 14.79,14.79 8.17,0 14.79,-6.62 14.79,-14.79"
           class="color406fbf svgShape"
           id="path335" />
        <path
           fill="#8db2e2"
           d="m 3475.07,1415.32 c -8.17,0 -14.79,6.62 -14.79,14.79 0,8.17 6.62,14.79 14.79,14.79 8.17,0 14.79,-6.62 14.79,-14.79 0,-8.17 -6.62,-14.79 -14.79,-14.79"
           class="color8db2e2 svgShape"
           id="path337" />
        <path
           fill="#6993d4"
           d="m 3344.66,1415.32 c -8.17,0 -14.79,6.62 -14.79,14.79 0,8.17 6.62,14.79 14.79,14.79 8.17,0 14.79,-6.62 14.79,-14.79 0,-8.17 -6.62,-14.79 -14.79,-14.79"
           class="color6993d4 svgShape"
           id="path339" />
        <path
           fill="#b8d2ef"
           d="m 3469.33,1145.14 h -722.39 c -37.19,0 -67.62,30.43 -67.62,67.62 0,37.19 30.43,67.62 67.62,67.62 h 722.39 c 37.19,0 67.62,-30.43 67.62,-67.62 0,-37.19 -30.43,-67.62 -67.62,-67.62 m 5.74,82.41 c -8.17,0 -14.79,-6.62 -14.79,-14.79 0,-8.17 6.62,-14.79 14.79,-14.79 8.17,0 14.79,6.62 14.79,14.79 0,8.17 -6.62,14.79 -14.79,14.79"
           class="colorb8d2ef svgShape"
           id="path341" />
        <path
           fill="#ffffff"
           d="m 3231.15,1197.97 h -495.08 c -8.13,0 -14.79,6.65 -14.79,14.79 0,8.13 6.66,14.79 14.79,14.79 h 495.08 c 8.14,0 14.79,-6.66 14.79,-14.79 0,-8.14 -6.65,-14.79 -14.79,-14.79"
           class="colorfff svgShape"
           id="path343" />
        <path
           fill="#406fbf"
           d="m 3424.65,1212.76 c 0,-8.17 -6.62,-14.79 -14.79,-14.79 -8.17,0 -14.79,6.62 -14.79,14.79 0,8.17 6.62,14.79 14.79,14.79 8.17,0 14.79,-6.62 14.79,-14.79"
           class="color406fbf svgShape"
           id="path345" />
        <path
           fill="#6993d4"
           d="m 3475.07,1197.97 c -8.17,0 -14.79,6.62 -14.79,14.79 0,8.17 6.62,14.79 14.79,14.79 8.17,0 14.79,-6.62 14.79,-14.79 0,-8.17 -6.62,-14.79 -14.79,-14.79"
           class="color6993d4 svgShape"
           id="path347" />
        <path
           fill="#406fbf"
           d="m 3359.45,1212.76 c 0,-8.17 -6.62,-14.79 -14.79,-14.79 -8.17,0 -14.79,6.62 -14.79,14.79 0,8.17 6.62,14.79 14.79,14.79 8.17,0 14.79,-6.62 14.79,-14.79"
           class="color406fbf svgShape"
           id="path349" />
        <path
           fill="#b8d2ef"
           d="m 3469.33,927.789 h -722.39 c -37.19,0 -67.62,30.43 -67.62,67.621 0,37.19 30.43,67.62 67.62,67.62 h 722.39 c 37.19,0 67.62,-30.43 67.62,-67.62 0,-37.191 -30.43,-67.621 -67.62,-67.621 m -59.47,82.411 c -8.17,0 -14.79,-6.62 -14.79,-14.79 0,-8.168 6.62,-14.789 14.79,-14.789 8.17,0 14.79,6.621 14.79,14.789 0,8.17 -6.62,14.79 -14.79,14.79"
           class="colorb8d2ef svgShape"
           id="path351" />
        <path
           fill="#ffffff"
           d="m 3231.15,980.621 h -495.08 c -8.13,0 -14.79,6.649 -14.79,14.789 0,8.13 6.66,14.79 14.79,14.79 h 495.08 c 8.14,0 14.79,-6.66 14.79,-14.79 0,-8.14 -6.65,-14.789 -14.79,-14.789"
           class="colorfff svgShape"
           id="path353" />
        <path
           fill="#8db2e2"
           d="m 3409.86,980.621 c -8.17,0 -14.79,6.621 -14.79,14.789 0,8.17 6.62,14.79 14.79,14.79 8.17,0 14.79,-6.62 14.79,-14.79 0,-8.168 -6.62,-14.789 -14.79,-14.789"
           class="color8db2e2 svgShape"
           id="path355" />
        <path
           fill="#406fbf"
           d="m 3489.86,995.41 c 0,-8.168 -6.62,-14.789 -14.79,-14.789 -8.17,0 -14.79,6.621 -14.79,14.789 0,8.17 6.62,14.79 14.79,14.79 8.17,0 14.79,-6.62 14.79,-14.79 m -130.41,0 c 0,-8.168 -6.62,-14.789 -14.79,-14.789 -8.17,0 -14.79,6.621 -14.79,14.789 0,8.17 6.62,14.79 14.79,14.79 8.17,0 14.79,-6.62 14.79,-14.79"
           class="color406fbf svgShape"
           id="path357" />
        <path
           fill="#b8d2ef"
           d="m 3469.33,710.43 h -689.31 l 4.37,52.832 h 446.76 c 8.14,0 14.79,6.66 14.79,14.797 0,8.132 -6.65,14.793 -14.79,14.793 h -444.31 l 4.37,52.82 h 678.12 c 37.19,0 67.62,-30.422 67.62,-67.613 0,-37.2 -30.43,-67.629 -67.62,-67.629 m -59.47,82.422 c -8.17,0 -14.79,-6.633 -14.79,-14.793 0,-8.168 6.62,-14.797 14.79,-14.797 8.17,0 14.79,6.629 14.79,14.797 0,8.16 -6.62,14.793 -14.79,14.793 m -65.2,0 c -8.17,0 -14.79,-6.633 -14.79,-14.793 0,-8.168 6.62,-14.797 14.79,-14.797 8.17,0 14.79,6.629 14.79,14.797 0,8.16 -6.62,14.793 -14.79,14.793"
           class="colorb8d2ef svgShape"
           id="path359" />
        <path
           fill="#ffffff"
           d="m 3231.15,763.262 h -495.08 c -8.13,0 -14.79,6.66 -14.79,14.797 0,8.132 6.66,14.793 14.79,14.793 h 495.08 c 8.14,0 14.79,-6.661 14.79,-14.793 0,-8.137 -6.65,-14.797 -14.79,-14.797"
           class="colorfff svgShape"
           id="path361" />
        <path
           fill="#8db2e2"
           d="m 3409.86,763.262 c -8.17,0 -14.79,6.629 -14.79,14.797 0,8.16 6.62,14.793 14.79,14.793 8.17,0 14.79,-6.633 14.79,-14.793 0,-8.168 -6.62,-14.797 -14.79,-14.797"
           class="color8db2e2 svgShape"
           id="path363" />
        <path
           fill="#406fbf"
           d="m 3489.86,778.051 c 0,-8.16 -6.62,-14.789 -14.79,-14.789 -8.17,0 -14.79,6.629 -14.79,14.789 0,8.168 6.62,14.801 14.79,14.801 8.17,0 14.79,-6.633 14.79,-14.801"
           class="color406fbf svgShape"
           id="path365" />
        <path
           fill="#8db2e2"
           d="m 3344.66,763.262 c -8.17,0 -14.79,6.629 -14.79,14.797 0,8.16 6.62,14.793 14.79,14.793 8.17,0 14.79,-6.633 14.79,-14.793 0,-8.168 -6.62,-14.797 -14.79,-14.797"
           class="color8db2e2 svgShape"
           id="path367" />
        <path
           fill="#b8d2ef"
           d="m 3469.33,493.082 h -680.95 l -4.16,52.828 h 446.93 c 8.14,0 14.79,6.66 14.79,14.789 0,8.141 -6.65,14.801 -14.79,14.801 h -449.26 l -4.17,52.82 h 691.61 c 37.19,0 67.62,-30.429 67.62,-67.621 0,-37.187 -30.43,-67.617 -67.62,-67.617"
           class="colorb8d2ef svgShape"
           id="path369" />
        <path
           fill="#ffffff"
           d="m 3231.15,545.91 h -495.08 c -8.13,0 -14.79,6.66 -14.79,14.789 0,8.141 6.66,14.801 14.79,14.801 h 495.08 c 8.14,0 14.79,-6.66 14.79,-14.801 0,-8.129 -6.65,-14.789 -14.79,-14.789"
           class="colorfff svgShape"
           id="path371" />
        <path
           fill="#406fbf"
           d="m 3424.65,560.699 c 0,-8.168 -6.62,-14.789 -14.79,-14.789 -8.17,0 -14.79,6.621 -14.79,14.789 0,8.172 6.62,14.801 14.79,14.801 8.17,0 14.79,-6.629 14.79,-14.801 m 65.21,0 c 0,-8.168 -6.62,-14.789 -14.79,-14.789 -8.17,0 -14.79,6.621 -14.79,14.789 0,8.172 6.62,14.801 14.79,14.801 8.17,0 14.79,-6.629 14.79,-14.801 m -130.41,0 c 0,-8.168 -6.62,-14.789 -14.79,-14.789 -8.17,0 -14.79,6.621 -14.79,14.789 0,8.172 6.62,14.801 14.79,14.801 8.17,0 14.79,-6.629 14.79,-14.801"
           class="color406fbf svgShape"
           id="path373" />
        <path
           fill="#b8d2ef"
           d="m 3469.33,275.73 h -663.81 l -4.16,52.829 h 429.79 c 8.14,0 14.79,6.66 14.79,14.793 0,8.14 -6.65,14.789 -14.79,14.789 h -432.13 l -4.16,52.828 h 674.47 c 37.19,0 67.62,-30.43 67.62,-67.617 0,-37.192 -30.43,-67.622 -67.62,-67.622 m -124.67,82.411 c -8.17,0 -14.79,-6.621 -14.79,-14.789 0,-8.172 6.62,-14.793 14.79,-14.793 8.17,0 14.79,6.621 14.79,14.793 0,8.168 -6.62,14.789 -14.79,14.789"
           class="colorb8d2ef svgShape"
           id="path375" />
        <path
           fill="#ffffff"
           d="m 3231.15,328.559 h -495.08 c -8.13,0 -14.79,6.66 -14.79,14.793 0,8.14 6.66,14.789 14.79,14.789 h 495.08 c 8.14,0 14.79,-6.649 14.79,-14.789 0,-8.133 -6.65,-14.793 -14.79,-14.793"
           class="colorfff svgShape"
           id="path377" />
        <path
           fill="#406fbf"
           d="m 3424.65,343.352 c 0,-8.172 -6.62,-14.793 -14.79,-14.793 -8.17,0 -14.79,6.621 -14.79,14.793 0,8.168 6.62,14.789 14.79,14.789 8.17,0 14.79,-6.621 14.79,-14.789 m 65.21,0 c 0,-8.172 -6.62,-14.793 -14.79,-14.793 -8.17,0 -14.79,6.621 -14.79,14.793 0,8.168 6.62,14.789 14.79,14.789 8.17,0 14.79,-6.621 14.79,-14.789"
           class="color406fbf svgShape"
           id="path379" />
        <path
           fill="#6993d4"
           d="m 3344.66,328.559 c -8.17,0 -14.79,6.621 -14.79,14.793 0,8.168 6.62,14.789 14.79,14.789 8.17,0 14.79,-6.621 14.79,-14.789 0,-8.172 -6.62,-14.793 -14.79,-14.793"
           class="color6993d4 svgShape"
           id="path381" />
        <path
           fill="#2555ad"
           d="m 3815.73,1674.03 h -101.12 c -16.3,0 -29.65,13.34 -29.65,29.65 v 124.92 c 0,16.31 13.35,29.66 29.65,29.66 h 101.12 c 16.31,0 29.66,-13.35 29.66,-29.66 v -124.92 c 0,-16.31 -13.35,-29.65 -29.66,-29.65"
           class="color2555ad svgShape"
           id="path383" />
        <path
           fill="#fbbc88"
           d="m 2629.17,2323.63 113.12,-49.16 -64.85,-75.67 -94.59,40.99 46.32,83.84"
           class="colore96759 svgShape"
           id="path385" />
        <path
           fill="#c3c5c2"
           d="m 2706,2232.05 -0.05,0.02 8.97,10.47 0.05,-0.03 -8.97,-10.46"
           class="colorc3c5c2 svgShape"
           id="path387" />
        <path
           fill="#b25348"
           d="m 2705.95,2232.07 -102.73,44.58 9.57,17.3 102.13,-51.41 -8.97,-10.47"
           class="colorb25348 svgShape"
           id="path389" />
        <path
           fill="#17282f"
           d="m 2691.88,2158.84 -12.68,3.41 c -7.54,2.03 -13.57,7.69 -16.08,15.09 l -8.31,-3.51 c -4.8,-2.03 -10.15,-2.4 -15.18,-1.05 l -172.89,46.51 c 1.07,15.63 15.58,32.49 15.58,32.49 0,0 77.05,-16.37 100.22,1.28 1.79,1.36 4.11,1.74 6.11,0.72 13.82,-7.01 68.39,-33.34 104.11,-31.33 4.74,0.26 8.26,-4.23 7.15,-8.85 -6.11,-25.37 -8.03,-54.76 -8.03,-54.76 m 953.56,520.8 -48.45,-101.47 c -71.49,-149.78 -247.67,-225.08 -388.33,-166.15 -82.1,34.47 -171.77,107.22 -232.78,140.5 -52.2,-114.33 -149.86,-240.49 -224.63,-328.27 l -151.21,76.12 c 56.46,129.59 144.4,332.02 200.18,463.48 20.27,47.63 67.6,80.31 117.55,81.65 251.41,6.81 727.67,-165.86 727.67,-165.86"
           class="color17282f svgShape"
           id="path391" />
        <path
           fill="#fbbc88"
           d="m 2917.18,1992.09 108.7,4.8 -20.09,-119.41 -90.84,-4.14 2.23,118.75"
           class="colore96759 svgShape"
           id="path393" />
        <path
           fill="#c3c5c2"
           d="m 3017.62,1947.76 2.1,12.49 h 0.05 l -2.1,-12.49 h -0.05"
           class="colorc3c5c2 svgShape"
           id="path395" />
        <path
           fill="#b25348"
           d="m 2916.23,1941.17 0.5,26.29 93.36,-6.53 c -0.12,-1.7 0.95,-3.32 2.64,-3.84 l 1.09,-0.16 c 1.61,0 3.09,1.04 3.58,2.65 0.08,0.27 0.17,0.55 0.25,0.82 l 2.07,-0.15 -2.1,-12.49 -101.39,-6.59"
           class="colorb25348 svgShape"
           id="path397" />
        <path
           fill="#17282f"
           d="m 3047.48,1872.03 -12.53,-3.92 c -7.45,-2.34 -15.58,-0.8 -21.67,4.1 l -5.12,-7.42 c -2.96,-4.3 -7.27,-7.48 -12.25,-9.04 l -170.82,-53.59 c -7.49,13.76 -4.31,35.78 -4.31,35.78 0,0 73.8,27.56 83.87,54.89 0.77,2.1 2.53,3.66 4.77,3.88 15.42,1.51 75.59,8.59 104.66,29.46 3.85,2.77 9.23,0.87 10.77,-3.62 8.48,-24.69 22.63,-50.52 22.63,-50.52 m 668.4,847.77 -0.82,-107.16 c -1.27,-158.08 -135.27,-299.18 -295.3,-311.07 -93.4,-6.88 -219.62,-9.05 -292.46,-7.63 -10.62,-110.67 -45.19,-241.09 -80,-335.61 l -157.34,11 c -4.12,134.15 -10.17,324.39 -15.26,450.54 -1.94,49.2 28.49,97.58 75.46,120.69 235.92,116.13 765.72,179.24 765.72,179.24"
           class="color17282f svgShape"
           id="path399" />
        <path
           fill="#9d4940"
           d="m 3013.82,1956.93 -1.09,0.16 c -1.69,0.52 -2.76,2.14 -2.64,3.84 l 7.56,-0.53 c -0.08,-0.27 -0.17,-0.55 -0.25,-0.82 -0.49,-1.61 -1.97,-2.65 -3.58,-2.65"
           class="color9d4940 svgShape"
           id="path401" />
        <path
           fill="#142228"
           d="m 3017.65,1960.4 -7.56,0.53 c 0.02,0.27 0.07,0.55 0.15,0.83 23.79,78.21 66.64,322.38 68.55,434.39 0.02,1.07 0.5,2.08 1.3,2.77 0.68,0.59 1.54,0.91 2.43,0.91 0.17,0 0.34,-0.01 0.51,-0.04 86.2,-11.46 161.98,-17.16 226.42,-17.16 107.39,0 183.33,15.83 223.73,47.22 89.41,69.47 107.42,172.78 96.98,249.94 2.52,0.22 4.98,0.45 7.42,0.67 10.6,-79.27 -8.04,-185.21 -99.81,-256.51 -42.09,-32.71 -117.94,-49.1 -226.53,-49.1 -63.79,0 -138.88,5.66 -225.06,16.98 -2.87,-113.93 -44.88,-352.95 -68.53,-431.43"
           class="color142228 svgShape"
           id="path403" />
        <path
           fill="#111d23"
           d="m 2878.73,2314.28 c -0.9,24.38 -1.76,47.86 -2.56,69.99 35.68,50.7 68.87,103.87 93.54,155.09 l 0.09,0.15 c 0,0 -35.4,-137.29 -91.07,-225.23"
           class="color111d23 svgShape"
           id="path405" />
        <path
           fill="#fbbc88"
           d="m 3376.77,3224.22 c -4.24,-15.48 -8.22,-28.96 -12.83,-43.14 -4.39,-14.05 -9.31,-27.87 -14.23,-41.72 -10.12,-27.61 -20.6,-55.13 -32.82,-82.32 -12.05,-27.31 -24.7,-54.39 -39.73,-81.4 -14.77,-27.15 -31.2,-53.98 -51.76,-81.18 l -6.43,-8.5 c -4.09,-5.41 -9.42,-9.61 -15.13,-12.38 -11.07,-5.32 -22.49,-9.73 -33.96,-13.43 -11.37,-3.94 -23.2,-6.42 -34.83,-8.76 -11.77,-2.02 -23.59,-3.33 -35.58,-3.68 -5.96,-0.21 -12.05,-0.01 -18.1,0.21 l -9.28,0.74 c -3.29,0.32 -5.98,0.9 -10.33,1.16 -19.27,1.12 -33.99,17.65 -32.86,36.92 0.2,3.38 0.87,6.63 1.94,9.67 l 13.26,36.75 c 0.48,1.35 2.61,3.13 4.11,4.75 l 5.04,4.79 10.21,9.33 c 6.76,6.17 13.47,11.99 19.86,17.99 6.52,5.64 12.64,11.67 18.71,17.18 6.12,5.5 11.65,11.43 17.37,16.69 L 3097.84,2983 c 11.26,19.36 21.8,42.12 32.19,65.35 l 7.57,17.74 7.21,18.23 c 4.93,12.13 9.7,24.48 14.31,36.95 9.19,24.92 18.28,50.25 26.97,75.74 l 25.66,75.7 0.62,1.81 c 15.25,44.99 64.08,69.09 109.06,53.84 43.26,-14.67 67.13,-60.65 55.34,-104.14"
           class="colore96759 svgShape"
           id="path407" />
        <path
           fill="#406fbf"
           d="m 3294.26,3364.96 c -45.65,-13.09 -107.06,-63.51 -128.16,-177.67 30.57,-47.5 174.12,-10.84 174.12,-10.84 l -45.96,188.51"
           class="color406fbf svgShape"
           id="path409" />
        <path
           fill="#fbbc88"
           d="m 3079.5,2932.06 4.64,-49.42 c -13.84,-50.3 -75.43,-21.32 -75.43,-21.32 l -35.24,1.98 c -11.95,0.66 -21.74,11.24 -23.13,24.99 l -3.51,34.53 c -1.6,15.74 8.28,29.89 21.91,31.38 l 30.62,3.32 c 8.91,0.96 17.92,-0.29 26.23,-3.65 l 53.91,-21.81"
           class="colore96759 svgShape"
           id="path411" />
        <path
           fill="#406fbf"
           d="m 3316.38,3371.8 c 71.74,15.35 154.23,26.86 227.98,30.99 84.23,4.7 154.32,-63.4 152.16,-147.73 -6.42,-251.87 29.03,-516.68 24,-565.24 0,0 -531.1,-76.46 -612.53,81.4 -34.2,223.9 76.32,195.38 85.17,452.45 2.32,67.34 57.33,134.03 123.22,148.13"
           class="color406fbf svgShape"
           id="path413" />
        <path
           fill="#ffffff"
           d="m 3274.5,3144.13 1.79,0.51 0.33,1.93 c 2.76,16.65 16.05,28.79 32.32,29.53 l 1.99,0.08 0.66,1.93 c 5.69,16.6 20.21,27.32 37.29,27.73 h 0.06 c 17.53,-1.04 33.96,-13.09 41.26,-30.48 l 1.22,-2.92 2.78,0.81 0.25,0.06 c 3.21,0.9 6.55,1.32 9.91,1.27 l 1.76,-0.07 c 19.83,-1.3 36.66,-18.76 37.91,-39.77 1.29,-21.63 -14.42,-38.95 -35,-38.61 l -125.73,2.09 c -12.26,0.21 -22.85,10.85 -23.61,23.72 -0.62,10.4 5.47,19.52 14.81,22.19"
           class="colorfff svgShape"
           id="path415" />
        <path
           fill="#fbbc88"
           d="m 3690.83,3317.28 4.84,-10.78 4.25,-9.81 c 2.75,-6.5 5.22,-13.01 7.74,-19.49 5.03,-12.97 9.37,-26.11 13.67,-39.28 8.32,-26.43 15.62,-53.33 21.11,-81.03 2.77,-13.85 5.22,-27.87 7.32,-42.05 1.86,-14.27 3.32,-28.73 4.37,-43.38 2.07,-29.39 1.57,-59.84 -2.6,-91.5 l -0.97,-7.37 c -1.28,-9.7 -4.93,-18.81 -10.02,-26.43 -11.07,-16.37 -22.23,-28.26 -33.5,-38.39 -11.23,-10.1 -22.34,-18.59 -33.37,-26.38 -21.99,-15.44 -44.26,-27.33 -66.32,-38.34 -22.25,-10.65 -44.52,-20.01 -67.13,-28.1 -22.81,-8.06 -44.98,-15.07 -69.4,-20.68 -23.37,-5.36 -46.66,9.24 -52.02,32.6 -3.85,16.8 2.6,33.55 15.21,43.64 l 1.84,1.45 c 16.7,13.31 34.95,26.77 52.01,40.14 17.25,13.37 34.2,26.69 50.2,40.25 16.16,13.25 31.16,27.2 44.24,40.4 6.43,6.62 12.23,13.23 16.77,19.36 4.47,6.11 7.99,11.64 8.73,14.62 l -11,-33.78 c -0.1,19.03 -2.47,39.58 -5.82,60.71 -3.71,21.15 -8.67,42.83 -14.47,64.68 -6.1,21.8 -12.58,43.86 -20.08,65.73 -3.59,10.98 -7.61,21.84 -11.41,32.72 l -11.39,30.71 -1.73,4.65 c -16.5,44.49 6.2,93.94 50.69,110.44 42.57,15.79 89.79,-4.57 108.24,-45.31"
           class="colore96759 svgShape"
           id="path417" />
        <path
           fill="#406fbf"
           d="m 3572.29,3401.65 c 36.67,-4.06 114.38,-31.59 165.49,-136.9 -50.18,-99.17 -181.11,-136.91 -181.11,-136.91 0,0 -91.11,221.11 15.62,273.81 m -299.85,-710.76 h -431.68 c -18.8,0 -22.8,4.35 -8.88,9.66 l 196.96,75.18 c 13.91,5.31 40.69,9.65 59.48,9.65 h 431.69 c 18.8,0 22.79,-4.34 8.88,-9.65 l -196.96,-75.18 c -13.92,-5.31 -40.68,-9.66 -59.49,-9.66"
           class="color406fbf svgShape"
           id="path419" />
        <path
           fill="#2251aa"
           d="m 3272.44,2690.89 h -431.68 c -11.24,0 -17.19,1.55 -17.18,3.93 0,1.61 2.7,3.59 8.3,5.73 l 21.42,8.17 h 409.02 v 0 h 10.12 c 16.71,0 28.49,12.15 28.48,28.05 0,1.99 -0.19,4.04 -0.57,6.14 l -7.81,42.47 h 227.47 c 11.23,0 17.18,-1.55 17.18,-3.93 0,-1.61 -2.7,-3.59 -8.3,-5.72 l -196.96,-75.18 c -13.92,-5.31 -40.68,-9.66 -59.49,-9.66"
           class="color2251aa svgShape"
           id="path421" />
        <path
           fill="#406fbf"
           d="m 3272.44,2708.72 h -431.68 c -18.8,0 -37.01,15.39 -40.46,34.19 l -48.88,266.05 c -3.46,18.8 9.1,34.18 27.9,34.18 h 431.69 c 18.79,0 37,-15.38 40.45,-34.18 l 48.89,-266.05 c 3.45,-18.8 -9.1,-34.19 -27.91,-34.19"
           class="color406fbf svgShape"
           id="path423" />
        <path
           fill="#2d5bb2"
           d="m 3272.44,2708.72 h -10.12 c 18.81,0 31.36,15.39 27.91,34.19 l -48.88,266.05 c -3.45,18.8 -21.66,34.18 -40.46,34.18 h -421.57 c -16.7,0 -28.48,-12.15 -28.47,-28.05 v 0 c -0.01,15.9 11.77,28.05 28.47,28.05 h 431.69 c 18.79,0 37,-15.38 40.45,-34.18 l 48.89,-266.05 c 0.38,-2.1 0.57,-4.15 0.57,-6.14 0.01,-15.9 -11.77,-28.05 -28.48,-28.05"
           class="color2d5bb2 svgShape"
           id="path425" />
        <path
           fill="#3462b7"
           d="m 3262.32,2708.72 h -421.56 c -18.8,0 -37.01,15.39 -40.46,34.19 l -48.88,266.05 c -0.38,2.09 -0.57,4.14 -0.57,6.13 -0.01,15.9 11.77,28.05 28.47,28.05 h 421.57 c 18.8,0 37.01,-15.38 40.46,-34.18 l 48.88,-266.05 c 3.45,-18.8 -9.1,-34.19 -27.91,-34.19"
           class="color3462b7 svgShape"
           id="path427" />
        <path
           fill="#fbbc88"
           d="m 3458.54,2853.49 21.61,-22.71 c 20.24,-48.08 -46.07,-63.42 -46.07,-63.42 l -28.91,-20.25 c -9.8,-6.87 -24.04,-4.61 -33.64,5.33 l -24.12,24.96 c -11,11.37 -11.99,28.6 -2.2,38.2 l 22,21.56 c 6.4,6.27 14.26,10.86 22.86,13.36 l 38.28,11.12 c 10.79,3.13 22.44,-0.01 30.19,-8.15 m -113.21,492.32 c 2.63,10.98 13.18,29.08 26.29,37.15 2.56,13.34 0.49,27.25 -7.34,42.47 l 119.22,99.78 c 7.42,-49.7 24.91,-116.01 49.43,-137.55 -27.32,-25.2 -77.53,-70.68 -140.07,-81.31 -62.54,-10.63 -53.29,15.5 -47.53,39.46"
           class="colore96759 svgShape"
           id="path429" />
        <path
           fill="#c3c5c2"
           d="m 3372.47,3389.21 c 0,0.01 0,0.01 0,0.01 0.11,1.45 0.18,2.91 0.18,4.37 h 0.01 c -0.01,-1.46 -0.07,-2.93 -0.19,-4.38"
           class="colorc3c5c2 svgShape"
           id="path431" />
        <path
           fill="#b25348"
           d="m 3388.39,3383.96 c -6.02,0 -11.46,1.65 -15.92,5.25 0.12,1.45 0.18,2.92 0.19,4.38 1.91,-0.17 3.83,-0.25 5.77,-0.25 25.3,0 53.18,14.65 82.26,49.2 -16.27,-33.17 -48.71,-58.58 -72.3,-58.58"
           class="colorb25348 svgShape"
           id="path433" />
        <path
           fill="#17282f"
           d="m 3360.57,3580.8 c 0,-36.63 -29.69,-66.32 -66.31,-66.32 -36.62,0 -66.31,29.69 -66.31,66.32 0,36.62 29.69,66.31 66.31,66.31 36.62,0 66.31,-29.69 66.31,-66.31"
           class="color17282f svgShape"
           id="path435" />
        <path
           fill="#fbbc88"
           d="m 3474.69,3618.08 c 15.62,-75.81 24.59,-127.62 -10.13,-170.84 -68.99,-85.87 -131.64,-59.21 -169.68,10.58 -34.25,62.83 -54.04,176.23 11.21,225.08 64.28,48.13 152.98,10.98 168.6,-64.82"
           class="colore96759 svgShape"
           id="path437" />
        <path
           fill="#17282f"
           d="m 3325.83,3638.16 c -15.35,-17.5 -55.83,-54.16 -114.72,-21.11 -58.89,33.06 -34.95,112.15 0.56,137.45 51.44,36.67 102.77,13.66 102.77,13.66 0,0 -4.86,42.09 54.31,43.75 59.17,1.67 56.25,-40.41 56.25,-40.41 0,0 76.67,31.89 113.33,-27.09 34.12,-54.87 -16.73,-97.5 -16.73,-97.5 0,0 53.11,-22.84 35.62,-77.96 -15,-47.29 -58.05,-47.06 -58.05,-47.06 0,0 -56.67,-3.97 -66.25,37.33 -9.59,41.3 8.33,71.86 8.33,71.86 0,0 -90.83,-35.42 -115.42,7.08"
           class="color17282f svgShape"
           id="path439" />
        <path
           fill="#17282f"
           d="m 3412.92,3548.74 -0.26,0.01 -13.95,1.43 c -1.38,0.14 -2.38,1.37 -2.24,2.74 0.15,1.38 1.41,2.37 2.74,2.24 l 13.53,-1.39 70.63,17.19 c 1.37,0.33 2.69,-0.5 3.02,-1.83 0.32,-1.34 -0.5,-2.7 -1.84,-3.02 l -71.04,-17.3 -0.59,-0.07 m 101.86,90.41 c -2.27,0 -4.58,0.12 -6.94,0.37 -2.75,0.28 -4.75,2.73 -4.47,5.48 0.28,2.75 2.81,4.78 5.48,4.46 15.67,-1.6 28.45,3.09 35.12,12.86 5.21,7.62 5.81,17.08 1.6,25.31 -1.26,2.46 -0.29,5.47 2.16,6.73 2.48,1.26 5.47,0.28 6.73,-2.17 5.83,-11.37 4.97,-24.98 -2.23,-35.52 -7.74,-11.31 -21.16,-17.52 -37.45,-17.52 m -274.76,-48.92 c -9.21,0 -19.27,1.33 -30.25,4.36 -28.38,7.82 -46.43,28.39 -49.51,56.45 -3.22,29.34 11.24,60.44 33.65,72.32 2.43,1.3 5.47,0.37 6.76,-2.07 1.29,-2.44 0.36,-5.47 -2.08,-6.76 -18.99,-10.07 -31.19,-36.9 -28.39,-62.4 1.53,-13.97 9.06,-38.76 42.23,-47.9 58.61,-16.14 88.13,21.6 100.51,45.54 1.27,2.45 4.28,3.42 6.74,2.14 2.45,-1.26 3.41,-4.28 2.15,-6.73 -11.46,-22.16 -36.16,-54.95 -81.81,-54.95 m 110.97,-114.7 c -3.41,-1.45 -7.13,-2.68 -11.2,-3.6 -1.09,-0.25 -2.13,0.47 -2.31,1.62 -0.18,1.14 0.54,2.26 1.67,2.53 29.71,6.73 40.24,31.55 40.34,31.8 0.45,1.1 1.64,1.65 2.66,1.23 1.02,-0.41 1.48,-1.64 1.03,-2.73 -0.4,-0.97 -8.86,-20.96 -32.19,-30.85"
           class="color17282f svgShape"
           id="path441" />
        <path
           fill="#b25348"
           d="m 3380.7,3577.12 c 0,0 10.05,8.72 21.89,8.72 1.32,0 2.65,-0.11 4,-0.34 -13.13,-7.36 -25.89,-8.38 -25.89,-8.38 m 11.12,-6.72 c -5.27,0 -8.71,0.68 -8.71,0.68 0,0 6.72,3.72 14.76,3.72 3.19,0 6.59,-0.59 9.86,-2.23 -5.93,-1.7 -11.55,-2.17 -15.91,-2.17 m -119.86,-23.58 c -1.5,0 -3.23,0.19 -5.18,0.73 1.08,1.99 2.9,2.63 4.78,2.63 3.27,0 6.73,-1.93 6.73,-1.93 0,0 -2.28,-1.43 -6.33,-1.43 m 1.52,-7.56 c -0.66,0 -1.39,0.08 -2.19,0.26 0.38,3.19 1.99,4.07 3.68,4.07 2.12,0 4.35,-1.4 4.35,-1.4 0,0 -1.79,-2.93 -5.84,-2.93"
           class="colorb25348 svgShape"
           id="path443" />
        <path
           fill="#fbbc88"
           d="m 3521.58,3535.71 c -6.06,-19.9 -20.81,-35.09 -36.12,-42.83 -23.02,-11.63 -39.74,7.71 -37.7,32.01 1.83,21.88 16.01,54.3 41.21,55.84 24.84,1.52 39.54,-22.26 32.61,-45.02"
           class="colore96759 svgShape"
           id="path445" />
        <path
           fill="#17282f"
           d="m 3362.01,3567.81 c 1.65,-6.08 -0.25,-11.85 -4.24,-12.89 -3.98,-1.04 -8.55,3.04 -10.19,9.12 -1.65,6.07 0.25,11.84 4.23,12.88 3.99,1.04 8.56,-3.04 10.2,-9.11 m -64.15,-18.29 c 1.65,-6.07 -0.25,-11.84 -4.24,-12.88 -3.98,-1.05 -8.55,3.03 -10.19,9.11 -1.65,6.07 0.25,11.84 4.23,12.88 3.99,1.04 8.55,-3.04 10.2,-9.11"
           class="color17282f svgShape"
           id="path447" />
        <path
           fill="#17282f"
           d="m 3299.32,3545.58 -0.97,-0.1 -52,-11.55 -1.59,-1.1 0.31,-2.28 10.19,-18.23 c 1.22,-2.17 4.31,-3.64 6.57,-3.12 l 52,11.55 1.59,1.1 -0.31,2.29 -10.19,18.22 c -1.05,1.88 -3.49,3.22 -5.6,3.22 z m -38.45,-41.48 c -3.91,0 -8.02,2.29 -9.97,5.78 l -10.19,18.23 c -1.25,2.23 -1.44,4.69 -0.51,6.77 0.89,1.98 2.73,3.42 5.06,3.93 l 52.01,11.55 c 4.42,0.98 9.72,-1.45 12.01,-5.56 l 10.19,-18.22 c 1.25,-2.24 1.44,-4.7 0.52,-6.77 -0.9,-1.99 -2.74,-3.42 -5.07,-3.94 l -52.01,-11.55 -2.04,-0.22"
           class="color17282f svgShape"
           id="path449" />
        <path
           fill="#fbbc88"
           d="m 3319.18,3548.9 22.01,-48.11 c 0,0 -16.47,-12.54 -31.03,-9.25 -4.98,27.64 9.02,57.36 9.02,57.36"
           class="colord8413b svgShape"
           id="path451" />
        <path
           fill="#17282f"
           d="m 3400.61,3537.45 h 0.06 z m -15.06,27.28 -0.97,-0.1 -52,-11.55 -1.59,-1.1 0.31,-2.29 10.2,-18.22 c 1.21,-2.17 4.26,-3.65 6.56,-3.12 l 52.01,11.54 1.59,1.11 -0.32,2.29 -10.19,18.22 c -1.05,1.87 -3.49,3.22 -5.6,3.22 z m -38.45,-41.48 c -3.91,0 -8.02,2.29 -9.97,5.78 l -10.19,18.22 c -1.25,2.23 -1.44,4.7 -0.51,6.77 0.89,1.99 2.74,3.43 5.06,3.94 l 52.01,11.55 c 4.46,0.98 9.72,-1.46 12.01,-5.56 l 10.2,-18.22 c 1.25,-2.24 1.43,-4.71 0.51,-6.77 -0.89,-1.99 -2.74,-3.42 -5.07,-3.95 l -52.01,-11.55 -2.04,-0.21"
           class="color17282f svgShape"
           id="path453" />
        <path
           fill="#17282f"
           d="m 3311.26,3533.66 -0.79,0.13 c -1.28,0.45 -1.98,1.78 -1.58,3.07 0.14,0.44 3.59,10.82 24.89,6.6 1.36,-0.27 2.24,-1.58 1.97,-2.94 -0.27,-1.36 -1.57,-2.25 -2.94,-1.97 -16.46,3.26 -19.15,-3.19 -19.17,-3.25 -0.39,-1 -1.35,-1.64 -2.38,-1.64 m 65.43,56.17 1.49,1.13 c 1.26,1.6 0.97,3.92 -0.66,5.18 -16.21,12.61 -32.45,7.33 -33.14,7.1 -1.93,-0.65 -2.95,-2.75 -2.28,-4.68 0.67,-1.92 2.77,-2.95 4.7,-2.31 0.53,0.17 13.24,4.16 26.18,-5.91 1.1,-0.86 2.52,-1 3.71,-0.51 m -118.78,-31.36 c 1.15,0.33 2.12,1.21 2.5,2.43 4.87,15.51 17.63,19.31 18.17,19.47 1.96,0.56 3.09,2.59 2.53,4.54 -0.57,1.96 -2.6,3.1 -4.57,2.56 -0.7,-0.2 -17.11,-4.9 -23.21,-24.33 -0.61,-1.94 0.48,-4.01 2.44,-4.63 l 2.14,-0.04"
           class="color17282f svgShape"
           id="path455" />
        <path
           fill="#3563b7"
           d="m 2818.33,113.238 h -88.58 c 0.82,3.16 1.38,6.414 1.66,9.731 l 2.79,33.73 h 80.71 l 3.42,-43.461"
           class="color3563b7 svgShape"
           id="path457" />
        <path
           fill="#c3c5c2"
           d="m 2814.91,156.699 h -80.71 l 9.85,119.09 c 0.96,-0.039 1.92,-0.059 2.89,-0.059 h 58.58 l 9.39,-119.031 m -20.05,254.27 h -39.62 l 6.79,82.113 h 26.35 l 6.48,-82.113 m -17.14,217.351 h -4.49 l 2.3,27.821 2.19,-27.821"
           class="colorc3c5c2 svgShape"
           id="path459" />
        <path
           fill="#8fa5cb"
           d="m 2788.38,493.082 h -26.35 l 4.38,52.828 h 17.81 l 4.16,-52.828 m -6.49,82.418 h -13.04 l 4.38,52.82 h 4.49 l 4.17,-52.82"
           class="color8fa5cb svgShape"
           id="path461" />
        <path
           fill="#c3c5c2"
           d="m 2784.22,545.91 h -17.81 l 2.44,29.59 h 13.04 l 2.33,-29.59"
           class="colorc3c5c2 svgShape"
           id="path463" />
        <path
           fill="#8fa5cb"
           d="m 2805.52,275.73 h -58.58 c -0.97,0 -1.93,0.02 -2.89,0.059 l 4.37,52.77 h 52.94 l 4.16,-52.829 m -6.5,82.411 h -48.15 l 4.37,52.828 h 39.62 l 4.16,-52.828"
           class="color8fa5cb svgShape"
           id="path465" />
        <path
           fill="#c3c5c2"
           d="m 2801.36,328.559 h -52.94 l 2.45,29.582 h 48.15 l 2.34,-29.582"
           class="colorc3c5c2 svgShape"
           id="path467" />
        <path
           fill="#406fbf"
           d="m 2289.39,895.57 -63.92,-79.718 c -11.62,-14.5 -29.09,-23.09 -46.94,-23.09 H 1601.4 c -30.63,0 -57.52,-24.832 -60.05,-55.461 l -50.84,-614.332 c -2.53,-30.6292 20.25,-55.4573 50.88,-55.4573 h 1129.97 c 30.63,0 57.51,24.8281 60.05,55.4573 l 61.25,740.222 c 2.53,30.629 -20.24,55.457 -50.87,55.457 h -405.46 c -17.85,0 -35.32,-8.589 -46.94,-23.078"
           class="color406fbf svgShape"
           id="path469" />
        <path
           fill="#2d5bb2"
           d="M 2671.36,67.5117 H 1541.39 c -29.08,0 -51.08,22.3789 -51.07,50.8473 0,1.52 0.06,3.063 0.19,4.61 l 50.84,614.332 c 2.53,30.629 29.42,55.461 60.05,55.461 h 577.13 c 17.85,0 35.32,8.59 46.94,23.09 l 63.92,79.718 c 11.62,14.489 29.09,23.078 46.94,23.078 h 405.46 c 29.08,0 51.07,-22.367 51.06,-50.839 0,-1.52 -0.06,-3.059 -0.19,-4.618 l -5.82,-70.339 -2.45,-29.59 -4.37,-52.832 -11.17,-134.93 -2.44,-29.59 -4.38,-52.828 -11.16,-134.941 -2.45,-29.582 -4.37,-52.77 -9.85,-119.09 -2.79,-33.73 c -0.28,-3.317 -0.84,-6.571 -1.66,-9.731 v 0 C 2723,87.25 2698.66,67.5117 2671.36,67.5117"
           class="color2d5bb2 svgShape"
           id="path471" />
        <path
           fill="#406fbf"
           d="m 2061.2,851.871 -51.82,-75.519 c -9.41,-13.731 -25.58,-21.864 -43.43,-21.864 h -474.66 c -30.63,0 -53.75,-23.527 -51.63,-52.539 l 42.43,-581.898 c 2.12,-29.0197 28.67,-52.5393 59.3,-52.5393 h 1129.97 c 30.63,0 53.74,23.5196 51.63,52.5393 l -51.13,701.148 c -2.12,29.012 -28.67,52.531 -59.3,52.531 h -507.93 c -17.85,0 -34.01,-8.14 -43.43,-21.859"
           class="color406fbf svgShape"
           id="path473" />
      </g>
    </svg>
  </g>
</svg>
