<?xml version="1.0" encoding="UTF-8" standalone="no"?>
<svg
   id="SvgjsSvg1001"
   width="267.99265"
   height="207.61731"
   version="1.1"
   sodipodi:docname="about-vec.svg"
   inkscape:version="1.1 (c68e22c387, 2021-05-23)"
   xmlns:inkscape="http://www.inkscape.org/namespaces/inkscape"
   xmlns:sodipodi="http://sodipodi.sourceforge.net/DTD/sodipodi-0.dtd"
   xmlns="http://www.w3.org/2000/svg"
   xmlns:svg="http://www.w3.org/2000/svg">
  <sodipodi:namedview
     id="namedview373"
     pagecolor="#ffffff"
     bordercolor="#666666"
     borderopacity="1.0"
     inkscape:pageshadow="2"
     inkscape:pageopacity="0.0"
     inkscape:pagecheckerboard="0"
     showgrid="false"
     width="267.99265px"
     height="208.61731px"
     inkscape:zoom="2.9305556"
     inkscape:cx="127.45024"
     inkscape:cy="107.48815"
     inkscape:window-width="1920"
     inkscape:window-height="1052"
     inkscape:window-x="-8"
     inkscape:window-y="-8"
     inkscape:window-maximized="1"
     inkscape:current-layer="svg369" />
  <defs
     id="SvgjsDefs1002" />
  <g
     id="SvgjsG1008"
     transform="translate(0,-36.694243)">
    <svg
       width="288"
       height="288"
       viewBox="0 0 666.667 496.813"
       version="1.1"
       id="svg369">
      <g
         transform="matrix(0.13333,0,0,-0.13333,-41.074271,474.69608)"
         fill="#000000"
         class="color000 svgShape"
         id="g367">
        <path
           fill="#e7e8e5"
           d="M 5000,449.129 H 0 v 2.5 h 5000 v -2.5 M 855.813,353.898 H 524.59 v 2.5 h 331.223 v -2.5 m 942.517,27.141 h -263.89 v 2.5 h 263.89 v -2.5 M 1358.89,294.871 H 899.652 v 2.5 h 459.238 v -2.5 M 4499.01,277.84 h -215.96 v 2.5 h 215.96 v -2.5 m -264.57,0 h -319.72 v 2.5 h 319.72 v -2.5 m -911.11,42.219 h -551.2 v 2.5 h 551.2 v -2.5 M 439.148,3723.59 c -30.093,0 -54.578,-24.49 -54.578,-54.57 V 954.699 c 0,-30.097 24.485,-54.578 54.578,-54.578 H 2370.14 c 30.08,0 54.57,24.481 54.57,54.578 V 3669.02 c 0,30.08 -24.49,54.57 -54.57,54.57 z M 2370.14,897.621 H 439.148 c -31.472,0 -57.078,25.598 -57.078,57.078 V 3669.02 c 0,31.46 25.606,57.07 57.078,57.07 H 2370.14 c 31.46,0 57.07,-25.61 57.07,-57.07 V 954.699 c 0,-31.48 -25.61,-57.078 -57.07,-57.078 m 231.98,2825.969 c -30.09,0 -54.57,-24.49 -54.57,-54.57 V 954.699 c 0,-30.097 24.48,-54.578 54.57,-54.578 h 1930.99 c 30.09,0 54.58,24.481 54.58,54.578 V 3669.02 c 0,30.08 -24.49,54.57 -54.58,54.57 z M 4533.11,897.621 H 2602.12 c -31.47,0 -57.07,25.598 -57.07,57.078 V 3669.02 c 0,31.46 25.6,57.07 57.07,57.07 h 1930.99 c 31.47,0 57.08,-25.61 57.08,-57.07 V 954.699 c 0,-31.48 -25.61,-57.078 -57.08,-57.078"
           class="colore7e8e5 svgShape"
           id="path193" />
        <path
           fill="#e2e2e0"
           d="m 775.258,2114.27 h 2117.88 V 3420.81 H 775.258 Z"
           class="colore2e2e0 svgShape"
           id="path195" />
        <path
           fill="#ededeb"
           d="m 800.684,2114.27 h 2146.87 V 3420.81 H 800.684 Z"
           class="colorededeb svgShape"
           id="path197" />
        <path
           fill="#e2e2e0"
           d="M 2893.14,2114.27 H 775.258 V 2013.16 H 2893.14 v 101.11"
           class="colore2e2e0 svgShape"
           id="path199" />
        <path
           fill="#ededeb"
           d="M 3038.19,2114.27 H 891.328 V 2013.16 H 3038.19 v 101.11"
           class="colorededeb svgShape"
           id="path201" />
        <path
           fill="#fafaf9"
           d="m 876.855,2190.44 h 1994.52 v 1154.2 H 876.855 Z"
           class="colorfafaf9 svgShape"
           id="path203" />
        <path
           fill="#ffffff"
           d="m 1023.28,2190.44 447.09,1154.2 h 211.05 l -447.09,-1154.2 h -211.05 m 256.39,0 447.09,1154.2 h 82.28 l -447.09,-1154.2 h -82.28 m 782.21,0 447.08,1154.2 h 82.29 l -447.09,-1154.2 h -82.28"
           class="colorfff svgShape"
           id="path205" />
        <path
           fill="#e2e2e0"
           d="m 2861.7,2190.44 h 9.6797 v 1154.2 H 2861.7 Z M 3064.97,451.629 h -374.59 v 994.601 h 374.59 V 451.629"
           class="colore2e2e0 svgShape"
           id="path207" />
        <path
           fill="#ededeb"
           d="m 2993.82,451.629 h 71.15 v 227.769 h -145.75 l 74.6,-227.769"
           class="colorededeb svgShape"
           id="path209" />
        <path
           fill="#e2e2e0"
           d="M 927.691,451.629 H 553.105 V 1446.23 H 927.691 V 451.629"
           class="colore2e2e0 svgShape"
           id="path211" />
        <path
           fill="#ededeb"
           d="m 865.602,487.629 h 2199.37 v 958.602 H 865.602 Z"
           class="colorededeb svgShape"
           id="path213" />
        <path
           fill="#ededeb"
           d="m 936.742,451.629 h -71.14 V 679.398 H 1011.34 L 936.742,451.629"
           class="colorededeb svgShape"
           id="path215" />
        <path
           fill="#fafaf9"
           d="M 1590.7,1313.15 V 630.16 c 0,-13.328 -10.8,-24.14 -24.13,-24.14 H 962.867 c -13.324,0 -24.133,10.812 -24.133,24.14 v 682.99 c 0,13.33 10.809,24.13 24.133,24.13 h 603.703 c 13.33,0 24.13,-10.8 24.13,-24.13"
           class="colorfafaf9 svgShape"
           id="path217" />
        <path
           fill="#ededeb"
           d="m 1329.2,1262.37 h -128.99 c -56.02,0 -109.58,33.38 -148.12,92.3 h 425.23 c -38.53,-58.92 -92.1,-92.3 -148.12,-92.3"
           class="colorededeb svgShape"
           id="path219" />
        <path
           fill="#fafaf9"
           d="M 2291.27,1313.14 V 630.16 c 0,-13.328 -10.81,-24.14 -24.13,-24.14 h -603.7 c -13.33,0 -24.13,10.812 -24.13,24.14 v 682.98 c 0,13.34 10.8,24.14 24.13,24.14 h 603.7 c 13.32,0 24.13,-10.8 24.13,-24.14"
           class="colorfafaf9 svgShape"
           id="path221" />
        <path
           fill="#ededeb"
           d="m 2036.36,1262.37 h -128.99 c -56.02,0 -109.58,33.38 -148.12,92.3 h 425.23 c -38.53,-58.92 -92.09,-92.3 -148.12,-92.3"
           class="colorededeb svgShape"
           id="path223" />
        <path
           fill="#fafaf9"
           d="M 2991.84,1313.15 V 630.16 c 0,-13.328 -10.8,-24.14 -24.13,-24.14 h -603.7 c -13.33,0 -24.14,10.812 -24.14,24.14 v 682.99 c 0,13.33 10.81,24.13 24.14,24.13 h 603.7 c 13.33,0 24.13,-10.8 24.13,-24.13"
           class="colorfafaf9 svgShape"
           id="path225" />
        <path
           fill="#ededeb"
           d="m 2736.93,1262.37 h -128.99 c -56.02,0 -109.58,33.38 -148.12,92.3 h 425.23 c -38.53,-58.92 -92.1,-92.3 -148.12,-92.3 m 1877.76,281.41 c -0.96,4.66 -5.03,7.98 -9.83,7.98 h -260.71 c -4.73,0 -8.87,-3.32 -9.76,-7.98 L 4199.46,451.629 h 20.46 l 132.42,1080.121 h 244.4 L 4729.17,451.629 h 20.45 L 4614.69,1543.78"
           class="colorededeb svgShape"
           id="path227" />
        <path
           fill="#ededeb"
           d="m 4222.43,1543.78 c -0.96,4.66 -5.1,7.98 -9.82,7.98 h -260.72 c -4.81,0 -8.86,-3.32 -9.82,-7.98 L 3807.13,451.629 h 20.45 l 132.51,1080.121 h 244.32 L 4336.83,451.629 h 20.46 L 4222.43,1543.78"
           class="colorededeb svgShape"
           id="path229" />
        <path
           fill="#ededeb"
           d="m 4409.51,1541.77 h -449.04 c -85.72,0 -133.22,58.29 -157.45,154.28 l -11.93,54.89 c -9.79,45.11 6.97,92.97 45,119.1 18.44,12.68 40.78,20.1 64.88,20.1 h 281.49 c 58.32,0 73.7,-13.88 113.97,-101.72 40.27,-87.83 113.08,-246.65 113.08,-246.65"
           class="colorededeb svgShape"
           id="path231" />
        <path
           fill="#ededeb"
           d="m 4604.03,1627.81 h -439.42 v -86.04 h 478.5 c 12.39,0 22.43,10.04 22.43,22.42 v 2.12 c 0,33.96 -27.54,61.5 -61.51,61.5 m -574.36,-84.03 c -0.96,4.66 -5.02,7.98 -9.83,7.98 h -260.71 c -4.73,0 -8.87,-3.32 -9.75,-7.98 L 3614.44,451.629 h 20.46 l 132.43,1080.121 h 244.39 L 4144.15,451.629 h 20.46 L 4029.67,1543.78"
           class="colorededeb svgShape"
           id="path233" />
        <path
           fill="#ededeb"
           d="m 3637.41,1543.78 c -0.96,4.66 -5.1,7.98 -9.82,7.98 h -260.72 c -4.8,0 -8.86,-3.32 -9.82,-7.98 L 3222.11,451.629 h 20.46 l 132.5,1080.121 h 244.32 L 3751.82,451.629 h 20.46 L 3637.41,1543.78"
           class="colorededeb svgShape"
           id="path235" />
        <path
           fill="#ededeb"
           d="m 3824.49,1541.77 h -449.03 c -85.73,0 -133.22,58.29 -157.45,154.28 l -11.93,54.89 c -9.8,45.11 6.96,92.97 45,119.1 18.44,12.68 40.78,20.1 64.87,20.1 h 281.49 c 58.33,0 73.7,-13.88 113.97,-101.72 40.27,-87.83 113.08,-246.65 113.08,-246.65"
           class="colorededeb svgShape"
           id="path237" />
        <path
           fill="#ededeb"
           d="m 4019.02,1627.81 h -439.43 v -86.04 h 478.51 c 12.38,0 22.42,10.04 22.42,22.42 v 2.12 c 0,33.96 -27.54,61.5 -61.5,61.5 m 272.96,940.85 h -776.7 v 905.79 h 776.7 v -905.79"
           class="colorededeb svgShape"
           id="path239" />
        <path
           fill="#f3f2f1"
           d="m 4357.29,2568.66 h -830.3 v 905.79 h 830.3 v -905.79"
           class="colorf3f2f1 svgShape"
           id="path241" />
        <path
           fill="#ffffff"
           d="m 3598.37,2640.05 v 763.02 h 687.54 v -763.02 h -687.54"
           class="colorfff svgShape"
           id="path243" />
        <path
           fill="#e2e2e0"
           d="m 3886.83,3077.3 h 110.63 v -343.52 h -110.63 v 343.52 m 188.09,-182.7 h 110.64 v -160.82 h -110.64 v 160.82"
           class="colore2e2e0 svgShape"
           id="path245" />
        <path
           fill="#ededeb"
           d="m 4074.92,2894.6 h 110.64 v 98.07 h -110.64 v -98.07 m -188.09,182.7 h 110.63 v 209.46 H 3886.83 V 3077.3"
           class="colorededeb svgShape"
           id="path247" />
        <path
           fill="#e2e2e0"
           d="m 3698.73,3014.75 h 110.64 v -280.97 h -110.64 v 280.97"
           class="colore2e2e0 svgShape"
           id="path249" />
        <path
           fill="#ededeb"
           d="m 3698.73,3014.75 h 110.64 v 128.79 h -110.64 v -128.79"
           class="colorededeb svgShape"
           id="path251" />
        <path
           fill="#f3f2f1"
           d="M 4438.89,113.23 C 4438.89,50.6914 3570.83,0 2500,0 1429.18,0 561.109,50.6914 561.109,113.23 c 0,62.54 868.071,113.239 1938.891,113.239 1070.83,0 1938.89,-50.699 1938.89,-113.239"
           class="colorf3f2f1 svgShape"
           id="path253" />
        <path
           fill="#fbbc88"
           d="m 2463.68,206.012 88.56,-0.782 47.13,205.079 -88.56,0.793 -47.13,-205.09"
           class="colorf46b74 svgShape"
           id="path255" />
        <path
           fill="#17282f"
           d="m 2554.44,215.5 -96.8,0.852 c -3.63,0.027 -6.96,-2.461 -8.01,-5.993 l -23.4,-78.589 c -2.42,-8.149 3.2,-15.938 11.58,-15.872 34.96,0.282 85.57,1.883 129.47,1.5 51.31,-0.449 61.89,-3.628 122.08,-4.168 36.38,-0.308 49.23,36.372 34.25,39.84 -68.21,15.758 -91.17,17.891 -148.33,55.34 -6.21,4.07 -13.19,7.02 -20.84,7.09"
           class="color17282f svgShape"
           id="path257" />
        <path
           fill="#c3c5c2"
           d="m 2486.5,305.332 h -0.04 l 10.58,46.027 h 0.04 l -10.58,-46.027"
           class="colorc3c5c2 svgShape"
           id="path259" />
        <path
           fill="#fbbc88"
           d="m 2575.06,304.551 -88.56,0.781 10.58,46.027 88.32,-1.757 -10.34,-45.051"
           class="colorea5b5b svgShape"
           id="path261" />
        <path
           fill="#406fbf"
           d="m 2569.8,206 c 19.19,-3.379 33.78,-2.648 39.64,2.109 2.12,1.723 3.15,3.961 3.14,6.852 0,1.289 -0.5,1.789 -1.01,2.098 -5.46,3.402 -26.51,-4.168 -41.77,-11.059 z m 21.24,-6.32 c -9.98,0 -20.8,1.82 -28.39,3.429 l -1.65,1.782 1.16,2.148 c 4.21,2.063 41.45,19.93 51.63,13.59 1.96,-1.219 2.99,-3.18 3,-5.66 0,-4.188 -1.58,-7.59 -4.71,-10.129 -4.75,-3.852 -12.59,-5.16 -21.04,-5.16"
           class="color406fbf svgShape"
           id="path263" />
        <path
           fill="#406fbf"
           d="m 2587.3,238.781 c -12.7,0 -19.07,-20.711 -21.25,-29.789 11.69,6.617 27.23,21.656 26.36,27.598 -0.07,0.422 -0.26,1.719 -3.77,2.109 z m -24.21,-35.722 -1.31,0.453 -0.76,2 c 0.27,1.617 6.97,39.73 28.08,37.367 5.57,-0.617 7.13,-3.43 7.46,-5.68 1.47,-9.949 -21.29,-29.14 -32.65,-33.98 l -0.82,-0.16"
           class="color406fbf svgShape"
           id="path265" />
        <path
           fill="#fbbc88"
           d="m 2999.82,2629.35 c 1.31,-53.95 3.17,-109.91 5.77,-164.6 1.18,-27.45 2.73,-54.86 4.63,-82.06 1.73,-27.25 4.1,-54.31 7.04,-80.96 1.35,-13.38 2.91,-26.62 4.81,-39.65 l 1.33,-9.83 c 0.11,-0.81 0.09,-0.71 0.05,-0.61 -0.02,0.05 -0.04,0.1 -0.05,0.02 l -0.19,0.04 -0.27,-0.03 c -0.33,-0.17 -0.36,-1.07 0.42,-2.89 1.55,-3.67 6.88,-9.82 14.52,-15.62 7.66,-5.8 17.15,-11.9 27.62,-17.33 42.3,-22 96.03,-38.15 147,-52.5 l -5.41,-67.69 c -30.9,-1.85 -59.88,-1.08 -90.12,1.97 -15.05,1.42 -30.13,3.63 -45.37,6.55 -15.28,2.82 -30.66,6.56 -46.3,11.62 -15.62,5.07 -31.67,11.08 -47.93,20.13 -16.2,9.07 -33.31,20.63 -49.14,39.2 -7.83,9.31 -14.99,20.72 -20.28,33.72 -1.36,3.19 -2.44,6.64 -3.56,9.99 l -1.42,5.18 -1.13,4.57 -2.39,10.94 c -3.33,14.64 -6.21,29.18 -8.86,43.67 -10.54,58.09 -16.85,115.53 -21.61,173.02 -1.99,28.73 -4.07,57.42 -4.87,86.13 -0.91,28.89 -1.88,57.07 -1.39,86.78 l 137.1,0.24"
           class="colorf46b74 svgShape"
           id="path267" />
        <path
           fill="#406fbf"
           d="m 2831.14,2622.54 c -12.61,-100.49 10.53,-248.89 10.53,-248.89 0,0 70.11,-9.94 124.55,4.33 54.44,14.26 65.99,25.14 65.99,25.14 0,0 22.23,101.58 1.57,209.32 -21.86,113.49 -113.05,156.56 -176.13,87.25 -14.19,-15.64 -22.32,-43.75 -26.51,-77.15"
           class="color406fbf svgShape"
           id="path269" />
        <path
           fill="#fbbc88"
           d="m 2938.66,2372.77 0.01,0.01 c 6.42,0.81 12.81,1.86 19.07,3.19 0,-0.01 0,-0.01 0,-0.02 -6.26,-1.33 -12.66,-2.37 -19.08,-3.18"
           class="colorea5b5b svgShape"
           id="path271" />
        <path
           fill="#3563b7"
           d="m 2938.67,2372.78 c 7.59,38.63 13.22,74.38 17.35,107.09 2.71,-13.31 4.17,-27.78 4.17,-43.25 0.11,-21.14 -0.85,-41.53 -2.45,-60.65 -6.26,-1.33 -12.65,-2.38 -19.07,-3.19"
           class="color3563b7 svgShape"
           id="path273" />
        <path
           fill="#fbbc88"
           d="m 3181.77,2167.87 69.37,4.59 -3.46,-87.83 c 0,0 -43.34,-8.41 -85.99,26.98 l 20.08,56.26 m 139.9,-36.02 -12.85,-36.36 c -3.55,-10.04 -13.56,-16.29 -24.13,-15.09 l -37.01,4.23 3.46,87.83 53.44,-10.58 c 13.66,-2.71 21.74,-16.91 17.09,-30.03"
           class="colorf46b74 svgShape"
           id="path275" />
        <path
           fill="#17282f"
           d="m 3231.22,2076.29 -22.47,12.52 c -5.69,3.17 -7.75,10.43 -4.58,16.11 l 50.13,89.97 c 3.17,5.7 10.42,7.76 16.11,4.58 l 22.47,-12.52 c 5.69,-3.17 7.75,-10.42 4.59,-16.11 l -50.14,-89.97 c -3.16,-5.69 -10.42,-7.75 -16.11,-4.58"
           class="color17282f svgShape"
           id="path277" />
        <path
           fill="#17282f"
           d="m 3224.04,2041.51 -41.09,22.9 c -3.08,1.71 -4.18,5.6 -2.46,8.69 l 20.05,35.99 c 1.72,3.08 5.61,4.18 8.69,2.47 l 41.08,-22.9 c 3.08,-1.71 4.19,-5.6 2.47,-8.68 l -20.06,-35.99 c -1.71,-3.08 -5.6,-4.19 -8.68,-2.48 m 132.35,410.74 c -46.42,0 -92.2,-25.38 -117.04,-69.96 -35.94,-64.52 -14.63,-145.15 47.49,-179.77 62.12,-34.57 141.9,-10.29 177.85,54.2 35.93,64.5 14.63,145.15 -47.49,179.77 -19.19,10.68 -40.07,15.76 -60.81,15.76 z m -8.79,-286.8 c -24.25,0 -48.67,5.94 -71.14,18.46 -72.39,40.33 -97.39,133.97 -55.73,208.75 41.64,74.76 134.43,102.8 206.84,62.44 72.39,-40.33 97.39,-133.99 55.73,-208.75 -28.73,-51.57 -81.79,-80.9 -135.7,-80.9 m -533.26,-192.7 c 0,0 45.37,-500.39 32.2,-773.5 C 2832.84,915.172 2631.6,356.07 2631.6,356.07 l -160.07,3.391 c 0,0 109.7,616.23 106.95,898.499 -3.01,307.71 -31.29,768.64 -31.29,768.64 l 267.15,-53.85"
           class="color17282f svgShape"
           id="path279" />
        <path
           fill="#c3c5c2"
           d="m 2573.8,1462.74 c -1.14,35.82 -2.44,71.92 -3.84,107.63 0.01,0.02 0.01,0.04 0.01,0.06 1.41,-35.7 2.72,-71.8 3.88,-107.62 -0.01,-0.02 -0.03,-0.05 -0.05,-0.07"
           class="colorc3c5c2 svgShape"
           id="path281" />
        <path
           fill="#111d23"
           d="m 2573.85,1462.81 c -1.16,35.82 -2.47,71.92 -3.88,107.62 20.76,105.28 40.37,208.96 55.21,288.68 34.41,-96.61 16.2,-293.59 -51.33,-396.3"
           class="color111d23 svgShape"
           id="path283" />
        <path
           fill="#406fbf"
           d="m 2451.86,352.27 188.23,-3.758 20.14,62.527 -196.55,0.453 -11.82,-59.222"
           class="color406fbf svgShape"
           id="path285" />
        <path
           fill="#7da6dd"
           d="m 2640.09,348.512 -54.69,1.09 -88.32,1.757 -45.22,0.911 11.82,59.222 196.55,-0.453 -20.14,-62.527"
           class="color7da6dd svgShape"
           id="path287" />
        <path
           fill="#fbbc88"
           d="m 1800.68,554.422 67.04,-57.992 151.25,140.59 -67.04,58 -151.25,-140.598"
           class="colorf46b74 svgShape"
           id="path289" />
        <path
           fill="#17282f"
           d="m 1873.59,493.59 -50.55,82.57 c -1.89,3.09 -5.76,4.59 -9.31,3.621 l -79.07,-21.769 c -8.19,-2.262 -11.82,-11.153 -7.33,-18.223 18.76,-29.519 46.93,-71.598 69.85,-109.027 26.79,-43.774 26.66,-43.032 58.08,-94.364 19.01,-31.046 56.93,-22.519 51.93,-7.968 -22.75,66.211 -30.08,75.422 -28.58,143.742 0.16,7.418 -1.03,14.898 -5.02,21.418"
           class="color17282f svgShape"
           id="path291" />
        <path
           fill="#bfc0be"
           d="m 1873.93,622.512 -0.03,0.027 27.31,25.391 0.03,-0.032 -27.31,-25.386"
           class="colorbfc0be svgShape"
           id="path293" />
        <path
           fill="#fbbc88"
           d="m 1940.97,564.512 -67.04,58 27.31,25.386 65.91,-59.039 -22.28,-20.718 -3.9,-3.629"
           class="colorea5b5b svgShape"
           id="path295" />
        <path
           fill="#406fbf"
           d="m 1873.66,475.531 c 7.3,-18.062 15.65,-30.051 22.78,-32.5 2.59,-0.89 5.03,-0.582 7.49,0.961 1.09,0.688 1.24,1.379 1.24,1.969 0,6.43 -17.58,20.281 -31.51,29.57 z m 5.89,-21.351 c -5.28,8.461 -9.47,18.601 -12.13,25.89 l 0.65,2.34 2.44,0.16 c 3.97,-2.48 38.86,-24.609 38.86,-36.609 0,-2.301 -1.11,-4.211 -3.21,-5.531 -3.55,-2.219 -7.28,-2.68 -11.08,-1.379 -5.79,2 -11.05,7.949 -15.53,15.129"
           class="color406fbf svgShape"
           id="path297" />
        <path
           fill="#406fbf"
           d="m 1910.74,478.051 c -6.73,10.769 -27.67,5.211 -36.53,2.25 11.81,-6.41 32.8,-11.629 37.38,-7.742 0.33,0.281 1.33,1.132 -0.21,4.32 z m -43.13,1.629 -0.3,1.34 1.29,1.71 c 1.52,0.622 37.39,15.122 46.57,-4.039 2.42,-5.05 0.87,-7.859 -0.86,-9.332 -7.67,-6.519 -36,2.621 -46.12,9.7 l -0.58,0.621"
           class="color406fbf svgShape"
           id="path299" />
        <path
           fill="#17282f"
           d="m 2652.06,2005.47 c 0,0 -84.28,-468.46 -144.62,-735.15 -62.77,-277.398 -498.48,-696 -498.48,-696 L 1889.2,680.59 c 0,0 318.16,415.59 364.41,694.05 50.43,303.56 95.94,691.81 95.94,691.81 l 302.51,-60.98"
           class="color17282f svgShape"
           id="path301" />
        <path
           fill="#406fbf"
           d="m 1865.16,680.23 136.79,-122.539 46.47,39.09 -144.32,138.707 -38.94,-55.258"
           class="color406fbf svgShape"
           id="path303" />
        <path
           fill="#7da6dd"
           d="m 2001.95,557.691 -34.8,31.168 -65.91,59.039 -36.08,32.332 38.94,55.258 144.32,-138.707 -46.47,-39.09"
           class="color7da6dd svgShape"
           id="path305" />
        <path
           fill="#406fbf"
           d="m 2960.6,2724.89 c 0,0 49.67,-283.08 -146.26,-752.14 -140.05,28.24 -396.65,79.96 -464.79,93.7 11.17,71.99 126.16,411 125.11,761.06 0,0 82.9,-0.07 159.55,-11.72 59.97,-9.11 146.34,-24.54 197.59,-39.83 67.56,-20.16 128.8,-51.07 128.8,-51.07"
           class="color406fbf svgShape"
           id="path307" />
        <path
           fill="#3a69bb"
           d="m 2745.88,2282.96 c -2.08,0 -4.15,0.07 -6.24,0.21 -21.88,1.5 -42.86,10.73 -60.7,26.6 l 19.36,37.77 v 0 c 13.04,-11.64 28.42,-18.37 44.41,-19.46 1.54,-0.11 3.08,-0.16 4.61,-0.16 47.98,0 90.28,51.07 94.66,116.01 v 0 0 l 33.47,-2.3 c -6.05,-88.8 -63.88,-158.67 -129.57,-158.67"
           class="color3a69bb svgShape"
           id="path309" />
        <path
           fill="#90b4e3"
           d="m 2875.45,2441.63 v 0 0 l -33.47,2.3 c 1.18,17.78 -0.53,35.56 -5.07,52.14 -4.53,16.57 -11.67,31.43 -21.14,43.48 l 23.89,32.96 v 0 c 12.89,-16.57 22.7,-36.96 28.94,-59.56 6.14,-22.6 8.48,-46.9 6.85,-71.32"
           class="color90b4e3 svgShape"
           id="path311" />
        <path
           fill="#3161b6"
           d="m 2815.77,2539.55 c -7.47,9.74 -16.24,17.57 -25.88,23.1 -9.64,5.51 -20.06,8.73 -30.65,9.53 l 3.06,44.9 v 0 c 14.49,-1.01 28.66,-5.42 41.89,-13.05 13.23,-7.53 25.23,-18.27 35.47,-31.52 l -23.89,-32.96 v 0"
           class="color3161b6 svgShape"
           id="path313" />
        <path
           fill="#5d87cd"
           d="m 2678.94,2309.77 c -36.51,32.43 -56.56,89.27 -52.45,148.84 6.05,88.81 63.8,158.68 129.58,158.68 2.07,0 4.14,-0.07 6.23,-0.21 l -3.06,-44.9 v 0 c -1.54,0.1 -3.08,0.15 -4.6,0.15 -48.08,0 -90.3,-51.07 -94.68,-116.01 -2.94,-43.5 11.64,-85.08 38.34,-108.78 l -19.36,-37.77 v 0"
           class="color5d87cd svgShape"
           id="path315" />
        <path
           fill="#3563b7"
           d="m 2445.88,2494.84 c 5.46,33.4 10.43,67.88 14.67,103.1 l 71.48,62.68 c 5.66,-52.5 -47.31,-147.77 -86.15,-165.78"
           class="color3563b7 svgShape"
           id="path317" />
        <path
           fill="#fbbc88"
           d="m 2698.64,3034.32 c -0.35,-66.09 -11.39,-185.07 -64.43,-218.53 0,0 17.85,-73.5 154.66,-123.5 67.1,29.67 42.93,83.67 42.93,83.67 -67.48,31.22 -55.05,83.45 -32.75,130.35 l -100.41,128.01"
           class="colorf46b74 svgShape"
           id="path319" />
        <path
           fill="#bfc0be"
           d="m 2785.85,2872.54 c -0.01,0 -0.02,0.01 -0.02,0.01 0.24,0.84 0.49,1.7 0.75,2.55 -0.25,-0.85 -0.49,-1.71 -0.73,-2.56 m 13.15,33.83 -16.06,20.49 16.07,-20.48 c 0,0 0,0 -0.01,-0.01"
           class="colorbfc0be svgShape"
           id="path321" />
        <path
           fill="#fbbc88"
           d="m 2785.83,2872.55 c -26.29,9.38 -57.49,46.6 -54.64,75.53 1.41,14.42 4.75,27.9 8.38,34.02 l 43.37,-55.24 16.06,-20.49 c -4.91,-10.26 -9.3,-20.77 -12.42,-31.27 -0.26,-0.85 -0.51,-1.71 -0.75,-2.55"
           class="colorea5b5b svgShape"
           id="path323" />
        <path
           fill="#17282f"
           d="m 2894.32,3053.55 c 12.34,30.12 14.2,64.35 -9.8,87.23 1.44,19.58 16.27,42.75 36.73,60.64 29.38,16.29 88.39,-97.16 -26.93,-147.87"
           class="color17282f svgShape"
           id="path325" />
        <path
           fill="#17282f"
           d="m 2928.98,3150.62 c -5.37,0 -9.81,4.26 -9.98,9.67 -0.18,5.51 4.13,10.12 9.62,10.32 1.94,0.09 47.58,2.61 62.3,55.99 1.46,5.33 6.96,8.46 12.29,6.99 5.33,-1.47 8.45,-6.98 6.99,-12.3 -14.98,-54.33 -59.46,-69.98 -80.88,-70.66 l -0.34,-0.01"
           class="color17282f svgShape"
           id="path327" />
        <path
           fill="#fbbc88"
           d="m 2710.36,3131.52 c -12.06,-87.15 -23.56,-137.54 11.01,-190.49 52,-79.64 166.21,-61.64 204.07,20.14 34.08,73.63 48.08,203.77 -29.27,255.01 -76.21,50.49 -173.74,2.48 -185.81,-84.66"
           class="colorf46b74 svgShape"
           id="path329" />
        <path
           fill="#17282f"
           d="m 2707.5,3054.37 c 12.57,-0.5 22.38,-1.92 29.94,-3.65 10.6,-2.42 20.49,6.25 19.67,17.09 -1.61,21.28 4.14,43 23.72,52.42 3.06,12.5 -1.51,29.95 -10.66,45.24 -4.68,7.8 3.15,17.08 11.64,13.78 43.37,-16.84 108.85,-43.28 141.79,-26.13 42.66,22.2 91.63,101.44 27.05,106.85 -30.83,2.59 -27.32,20.23 -50.65,36.07 -23.33,15.83 -79.72,13.92 -123.33,-7.5 -42.41,-20.84 -109.59,18.33 -135.42,-13.34 -18.86,-23.12 -7.04,-55.83 -7.04,-55.83 0,0 -37.13,-5 -43.41,-75.08 -4.7,-52.34 79.35,-151.54 105.52,-162.19 14.93,54.35 11.18,72.27 11.18,72.27"
           class="color17282f svgShape"
           id="path331" />
        <path
           fill="#17282f"
           d="m 2646.34,3194.58 c -4.14,0 -8.01,2.59 -9.45,6.72 -1.56,4.36 -10.72,25.59 -38.22,16.11 -5.22,-1.81 -10.93,0.99 -12.7,6.2 -1.8,5.23 0.97,10.92 6.2,12.71 14.63,5.05 27.89,4.72 39.4,-0.93 17.62,-8.64 23.98,-26.82 24.23,-27.59 1.79,-5.23 -1.01,-10.91 -6.24,-12.68 -1.06,-0.37 -2.16,-0.54 -3.22,-0.54 m 189.74,-113.45 c -1.41,-7 1.16,-13.43 5.74,-14.36 4.58,-0.92 9.44,4.01 10.85,11.02 1.41,7.01 -1.16,13.44 -5.74,14.37 -4.58,0.92 -9.44,-4.02 -10.85,-11.03 m 79.23,-15.96 c -1.42,-7.01 1.15,-13.44 5.73,-14.37 4.59,-0.92 9.44,4.02 10.86,11.02 1.41,7.01 -1.16,13.45 -5.74,14.36 -4.58,0.93 -9.44,-4 -10.85,-11.01"
           class="color17282f svgShape"
           id="path333" />
        <path
           fill="#fbbc88"
           d="m 2889.41,3066.76 c 0,0 7.79,-43.65 21.41,-66.7 -14.74,-9.07 -34.76,0.47 -34.76,0.47 l 13.35,66.23"
           class="colorf14358 svgShape"
           id="path335" />
        <path
           fill="#17282f"
           d="m 2851.79,2985.29 h -0.05 c -32.98,6.64 -43.53,32.31 -43.97,33.39 -0.42,1.08 0.1,2.3 1.18,2.73 1.07,0.43 2.3,-0.1 2.72,-1.18 0.1,-0.24 10.23,-24.64 40.9,-30.82 1.14,-0.23 1.87,-1.34 1.64,-2.48 -0.22,-1.12 -1.3,-1.85 -2.42,-1.64 m 2.46,136.04 c 0.74,-0.55 1.3,-1.33 1.57,-2.28 0.61,-2.23 -0.7,-4.54 -2.94,-5.16 -22.39,-6.16 -37.06,6.51 -37.67,7.05 -1.74,1.54 -1.9,4.2 -0.37,5.93 1.54,1.74 4.2,1.87 5.91,0.38 0.49,-0.42 12.03,-10.19 29.9,-5.26 1.29,0.35 2.6,0.07 3.6,-0.66 m 105.71,-19.45 c -1.59,-0.02 -3.12,0.87 -3.85,2.4 -8.02,16.92 -23.33,19.17 -23.48,19.2 -2.3,0.3 -3.91,2.42 -3.6,4.72 0.32,2.3 2.47,3.9 4.72,3.6 0.82,-0.11 20,-2.93 29.96,-23.93 0.99,-2.09 0.09,-4.6 -2,-5.59 l -1.75,-0.4"
           class="color17282f svgShape"
           id="path337" />
        <path
           fill="#fbbc88"
           d="m 2544.88,2673.05 c -20.8,-21.74 -43.32,-44.99 -64.41,-68.12 -21.27,-23.28 -42.65,-46.49 -63.24,-70.2 -41.3,-47.22 -81.27,-95.57 -116.07,-145.27 l -12.59,-18.24 c -2.52,-3.51 -4.72,-7.36 -6.64,-11.61 -3.82,-8.46 -6.91,-18.46 -8.43,-29.85 -2.95,-22.85 -1.05,-50.23 4.76,-78.09 11.19,-55.88 35.24,-115.21 61.35,-169.73 l -55.68,-38.87 c -12.06,13.93 -22.11,26.92 -32.27,41.02 -9.86,14.03 -19.53,28.28 -28.32,43.19 -17.83,29.7 -33.52,61.25 -45.85,95.61 -11.93,34.4 -21.2,71.89 -20.44,113.96 0.47,20.94 3.42,43.16 10.87,65.14 3.69,10.97 8.43,21.85 14.24,32.26 l 13.32,22.93 c 8.67,15.1 18,29.28 27.27,43.73 9.6,14 19.06,28.24 29.04,41.82 19.52,27.67 40.35,53.96 61.41,79.99 21.15,25.94 42.98,51.14 65.51,75.7 22.83,24.6 44.93,48.46 70.12,72.47 l 96.05,-97.84"
           class="colorf46b74 svgShape"
           id="path339" />
        <path
           fill="#406fbf"
           d="m 2474.66,2827.51 c -84.69,-3.08 -210.73,-236.76 -210.73,-236.76 16.61,-40.36 89.02,-103.27 127.56,-113.55 0,0 100.76,64.1 155.55,158.95 57.4,99.39 18.35,194.65 -72.38,191.36"
           class="color406fbf svgShape"
           id="path341" />
        <path
           fill="#fbbc88"
           d="m 2317.48,2100.77 93.67,-17.44 -74.78,-84.39 c 0,0 -63.93,28.24 -64.04,62.87 l 45.15,38.96"
           class="colorf46b74 svgShape"
           id="path343" />
        <path
           fill="#fbbc88"
           d="m 2437.81,1994.61 -19.07,-19.58 c -13.57,-13.94 -35.57,-15.08 -50.51,-2.63 l -31.86,26.54 74.78,84.39 29.96,-40.65 c 10.81,-14.67 9.41,-35.01 -3.3,-48.07 m 222.48,1076.46 c -0.59,-23.71 9.82,-45.48 23.48,-59.39 20.55,-20.92 45.38,-6.06 51.86,20.95 5.84,24.32 2.19,64.51 -24.31,75.31 -26.09,10.63 -50.34,-9.74 -51.03,-36.87"
           class="colorf46b74 svgShape"
           id="path345" />
        <path
           fill="#406fbf"
           d="M 920.297,616.73 H 767.422 c -23.516,0 -42.578,19.059 -42.578,42.579 V 928.27 c 0,23.519 19.062,42.582 42.578,42.582 h 152.875 c 23.512,0 42.574,-19.063 42.574,-42.582 V 659.309 c 0,-23.52 -19.062,-42.579 -42.574,-42.579 m 276.023,0 h -152.87 c -23.52,0 -42.58,19.059 -42.58,42.579 v 457.381 c 0,23.52 19.06,42.58 42.58,42.58 h 152.87 c 23.51,0 42.58,-19.06 42.58,-42.58 V 659.309 c 0,-23.52 -19.07,-42.579 -42.58,-42.579 m 276.02,0 h -152.87 c -23.51,0 -42.58,19.059 -42.58,42.579 v 375.631 c 0,23.52 19.07,42.58 42.58,42.58 h 152.87 c 23.52,0 42.58,-19.06 42.58,-42.58 V 659.309 c 0,-23.52 -19.06,-42.579 -42.58,-42.579 m 276.02,0 h -152.87 c -23.51,0 -42.57,19.059 -42.57,42.579 v 492.301 c 0,23.52 19.06,42.58 42.57,42.58 h 152.87 c 23.52,0 42.58,-19.06 42.58,-42.58 V 659.309 c 0,-23.52 -19.06,-42.579 -42.58,-42.579 m 276.03,0 h -152.87 c -23.52,0 -42.58,19.059 -42.58,42.579 v 615.631 c 0,23.52 19.06,42.58 42.58,42.58 h 152.87 c 23.52,0 42.58,-19.06 42.58,-42.58 V 659.309 c 0,-23.52 -19.06,-42.579 -42.58,-42.579 m 276.03,0 h -152.88 c -23.52,0 -42.58,19.059 -42.58,42.579 v 745.631 c 0,23.52 19.06,42.58 42.58,42.58 h 152.88 c 23.51,0 42.57,-19.06 42.57,-42.58 V 659.309 c 0,-23.52 -19.06,-42.579 -42.57,-42.579 m 276.02,0 h -152.88 c -23.51,0 -42.57,19.059 -42.57,42.579 v 548.961 c 0,23.52 19.06,42.58 42.57,42.58 h 152.88 c 23.51,0 42.57,-19.06 42.57,-42.58 V 659.309 c 0,-23.52 -19.06,-42.579 -42.57,-42.579 m 276.02,0 h -152.88 c -23.51,0 -42.57,19.059 -42.57,42.579 v 802.301 c 0,23.52 19.06,42.58 42.57,42.58 h 152.88 c 23.52,0 42.58,-19.06 42.58,-42.58 V 659.309 c 0,-23.52 -19.06,-42.579 -42.58,-42.579 m 276.02,0 h -152.87 c -23.52,0 -42.58,19.059 -42.58,42.579 v 878.961 c 0,23.52 19.06,42.58 42.58,42.58 h 152.87 c 23.52,0 42.58,-19.06 42.58,-42.58 V 659.309 c 0,-23.52 -19.06,-42.579 -42.58,-42.579 m 276.03,0 h -152.87 c -23.52,0 -42.58,19.059 -42.58,42.579 v 832.301 c 0,23.52 19.06,42.58 42.58,42.58 h 152.87 c 23.51,0 42.57,-19.06 42.57,-42.58 V 659.309 c 0,-23.52 -19.06,-42.579 -42.57,-42.579 m 276.02,0 h -152.87 c -23.52,0 -42.58,19.059 -42.58,42.579 V 1764.47 c 0,23.51 19.06,42.57 42.58,42.57 h 152.87 c 23.51,0 42.58,-19.06 42.58,-42.57 V 659.309 c 0,-23.52 -19.07,-42.579 -42.58,-42.579 m 276.02,0 h -152.87 c -23.51,0 -42.58,19.059 -42.58,42.579 v 991.821 c 0,23.52 19.07,42.58 42.58,42.58 h 152.87 c 23.52,0 42.58,-19.06 42.58,-42.58 V 659.309 c 0,-23.52 -19.06,-42.579 -42.58,-42.579 m 276.03,0 H 4079.7 c -23.51,0 -42.57,19.059 -42.57,42.579 V 1927.25 c 0,23.51 19.06,42.58 42.57,42.58 h 152.88 c 23.51,0 42.58,-19.07 42.58,-42.58 V 659.309 c 0,-23.52 -19.07,-42.579 -42.58,-42.579"
           class="color406fbf svgShape"
           id="path347" />
        <path
           fill="#17282f"
           d="m 843.863,813.16 c -1.55,0 -3.066,0.711 -4.05,2.059 -1.625,2.222 -1.129,5.363 1.101,6.98 l 12.129,8.832 c 2.234,1.629 5.355,1.129 6.984,-1.109 1.629,-2.223 1.133,-5.363 -1.097,-6.981 l -12.129,-8.832 c -0.887,-0.64 -1.918,-0.949 -2.938,-0.949 m 1027.017,747.6 c -1.54,0 -3.07,0.72 -4.05,2.06 -1.62,2.23 -1.13,5.35 1.1,6.99 l 24.36,17.73 c 2.23,1.62 5.35,1.13 6.98,-1.1 1.63,-2.23 1.14,-5.36 -1.1,-6.99 l -24.35,-17.73 c -0.89,-0.64 -1.92,-0.96 -2.94,-0.96 z m -64.95,-47.27 c -1.55,0 -3.07,0.71 -4.05,2.06 -1.63,2.22 -1.13,5.36 1.1,6.98 l 24.35,17.72 c 2.24,1.63 5.37,1.14 6.99,-1.1 1.63,-2.23 1.13,-5.36 -1.1,-6.98 l -24.35,-17.73 c -0.89,-0.64 -1.92,-0.95 -2.94,-0.95 z m -64.96,-47.29 c -1.54,0 -3.06,0.71 -4.05,2.06 -1.62,2.23 -1.13,5.36 1.1,6.98 l 24.36,17.74 c 2.24,1.62 5.35,1.13 6.99,-1.1 1.63,-2.23 1.13,-5.36 -1.1,-6.99 l -24.36,-17.73 c -0.89,-0.65 -1.92,-0.96 -2.94,-0.96 z m -64.95,-47.28 c -1.54,0 -3.07,0.71 -4.05,2.06 -1.62,2.22 -1.13,5.35 1.1,6.98 l 24.36,17.73 c 2.23,1.62 5.35,1.15 6.98,-1.1 1.63,-2.23 1.14,-5.35 -1.09,-6.98 l -24.36,-17.74 c -0.89,-0.64 -1.92,-0.95 -2.94,-0.95 z m -64.95,-47.28 c -1.55,0 -3.07,0.71 -4.05,2.06 -1.62,2.23 -1.13,5.36 1.1,6.98 l 24.36,17.73 c 2.24,1.62 5.36,1.13 6.98,-1.1 1.63,-2.23 1.14,-5.37 -1.1,-6.99 l -24.35,-17.72 c -0.89,-0.65 -1.92,-0.96 -2.94,-0.96 z m -64.96,-47.28 c -1.54,0 -3.06,0.71 -4.04,2.06 -1.63,2.22 -1.14,5.35 1.09,6.98 l 24.36,17.73 c 2.24,1.62 5.37,1.14 6.99,-1.1 1.63,-2.23 1.13,-5.36 -1.1,-6.98 l -24.36,-17.74 c -0.89,-0.64 -1.92,-0.95 -2.94,-0.95 z m -64.95,-47.29 c -1.54,0 -3.06,0.71 -4.05,2.06 -1.62,2.23 -1.13,5.35 1.1,6.98 l 24.36,17.74 c 2.23,1.62 5.35,1.13 6.99,-1.11 1.62,-2.22 1.13,-5.35 -1.1,-6.98 l -24.36,-17.73 c -0.89,-0.65 -1.92,-0.96 -2.94,-0.96 z m -64.95,-47.27 c -1.55,0 -3.07,0.71 -4.05,2.06 -1.62,2.22 -1.13,5.36 1.1,6.98 l 24.36,17.72 c 2.23,1.63 5.37,1.14 6.98,-1.1 1.63,-2.23 1.14,-5.36 -1.09,-6.98 l -24.36,-17.73 c -0.89,-0.64 -1.92,-0.95 -2.94,-0.95 z m -64.96,-47.29 c -1.54,0 -3.06,0.71 -4.04,2.06 -1.63,2.23 -1.14,5.36 1.1,6.98 l 24.36,17.74 c 2.24,1.63 5.36,1.13 6.98,-1.11 1.63,-2.22 1.14,-5.36 -1.1,-6.98 l -24.36,-17.73 c -0.88,-0.65 -1.91,-0.96 -2.94,-0.96 z m -64.95,-47.28 c -1.54,0 -3.06,0.71 -4.04,2.06 -1.63,2.22 -1.14,5.35 1.09,6.98 l 24.36,17.73 c 2.23,1.62 5.36,1.14 6.99,-1.1 1.62,-2.23 1.13,-5.35 -1.1,-6.98 l -24.36,-17.74 c -0.89,-0.64 -1.92,-0.95 -2.94,-0.95 z m -64.95,-47.29 c -1.54,0 -3.06,0.71 -4.05,2.06 -1.62,2.23 -1.13,5.35 1.1,6.98 l 24.36,17.74 c 2.23,1.62 5.36,1.13 6.99,-1.11 1.62,-2.22 1.13,-5.35 -1.1,-6.98 l -24.36,-17.73 c -0.89,-0.65 -1.92,-0.96 -2.94,-0.96 z m -64.95,-47.28 c -1.55,0 -3.07,0.72 -4.05,2.07 -1.63,2.22 -1.13,5.36 1.1,6.98 l 24.36,17.72 c 2.22,1.62 5.36,1.14 6.98,-1.1 1.63,-2.23 1.14,-5.36 -1.1,-6.98 l -24.36,-17.73 c -0.88,-0.64 -1.91,-0.96 -2.93,-0.96 z m -64.95,-47.281 c -1.55,0 -3.07,0.711 -4.05,2.062 -1.63,2.231 -1.14,5.349 1.1,6.979 l 24.35,17.74 c 2.24,1.61 5.36,1.14 6.99,-1.11 1.62,-2.22 1.13,-5.35 -1.1,-6.98 l -24.36,-17.73 c -0.88,-0.649 -1.91,-0.961 -2.93,-0.961 z m -64.96,-47.289 c -1.54,0 -3.06,0.719 -4.04,2.07 -1.63,2.219 -1.14,5.352 1.09,6.981 l 24.36,17.73 c 2.23,1.609 5.36,1.141 6.99,-1.101 1.62,-2.231 1.13,-5.348 -1.1,-6.981 l -24.36,-17.738 c -0.89,-0.641 -1.92,-0.961 -2.94,-0.961 z m -64.951,-47.27 c -1.551,0 -3.07,0.711 -4.051,2.059 -1.625,2.23 -1.133,5.363 1.106,6.98 l 24.359,17.731 c 2.227,1.621 5.363,1.129 6.985,-1.11 1.625,-2.218 1.132,-5.359 -1.106,-6.98 l -24.359,-17.719 c -0.883,-0.652 -1.914,-0.961 -2.934,-0.961 z m -64.953,-47.289 c -1.543,0 -3.066,0.719 -4.047,2.059 -1.625,2.23 -1.133,5.359 1.098,6.992 l 24.355,17.727 c 2.238,1.621 5.363,1.132 6.988,-1.098 1.625,-2.231 1.133,-5.352 -1.097,-6.981 l -24.356,-17.738 c -0.89,-0.64 -1.922,-0.961 -2.941,-0.961 M 1935.83,1608.06 c -1.55,0 -3.07,0.71 -4.05,2.06 -1.62,2.22 -1.13,5.36 1.1,6.98 l 12.13,8.83 c 1.21,0.87 2.77,1.17 4.19,0.8 l 14.53,-3.75 c 2.67,-0.69 4.28,-3.42 3.58,-6.09 -0.69,-2.68 -3.43,-4.24 -6.08,-3.6 l -12.24,3.17 -10.22,-7.45 c -0.89,-0.64 -1.92,-0.95 -2.94,-0.95 m 2137.51,309.3 c -1.73,0 -3.42,0.9 -4.34,2.51 -1.37,2.41 -0.54,5.46 1.85,6.83 l 26.17,15 c 2.4,1.38 5.45,0.57 6.83,-1.85 1.37,-2.4 0.54,-5.45 -1.85,-6.82 l -26.17,-15 z m -69.79,-40 c -1.72,0 -3.41,0.9 -4.33,2.51 -1.38,2.41 -0.55,5.46 1.84,6.83 l 26.18,15 c 2.4,1.38 5.45,0.57 6.82,-1.85 1.38,-2.4 0.55,-5.45 -1.84,-6.82 l -26.18,-15 z m -69.78,-40 c -1.73,0 -3.42,0.9 -4.34,2.51 -1.37,2.41 -0.54,5.46 1.85,6.83 l 26.17,15 c 2.39,1.37 5.45,0.57 6.83,-1.85 1.37,-2.4 0.54,-5.45 -1.85,-6.82 l -26.17,-15 z m -69.78,-40 c -1.72,0 -3.41,0.9 -4.33,2.51 -1.38,2.41 -0.55,5.46 1.84,6.83 l 26.17,15 c 2.39,1.38 5.46,0.56 6.82,-1.85 1.38,-2.4 0.55,-5.45 -1.84,-6.82 l -26.17,-15 z m -69.78,-40 c -1.73,0 -3.42,0.9 -4.34,2.51 -1.37,2.41 -0.54,5.46 1.85,6.83 l 26.16,15 c 2.39,1.38 5.46,0.56 6.83,-1.85 1.37,-2.4 0.54,-5.45 -1.85,-6.82 l -26.16,-15 z m -69.79,-40 c -1.72,0 -3.41,0.9 -4.33,2.51 -1.38,2.41 -0.55,5.46 1.84,6.83 l 26.18,15 c 2.39,1.37 5.44,0.57 6.82,-1.85 1.38,-2.4 0.55,-5.45 -1.84,-6.82 l -26.18,-15 z m -69.78,-40 c -1.73,0 -3.42,0.9 -4.34,2.51 -1.37,2.41 -0.54,5.46 1.85,6.83 l 26.17,15 c 2.39,1.38 5.46,0.57 6.83,-1.85 1.37,-2.4 0.54,-5.45 -1.85,-6.82 l -26.17,-15 z m -69.79,-40 c -1.72,0 -3.41,0.9 -4.33,2.51 -1.38,2.41 -0.55,5.46 1.84,6.83 l 26.18,15 c 2.39,1.37 5.44,0.56 6.82,-1.85 1.38,-2.4 0.55,-5.45 -1.84,-6.82 l -26.18,-15 z m -69.78,-40 c -1.73,0 -3.42,0.9 -4.34,2.51 -1.37,2.41 -0.54,5.46 1.85,6.83 l 26.17,15 c 2.39,1.37 5.45,0.57 6.83,-1.85 1.37,-2.4 0.54,-5.45 -1.85,-6.82 l -26.17,-15 z m -1474.71,-4.32 -1.25,0.15 -29.21,7.54 c -2.67,0.7 -4.28,3.42 -3.59,6.1 0.69,2.68 3.42,4.26 6.09,3.59 l 29.21,-7.54 c 2.67,-0.69 4.28,-3.42 3.59,-6.09 -0.59,-2.26 -2.62,-3.75 -4.84,-3.75 z m 77.89,-20.1 -1.26,0.16 -29.21,7.54 c -2.67,0.69 -4.28,3.41 -3.59,6.09 0.7,2.68 3.44,4.26 6.09,3.59 l 29.21,-7.54 c 2.67,-0.69 4.28,-3.41 3.6,-6.09 -0.59,-2.26 -2.62,-3.75 -4.84,-3.75 z m 1327.04,-15.58 c -1.73,0 -3.41,0.9 -4.33,2.51 -1.38,2.41 -0.55,5.46 1.84,6.83 l 26.16,15 c 2.39,1.38 5.45,0.56 6.83,-1.85 1.38,-2.4 0.55,-5.45 -1.84,-6.82 l -26.17,-15 z m -1249.16,-4.52 -1.26,0.16 -29.2,7.54 c -2.68,0.69 -4.28,3.42 -3.59,6.09 0.69,2.69 3.4,4.27 6.09,3.6 l 29.2,-7.54 c 2.68,-0.7 4.29,-3.42 3.6,-6.1 -0.59,-2.25 -2.62,-3.75 -4.84,-3.75 z m 77.88,-20.1 -1.25,0.16 -29.21,7.54 c -2.67,0.69 -4.28,3.42 -3.59,6.09 0.69,2.69 3.41,4.26 6.09,3.6 l 29.21,-7.54 c 2.67,-0.69 4.28,-3.42 3.59,-6.1 -0.58,-2.25 -2.61,-3.75 -4.84,-3.75 z m 1101.5,-15.38 c -1.73,0 -3.42,0.9 -4.34,2.51 -1.38,2.41 -0.54,5.46 1.85,6.83 l 26.16,15 c 2.4,1.37 5.45,0.57 6.83,-1.85 1.37,-2.4 0.54,-5.45 -1.85,-6.82 l -26.16,-15 z m -1023.62,-4.71 -1.25,0.15 -29.2,7.54 c -2.68,0.7 -4.29,3.42 -3.6,6.1 0.7,2.68 3.42,4.25 6.1,3.59 l 29.2,-7.54 c 2.68,-0.69 4.28,-3.42 3.59,-6.09 -0.58,-2.26 -2.61,-3.75 -4.84,-3.75 z m 77.89,-20.1 -1.25,0.16 -29.21,7.53 c -2.67,0.7 -4.29,3.42 -3.59,6.1 0.69,2.68 3.4,4.32 6.09,3.59 l 29.21,-7.54 c 2.67,-0.69 4.28,-3.41 3.59,-6.09 -0.59,-2.26 -2.62,-3.75 -4.84,-3.75 z m 875.94,-15.19 c -1.73,0 -3.42,0.9 -4.33,2.51 -1.38,2.41 -0.55,5.46 1.84,6.83 l 26.17,15 c 2.4,1.38 5.46,0.57 6.83,-1.85 1.38,-2.4 0.55,-5.45 -1.85,-6.82 l -26.17,-15 z m -798.06,-4.91 -1.25,0.16 -29.21,7.54 c -2.67,0.69 -4.28,3.42 -3.59,6.09 0.69,2.69 3.41,4.31 6.09,3.59 l 29.21,-7.53 c 2.67,-0.7 4.27,-3.42 3.59,-6.1 -0.59,-2.25 -2.62,-3.75 -4.84,-3.75 z m 77.88,-20.1 -1.25,0.16 -29.2,7.53 c -2.68,0.69 -4.28,3.42 -3.6,6.09 0.7,2.68 3.39,4.31 6.1,3.6 l 29.2,-7.53 c 2.67,-0.7 4.27,-3.42 3.59,-6.1 -0.59,-2.25 -2.62,-3.75 -4.84,-3.75 z m 650.4,-14.99 c -1.73,0 -3.42,0.9 -4.34,2.51 -1.38,2.41 -0.55,5.46 1.85,6.83 l 26.17,15 c 2.38,1.38 5.46,0.57 6.83,-1.85 1.37,-2.4 0.54,-5.45 -1.85,-6.82 l -26.17,-15 z m -572.52,-5.1 -1.25,0.15 -29.2,7.53 c -2.68,0.7 -4.28,3.42 -3.59,6.1 0.69,2.67 3.38,4.31 6.09,3.59 l 29.2,-7.53 c 2.67,-0.69 4.28,-3.42 3.59,-6.09 -0.58,-2.26 -2.62,-3.75 -4.84,-3.75 z m 77.89,-20.1 -1.25,0.16 -29.21,7.52 c -2.68,0.7 -4.28,3.42 -3.59,6.1 0.69,2.67 3.38,4.26 6.09,3.59 l 29.21,-7.53 c 2.67,-0.69 4.28,-3.42 3.59,-6.09 -0.58,-2.26 -2.61,-3.75 -4.84,-3.75 z m 424.84,-14.8 c -1.73,0 -3.42,0.9 -4.33,2.51 -1.38,2.41 -0.55,5.46 1.84,6.83 l 26.17,15 c 2.41,1.37 5.45,0.57 6.83,-1.85 1.38,-2.4 0.55,-5.45 -1.85,-6.82 l -26.17,-15 z m -346.96,-5.31 -1.25,0.16 -29.21,7.54 c -2.68,0.69 -4.28,3.41 -3.59,6.09 0.69,2.68 3.38,4.27 6.09,3.59 l 29.21,-7.53 c 2.68,-0.7 4.28,-3.42 3.59,-6.1 -0.58,-2.25 -2.61,-3.75 -4.84,-3.75 z m 77.88,-20.1 -1.25,0.16 -29.21,7.54 c -2.67,0.69 -4.28,3.42 -3.59,6.09 0.69,2.67 3.38,4.28 6.09,3.6 l 29.21,-7.54 c 2.68,-0.7 4.28,-3.42 3.59,-6.1 -0.58,-2.25 -2.61,-3.75 -4.84,-3.75 z m 199.3,-14.59 c -1.73,0 -3.42,0.9 -4.34,2.51 -1.38,2.41 -0.55,5.46 1.85,6.83 l 26.17,15 c 2.39,1.38 5.45,0.56 6.83,-1.85 1.37,-2.4 0.54,-5.45 -1.85,-6.82 l -26.17,-15 z m -121.42,-5.5 -1.25,0.15 -29.2,7.54 c -2.67,0.69 -4.28,3.42 -3.59,6.1 0.69,2.66 3.4,4.28 6.09,3.59 l 29.2,-7.54 c 2.68,-0.69 4.28,-3.42 3.59,-6.09 -0.58,-2.26 -2.61,-3.75 -4.84,-3.75 z m 76.68,-19.83 -0.83,0.09 -28.42,7.33 c -2.67,0.7 -4.27,3.42 -3.59,6.1 0.69,2.66 3.4,4.28 6.09,3.59 l 27.61,-7.13 c 1.72,-0.05 3.4,-0.86 4.26,-2.37 1.37,-2.4 0.88,-5.25 -1.53,-6.62 -0.89,-0.52 -2.39,-0.99 -3.59,-0.99 m 1091.5,625.33 c -1.73,0 -3.42,0.9 -4.34,2.51 -1.38,2.41 -0.55,5.46 1.84,6.83 l 13.02,7.46 c 2.4,1.37 5.45,0.57 6.83,-1.84 1.38,-2.41 0.55,-5.46 -1.85,-6.83 l -13.01,-7.46 -2.49,-0.67"
           class="color17282f svgShape"
           id="path349" />
        <path
           fill="#ffffff"
           d="m 884.887,818.16 c 0,-22.66 -18.367,-41.031 -41.032,-41.031 -22.656,0 -41.023,18.371 -41.023,41.031 0,22.66 18.367,41.031 41.023,41.031 22.665,0 41.032,-18.371 41.032,-41.031"
           class="colorfff svgShape"
           id="path351" />
        <path
           fill="#17282f"
           d="m 843.855,854.191 c -19.863,0 -36.023,-16.16 -36.023,-36.031 0,-19.871 16.16,-36.031 36.023,-36.031 19.872,0 36.032,16.16 36.032,36.031 0,19.871 -16.16,36.031 -36.032,36.031 z m 0,-82.062 c -25.378,0 -46.023,20.641 -46.023,46.031 0,25.379 20.645,46.031 46.023,46.031 25.383,0 46.032,-20.652 46.032,-46.031 0,-25.39 -20.649,-46.031 -46.032,-46.031"
           class="color17282f svgShape"
           id="path353" />
        <path
           fill="#ffffff"
           d="m 1988.98,1621.88 c 0,-22.66 -18.37,-41.03 -41.03,-41.03 -22.66,0 -41.03,18.37 -41.03,41.03 0,22.66 18.37,41.03 41.03,41.03 22.66,0 41.03,-18.37 41.03,-41.03"
           class="colorfff svgShape"
           id="path355" />
        <path
           fill="#17282f"
           d="m 1947.95,1657.91 c -19.86,0 -36.03,-16.16 -36.03,-36.03 0,-19.87 16.17,-36.03 36.03,-36.03 19.87,0 36.03,16.16 36.03,36.03 0,19.87 -16.16,36.03 -36.03,36.03 z m 0,-82.06 c -25.38,0 -46.03,20.64 -46.03,46.03 0,25.38 20.65,46.03 46.03,46.03 25.38,0 46.03,-20.65 46.03,-46.03 0,-25.39 -20.65,-46.03 -46.03,-46.03"
           class="color17282f svgShape"
           id="path357" />
        <path
           fill="#ffffff"
           d="m 3093.08,1336.96 c 0,-22.65 -18.37,-41.02 -41.03,-41.02 -22.66,0 -41.03,18.37 -41.03,41.02 0,22.66 18.37,41.03 41.03,41.03 22.66,0 41.03,-18.37 41.03,-41.03"
           class="colorfff svgShape"
           id="path359" />
        <path
           fill="#17282f"
           d="m 3052.05,1372.99 c -19.87,0 -36.03,-16.16 -36.03,-36.03 0,-19.86 16.16,-36.02 36.03,-36.02 19.86,0 36.03,16.16 36.03,36.02 0,19.87 -16.17,36.03 -36.03,36.03 z m 0,-82.05 c -25.38,0 -46.03,20.64 -46.03,46.02 0,25.38 20.65,46.03 46.03,46.03 25.38,0 46.03,-20.65 46.03,-46.03 0,-25.38 -20.65,-46.02 -46.03,-46.02"
           class="color17282f svgShape"
           id="path361" />
        <path
           fill="#ffffff"
           d="m 4197.17,1969.83 c 0,-22.66 -18.37,-41.03 -41.03,-41.03 -22.66,0 -41.03,18.37 -41.03,41.03 0,22.65 18.37,41.02 41.03,41.02 22.66,0 41.03,-18.37 41.03,-41.02"
           class="colorfff svgShape"
           id="path363" />
        <path
           fill="#17282f"
           d="m 4156.14,2005.85 c -19.86,0 -36.02,-16.16 -36.02,-36.02 0,-19.87 16.16,-36.03 36.02,-36.03 19.87,0 36.03,16.16 36.03,36.03 0,19.86 -16.16,36.02 -36.03,36.02 z m 0,-82.05 c -25.38,0 -46.02,20.64 -46.02,46.03 0,25.38 20.64,46.02 46.02,46.02 25.38,0 46.03,-20.64 46.03,-46.02 0,-25.39 -20.65,-46.03 -46.03,-46.03"
           class="color17282f svgShape"
           id="path365" />
      </g>
    </svg>
  </g>
</svg>
