<svg id="SvgjsSvg1001" width="288" height="288" xmlns="http://www.w3.org/2000/svg" version="1.1" xmlns:xlink="http://www.w3.org/1999/xlink" xmlns:svgjs="http://svgjs.com/svgjs"><defs id="SvgjsDefs1002"></defs><g id="SvgjsG1008" transform="matrix(1,0,0,1,0,0)"><svg xmlns="http://www.w3.org/2000/svg" width="288" height="288" viewBox="0 0 552.72 624.093"><g transform="matrix(.13333 0 0 -.13333 0 624.093)" fill="#000000" class="color000 svgShape"><path fill="#dadbd8" d="M895.477 1249.82c-19.934 21.07-49.551 29.04-76.762 39.06-119.535 44.02-215.902 146.6-252.371 268.65-36.473 122.05-12.192 260.69 63.601 363.07l-4.105 21.2c-9.313 98.51-128.309 169.15-219.254 130.15-90.945-39-121.797-173.89-56.84-248.55-106.738-8.82-177.266-130.47-162.242-236.52 15.019-106.03 92.644-193.07 179.039-256.36 141.668-103.8 316.52-161.56 492.133-162.57 11.98-.07 24.574.28 34.933 6.3 25.067 14.57 21.801 54.52 1.868 75.57M3868.95 1681.16c24.53 39.8 27.98 93.48 3.1 133.05-24.89 39.57-79.54 59.6-122 40.05 23.77 39.67 9.86 97.26-29.4 121.73-39.25 24.46-97.09 11.56-122.22-27.27-28.42-43.9-13.39-102.79 11.02-149.03 24.42-46.24 57.86-89.67 65.91-141.34 8.22-52.78-12.03-106.81-43.59-149.89-31.57-43.09-73.73-77.05-115.39-110.47l-7.95-7.66c74.73-25.9 160.32-18.54 229.54 19.74 39.21 21.69 75.51 57.58 78.07 102.3 1.44 24.99-7.88 50.02-4.09 74.76 5.61 36.6 37.57 62.5 57 94.03M1718.44 46.3203c-38.87 4.8281-77.94 21.8594-100.8 53.6719-14.64 20.3598-21.69 45.1678-34.43 66.7698-12.74 21.597-34.78 41.129-59.74 38.699-38.66-3.77-64.71-57.199-102.39-47.789-22.64 5.648-33.41 32.258-33.58 55.598-.17 23.332 6.66 46.609 3.76 69.769-8.16 65.07-91.74 97.07-154.09 76.723-62.35-20.352-157.06-95.551-197.69-147.043 42.72-71.059 130.46-98.668 210.89-118.8401 135.01-33.8594 271.32-62.5976 408.52-86.13671 32.16-5.51172 65.04-10.76172 97.29-5.69141 32.24 5.0586 64.3 22.19922 79.19 51.23832-38.74-5.8985-78.05-11.7969-116.93-6.9688M3266.64 547.801c-9.91 55.597-65.37 104.558-120.37 91.75 45.62 37.597 45.88 113.199 9.82 160.039-36.05 46.84-98.71 67.062-157.79 65.289-59.09-1.77-115.81-22.527-170.66-44.539 26.88 34.262-12.47 87.59-55.93 90.461-43.46 2.871-82.27-24.801-117.52-50.371-35.25-25.59-75.94-51.621-118.97-44.899l40.44-16.14c96.49-14.61 193.76-37.161 277.31-87.571 83.54-50.418 152.33-132.57 166.77-229.078 14.43-96.492-36.37-204.531-127.92-238.281 123.39-7.672 249.04 49.039 324.91 146.668 34.66 44.582 59.82 101.09 49.91 156.672M96.2891 1989.73c-1.4375 0-2.6016 41.7-2.6016 93.13 0 51.45 1.1641 93.14 2.6016 93.14 1.4414 0 2.6015-41.69 2.6015-93.14 0-51.43-1.1601-93.13-2.6015-93.13" class="colordadbd8 svgShape"></path><path fill="#dadbd8" d="M192.578 2082.87c0-1.44-43.117-2.61-96.285-2.61-53.1875 0-96.293 1.17-96.293 2.61 0 1.44 43.1055 2.6 96.293 2.6 53.168 0 96.285-1.16 96.285-2.6M3811.11 1032.37c-1.43 0-2.61 41.7-2.61 93.14 0 51.44 1.18 93.14 2.61 93.14 1.44 0 2.6-41.7 2.6-93.14 0-51.44-1.16-93.14-2.6-93.14" class="colordadbd8 svgShape"></path><path fill="#dadbd8" d="M3907.4 1125.51c0-1.44-43.11-2.61-96.29-2.61-53.18 0-96.29 1.17-96.29 2.61 0 1.43 43.11 2.6 96.29 2.6 53.18 0 96.29-1.17 96.29-2.6M3246.03 4228.78c-1.44 0-2.6 41.7-2.6 93.13 0 51.45 1.16 93.15 2.6 93.15 1.44 0 2.6-41.7 2.6-93.15 0-51.43-1.16-93.13-2.6-93.13" class="colordadbd8 svgShape"></path><path fill="#dadbd8" d="M3342.31 4321.92c0-1.44-43.1-2.6-96.28-2.6-53.19 0-96.28 1.16-96.28 2.6 0 1.44 43.09 2.61 96.28 2.61 53.18 0 96.28-1.17 96.28-2.61M260.336 2864.77c0-31.43-25.484-56.91-56.918-56.91-31.438 0-56.922 25.48-56.922 56.91 0 31.44 25.484 56.92 56.922 56.92 31.434 0 56.918-25.48 56.918-56.92M2474.5 440.832c0-31.441-25.49-56.922-56.92-56.922-31.43 0-56.92 25.481-56.92 56.922 0 31.43 25.49 56.91 56.92 56.91 31.43 0 56.92-25.48 56.92-56.91M3004.13 1516.45c0-31.43-25.48-56.91-56.91-56.91-31.44 0-56.92 25.48-56.92 56.91 0 31.44 25.48 56.93 56.92 56.93 31.43 0 56.91-25.49 56.91-56.93M1313.07 4350.66c0-31.43-25.49-56.91-56.92-56.91-31.43 0-56.92 25.48-56.92 56.91 0 31.44 25.49 56.92 56.92 56.92 31.43 0 56.92-25.48 56.92-56.92M1582.73 983.539c0-15.707-12.75-28.449-28.46-28.449-15.72 0-28.46 12.742-28.46 28.449 0 15.731 12.74 28.471 28.46 28.471 15.71 0 28.46-12.74 28.46-28.471M896.043 1125.51c0-15.72-12.742-28.46-28.457-28.46-15.719 0-28.461 12.74-28.461 28.46 0 15.71 12.742 28.45 28.461 28.45 15.715 0 28.457-12.74 28.457-28.45M1597.6 4293.75c0-15.72-12.74-28.46-28.46-28.46-15.71 0-28.46 12.74-28.46 28.46 0 15.71 12.75 28.46 28.46 28.46 15.72 0 28.46-12.75 28.46-28.46M2851.24 2753.9c0-15.72-12.74-28.46-28.46-28.46-15.72 0-28.45 12.74-28.45 28.46 0 15.71 12.73 28.45 28.45 28.45 15.72 0 28.46-12.74 28.46-28.45" class="colordadbd8 svgShape"></path><path fill="#e7e8e5" d="m 118.203,4378.23 c 0,0 -63.3749,-32.72 25.426,-165.47 88.793,-132.76 147.004,-196.8 147.004,-196.8 0,0 16.668,-31.28 -10.34,-39.64 -27.004,-8.36 -88.945,-5.86 -97.254,-41.1 -8.609,-36.55 20.754,-66.59 75.789,-89.48 55.027,-22.9 173.77,-77.47 184.488,-82.45 10.52,-4.88 22.157,-18.99 4.676,-27.63 -17.484,-8.64 -152.539,-39.09 -134.258,-102.31 18.286,-63.22 182.082,-101.8 199.907,-106.36 17.828,-4.56 22.754,-11.31 22.476,-20.83 -0.281,-9.52 -46.644,-15.47 -84.703,-25.71 -38.055,-10.23 -80.391,-28.77 -66.785,-64.36 13.609,-35.59 115.742,-101.67 344.226,-97.08 l 105.739,9.05 46.793,95.77 c 87.656,211.06 63.414,330.26 35.242,355.92 -28.172,25.66 -60.883,-6.99 -84.297,-38.69 -23.414,-31.7 -45.879,-72.69 -54.848,-69.47 -8.968,3.2 -13.449,10.26 -11.187,28.52 2.258,18.26 26.113,184.84 -26.074,224.93 -52.18,40.1 -129.821,-74.53 -144.25,-87.65 -14.43,-13.13 -23.309,2.86 -24.016,14.43 -0.719,11.8 -8.203,142.27 -9.43,201.86 -1.23,59.59 -18.484,97.89 -55.656,103.21 -35.84,5.13 -56.113,-53.45 -73.758,-75.54 -17.64,-22.1 -40.683,4.83 -40.683,4.83 0,0 -38.379,77.57 -129.571,208.69 -91.191,131.12 -145.898,82.61 -145.898,82.61 l 1.242,0.75" class="colore7e8e5 svgShape"></path><path fill="#dadbd8" d="m 842.977,3303.93 c -66.59,96.56 -182.071,270.17 -281.989,418.7 -99.879,148.48 -190.437,282.83 -256.535,379.72 -33.043,48.33 -59.808,87.47 -78.398,114.66 -9.188,13.46 -16.344,23.95 -21.293,31.19 -2.348,3.5 -4.168,6.22 -5.473,8.17 -1.215,1.84 -1.769,2.84 -1.769,2.84 0,0 0.742,-0.87 2.046,-2.66 1.372,-1.9 3.278,-4.55 5.739,-7.97 5.066,-7.16 12.398,-17.54 21.804,-30.84 18.907,-26.8 45.985,-65.78 79.266,-114.07 66.594,-96.56 157.469,-230.72 257.348,-379.2 99.918,-148.54 215.086,-322.34 281.183,-419.22 l -1.929,-1.32" class="colordadbd8 svgShape"></path><path fill="#dadbd8" d="M269.555 3928.23c.05.22 2.75-.21 7.582-1.18 4.847-.94 11.808-2.52 20.386-4.55 17.153-4.08 40.704-10.33 66.563-17.7 25.48-7.35 48.512-14 66.137-19.09 7.957-2.25 14.668-4.13 20.062-5.66 4.746-1.31 7.352-2.14 7.301-2.37-.047-.22-2.746.19-7.598 1.12-4.843.97-11.804 2.54-20.371 4.66-17.113 4.26-40.574 10.81-66.429 18.17-25.512 7.17-48.59 13.66-66.247 18.62-7.968 2.2-14.695 4.06-20.101 5.55-4.742 1.36-7.34 2.21-7.285 2.43M463.992 3885.27c-.887.21 9.856 49.32 23.992 109.69 14.137 60.38 26.317 109.16 27.2 108.95.89-.21-9.852-49.32-23.993-109.7-14.136-60.37-26.312-109.15-27.199-108.94M607.117 3650.29c-.195.12 1.067 2.61 3.512 7.01 2.801 4.97 6.305 11.18 10.461 18.55 8.801 15.67 20.879 37.36 33.312 61.79 12.504 24.41 23.047 46.89 30.547 63.22 3.543 7.69 6.52 14.16 8.906 19.34 2.129 4.57 3.411 7.05 3.622 6.96.207-.09-.672-2.74-2.438-7.45-1.769-4.71-4.453-11.5-7.953-19.79-6.969-16.6-17.207-39.3-29.746-63.78-12.477-24.49-24.902-46.07-34.238-61.46-4.704-7.68-8.579-13.86-11.379-18.05-2.785-4.2-4.41-6.46-4.606-6.34M422.699 3650.44c-.004.23 2.563.47 7.207.73 5.352.2 11.922.45 19.68.76 16.613.5 39.574.95 64.93 1.26 25.367.3 48.332.39 64.957.29 7.757-.11 14.332-.21 19.687-.28 4.649-.14 7.223-.33 7.227-.56 0-.22-2.567-.47-7.211-.73-5.348-.2-11.922-.46-19.676-.75-16.613-.5-39.578-.96-64.945-1.27-25.356-.3-48.321-.39-64.942-.3-7.758.12-14.336.21-19.691.29-4.649.14-7.223.33-7.223.56M522.699 3426.94c-.004.23 3.281.52 9.235.84 6.566.28 15.043.64 25.211 1.07 21.293.76 50.71 1.57 83.21 2.28 32.504.7 61.938 1.15 83.243 1.31 10.179 0 18.656.02 25.234.02 5.957-.07 9.258-.21 9.262-.44 0-.23-3.285-.52-9.239-.84-6.566-.28-15.039-.64-25.207-1.07-21.296-.76-50.714-1.58-83.222-2.28-32.496-.7-61.926-1.15-83.231-1.31-10.179-.01-18.66-.02-25.234-.02-5.961.07-9.258.21-9.262.44M752.43 3433.48c-.2.11 1.316 3.31 4.218 8.99 3.204 6.19 7.379 14.27 12.415 24 10.457 20.27 24.792 48.32 39.746 79.74 15.004 31.4 27.832 60.18 36.972 81.08 4.399 10.03 8.051 18.36 10.852 24.74 2.578 5.84 4.113 9.03 4.324 8.94.211-.08-.918-3.43-3.141-9.42-2.222-5.99-5.57-14.6-9.89-25.17-8.602-21.15-21.113-50.13-36.145-81.59-14.976-31.47-29.668-59.41-40.664-79.42-5.523-9.99-10.074-18.03-13.344-23.52-3.253-5.49-5.148-8.48-5.343-8.37" class="colordadbd8 svgShape"></path><path fill="#f3f2f1" d="m 3551.94,2473.41 c -112.73,98.31 -123.35,259.39 -103.21,400.99 3.36,23.64 3.45,48.92 16.97,68.52 13.54,19.6 41.4,30.98 61.56,18.7 16.72,-10.19 22.19,-31.51 30.22,-49.52 10.68,-23.96 28.21,-44.73 49.91,-59.14 14.26,-9.46 32.43,-16.27 48.23,-9.65 21.68,9.08 27.14,37.09 29.54,60.7 4.46,44.01 8.93,88.01 13.39,132.01 2.4,23.61 4.93,47.71 14.67,69.31 9.76,21.6 28.21,40.65 51.33,44.53 23.13,3.86 49.49,-12.07 51.74,-35.68 0.94,-9.82 -2.1,-19.58 -2.5,-29.44 -0.39,-9.87 3,-21.2 12.01,-24.93 9.11,-3.78 19.28,1.89 27.07,8.04 26.92,21.19 46.76,50.1 65.49,78.96 18.73,28.85 37.09,58.48 61.99,82.08 24.89,23.6 57.68,40.9 91.67,39.18 34,-1.74 67.75,-26.47 72.72,-60.57 4.98,-34.18 -18.07,-65.84 -42.09,-90.48 -35.63,-36.58 -76.5,-67.91 -120.91,-92.71 -8.01,-4.48 -16.69,-9.32 -20.47,-17.75 -6.83,-15.17 6.39,-32.4 21.37,-39.25 16.96,-7.75 36.24,-7.98 54.4,-12.13 18.15,-4.15 37.22,-14.41 42.3,-32.54 7.07,-25.16 -15.83,-48.27 -37.46,-62.69 -43.31,-28.87 -91.51,-50.16 -141.82,-62.68 -18.05,-4.48 -36.92,-8.08 -52.22,-18.77 -15.31,-10.69 -26.04,-30.98 -19.38,-48.51 6.67,-17.55 27.8,-25.21 46.34,-23.79 18.54,1.41 35.88,9.53 53.91,14.2 33.74,8.74 75.37,2 93.12,-28.27 11.67,-19.89 10.1,-45.67 0.83,-66.88 -9.26,-21.21 -25.31,-38.62 -42.06,-54.46 -58.53,-55.36 -130.35,-97.28 -208.37,-115.25 -78.03,-17.97 -148.48,-17.52 -220.29,17.87" class="colorf3f2f1 svgShape"></path><path fill="#dadbd8" d="m 3598.23,2558.54 c 28.64,69.47 66.37,143.01 108.45,218.58 10.59,18.85 21.06,37.47 31.38,55.83 10.34,18.3 20.58,36.45 31.7,53.58 22.11,34.37 45.98,65.73 69.57,94.79 23.58,29.07 47.03,55.81 69.12,80.65 22.16,24.8 43.26,47.52 63.37,67.41 40.1,39.95 76.2,68.28 101.76,86.73 12.78,9.26 22.91,16.12 29.86,20.68 3.34,2.16 5.94,3.86 7.92,5.13 1.79,1.14 2.73,1.68 2.78,1.62 0.04,-0.07 -0.82,-0.74 -2.53,-1.99 -1.91,-1.37 -4.45,-3.19 -7.69,-5.5 -6.76,-4.79 -16.74,-11.87 -29.35,-21.33 -25.22,-18.84 -60.89,-47.45 -100.6,-87.56 -19.91,-19.97 -40.82,-42.77 -62.83,-67.64 -21.96,-24.93 -45.27,-51.7 -68.71,-80.78 -23.45,-29.05 -47.15,-60.35 -69.08,-94.56 -11.04,-17.05 -21.18,-35.06 -31.53,-53.41 -10.31,-18.34 -20.76,-36.97 -31.34,-55.81 -42.05,-75.5 -79.78,-148.81 -108.55,-217.98 l -3.7,1.56" class="colordadbd8 svgShape"></path><path fill="#dadbd8" d="m 3771.02,2886.57 c -0.29,-0.02 -0.71,3.65 -1.22,10.31 -0.53,6.65 -0.99,16.3 -1.38,28.23 -0.8,23.85 -0.79,56.83 -0.64,93.18 0.16,36.38 -0.3,69.26 -1.46,93.03 -0.55,11.89 -1.1,21.51 -1.56,28.15 -0.42,6.65 -0.5,10.35 -0.21,10.39 0.3,0.03 0.97,-3.6 1.9,-10.21 0.98,-6.6 2,-16.22 2.93,-28.12 1.98,-23.81 2.92,-56.82 2.76,-93.23 -0.24,-35.88 -0.46,-68.33 -0.64,-93.13 0,-11.2 0,-20.65 0,-28.22 -0.02,-6.67 -0.16,-10.37 -0.48,-10.38" class="colordadbd8 svgShape"></path><path fill="#dadbd8" d="M4080.48 2910.56c-.02-.29-4.4-.33-12.26-.14-7.86.15-19.23.42-33.28.31-28.1-.01-66.93-1.38-109.7-4.75-42.78-3.47-81.35-8.24-109.16-12.5-13.92-2.04-25.13-3.98-32.9-5.28-7.76-1.34-12.09-1.93-12.16-1.63-.05.3 4.15 1.46 11.83 3.32 7.69 1.81 18.85 4.23 32.75 6.67 27.76 5.06 66.41 10.35 109.31 13.82 42.9 3.39 81.89 4.27 110.07 3.47 14.1-.29 25.49-1.03 33.34-1.72 7.85-.72 12.18-1.25 12.16-1.57M3602.57 2563.72c-.15-.04-.73 1.31-1.69 3.93-1.09 3.12-2.4 6.92-4.01 11.53-3.42 10.03-8.01 24.68-13.44 42.84-10.9 36.33-24.36 86.98-38.46 143.08-14.11 56.12-27.09 106.83-37.2 143.33-4.98 17.75-9.07 32.35-12.11 43.2-1.3 4.71-2.35 8.59-3.23 11.78-.69 2.7-.99 4.14-.84 4.2.15.04.71-1.31 1.68-3.93 1.08-3.12 2.4-6.92 4-11.53 3.44-10.03 8.03-24.67 13.46-42.84 10.89-36.33 24.36-86.98 38.46-143.1 14.11-56.1 27.08-106.81 37.2-143.32 4.98-17.73 9.06-32.34 12.1-43.19 1.29-4.71 2.36-8.59 3.23-11.78.69-2.71.98-4.15.85-4.2" class="colordadbd8 svgShape"></path><path fill="#dadbd8" d="M4019.66 2650.2c.02-.16-1.42-.57-4.18-1.22-3.26-.72-7.28-1.6-12.13-2.66-11.19-2.34-26.3-5.5-44.67-9.34-37.72-7.89-89.7-19.39-147.1-32.17-57.43-12.8-109.56-23.83-147.45-30.93-18.95-3.57-34.31-6.29-44.96-7.96-4.92-.74-8.98-1.35-12.28-1.85-2.81-.38-4.3-.5-4.32-.35-.03.16 1.41.57 4.17 1.23 3.26.71 7.26 1.59 12.13 2.66 11.19 2.34 26.29 5.49 44.66 9.33 37.73 7.89 89.7 19.39 147.13 32.18 57.41 12.79 109.53 23.81 147.43 30.93 18.94 3.56 34.3 6.29 44.96 7.95 4.92.74 8.97 1.36 12.27 1.85 2.82.38 4.31.5 4.34.35M2683.21 4162.98c18.18 104.16 67.81 256.42 127.31 343.84 59.49 87.41 151.2 156.89 255.93 171.41 104.74 14.52 220.29-34.61 267.47-129.24 25.29-50.73 29.94-109.09 48.38-162.69 18.45-53.59 58.87-107.16 115.39-111.48 50.03-3.83 98.24 32.23 147.49 22.64 64.13-12.48 88.88-91.51 89.24-156.83.36-65.33-8.94-137.85 31.2-189.39 32.86-42.16 89.13-56.7 134.48-84.98 98.08-61.17 140.07-187.53 130.12-302.7-9.94-115.17-62.97-221.81-119.31-322.75-46.94 165.57-110.88 326.3-190.51 478.86-45.49 87.15-128.53 161.33-202.03 226.61-112.87 100.22-360.67 148.05-510.48 166.48-149.81 18.42-176.31 22.44-324.68 50.22" class="colordadbd8 svgShape"></path><path fill="#406fbf" d="M 1684.1,4040.27 C 1313.33,4013.34 908.582,3964.26 611.797,3850.32 l 93.726,-634.26 c 0,0 575.267,205.86 1043.307,191.57 l -64.73,632.64" class="colorf03d5f svgShape"></path><path fill="#13135d" d="m 705.523,3216.06 -31.414,212.57 -0.464,3.15 -38.832,262.77 -0.7,4.75 -22.316,151.02 c 296.785,113.94 701.533,163.02 1072.303,189.95 l 36.43,-356.08 -116.06,-56.03 c 0,0 -67.25,-42.59 -92.31,-120.4 -7.05,-21.9 -16.77,-63.84 -26.91,-111.8 -395.75,-42.5 -779.727,-179.9 -779.727,-179.9" class="colorfbcbd7 svgShape"></path><path fill="#406fbf" d="m 1657.35,3491.3 c 0.02,-0.09 -1.19,-0.32 -3.56,-0.67 -2.63,-0.36 -6.11,-0.84 -10.51,-1.45 -9.56,-1.19 -23.13,-2.89 -40.47,-5.06 -17.58,-2.07 -39.09,-4.65 -63.97,-8.31 -24.89,-3.57 -53.3,-7.12 -84.53,-12.32 -125.09,-19.33 -297.25,-51.26 -484.279,-99.62 -65.011,-16.78 -127.668,-34.09 -185.008,-52.07 l -2.851,-0.89 -0.399,2.93 c -20.035,145.44 -39.441,270.83 -54.32,359.75 -7.601,44.19 -13.672,79.5 -17.898,104.09 -2.086,11.9 -3.715,21.19 -4.879,27.82 -0.477,2.97 -0.863,5.34 -1.16,7.2 -0.235,1.62 -0.325,2.46 -0.25,2.47 0.074,0.01 0.3,-0.79 0.683,-2.39 0.406,-1.83 0.93,-4.18 1.586,-7.12 1.356,-6.59 3.254,-15.83 5.684,-27.67 4.832,-24.16 11.496,-59.46 19.347,-103.87 15.75,-88.81 35.809,-214.14 56.161,-359.6 l -3.247,2.04 c 57.504,18.17 120.149,35.55 185.254,52.35 187.236,48.42 359.696,79.81 485.016,98.23 31.29,4.96 59.77,8.26 84.72,11.55 24.93,3.39 46.49,5.68 64.11,7.45 17.38,1.75 31,3.12 40.59,4.08 4.43,0.39 7.92,0.7 10.57,0.94 2.38,0.18 3.61,0.23 3.61,0.14" class="colorf03d5f svgShape"></path><path fill="#406fbf" d="M1669.93 3645.48c-.26-.07-1.41 4.42-4.27 12.62-3.25 8.08-8.9 19.74-19.08 32.79-10.18 12.98-24.94 27.29-45.01 39.41-4.87 3.29-10.51 5.61-16.02 8.53-5.84 2.19-11.67 5.04-18.12 6.55-12.63 3.81-26.75 5.85-41.24 4.01-14.41-1.73-29.25-6.88-42.01-16.52-12.86-9.43-24.08-22.07-33.59-36.51-19.5-28.88-32.19-64.06-47.13-100.6-7.85-18.02-18.13-36.67-34.88-50-8.25-6.61-18.08-11.86-28.95-13.87-10.86-2.05-22.35-.48-32.56 3.76-42.24 16.74-61.03 65.38-103.69 80.17-20.86 7.13-44.2 4.33-63.31-5.18-9.6-4.78-18.23-11.35-25.08-19.36-6.89-7.97-12-17.39-16.73-26.86-9.52-18.79-16.68-39.68-32.81-54.42-7.91-7.24-18.09-12.19-28.76-12.97-10.63-.92-21.08 1.88-30.1 6.46-18.129 9.41-31.582 24.59-41.41 40.7-9.614 16.46-15.473 33.7-21.907 49.93-6.3 16.26-12.875 31.78-21.687 45.14-8.824 13.33-20.191 24.06-33.164 30.77-26.043 13.84-55.067 12.16-76.024 2.22-21.55-9.2-37.738-22.18-48.257-34.8-10.621-12.66-15.586-24.81-18.102-33.08-2.551-8.33-2.914-12.97-3.285-12.91 0 0 .023 4.68 2.273 13.2 2.223 8.45 6.957 20.96 17.543 34.08 10.5 13.07 26.797 26.53 48.668 36.18 21.36 10.46 51.7 12.6 78.887-1.63 13.578-6.87 25.621-18.09 34.801-31.79 9.187-13.75 15.953-29.51 22.367-45.8 6.512-16.2 12.512-33.42 21.809-49.15 9.503-15.48 22.652-30.06 39.648-38.77 8.46-4.26 18-6.73 27.5-5.88 9.52.72 18.65 5.16 25.87 11.8 14.79 13.44 22.01 33.87 31.56 52.97 4.8 9.64 10.04 19.41 17.41 27.97 7.3 8.56 16.48 15.55 26.65 20.63 20.27 10.1 44.95 13.1 67.29 5.49 22.74-7.47 39.01-25 54.1-40.77 14.99-16.05 30.47-31.71 49.84-39.61 9.53-3.96 19.92-5.35 29.75-3.53 9.86 1.8 18.97 6.6 26.76 12.79 15.8 12.5 25.78 30.3 33.59 48.05 14.89 36.06 27.94 71.81 47.94 101.07 9.78 14.69 21.39 27.65 34.82 37.37 13.32 9.93 28.94 15.25 43.95 16.92 15.11 1.79 29.67-.47 42.58-4.49 6.61-1.63 12.55-4.59 18.48-6.89 5.61-3.04 11.32-5.47 16.24-8.87 20.28-12.59 35.03-27.33 45.1-40.67 10.08-13.42 15.51-25.39 18.46-33.66 1.48-4.15 2.03-7.49 2.63-9.66.52-2.19.74-3.31.66-3.33M687.445 3728.75c.27-1.41-4.558-3.52-10.781-4.7-6.226-1.19-11.484-1-11.754.41-.265 1.42 4.559 3.52 10.781 4.7 6.223 1.18 11.485 1 11.754-.41M703.832 3612.9c.606-1.3-3.027-4.28-8.121-6.65-5.094-2.37-9.711-3.23-10.316-1.93-.606 1.31 3.027 4.28 8.121 6.66 5.093 2.36 9.711 3.23 10.316 1.92M724.316 3486.33c.473-1.36-3.265-3.89-8.359-5.67-5.094-1.78-9.605-2.12-10.078-.76-.469 1.35 3.269 3.9 8.363 5.67 5.086 1.78 9.602 2.12 10.074.76M748.902 3361.91c.426-1.37-3.808-3.93-9.464-5.71-5.661-1.77-10.59-2.1-11.028-.73-.426 1.37 3.805 3.93 9.465 5.71 5.66 1.77 10.59 2.1 11.027.73M1448.08 3959.68c-.28.17 4.26 1.52 12.1 2.74 7.96 1.37 19.65 3.12 34.5 5.21 29.71 4.17 72.07 9.67 122.6 15.9l2.35.29.22-2.38c3.94-42.58 8.47-91.61 13.28-143.6l.19-2.16.23-2.51-2.5-.31c-61.05-7.48-117.91-14.44-165.75-20.3l-2.22-.27-.23 2.2c-4.65 43.47-8.53 79.75-11.32 105.89-1.18 12.14-2.12 21.9-2.83 29.24-.6 6.68-.82 10.17-.62 10.06.2-.11.82-3.82 1.81-10.67 1.01-7.4 2.36-17.25 4.03-29.49 3.28-25.8 7.83-61.61 13.29-104.52l-2.46 1.92c47.82 6.09 104.65 13.33 165.66 21.11l-2.27-2.82-.2 2.16c-4.59 52.01-8.93 101.06-12.69 143.65l2.57-2.09c-95.24-10.8-150.99-17.13-169.74-19.25" class="colorf03d5f svgShape"></path><path fill="#406fbf" d="M1602.04 3934.44c-.04-1.54-28.53-1.53-63.33-5.28-34.83-3.61-62.69-9.56-63.05-8.06-.36 1.29 27.24 9.59 62.5 13.24 35.23 3.79 63.96 1.44 63.88.1M1603.81 3897.28c.01-1.51-26.56-2.53-59.11-5.72-32.57-3.1-58.83-7.18-59.11-5.7-.29 1.34 25.75 7.75 58.61 10.89 32.85 3.21 59.64 1.89 59.61.53M1564.13 3864.81c.18-1.42-14.93-4.51-33.74-6.9-18.81-2.38-34.21-3.16-34.39-1.73-.18 1.43 14.92 4.52 33.74 6.9 18.8 2.38 34.2 3.16 34.39 1.73M3491.25 3853.66c-363.02 110.63-669.26 205.1-1080.47 202.49l-62.85-646.3c427.1-37.8 569.84-65.76 964.24-208.49l179.08 652.3" class="colorf03d5f svgShape"></path><path fill="#13135d" d="m 3312.17,3201.36 c -85.43,30.92 -159.05,56.45 -226.32,77.86 l 1.25,0.32 -23.09,171.17 -402.19,-45.47 -289.47,255.78 38.43,395.13 c 5.57,0.04 11.1,0.05 16.63,0.05 402.87,0 705.74,-93.41 1063.84,-202.54 l -179.08,-652.3 m -629.22,506.27 v 0 l 151.19,-55.18 0.19,-0.07 c 3.8,11.28 6.4,23.07 7.83,35.1 0.84,7.12 1.26,14.33 1.27,21.56 0.01,18.84 -2.82,37.83 -8.45,55.94 -15.82,50.87 -53.9,94.74 -114.09,108.74 -1.61,0.38 -3.23,0.74 -4.88,1.07 -1.03,0.21 -2.05,0.44 -3.1,0.63 -3.06,0.56 -6.17,1.04 -9.34,1.45 l -0.42,0.06 -0.03,0.01 -0.39,0.06 v -0.03 l -16.02,-137.12 -3.76,-32.22" class="colorfbcbd7 svgShape"></path><path fill="#406fbf" d="M2669.43 3742.54l16.03 137.12c-38.06 4.45-78.79-6.75-111.96-30.97-39.06-28.53-67.56-75.15-68.79-135.58-.14-6.61.03-13.36.56-20.28l.03-.5.02.01 160.16 18 3.95 32.2M2834.98 3764.98c-15.82 50.87-53.9 94.74-114.09 108.74-1.61.38-3.23.74-4.88 1.07-1.03.21-2.05.44-3.1.63-3.06.56-6.17 1.04-9.34 1.45l-.42.06-.03.01-.39.06v-.03l-16.02-137.12-3.76-32.22 151.19-55.18.19-.07c3.8 11.28 6.4 23.07 7.83 35.1 3.03 25.69.61 52.43-7.18 77.5" class="colorf03d5f svgShape"></path><path fill="#274682" d="m 2834.33,3652.38 -0.19,0.07 -151.19,55.18 3.76,32.22 16.02,137.12 v 0.03 l 0.39,-0.06 0.03,-0.01 0.42,-0.06 c 3.17,-0.41 6.28,-0.89 9.34,-1.45 1.05,-0.19 2.07,-0.42 3.1,-0.63 1.65,-0.33 3.27,-0.69 4.88,-1.07 60.19,-14 98.27,-57.87 114.09,-108.74 5.63,-18.11 8.46,-37.1 8.45,-55.94 -0.01,-7.23 -0.43,-14.44 -1.27,-21.56 -1.43,-12.03 -4.03,-23.82 -7.83,-35.1" class="colorba2c42 svgShape"></path><path fill="#406fbf" d="M2671.71 3692.21l-160.16-18.01c6.66-77.55 63.28-141.87 139.33-151.23 76.42-9.4 147.28 39.79 172.22 114.03l-151.2 55.18M3350.96 3730.46c-.16-.32-5.19 1.74-14.13 5.72-8.93 4.04-21.92 9.71-38.06 16.46-32.26 13.53-77.54 30.57-128.84 45.25-51.35 14.61-98.81 24.02-133.35 29.54-17.26 2.79-31.29 4.83-40.99 6.11-9.71 1.33-15.06 2.24-15.03 2.6.03.35 5.45.13 15.24-.59 9.79-.66 23.93-2.15 41.33-4.47 34.79-4.61 82.62-13.5 134.23-28.17 51.56-14.76 96.88-32.45 128.87-46.89 16.01-7.21 28.8-13.4 37.47-18.01 8.7-4.55 13.42-7.22 13.26-7.55M3339.96 3663c-.16-.32-5.19 1.73-14.13 5.72-8.93 4.04-21.91 9.71-38.06 16.46-32.25 13.53-77.54 30.57-128.84 45.26-51.33 14.6-98.8 24.01-133.34 29.53-17.27 2.79-31.29 4.83-41 6.11-9.71 1.33-15.06 2.24-15.03 2.6.03.36 5.46.13 15.24-.59 9.8-.66 23.93-2.15 41.33-4.47 34.8-4.61 82.63-13.5 134.23-28.17 51.56-14.76 96.89-32.45 128.88-46.9 16-7.2 28.8-13.39 37.47-18 8.69-4.56 13.42-7.23 13.25-7.55M3328.97 3595.54c-.16-.32-5.19 1.74-14.14 5.72-8.92 4.04-21.91 9.71-38.05 16.45-32.26 13.54-77.54 30.58-128.84 45.27-51.34 14.6-98.81 24.01-133.35 29.53-17.27 2.79-31.29 4.83-41 6.11-9.7 1.33-15.06 2.24-15.03 2.59.03.37 5.46.14 15.25-.58 9.79-.66 23.92-2.15 41.33-4.47 34.79-4.61 82.62-13.5 134.22-28.18 51.57-14.75 96.89-32.44 128.88-46.88 16.01-7.21 28.8-13.4 37.47-18.01 8.69-4.56 13.42-7.23 13.26-7.55M3306.97 3528.08c-.15-.32-5.04 1.73-13.69 5.71-8.63 4.03-21.21 9.67-36.85 16.41-31.23 13.5-75.1 30.55-124.89 45.24-49.81 14.63-95.94 24.06-129.51 29.6-16.79 2.79-30.42 4.84-39.85 6.11-9.44 1.34-14.65 2.25-14.61 2.6.03.36 5.31.14 14.83-.58 9.52-.66 23.27-2.16 40.19-4.49 33.83-4.62 80.34-13.54 130.43-28.25 50.05-14.76 93.95-32.46 124.92-46.87 15.49-7.19 27.86-13.36 36.24-17.96 8.4-4.54 12.96-7.2 12.79-7.52M3259.18 3474.26c-.16-.33-4.56 1.45-12.36 4.92-8.75 3.89-19.84 8.82-33.06 14.7-27.98 12.14-67.02 28.19-111.71 40.99-44.74 12.72-86.37 19.68-116.55 24.12-14.34 1.99-26.35 3.65-35.82 4.96-8.47 1.17-13.15 1.99-13.11 2.35.03.35 4.77.22 13.31-.33 8.55-.5 20.88-1.64 36.1-3.32 30.39-3.53 72.41-9.96 117.5-22.77 45.04-12.9 84.14-29.61 111.8-42.65 13.82-6.6 24.89-12.14 32.42-16.23 7.54-4.04 11.64-6.42 11.48-6.74M3097.89 3466.65c-.22-.73-10.01 1.69-25.83 5.35-15.82 3.69-37.73 8.41-62.15 12.6-24.4 4.26-46.65 7.27-62.75 9.56-16.12 2.25-26.09 3.77-26.02 4.52.07.68 10.17.46 26.43-.85 16.24-1.37 38.67-3.82 63.23-8.1 24.56-4.21 46.53-9.55 62.19-14.17 15.67-4.59 25.1-8.26 24.9-8.91" class="colorf03d5f svgShape"></path><path fill="#406fbf" d="M2473.79 3979.57c0 0 2.74.23 8.34.44 5.88.19 14.22.47 24.99.83 22.07.53 53.98.18 94.8-2.13 81.35-5.46 198.14-19.22 333.01-59.6l1.84-.55-.35-1.95c-25-143.23-54.75-313.55-86.58-495.78-1.29-7.38-2.58-14.74-3.84-21.97l-.5-2.79-2.75.73c-75.91 19.94-150.7 34.81-222.34 45.86-71.63 11-140.15 18.79-203.79 22.82l-2.44.16.27 2.4c17.51 152.87 32.17 280.94 42.49 371.04 5.24 44.57 9.36 79.74 12.21 104.01 1.44 11.77 2.55 20.89 3.33 27.29.38 2.92.68 5.19.92 6.94.21 1.54.34 2.31.39 2.25.04-.04-.01-.89-.15-2.52-.16-1.81-.38-4.17-.65-7.2-.67-6.51-1.6-15.79-2.82-27.76-2.57-24.41-6.3-59.79-11.04-104.62-9.74-89.83-23.58-217.53-40.11-369.95l-2.17 2.55c63.94-3.87 132.5-11.52 204.33-22.43 71.8-10.98 146.77-25.83 222.91-45.81l-3.22-2.07c1.26 7.23 2.55 14.59 3.85 21.97 32.1 182.19 62.1 352.45 87.33 495.65l1.49-2.49c-134.09 40.61-250.71 55.04-331.78 61.24-40.62 2.7-72.82 3.42-94.39 3.37-10.7-.03-18.99-.04-24.84-.06-5.68.02-8.74.13-8.74.13M2077.38 2658.83l353.99-78.38 54.1 78.38-8.74 100.94-53.79 49.15H2237.5L2064.35 2653l13.03 5.83" class="colorf03d5f svgShape"></path><path fill="#fbbc88" d="m 2617.19,3387.89 446.82,60.17 70.34,19.84 c 0,0 161.06,35.38 176.1,40.75 17.38,6.2 24.55,-0.68 26.39,-7.25 2.9,-10.22 -6.9,-21.67 -21.65,-27.45 -5.09,-2 -86.79,-30.3 -86.79,-30.3 0,0 8.06,-1.33 27.6,-7.96 19.53,-6.64 38.3,-31.83 47.68,-61.19 9.39,-29.37 9.41,-38.42 -1.82,-42.6 -4.51,-1.68 -9.06,-0.42 -12.98,1.8 -6.42,3.63 -11.07,9.81 -13.41,16.8 -15.68,46.82 -44.98,50.51 -44.98,50.51 l -9.2,-2.59 c 0,0 30.23,-21.11 29.71,-46.64 -0.08,-4.17 -0.99,-7.77 -2.35,-10.96 4.27,-12.39 1.83,-26.92 -6.46,-37.11 -8.63,-10.6 -23.16,-16.04 -36.61,-13.71 -6.44,1.11 -13.4,4.92 -14.33,11.38 -0.49,3.41 0.85,6.78 2.08,10 0.64,1.69 1.25,3.45 1.59,5.23 l -26.8,-3.66 c 0,0 -60.63,-5.01 -86.77,-10.17 L 2662.9,3176.75 c -58.02,-17.47 -119.09,16.03 -135.54,74.34 -17.89,63.43 24.51,128.01 89.83,136.8" class="colorf8a58d svgShape"></path><path fill="#fbbc88" d="m 3074.37,3436.67 c 0.71,-9.37 10.06,-15.9 19.26,-17.82 9.2,-1.93 18.77,-0.68 28.08,-1.93 27.84,-3.76 49.49,-29.07 77.48,-31.49 3.9,-0.34 8.82,0.47 9.97,4.21 1.07,3.47 -1.91,6.75 -4.64,9.15 -23.23,20.54 -46.47,41.08 -69.72,61.62" class="colorf8a58d svgShape"></path><path fill="#2c354c" d="M3134.8 3460.41c.25.28 3.16-1.83 8.23-5.89 5.06-4.05 12.28-10.04 21.12-17.53 9.14-7.86 19.53-16.79 30.87-26.53 2.9-2.52 5.86-5.1 8.87-7.72 2.62-2.66 7.23-4.98 8.08-11.37.28-3.21-2.18-6.37-4.78-7.39-2.57-1.15-5.07-1.33-7.51-1.23-4.61.43-9.08 1.22-13.46 2.66-17.57 5.72-31.11 16.35-44.71 22.67-6.74 3.28-13.42 5.65-19.9 6.62-6.46.98-12.82.77-18.7 1.2-11.91.28-21.55 5.39-25.46 11-4.14 5.65-3.25 9.91-3.08 9.77.53.13.48-3.81 4.66-8.45 4.13-4.68 12.63-8.72 24.06-8.58 5.68-.18 12.07.27 19.13-.58 7.06-.85 14.29-3.27 21.37-6.55 14.25-6.4 27.94-16.81 44.21-22.03 4.02-1.34 8.2-2.05 12.15-2.46 3.86-.27 7.18 1.13 6.83 3.18-.04 2.29-3.24 5.13-6.25 7.74-2.97 2.67-5.89 5.29-8.75 7.86-11.07 10.05-21.19 19.26-30.12 27.37-8.52 7.85-15.35 14.28-20 18.81-4.65 4.52-7.1 7.16-6.86 7.43M3220.47 3399.36c.09-.7 6.9 2.96 17.58.23 5.22-1.36 10.85-4.87 15.3-10.51 4.55-5.59 7.97-12.91 10.99-20.88 3.07-7.97 5.99-15.83 10.19-22.28 4.18-6.41 9.23-11.45 14.62-14.08 5.42-2.74 10.85-1.86 13.67-.3 2.91 1.55 4.01 3.02 3.92 3.12-.19.27-1.6-.83-4.45-1.9-2.8-1.04-7.37-1.43-12.04 1.24-4.66 2.57-9.26 7.47-13.05 13.6-3.81 6.16-6.57 13.79-9.66 21.84-3.06 8.05-6.73 15.75-11.76 21.65-4.92 5.97-11.4 9.7-17.16 10.85-5.77 1.25-10.58.49-13.65-.42-3.11-.95-4.58-1.99-4.5-2.16M3320.85 3476.26c-.2.45-6.36-1.81-16.28-5.51-11.07-4.07-24.26-8.92-38.83-14.28-14.66-5.14-27.92-9.79-39.05-13.69-10.01-3.46-16.2-5.63-16.07-6.1.12-.44 6.57.91 16.8 3.79 10.23 2.86 24.22 7.31 39.47 12.78 15.26 5.48 28.87 10.95 38.59 15.25 9.72 4.29 15.55 7.35 15.37 7.76M3208.65 3374.45c-.17-.19 1.21-1.56 3.52-4.08 2.15-2.44 5.7-6.61 5.05-12.3-.31-2.75-2.21-5.17-5.28-6.62-2.99-1.52-6.73-2.11-10.8-2.97-3.96-.84-8.89-2.26-12.06-6.47-3.03-4.13-3.67-9.74-2.03-14.69 1.66-5.09 5.72-8.8 10.05-10.79 4.38-1.98 9.01-2.73 13.47-1.99 8.37 1.67 15.14 4.8 20.72 7.73 5.52 3.02 9.6 6.21 11.93 8.91 2.34 2.71 2.94 4.66 2.78 4.72-.27.14-1.24-1.51-3.73-3.79-2.5-2.28-6.61-5.03-12.09-7.68-5.46-2.56-12.38-5.41-20.11-6.77-7.2-1.05-17.01 2.58-19.77 10.73-1.34 3.99-.76 8.53 1.49 11.63 2.26 3.12 6.19 4.5 10.06 5.38 3.88.93 7.93 1.63 11.42 3.54 3.52 1.71 6.21 5.34 6.35 8.86.37 7.12-4.09 11.3-6.52 13.52-2.66 2.3-4.31 3.29-4.45 3.13" class="colorf68260 svgShape"></path><path fill="#2c354c" d="M3199.09 3318.75c-.03.16-1.91-.01-4.43-2.09-2.42-2.01-5.41-6.36-5-12.42.4-5.94 4.7-12.61 11.84-15.88 7.08-3.31 16.04-3.24 24.26-.34 8.26 2.93 15.02 8.44 19.27 14.69 4.33 6.26 6.08 13.06 6.49 18.68.4 5.65-.52 10.2-1.44 13.17-.97 2.98-1.89 4.46-2.07 4.38-.66-.14 2.38-6.64 1.1-17.32-.68-5.24-2.56-11.47-6.66-17.1-4.03-5.62-10.28-10.6-17.83-13.27-7.51-2.66-15.62-2.76-21.82-.02-6.21 2.67-10.13 8.28-10.74 13.27-.64 5.04 1.6 9.12 3.52 11.2 1.99 2.16 3.64 2.78 3.51 3.05M3124.72 3355.48c.3.08-.15 3.22-2.88 7.74-2.66 4.44-8.01 10.23-16.27 13.31l.16-3.03c3.29 1.58 6.77 3.47 10.23 5.66 19.28 12.18 28.82 28.57 28.01 28.88-.8.67-11.28-14.3-29.86-25.99-3.34-2.12-6.67-3.99-9.81-5.6l-3.48-1.76 3.65-1.25c7.49-2.57 12.72-7.52 15.69-11.39 3-3.91 4.14-6.73 4.56-6.57M3263.88 3403.21c-.65.63-5.38-4.58-5.89-12.83-.6-8.24 3.39-14.05 4.11-13.51.91.43-1.25 6.11-.69 13.28.41 7.18 3.31 12.51 2.47 13.06" class="colorf68260 svgShape"></path><path fill="#fbbc88" d="m 1178.77,3247.71 c 0,0 -65.27,105.78 -76.82,114.75 -11.55,8.96 -114.88,46.8 -123.704,44.02 -8.824,-2.78 -134.039,-24.17 -119.656,-39.03 14.375,-14.87 101.687,1.26 101.687,1.26 l 11.719,-5.85 c 0,0 -75.426,-12.02 -91.308,-21.2 -14.614,-8.45 -9.606,-26.34 4.21,-24.91 13.817,1.43 79.356,14.11 83.25,11.42 3.899,-2.69 -71.296,-17.68 -79.39,-22.46 -10.895,-6.44 -11.981,-25.8 1.765,-24.85 8.098,0.55 79.016,18.87 79.016,18.87 0,0 -56.234,-21.67 -61.414,-26.59 -8.488,-8.05 -1.758,-20.3 10.418,-17.61 8.363,1.84 48.086,20.78 59.293,23.22 0,0 10.465,-2.8 19.961,-23.98 4.433,-9.87 24.613,-71.51 61.523,-70.7 32.69,0.71 64.79,-26.24 64.79,-26.24 l 54.66,89.88" class="colorf8a58d svgShape"></path><path fill="#2c354c" d="m 858.832,3367.13 c -0.211,-0.68 8.238,-4.21 22.816,-6.31 7.274,-1.02 16.063,-1.59 25.801,-1.07 9.571,1.06 20.028,2.54 31.028,4.06 8.121,1.19 15.945,2.33 23.351,3.42 l -1.402,0.13 c 30.871,-11.01 53.514,-18.18 53.984,-16.95 0.48,1.24 -21.387,10.51 -52.082,22.24 l -0.621,0.23 -0.789,-0.1 c -7.352,-0.99 -15.117,-2.04 -23.168,-3.13 -10.727,-1.57 -20.945,-3.07 -30.672,-4.49 -9.367,-0.8 -17.875,-0.67 -25.004,-0.2 -14.261,0.99 -23.011,3.05 -23.242,2.17" class="colorf68260 svgShape"></path><path fill="#fbbc88" d="m 1129.85,3260.25 c -7.63,-7.09 -20.17,-5.34 -29.09,0.03 -8.92,5.37 -15.77,13.61 -24.28,19.61 -25.47,17.94 -62.15,13.68 -86.718,32.81 -3.426,2.67 -6.813,7.04 -4.938,10.95 1.742,3.63 6.649,4.04 10.672,3.95 34.384,-0.83 68.754,-1.66 103.134,-2.48" class="colorf8a58d svgShape"></path><path fill="#2c354c" d="m 1098.63,3325.12 c 0.01,0.4 -3.95,0.88 -11.12,1.41 -7.17,0.52 -17.56,1.09 -30.39,1.67 -13.36,0.5 -28.53,1.08 -45.09,1.71 -4.26,0.13 -8.61,0.27 -13.042,0.42 -4.14,-0.19 -9.633,1.41 -15.14,-3.15 -2.637,-2.41 -3.032,-6.82 -1.688,-9.61 1.219,-2.88 3.121,-4.91 5.18,-6.67 4.074,-3.12 8.293,-5.85 12.95,-7.98 18.6,-8.61 37.61,-10.18 53.43,-15.28 7.95,-2.43 15.18,-5.54 21.17,-9.63 5.99,-4.08 11,-9.04 16.1,-13.13 9.89,-8.74 21.59,-11.87 28.99,-10.25 7.63,1.47 10.13,5.6 9.87,5.62 -0.32,0.5 -3.26,-2.74 -10.16,-3.35 -6.89,-0.69 -16.84,2.43 -26.01,11.16 -4.76,4.13 -9.61,9.32 -16,13.95 -6.38,4.62 -14.08,8.13 -22.31,10.8 -16.41,5.53 -35.39,7.39 -52.55,15.42 -4.269,1.94 -8.211,4.52 -11.726,7.16 -3.34,2.69 -4.981,6.33 -3.156,7.73 1.757,1.84 6.5,1.73 10.917,1.59 4.435,-0.08 8.785,-0.15 13.035,-0.22 16.58,-0.17 31.76,-0.32 45.13,-0.45 12.84,-0.05 23.24,0.02 30.44,0.2 7.18,0.18 11.16,0.47 11.17,0.88" class="colorf68260 svgShape"></path><path fill="#406fbf" d="M 1687.1,905.449 1663.26,643.121 1584.57,441.07 c -5.66,-14.57 2.18,-30.89 17.09,-35.55 8.36,-2.61 17.39,-1.071 24.34,4.23 44.31,33.75 206.68,158.73 207.35,178.02 0.78,22.351 43.52,275.039 43.52,275.039 l -189.77,42.64" class="colorf03d5f svgShape"></path><path fill="#ffffff" d="m 1610.36,404.07 c -2.92,0 -5.86,0.481 -8.7,1.45 v 0 c 2.67,-0.84 5.4,-1.25 8.11,-1.25 5.8,0 11.5,1.871 16.23,5.48 40.94,31.191 182.67,140.242 204.51,171.871 -2.16,-4.621 -5.18,-8.832 -8.96,-12.359 -18.85,-17.633 -71.95,-65.192 -194.75,-159.602 -4.77,-3.668 -10.57,-5.59 -16.44,-5.59 m 223.23,186.989 c 0.32,3.312 0.93,8.203 1.77,14.371 v 0 l -1.26,-11.09 c -0.13,-1.098 -0.3,-2.199 -0.51,-3.281" class="colorfff svgShape"></path><path fill="#66ccff" d="M1609.77 404.27c-2.71 0-5.44.41-8.11 1.25l233.7 199.91c-.84-6.168-1.45-11.059-1.77-14.371-.64-3.278-1.68-6.438-3.08-9.438-21.84-31.629-163.57-140.68-204.51-171.871-4.73-3.609-10.43-5.48-16.23-5.48M1798.52 666.84c-5.73 0-11.57 3.23-14.1 8.449-3.27 6.77-.61 15.672 5.55 19.891 2.05 1.769 4.75 2.562 7.59 2.562 5.54 0 11.62-3 14.45-7.48 4.28-6.793-.01-18.282-7.15-21.942-1.97-1.011-4.15-1.48-6.34-1.48" class="colorf89db4 svgShape"></path><path fill="#17282f" d="M1674.52 513.051c-1.56-.551-5.9 13.82-20.63 22.969-14.45 9.582-29.33 7.543-29.47 9.199-.16.672 3.39 2.332 9.61 2.492 6.17.211 14.93-1.672 22.99-6.82 8.04-5.18 13.38-12.371 15.76-18.059 2.44-5.73 2.41-9.641 1.74-9.781M1651.88 480.129c-1.37-.988-8.8 8.473-21.9 13.891-12.97 5.71-24.94 4.531-25.18 6.21-.6 1.43 12.63 5.54 27.45-.89 14.9-6.258 21.07-18.66 19.63-19.211M1714.34 554.012c-1.37-1.102-12.72 13.519-32.35 23.73-19.47 10.52-37.93 11.719-37.79 13.477-.27 1.441 19.59 2.863 40.5-8.367 21.02-11.012 30.99-28.243 29.64-28.84M1728.25 633.148c-.88-1.476-14.65 6.204-33.38 9.032-18.7 3.082-34.17.011-34.54 1.699-.58 1.351 15.33 7.281 35.44 4.012 20.13-3.082 33.45-13.61 32.48-14.743M1737.2 709.98c-.99-1.421-14.53 8.961-34.5 10.321-19.95 1.801-34.95-6.321-35.7-4.75-.37.59 2.87 3.551 9.3 6.34 6.38 2.82 16.11 5.007 26.85 4.168 10.75-.868 20.01-4.559 25.87-8.34 5.91-3.778 8.64-7.199 8.18-7.739M1704.83 734.871c-.33.027-.53 3.609.77 9.938 1.3 6.273 4.2 15.39 10.82 25.031 3.38 4.539 7.04 10.461 14.74 13.07 3.83 1.332 9.17.039 11.88-3.781 2.69-3.719 3.17-8.137 2.79-12.289-2.17-16.59-18.26-31.02-37.22-31.281-19 .07-34.77 12.73-40.56 27.91-1.21 3.91-1.81 8.59.72 12.781 2.51 4.242 8.03 5.402 11.7 4.332 7.64-2.051 12.04-7.082 16.22-10.922 8.2-8.281 12.91-16.551 15.55-22.379 2.64-5.871 3.31-9.379 2.99-9.5-1-.57-5.15 13.61-21.37 28.93-4.12 3.559-8.84 8.019-14.37 9.18-2.7.57-5.17-.243-6.4-2.332-1.24-1.989-1.06-5.34.02-8.418 4.94-12.461 19.39-23.981 35.45-23.789 15.97.039 30.1 12.757 31.97 26.089.4 3.207-.08 6.551-1.59 8.661-1.48 2.078-3.99 2.878-6.52 2.179-5.33-1.472-9.36-6.57-12.68-10.832-13.22-17.957-13.78-32.969-14.91-32.578" class="color17282f svgShape"></path><path fill="#17282f" d="m 1928.3,751.57 196.32,1554.53 -62.78,361.37 -370.23,-19.63 -46.09,-1867.559 c -0.38,-13.922 9.37,-26.082 23.04,-28.75 l 215.61,-33.242 c 21.46,-3.297 41.42,11.75 44.13,33.281" class="color17282f svgShape"></path><path fill="#17282f" d="m 2118.99,2253.96 357.05,-353.36 -513.74,-124.95 36.57,-259.2 695.39,94.64 c 59.42,8.09 112.93,40.22 148,88.87 53.84,74.69 55.18,175.09 3.34,251.18 l -541.71,795.22 -242.05,-78.89 57.15,-413.51" class="color17282f svgShape"></path><path fill="#33535f" d="m 2099.27,2343.9 c 1.41,0.3 6.96,-19.58 12.4,-44.42 5.45,-24.84 8.73,-45.22 7.32,-45.54 -1.4,-0.3 -6.95,19.58 -12.4,44.43 -5.45,24.83 -8.73,45.22 -7.32,45.53" class="color33535f svgShape"></path><path fill="#33535f" d="m 2047.25,1743.01 c 0,0 2.85,1.05 8.48,2.84 5.81,1.8 14.15,4.38 25.01,7.75 22.15,6.74 54.45,16.57 95.81,29.14 83.19,25.02 202.69,60.96 348.64,104.86 l -0.89,-3.31 c -120.86,128.7 -267.65,285.02 -428.61,456.43 l 4.42,1.46 c -8.49,-71.72 -17.35,-146.62 -26.39,-223 -44.2,-370.27 -85.73,-705.25 -117.89,-947.45 -15.94,-121.13 -30.01,-218.988 -40.28,-286.531 -5.72,-33.687 -9.48,-59.949 -13.37,-77.547 -1.87,-8.672 -3.3,-15.332 -4.31,-20.011 -1,-4.5 -1.63,-6.762 -1.63,-6.762 0,0 0.29,2.363 1.12,6.891 0.88,4.699 2.14,11.382 3.79,20.101 3.55,17.598 6.99,43.918 12.4,77.641 9.65,67.609 23.15,165.518 38.63,286.698 31.22,242.29 72.17,577.33 116.37,947.58 9.07,76.38 17.95,151.27 26.46,222.99 l 0.65,5.49 3.77,-4.04 c 160.67,-171.69 307.18,-328.26 427.82,-457.18 l 2.23,-2.39 -3.13,-0.93 c -146.17,-43.19 -265.84,-78.56 -349.14,-103.16 -41.5,-12.13 -73.91,-21.61 -96.13,-28.1 -10.93,-3.13 -19.33,-5.53 -25.17,-7.2 -5.7,-1.59 -8.66,-2.26 -8.66,-2.26" class="color33535f svgShape"></path><path fill="#33535f" d="M1931.68 780.898c-1.43.184 39.35 330.112 91.07 736.832 51.74 406.87 94.82 736.44 96.24 736.25 1.43-.17-39.34-330.04-91.08-736.9-51.71-406.72-94.81-736.361-96.23-736.182M2061 2508.4c.67.19 3.91-9 8.28-24.1 4.37-15.09 9.81-36.12 14.92-59.55 5.11-23.44 8.91-44.83 11.22-60.38 2.31-15.54 3.2-25.24 2.51-25.35-.73-.12-2.9 9.36-6.13 24.7-3.63 17.16-7.93 37.47-12.69 59.92-5.02 22.38-9.56 42.63-13.4 59.75-3.45 15.29-5.42 24.82-4.71 25.01M2083.96 2538.86c-.56.3 5.01 4.87 14.5 1.56 4.43-1.56 9.69-5.99 10.83-12.79 1.2-6.44-1.17-14.59-8.09-18.92-7.1-4.14-15.49-2.33-20.52 2.02-5.42 4.45-6.16 11.67-4.64 16.14 1.42 4.72 4.39 7.66 6.68 8.92 2.34 1.31 3.86 1.28 3.94 1 .48-.67-5.46-2.78-7.04-10.79-.75-3.79.18-8.62 4.12-11.58 3.73-3 10.12-4.06 14.76-1.26 4.67 2.83 6.77 8.89 6.05 13.7-.58 4.94-4.07 8.45-7.57 10.19-4.7 2.3-8.66 2.05-10.94 1.79-1.27-.14-2.02-.28-2.08.02M2581.2 1840.1c-1.08-1.2-21.18 17.33-50.11 33.99-28.82 16.89-54.85 25.17-54.36 26.69.24 1.25 27.5-4.93 56.98-22.19 29.57-17.06 48.46-37.66 47.49-38.49" class="color33535f svgShape"></path><path fill="#406fbf" d="m 1809.47,3727.13 -205,-98.97 88.36,-616.76 -34.72,-276.84 c -4.47,-35.67 9.08,-71.24 36.15,-94.9 l 331.08,6.53 231.85,127.47 106.47,17.99 -43.59,210.71 19.53,298.93 242.33,-129.39 c 18.66,-9.96 40.4,-12.56 60.89,-7.25 l 444.28,114.89 -23.09,171.17 -402.19,-45.47 -306.28,270.64 -227.97,51.25 -40.65,67.16 h -233.27 l -16.32,-12.24 c -7.79,-5.84 -13.66,-13.89 -16.85,-23.1 l -11.01,-31.82" class="colorf03d5f svgShape"></path><path fill="#406fbf" d="m 1604.47,3628.16 c 0,0 -67.25,-42.59 -92.31,-120.4 -23.43,-72.76 -76.31,-367.06 -76.31,-367.06 l -232.9,144.52 -134.24,-141.09 310.51,-273.81 c 47.6,-41.97 115.71,-51.36 172.88,-23.82 v 0 c 47.73,22.98 80.74,68.37 87.91,120.85 l 38.11,279.06 -73.65,381.75" class="colorf03d5f svgShape"></path><path fill="#fbbc88" d="m 2303.89,2746.36 -14.43,21.22 -153.29,-28.33 -28.22,-65.31 195.94,72.42" class="colorf8a58d svgShape"></path><path fill="#406fbf" d="m 1694.26,2639.66 c 136.96,-55.12 283.24,-34.85 413.69,34.28 39.38,20.86 75.91,46.84 115.45,67.39 39.55,20.55 83.45,35.77 127.9,32.65 44.46,-3.12 89.32,-27.66 107.11,-68.53 17.77,-40.87 0.02,-96.51 -41.86,-111.75 4.94,-4.42 9.87,-8.84 14.82,-13.25 61.5,28.62 90.66,111.44 60.66,172.28 -23.02,46.67 -71.37,74.48 -106.8,112.58 -52.1,56.03 -57.53,164.46 -57.86,248.85 l -633.11,-474.5" class="colorf03d5f svgShape"></path><path fill="#17282f" d="m 1994.75,3607.9 c -0.03,-0.28 -3.61,-0.47 -10.09,-0.58 -6.17,-1.07 -16.33,-2.35 -24.28,-11.17 -7.95,-8.52 -12.33,-22.89 -12.11,-39.11 0.03,-16.15 3.17,-34.73 11.12,-52.45 l 3.86,-8.6 -7.55,5.59 c -17.14,12.71 -34.85,28.06 -51.64,45.67 -39.55,41.29 -66.09,86.71 -79.41,121.58 -6.99,17.35 -10.55,32.12 -12.88,42.26 -1.82,10.29 -2.66,15.98 -2.3,16.04 1.16,0.28 4.06,-22.83 18.6,-56.92 14.03,-34.11 40.68,-78.56 79.75,-119.36 16.59,-17.39 34.01,-32.64 50.82,-45.34 l -3.69,-3.01 c -4.28,9.37 -6.83,18.86 -8.54,28.05 -1.69,9.18 -2.59,18.1 -2.29,26.54 0.08,16.8 5.04,32.14 14.08,41.17 9.09,9.31 19.99,10.09 26.36,10.68 6.69,-0.4 10.22,-0.76 10.19,-1.04" class="color17282f svgShape"></path><path fill="#406fbf" d="m 2007.04,3607.9 c 16.87,7.27 41.87,-3.47 53.98,-17.28 8.01,-9.12 12.51,-21.78 23.07,-27.78 10.6,-6.03 43.89,-10.64 53.58,-3.24 0,0 5.92,28.48 9.03,40.28 12.31,46.71 17.61,89.16 22.79,136.82 -32.27,15.61 -23.37,36.21 -81.4,32.27 0,0 14.54,-42.83 2.03,-81.81 l -83.08,-79.26" class="colorf03d5f svgShape"></path><path fill="#17282f" d="M2090.12 3687.16c-.55.16 2.11 7.74 3.37 21.93 1.02 14.08.3 35.16-7.22 59.26l-.75 2.41 2.44.13c12.81.73 27.62 1.87 42.82-3.85 7.62-2.91 13.89-8.85 19.76-14.24 5.93-5.46 12.43-10.31 20.03-13.87l1.57-.74-.19-1.76c-2.58-24.28-5.52-50.8-10.12-78.15-3.01-17.89-6.62-35.23-10.8-51.76-4.2-16.5-7.48-32.37-11.02-47.4l-.24-.99-.65-.43c-5.78-3.73-11.64-3.91-17.13-4.17-5.53-.12-10.88.31-16.05 1.04-5.17.74-10.17 1.77-14.97 3.26-4.75 1.41-9.64 3.71-13.14 7.15-7.11 6.8-10.76 14.89-15.41 21.14-4.53 6.32-10.2 10.88-15.76 14.32-11.17 6.89-21.74 9.05-28.77 8.99-7.12-.07-10.71-1.95-10.85-1.53 0 0 3.36 2.48 10.79 3.06 7.33.55 18.44-1.22 30.31-8.05 5.88-3.38 12.07-8.08 17.06-14.72 4.99-6.47 8.89-14.4 15.31-20.26 6.25-5.81 16.2-7.46 26.03-8.98 4.97-.64 10.12-.99 15.31-.82 5.07.18 10.7.86 14.37 3.36l-.88-1.4c3.41 15.1 6.65 31.25 10.75 47.67 4.07 16.41 7.61 33.62 10.6 51.38 4.57 27.18 7.61 53.58 10.34 77.82l1.39-2.49c-8.01 3.81-15.08 9.17-21.09 14.82-6.02 5.64-11.5 10.92-18.3 13.6-13.6 5.38-28.22 4.7-40.8 4.16l1.69 2.54c7.31-25.06 7.36-46.37 5.69-60.71-.99-7.18-2.25-12.67-3.41-16.3-1.19-3.62-1.9-5.47-2.08-5.42M2431.76 2742.9c-.4.04.46 4-.09 11.48-.51 7.41-2.61 18.58-9.86 30.84-7.19 12.17-19.35 25.34-36.77 35.52-17.37 10.28-40.21 15.91-65.58 17.99-25.43 2.34-53.58.95-83.88 3-30.19 2.12-62.66 7.38-94.59 20.06-31.81 12.5-62.85 33.52-85.34 63.72-11.14 15.08-19.73 32.59-24.52 51.39-5.05 18.76-6.33 38.55-5.61 58.27 1.55 39.59 10.65 77.08 16.12 113.45 5.75 36.38 8.91 71.83 10 105.67 1.89 67.7-4.07 128.72-13.16 179.11-9.07 50.44-20.65 90.38-29.5 117.64-4.28 13.69-8.14 24.13-10.66 31.26-1.14 3.35-2.06 6.02-2.78 8.13-.6 1.85-.87 2.81-.79 2.84.08.03.52-.86 1.28-2.64.85-2.06 1.93-4.68 3.27-7.96 2.84-7.01 7.01-17.36 11.61-30.99 9.45-27.12 21.61-67.05 31.19-117.62 9.59-50.52 15.98-111.82 14.33-179.91-.96-34.03-4.04-69.71-9.75-106.32-5.45-36.62-14.45-73.97-15.96-112.85-2.02-38.66 6.91-77.26 29.04-106.45 21.74-29.3 51.9-49.93 83.01-62.29 31.24-12.55 63.24-17.92 93.13-20.2 29.93-2.22 58.17-1.05 83.89-3.64 25.65-2.34 49-8.33 66.73-19.15 17.73-10.68 29.94-24.38 37.04-37.02 7.16-12.73 8.99-24.26 9.15-31.8.21-3.82-.18-6.7-.45-8.63-.25-1.93-.41-2.91-.5-2.9" class="color17282f svgShape"></path><path fill="#17282f" d="M2282.18 2925.33c.25-.26-3.87-4.5-11.56-11.95-3.79-3.77-8.55-8.27-14.38-13.15-5.79-4.92-12.21-10.77-19.88-16.49-14.95-11.97-33.71-25.02-55.33-38.25-21.77-12.95-46.5-25.9-73.45-37.32-27.05-11.19-53.64-19.73-78.15-26.17-24.59-6.12-47.05-10.33-66.07-12.58-9.47-1.46-18.13-1.93-25.7-2.6-7.57-.73-14.11-.97-19.47-1.03-10.7-.24-16.6-.21-16.61.15-.01.36 5.88 1.01 16.5 1.88 5.31.37 11.8.9 19.31 1.9 7.5.95 16.09 1.66 25.46 3.35 18.83 2.7 41.04 7.26 65.37 13.57 24.24 6.65 50.54 15.24 77.35 26.34 26.7 11.31 51.27 24.02 73 36.63 21.58 12.9 40.4 25.53 55.54 37.05 7.78 5.5 14.31 11.12 20.25 15.8 5.98 4.64 10.91 8.9 14.91 12.43 8.06 6.96 12.66 10.69 12.91 10.44M2217.74 3253.8c.18-.04-.12-1.94-.87-5.51-.92-4.14-2.08-9.29-3.49-15.6-1.48-6.79-3.51-15.04-6.61-24.41-3.01-9.39-5.92-20.28-10.66-31.78-2.23-5.83-4.57-11.9-6.99-18.22-2.48-6.32-5.64-12.64-8.61-19.32-5.74-13.47-13.37-27.12-21.1-41.63-16.38-28.51-36.54-58.67-60.8-87.9-24.58-28.99-50.77-54.1-75.99-75.19-12.96-10.14-25.07-20.03-37.34-28.03-6.06-4.08-11.73-8.3-17.52-11.84-5.8-3.49-11.38-6.84-16.73-10.05-10.5-6.67-20.71-11.43-29.44-16.03-8.69-4.68-16.46-8.12-22.89-10.75-5.96-2.49-10.84-4.52-14.75-6.15-3.39-1.36-5.2-1.99-5.27-1.82-.07.16 1.61 1.12 4.86 2.78 3.79 1.86 8.52 4.19 14.31 7.02 6.28 2.91 13.88 6.6 22.4 11.51 8.55 4.81 18.58 9.77 28.89 16.6 5.25 3.28 10.73 6.7 16.43 10.26 5.69 3.61 11.27 7.88 17.23 12.02 12.07 8.07 23.99 18.02 36.75 28.17 24.85 21.13 50.71 46.11 75.07 74.84 24.05 28.99 44.14 58.79 60.62 86.93 7.78 14.34 15.5 27.8 21.35 41.09 3.03 6.59 6.27 12.82 8.83 19.05 2.52 6.23 4.93 12.23 7.25 17.97 4.93 11.34 8.07 22.08 11.32 31.34 3.35 9.24 5.67 17.38 7.43 24.06 1.79 6.19 3.26 11.26 4.43 15.32 1.07 3.49 1.72 5.31 1.89 5.27M1796.01 2589.43c-.29-.46-7.99 3.82-18.23 13.59-10.24 9.68-22.44 25.46-30.89 45.44-8.37 20.02-11.1 39.78-10.86 53.87.19 14.15 2.52 22.64 3.06 22.53.88-.11-.13-8.7.62-22.44.7-13.71 3.91-32.61 11.99-51.94 8.16-19.29 19.41-34.8 28.72-44.9 9.29-10.15 16.13-15.44 15.59-16.15M1788.72 2667.32c1.49-.4-1.28-13.23.17-29.01 1.25-15.8 6.14-27.98 4.74-28.62-1.14-.71-8.56 11.26-9.94 28.18-1.5 16.9 3.79 29.96 5.03 29.45M1690.03 3025.35c-.17-.02-.59 1.59-1.21 4.69-.67 3.71-1.49 8.2-2.47 13.6-2.12 12.64-4.95 29.56-8.4 50.1-7.03 42.31-16.98 100.71-28.97 165.02-12 64.34-23.76 122.41-32.45 164.4-4.19 20.4-7.64 37.2-10.22 49.76-1.03 5.4-1.89 9.88-2.59 13.57-.54 3.12-.74 4.78-.56 4.82.17.04.72-1.54 1.58-4.58.97-3.64 2.14-8.05 3.55-13.36 2.98-11.62 7.04-28.51 11.84-49.42 9.62-41.83 21.95-99.84 33.98-164.23 11.98-64.38 21.37-122.93 27.48-165.41 3.06-21.24 5.36-38.46 6.76-50.38.6-5.46 1.1-10 1.51-13.74.29-3.15.35-4.82.17-4.84M2330.09 3025.35c-.18 0-.35 1.7-.5 4.95-.12 3.85-.25 8.54-.43 14.2-.3 12.33-.34 30.18-.2 52.23.42 44.1 2.35 105.05 7.46 172.17 5.06 67.14 11.85 127.7 17.06 171.47 2.69 21.26 4.91 38.76 6.56 51.8.83 5.6 1.5 10.24 2.07 14.04.53 3.21.89 4.89 1.06 4.87.19-.03.17-1.74-.03-4.98-.29-3.84-.65-8.51-1.08-14.16-1.24-13.07-2.9-30.63-4.92-51.97-4.27-43.86-10.47-104.43-15.54-171.47-5.1-67.01-7.6-127.81-8.95-171.85-.6-21.41-1.1-39.04-1.46-52.16-.22-5.66-.41-10.35-.56-14.19-.18-3.25-.36-4.95-.54-4.95M1530.46 2999.58c-1.76-.77-14.93 35.68-40.42 75.28-25.68 39.61-55.48 64.53-54.19 65.84.41.47 8.25-5.2 19.6-15.97 11.32-10.75 25.86-26.97 38.95-47.03 13.05-20.06 22.21-39.72 28.08-54.16 5.85-14.46 8.6-23.72 7.98-23.96" class="color17282f svgShape"></path><path fill="#17282f" d="m 1547.66,3043.05 c -0.82,-0.33 -4.21,7.61 -11.21,19.46 -7.02,11.81 -18.38,27.21 -34.58,40.47 -16.19,13.25 -33.29,21.96 -45.75,27.88 -12.54,5.83 -20.53,9.08 -20.27,9.84 0.21,0.59 8.64,-1.42 21.73,-6.46 12.99,-5.13 30.82,-13.51 47.6,-27.24 16.79,-13.74 28.16,-30.17 34.49,-42.7 6.33,-12.6 8.51,-21.06 7.99,-21.25" class="color17282f svgShape"></path><path fill="#fafaf9" d="M1650.66 3283.57c.14-.07-.48-1.64-2.08-4.44-1.66-2.74-4.5-6.64-9.16-10.67-9.01-7.96-26.73-16.68-49.02-13.21-22.08 3.26-45.63 19.22-61.56 43.52-8.13 12.04-14.61 25.85-20.3 40.39-2.78 7.32-5.61 14.67-7.97 22.53-2.29 7.83-3.95 16.34-2.82 25.12 1.18 8.64 5.09 17.19 12.18 22.7 7.15 5.64 16.76 6.41 24.7 4.41 16.33-4.06 28.04-17.22 32.91-31.2 5.23-14.09 3.07-29.71-4.08-40.9-7.08-11.27-17.78-18.76-28.55-21.87-10.84-3.25-21.46-1.79-29.61 1.41-8.25 3.22-14.3 8.09-18.5 12.56-4.13 4.58-6.55 8.76-7.78 11.73-1.27 2.96-1.63 4.62-1.5 4.67.56.3 2.34-6.53 10.74-14.99 4.24-4.07 10.18-8.46 18.05-11.24 7.8-2.76 17.62-3.82 27.53-.61 9.86 3.06 19.62 10.2 25.93 20.59 6.35 10.32 8.11 24.21 3.25 37.03-4.52 12.69-15.33 24.42-29.56 27.85-6.99 1.7-14.74.94-20.37-3.55-5.69-4.39-9.17-11.71-10.18-19.28-1.8-15.49 5.28-30.71 10.39-45.11 5.55-14.37 11.79-27.88 19.54-39.58 15.16-23.58 37.38-39.01 58.17-42.55 20.91-3.75 38.09 3.95 47.12 11.14 9.34 7.41 12.03 13.91 12.53 13.55M2043.81 3129.99c.06-.07-.87-.88-2.72-2.37-2.09-1.62-4.85-3.75-8.35-6.46-7.49-5.46-18.52-13.75-34.44-21.64-7.97-3.85-17.29-7.46-28.03-9.32-10.67-1.92-22.91-1.63-35.09 2.27-24.53 7.82-46.88 28.79-63.35 55.79-16.58 27.09-27.87 61.28-28.93 98.76-1.05 37.26 7.78 78.14 30.78 113.73 11.17 17.61 26.15 34.88 47.07 43.99 10.42 4.48 22.23 6.09 33.71 4.28 11.44-1.71 22.87-7.41 30.22-17.1 7.49-9.54 10.35-22.15 9.41-34.04-.89-11.96-4.69-23.64-10.83-34.03-12.39-20.83-32.84-36.23-55.62-45.09-22.97-8.59-47.81-11.01-71.36-7.37-23.7 3.28-45.69 13.35-64.37 26.66-37.5 27.18-61.67 66.64-75.63 106.02-6.82 19.64-12.38 40.3-9.19 60.7 1.64 10.06 5.49 19.7 11.65 27.62 6.08 7.92 14.82 13.85 24.41 15.91 19.28 4.15 38.65-4.12 50.37-17.4 12.15-13.57 14.89-32.23 12.16-47.94-2.69-15.96-10.37-30.03-20.51-40.38-10.13-10.39-22.11-17.43-33.83-22.14-23.67-9.45-45.97-10.14-63.51-9.61-17.69.73-31.25 2.8-40.43 4.12-4.37.7-7.82 1.25-10.42 1.67-2.35.42-3.54.68-3.53.77.02.08 1.23.01 3.6-.24 2.63-.29 6.09-.67 10.48-1.16 9.21-.99 22.8-2.72 40.35-3.13 17.41-.23 39.37.79 62.36 10.27 11.38 4.73 22.91 11.67 32.54 21.75 9.6 9.97 16.83 23.51 19.27 38.68 2.49 14.91-.33 32.38-11.53 44.67-10.86 12.25-29.11 19.76-46.39 15.87-17.55-3.73-29.84-21.4-32.52-40.05-2.93-19.03 2.38-39.03 9.2-58.39 13.81-38.63 37.65-77.17 74.07-103.46 18.2-12.89 39.33-22.54 62.16-25.69 22.71-3.5 46.69-1.13 68.74 7.11 21.84 8.49 41.33 23.25 53.01 42.85 5.78 9.73 9.34 20.74 10.16 31.75.88 11-1.74 22.19-8.31 30.58-6.41 8.5-16.52 13.65-26.97 15.24-10.5 1.67-21.37.23-30.99-3.88-19.46-8.38-34.04-24.84-44.98-42.03-22.49-34.56-31.32-74.49-30.48-110.99.86-36.72 11.7-70.3 27.75-96.96 15.96-26.63 37.63-47.19 61.11-54.94 23.72-7.86 45.83-1.08 61.36 6.11 15.83 7.5 27.03 15.49 34.68 20.66 3.63 2.53 6.49 4.53 8.65 6.04 1.96 1.35 2.99 2.01 3.04 1.94M1767.9 3691.09c.3-.13-.7-3.36-3.18-8.95-2.46-5.6-6.62-13.45-12.83-22.5-12.22-18.05-34.14-40.59-64.66-55.15-30.54-14.57-61.85-17.44-83.57-15.58-10.94.86-19.67 2.57-25.56 4.18-5.9 1.59-9.04 2.85-8.96 3.16.22.94 13.22-2.89 34.72-3.66 21.32-.88 51.57 2.5 81.12 16.59 29.54 14.1 51.2 35.49 63.93 52.62 12.92 17.19 18.13 29.71 18.99 29.29M1915.63 3648.5c.18-1.51-14.95-2.27-28.21-13.84-13.58-11.22-16.78-26.02-18.25-25.6-.61.09-.8 3.98 1.17 9.87 1.91 5.86 6.43 13.51 13.7 19.7 7.29 6.17 15.57 9.39 21.67 10.33 6.13.98 9.93.16 9.92-.46M2127.13 3589.73c-.13-.27-3.32.77-8.48 3.91-5.14 3.13-12.21 8.59-18.81 17.3-6.44 8.68-12.77 20.63-13.86 35.46-.43 7.3 1.01 15.7 6.14 22.46 4.81 6.59 13.73 11.95 23.17 9.8 9.21-2.12 15.6-9.54 18.18-17.48 2.88-8.15.35-17.25-4.58-23-9.95-12.04-25.98-13.88-36.23-9.6-10.58 4.06-16.55 11.35-19.77 16.36-3.26 5.16-3.97 8.51-3.73 8.6.41.19 1.76-2.85 5.38-7.43 3.57-4.46 9.67-10.86 19.33-14.06 9.29-3.43 23.07-1.17 31.27 9.12 4 5.01 5.82 11.93 3.48 18.44-2.1 6.43-7.58 12.47-14.44 13.95-6.81 1.65-13.91-2.31-17.99-7.79-4.28-5.51-5.67-12.54-5.41-19.16.7-13.4 6.29-25.06 12.05-33.52 12.08-17.14 24.97-22.5 24.3-23.36M2167.01 3706.46c-1.21-1.03-12.11 14.72-33.02 23.04-20.73 8.77-39.55 5.22-39.68 6.81-.14.6 4.33 2.4 12.05 2.99 7.68.62 18.6-.48 29.61-4.98 10.99-4.53 19.54-11.42 24.56-17.26 5.08-5.84 7-10.27 6.48-10.6M2441.99 3590.07c.04-.08-.62-.5-1.96-1.24-1.64-.85-3.61-1.88-6.03-3.13-5.36-2.61-13.38-6.28-24.03-10.22-21.21-7.79-53.38-16.84-94.2-17.7-10.2-.13-21 .57-31.97 3.1-10.93 2.46-22.26 7.05-31.55 15.36-9.27 8.25-15.41 20.92-15.46 34.23-.31 13.25 4.41 26.83 13.3 37.62 18.32 21.67 51.03 28.72 79.62 20.46 28.68-7.97 54.87-30.91 63.81-61.8 9.15-30.5 1.39-64.61-19.05-86.68-20.14-22.53-48.01-33.72-74.06-39.84-26.47-6.02-52.16-6.53-75.85-7.66-23.74-.96-45.79-2.37-65.47-6.39-39.49-7.74-67.4-28.08-80.58-45.97-13.54-18.06-14.52-31.44-15.34-31.05-.09.01.02.79.32 2.29.36 1.49.66 3.77 1.59 6.62 1.73 5.72 5.13 14.05 11.81 23.35 12.98 18.69 41.22 39.99 81.45 48.36 19.96 4.33 42.26 5.95 66.01 7.1 23.71 1.32 49.2 2.02 74.98 8.02 25.45 6.09 52.34 17.16 71.31 38.56 19.27 20.86 26.5 52.97 17.88 81.81-8.35 29-33.09 50.77-60.2 58.37-26.95 7.91-57.77 1.14-74.56-18.64-8.17-9.79-12.62-22.35-12.39-34.44-.01-12.16 5.38-23.48 13.8-31.14 8.44-7.68 19.06-12.18 29.55-14.63 10.52-2.54 21.04-3.34 31.02-3.33 40.27.37 72.29 8.78 93.56 15.94 10.68 3.61 18.78 6.96 24.26 9.25 5.46 2.36 8.34 3.59 8.43 3.42M2192.53 3197.4c-.84-.38-4.33 8.38-13.45 20.09-8.95 11.64-24.52 25.94-45.58 33.88-21.09 7.91-42.22 7.39-56.63 4.53-14.57-2.8-22.96-7.09-23.35-6.26-.28.43 7.64 5.99 22.56 9.86 14.71 3.9 36.97 5.1 59.25-3.26 22.26-8.38 38.22-23.94 46.71-36.57 8.69-12.73 10.99-22.13 10.49-22.27M2309.34 3121.8c.45-.17-2.94-9.25-13.69-20.2-10.46-10.86-29.48-22.93-53.17-24.86-23.71-1.83-44.4 7.09-56.46 16.16-12.33 9.12-17.11 17.56-16.68 17.79.7.63 6.44-6.8 18.76-14.75 12.09-7.94 31.78-15.72 53.96-14.01 22.17 1.81 40.38 12.59 51.06 22.34 10.92 9.79 15.42 18.04 16.22 17.53M2339.75 3320.72c-.44-.75-6.46 2.89-17.09 5.7-10.51 2.86-26.12 4.25-41.96-.8-15.84-5.08-27.74-15.27-34.64-23.7-7.03-8.45-9.81-14.91-10.6-14.55-.54.16 1.05 7.28 7.68 16.79 6.48 9.44 18.85 20.93 35.97 26.42 17.13 5.46 33.88 3.29 44.62-.64 10.93-3.91 16.36-8.78 16.02-9.22M2712.3 3412.74c.18.04.8-2.5 1.83-7.42.63-2.45 1-5.53 1.26-9.2.47-3.66.58-7.9.34-12.68-.23-18.95-7.22-47.42-28.65-74.53-10.6-13.5-25.06-26.23-43.11-35.54-17.97-9.5-39.73-14.41-62.48-14.34-45.39.2-95.71 21.95-128.44 63.57-8.08 10.39-14.64 22.05-18.1 34.64-3.51 12.57-3.41 26.07.64 38.16 3.88 12.1 12.24 22.87 23.4 28.54 11.14 5.69 23.8 6.47 35.17 4.16 11.42-2.39 21.84-7.95 29.73-15.77 7.78-7.84 13.15-17.38 16.3-27.12 6.3-19.59 4.92-39.45-.44-55.8-5.41-16.44-14.25-29.73-23.6-39.62-9.37-9.93-19.09-16.78-27.53-21.28-8.46-4.53-15.61-6.7-20.41-8.13-4.9-1.12-7.48-1.57-7.52-1.41-.2.63 10.49 2.08 26.95 11.31 15.88 9.2 38.34 28.09 48.59 60.24 4.95 15.78 6.01 34.86-.13 53.33-3.06 9.17-8.18 18.03-15.44 25.23-7.25 7.09-16.92 12.18-27.46 14.32-10.51 2.07-22.04 1.24-31.91-3.88-9.85-5.06-17.33-14.64-20.85-25.72-3.67-11.09-3.77-23.5-.5-35.19 3.25-11.75 9.44-22.82 17.22-32.83 31.61-40.2 80.45-61.53 124.38-61.95 21.99-.19 43.1 4.4 60.47 13.39 17.51 8.82 31.71 21.01 42.21 34 21.23 26.11 28.65 53.73 29.49 72.31 1.03 18.82-2.14 29.12-1.41 29.21M2789.46 3205.65c-.23-.19-2.56 2.11-6.08 6.86-3.5 4.75-7.94 12.3-10.92 22.63-2.87 10.35-3.54 23.37-1.51 37.26 2.01 13.93 5.72 28.64 10.13 44.14 9.57 30.95 24.74 56.11 35.79 73.81 5.62 8.85 10.38 15.85 13.76 20.63 3.39 4.78 5.41 7.32 5.72 7.13.65-.41-5.9-11.59-16.32-29.66-10.22-18.1-24.65-43.25-33.96-73.43-4.32-15.15-8.2-29.94-10.38-43.32-2.2-13.44-1.93-25.72.33-35.66 5.03-19.91 14.55-29.76 13.44-30.39M2978.81 3435.73c.34.11 1.4-2.43 3.03-7.16 1.71-4.7 3.49-11.74 5.04-20.55 3.17-17.6 4-42.82-1.88-69.68-5.98-26.84-17.34-49.38-27.63-64.01-5.11-7.34-9.69-12.97-13.22-16.51-3.47-3.61-5.49-5.47-5.75-5.23-.71.62 6.63 8.83 15.9 23.76 9.29 14.86 19.79 36.98 25.61 63.11 5.71 26.15 5.5 50.64 3.33 68.03-2.13 17.44-5.32 27.98-4.43 28.24M2324.49 2968.09c-.11-.14-1.61.64-4.37 2.25-2.74 1.63-6.7 4.14-12.2 6.65-10.77 5.29-27.35 11.51-48.75 13.66-21.26 2.02-47.5-.34-73.43-11.77-12.9-5.68-25.62-13.68-36.67-24.3-5.55-5.25-10.7-11.14-14.44-17.86-3.74-6.69-6.01-14.36-5.03-21.96.9-7.56 4.69-14.84 10.69-18.77 5.98-3.99 13.87-3.86 20.37-.94 13.68 5.85 18.96 21.62 18.55 35.12-.61 28.14-18.59 50.59-37.08 60.15-18.97 9.91-37.48 8.91-48.96 6.48-11.74-2.6-17.57-6.25-17.8-5.76-.08.15 1.31 1.1 4.14 2.67 2.87 1.46 7.22 3.47 13.18 5.06 11.67 3.09 30.86 4.84 51.14-5.18 19.75-9.71 39.2-33.05 40.18-63.33.16-7.44-.93-15.26-4.24-22.58-3.23-7.28-9.23-13.9-17.04-17.29-7.6-3.51-17.57-3.85-25.27 1.25-7.63 5.03-11.96 13.71-13.03 22.49-1.14 8.98 1.57 17.82 5.67 25.11 4.15 7.39 9.65 13.59 15.46 19.04 11.56 11.02 24.85 19.23 38.25 24.99 26.94 11.58 53.99 13.59 75.75 11.04 21.89-2.69 38.64-9.59 49.29-15.53 5.44-2.83 9.27-5.64 11.85-7.57 2.6-1.9 3.9-2.97 3.79-3.12M2360.66 2885.37c1.2-.79-4.22-11.07-12.1-22.95-7.88-11.88-15.24-20.87-16.43-20.08-1.2.8 4.22 11.07 12.1 22.96 7.88 11.88 15.24 20.87 16.43 20.07M2487.63 2742.22c-.81-.22-2.21 3.57-5.69 8.73-3.44 5.18-9.41 11.5-17.64 16.13-8.28 4.56-16.8 6.31-23.01 6.5-2.45.1-4.55.03-6.21-.04-2.55-.11-4.06-.22-4.2.27-.22.55 3.5 2.71 10.29 3.45 6.74.79 16.48-.54 25.66-5.63 9.15-5.12 15.42-12.7 18.31-18.84 2.93-6.17 3.06-10.46 2.49-10.57M2074.56 2793.2c.36-.74-12.04-6.89-31.34-17.91-19.12-11.09-45.58-27.44-68.02-52.57-22.36-25.14-33.62-54.67-36-76.41-2.66-21.93 1.66-35.49.56-35.66-.28-.08-1.56 3.18-2.86 9.36-1.34 6.16-2.24 15.37-1.37 26.68 1.5 22.57 12.65 53.5 35.77 79.49 23.14 25.88 50.45 41.99 70.15 52.33 9.95 5.17 18.17 8.96 23.93 11.4 5.76 2.45 9.03 3.6 9.18 3.29M2221.48 2744.37c-.32-.39-5.59 3.29-10.89 12.03-5.34 8.61-9.62 22.68-8.35 38.29 1.32 15.6 7.89 28.76 14.57 36.38 6.68 7.73 12.49 10.49 12.73 10.05.57-.73-4.31-4.49-9.81-12.3-5.56-7.73-11.05-20.06-12.3-34.57-1.16-14.51 2.21-27.57 6.4-36.12 4.15-8.61 8.33-13.13 7.65-13.76M1991.82 2925.54c-.24-.18-1.77 2.26-5.74 5.79-3.99 3.42-10.87 7.73-20.82 9.25-9.81 1.49-22.75.23-34.89-7.28-12.28-7.26-23.38-19.71-33.1-34.95-9.88-15.18-18.27-33.49-30.9-51.28-12.44-17.86-31.56-33.57-55.15-41.21-23.36-7.95-51.25-7.18-75.68 4.4-24.27 11.39-45.67 32.26-55.66 59.34-4.85 13.46-6.33 28.54-1.72 42.19 4.39 13.68 14.31 24.73 25.94 31.8 11.63 7.22 25.46 10.35 38.64 8.85 13.2-1.71 25.11-7.96 34.32-16.33 18.59-16.85 27.51-40.9 27.13-62.86-.2-22.12-8.26-41.86-18.66-57.11-10.46-15.42-23.65-26.44-36.17-34-12.59-7.57-24.48-12.1-34.35-14.94-9.87-2.87-17.76-4.19-23.11-4.89-2.67-.39-4.72-.53-6.11-.64-1.37-.09-2.08-.09-2.09-.01-.03.21 2.76.65 8.03 1.68 5.27 1.03 13.02 2.66 22.69 5.79 9.65 3.11 21.23 7.85 33.41 15.48 12.11 7.64 24.72 18.54 34.64 33.59 9.88 14.88 17.4 34.01 17.41 55.08.19 20.81-8.5 43.56-26.02 59.25-8.65 7.79-19.74 13.48-31.71 14.97-11.95 1.31-24.69-1.56-35.39-8.26-10.71-6.55-19.76-16.73-23.68-29.07-4.15-12.25-2.86-26.17 1.7-38.8 9.37-25.51 29.82-45.61 52.92-56.49 23.27-11.08 49.62-11.92 72.04-4.46 22.62 7.23 40.91 21.99 53.13 39.19 12.46 17.19 21.07 35.42 31.31 50.75 10.09 15.37 21.74 28.11 34.72 35.46 12.9 7.63 26.54 8.63 36.69 6.76 10.34-1.91 17.33-6.71 21.2-10.47 3.85-3.9 5.03-6.57 5.03-6.57M1995.16 2769.73c-.29-.44-7.27 3.47-16.14 12.75-8.86 9.19-18.91 24.34-24.58 43.2-5.59 18.88-5.47 37.06-3.09 49.61 2.33 12.61 6.03 19.71 6.51 19.5.86-.28-1.54-7.72-2.86-20.02-1.38-12.26-.9-29.54 4.43-47.61 5.43-18.03 14.5-32.74 22.36-42.25 7.84-9.56 13.93-14.47 13.37-15.18M2031.97 3000.27c-.27-.52-7.05 3.36-20.1 8.48-12.99 5.1-32.31 11.74-57.09 15.02-24.67 3.32-54.86 3.39-86.94-4.24-15.83-3.98-32.74-9.39-47.98-17.98-7.34-4.39-14.11-10.9-15.88-18.99-1.56-7.74 2.85-17.92 10.35-20.11 3.61-1.12 7.75.33 10.54 3.17 2.88 2.87 4.75 6.97 5.98 11.16 2.31 8.45 2.55 17.83 2.3 26.57-.74 17.69-5.43 34.56-12.8 49.09-7.25 14.61-17.2 26.9-28.23 36.29-11.04 9.4-23.2 15.85-34.83 20.02-23.48 8.34-44.28 7.72-57.95 5.77-13.79-2.19-21.05-5.23-21.22-4.72-.07.17 1.71.97 5.17 2.34 3.48 1.33 8.75 2.96 15.7 4.38 13.81 2.6 35.14 3.86 59.51-4.29 12.07-4.08 24.78-10.56 36.4-20.2 11.59-9.61 22.08-22.29 29.73-37.42 7.79-15.05 12.77-32.56 13.62-51.04.26-9.27.15-18.59-2.42-28.23-1.4-4.71-3.45-9.52-7.3-13.41-3.77-3.87-9.89-6.21-15.6-4.5-5.71 1.6-9.55 6.11-11.87 10.75-2.24 4.75-3.16 10.11-2.16 15.36 2.38 10.52 10.41 17.6 18.31 22.37 16.36 9.11 33.17 14.27 49.52 18.29 32.82 7.53 63.58 7.06 88.58 3.22 25.09-3.81 44.48-11.09 57.36-16.8 6.46-2.85 11.3-5.44 14.5-7.33 3.23-1.83 4.88-2.86 4.8-3.02M1252.67 2971.5c-.32.43 6.21 4.84 16.07 14.82 9.74 9.94 22.8 26.14 31.43 49.61 8.51 23.02 11.98 54.86-2.51 84.63-6.95 14.73-17.79 28.69-31.92 39.39-14.01 10.82-31.71 18.07-50.36 18.91-9.19.3-18.41-1.73-26.46-5.54-8-3.84-14.82-10.03-17.6-17.84-2.79-7.86-1.1-16.54 3.59-23.2 4.62-6.7 11.57-11.63 18.97-14.09 15.26-4.89 31.35-.43 43.29 7.36 12.14 7.84 20.97 18.68 26.25 29.8 10.72 22.53 11.46 43.57 12.52 57.43.28 6.57.51 11.94.7 16.23.15 3.71.31 5.67.49 5.67.17 0 .37-1.95.55-5.67.18-3.72.36-9.21.29-16.3-.48-13.97-.54-35.28-11.22-58.95-5.33-11.75-14.45-23.35-27.22-31.83-12.53-8.41-30-13.63-47.11-8.31-8.44 2.75-16.22 8.16-21.61 15.84-5.45 7.57-7.68 18.21-4.31 27.7 3.36 9.52 11.37 16.57 20.15 20.82 8.9 4.22 18.8 6.4 28.89 6.08 19.98-.89 38.62-8.65 53.29-20.05 14.8-11.31 26.02-25.95 33.17-41.41 7.37-15.45 10.17-31.89 9.86-46.99-.25-15.16-3.71-29.02-8.24-40.97-9.33-23.97-23.14-40.12-33.45-49.76-5.17-4.9-9.56-8.28-12.65-10.37-3.08-2.12-4.74-3.15-4.85-3.01M1459.92 2822.72c-.23-.2-3.16 2.64-7.82 8.32-4.68 5.66-10.86 14.4-17.13 26.01-12.59 22.97-24.34 59.09-21.68 99.7 2.7 40.62 19.09 74.89 34.59 96.01 7.73 10.68 15 18.53 20.39 23.54 5.37 5.02 8.64 7.44 8.84 7.21.74-.73-11.75-11.31-26.2-32.85-14.45-21.26-29.81-54.82-32.42-94.25-2.58-39.43 8.24-74.71 19.77-97.68 11.49-23.25 22.49-35.38 21.66-36.01M1655.37 3040.21c-.95-.33-5.1 15.06-17.5 37.12-12.19 21.97-34.09 50.3-66.24 71.57-32.17 21.27-66.82 30.34-91.81 32.96-15.3 1.69-27.13 1.54-34.07 1.38-4.46-.1-6.9-.2-6.93.19-.03.31 3.84 1.15 10.98 1.9 7.12.76 17.54 1.14 30.38.2 25.51-1.72 61.26-10.42 94.32-32.28 33.04-21.86 55.04-51.36 66.61-74.16 5.89-11.44 9.61-21.18 11.7-28.04 2.11-6.85 2.86-10.75 2.56-10.84" class="colorfafaf9 svgShape"></path><path fill="#274682" d="m 2064.49,2792.3 c 14.06,4.57 28.51,9.84 43.09,15.87 26.95,11.42 51.68,24.37 73.45,37.32 1.61,0.98 3.2,1.97 4.78,2.95 9.03,-1.9 18,-3.36 26.84,-4.48 -18.33,-18.77 -38.64,-35.63 -60.42,-50.31 -26.1,-0.79 -52.32,-1.24 -78.63,-1.33 0.69,0.45 1.02,0.75 0.96,0.88 -0.02,0.03 -0.07,0.05 -0.16,0.05 -0.39,0 -1.44,-0.32 -3.1,-0.94 -2.26,-0.01 -4.55,-0.01 -6.81,-0.01 m -16.63,0.04 c -3.52,0.01 -7.1,0.04 -10.63,0.07 27.78,7.68 55.23,16.29 81.86,26.49 -4.44,-2.01 -8.95,-3.99 -13.52,-5.92 -19.72,-8.16 -39.16,-14.97 -57.71,-20.64 m 168.63,55.62 c -8.27,1.02 -16.64,2.33 -25.07,4.01 1.27,0.81 2.53,1.62 3.78,2.42 20.56,11.69 40.23,24.93 58.73,40.1 -11.19,-16.52 -23.74,-32.07 -37.44,-46.53" class="colorba2c42 svgShape"></path><path fill="#0f191d" d="m 2212.65,2843.96 c -8.84,1.12 -17.81,2.58 -26.84,4.48 1.89,1.18 3.76,2.36 5.61,3.53 8.43,-1.68 16.8,-2.99 25.07,-4.01 -1.27,-1.34 -2.55,-2.67 -3.84,-4" class="color0f191d svgShape"></path><path fill="#0f191d" d="m 2063.06,2792.3 c -5.07,0 -10.11,0.01 -15.2,0.04 18.55,5.67 37.99,12.48 57.71,20.64 4.57,1.93 9.08,3.91 13.52,5.92 26.32,10.08 51.84,21.7 76.11,35.49 -1.25,-0.8 -2.51,-1.61 -3.78,-2.42 -1.85,-1.17 -3.72,-2.35 -5.61,-3.53 -1.58,-0.98 -3.17,-1.97 -4.78,-2.95 -21.77,-12.95 -46.5,-25.9 -73.45,-37.32 -14.58,-6.03 -29.03,-11.3 -43.09,-15.87 -0.48,0 -0.95,0 -1.43,0" class="color0f191d svgShape"></path><path fill="#a4a6a5" d="m 2071.3,2792.31 c 1.66,0.62 2.71,0.94 3.1,0.94 0.09,0 0.14,-0.02 0.16,-0.05 0.06,-0.13 -0.27,-0.43 -0.96,-0.88 -0.77,-0.01 -1.53,-0.01 -2.3,-0.01" class="colora4a6a5 svgShape"></path><path fill="#274682" d="m 1910.77,2862.37 c -0.08,0.12 -0.16,0.23 -0.23,0.35 0.16,0.08 0.33,0.16 0.49,0.24 l -0.26,-0.59 m -1.49,2.55 c -7.61,14.85 -1.03,34.42 10.98,46.49 12.72,12.77 30.06,19.54 46.22,27.51 0.69,0.34 1.39,0.69 2.07,1.04 8.2,-1.88 14,-5.61 17.53,-8.63 3.83,-3.41 5.39,-5.8 5.71,-5.8 0.01,0 0.02,0 0.03,0.01 0,0 -1.18,2.67 -5.03,6.57 -3.14,3.05 -8.35,6.8 -15.74,9.12 21.21,10.96 41.01,24.61 58.88,40.44 0.37,-1.6 0.77,-3.19 1.2,-4.77 1.93,-7.59 4.49,-14.97 7.58,-22.07 -6.43,-5.88 -12.83,-11.52 -19.16,-16.9 -12.76,-10.15 -24.68,-20.1 -36.75,-28.17 -5.96,-4.14 -11.54,-8.41 -17.23,-12.02 -2.59,-1.62 -5.15,-3.21 -7.65,-4.78 0.17,1.13 0.18,1.75 -0.06,1.83 0,0.01 -0.01,0.01 -0.02,0.01 -0.21,0 -0.87,-1.02 -1.73,-2.97 -2.37,-1.48 -4.69,-2.93 -6.97,-4.35 -0.19,-0.13 -0.38,-0.25 -0.57,-0.37 -10.52,-4.69 -21.28,-8.88 -32.23,-12.53 l -3.58,-7.85 c -1.18,-0.63 -2.34,-1.23 -3.48,-1.81 m 73.77,39.78 c 0.74,0.5 1.48,1.01 2.23,1.51 12.27,8 24.38,17.89 37.34,28.03 6.04,5.05 12.14,10.33 18.26,15.85 0.49,-1.04 1,-2.06 1.51,-3.09 -18.42,-15.93 -38.29,-30.14 -59.34,-42.3 m 63.3,45.78 c -0.51,1.06 -1.02,2.13 -1.51,3.21 13.74,12.58 27.53,26.3 40.99,41.16 1.31,0.41 2.74,0.82 4.3,1.22 -13.36,-16.32 -28.02,-31.59 -43.78,-45.59 m -3.61,8.07 c -3.58,8.69 -6.34,17.8 -8.34,27.17 27.95,25.8 50.91,57.02 66.84,91.56 18.16,39.38 31.95,87.72 72.19,103.9 -5.3,-35.85 -16.12,-70.67 -31.55,-103.36 -13.66,-21.46 -29.36,-43.48 -47.26,-65.05 -16.85,-19.88 -34.42,-37.96 -51.88,-54.22 m 45.37,38.82 c 3.53,3.94 7.03,7.96 10.5,12.06 6.01,7.24 11.77,14.54 17.28,21.86 -7.33,-11.27 -15.24,-22.17 -23.67,-32.64 -1.47,-0.41 -2.84,-0.84 -4.11,-1.28" class="colorba2c42 svgShape"></path><path fill="#0f191d" d="m 2042.39,2947 c -0.51,1.03 -1.02,2.05 -1.51,3.09 1.32,1.19 2.64,2.39 3.96,3.6 0.49,-1.08 1,-2.15 1.51,-3.21 -1.31,-1.17 -2.63,-2.33 -3.96,-3.48 m -3.68,7.83 c -3.09,7.1 -5.65,14.48 -7.58,22.07 -0.43,1.58 -0.83,3.17 -1.2,4.77 1.5,1.34 2.99,2.68 4.47,4.05 2,-9.37 4.76,-18.48 8.34,-27.17 -1.35,-1.25 -2.69,-2.49 -4.03,-3.72" class="color0f191d svgShape"></path><path fill="#0f191d" d="m 1910.54,2862.72 c -0.46,0.72 -0.87,1.46 -1.26,2.2 1.14,0.58 2.3,1.18 3.48,1.81 l -1.73,-3.77 c -0.16,-0.08 -0.33,-0.16 -0.49,-0.24 m 38.03,24.39 c 0.19,0.12 0.38,0.24 0.57,0.37 2.28,1.42 4.6,2.87 6.97,4.35 -0.21,-0.47 -0.43,-0.99 -0.65,-1.57 -2.28,-1.08 -4.58,-2.13 -6.89,-3.15 m 9.06,4.18 c 0.12,0.64 0.22,1.2 0.29,1.67 2.5,1.57 5.06,3.16 7.65,4.78 5.69,3.61 11.27,7.88 17.23,12.02 12.07,8.07 23.99,18.02 36.75,28.17 6.33,5.38 12.73,11.02 19.16,16.9 1.34,1.23 2.68,2.47 4.03,3.72 17.46,16.26 35.03,34.34 51.88,54.22 17.9,21.57 33.6,43.59 47.26,65.05 -7.58,-16.07 -16.28,-31.62 -25.99,-46.53 -5.51,-7.32 -11.27,-14.62 -17.28,-21.86 -3.47,-4.1 -6.97,-8.12 -10.5,-12.06 -3.68,-1.26 -6.53,-2.61 -8.6,-3.66 -2.83,-1.57 -4.22,-2.52 -4.14,-2.67 0.02,-0.03 0.05,-0.05 0.11,-0.05 0.65,0 4.06,1.89 10.35,3.86 -13.46,-14.86 -27.25,-28.58 -40.99,-41.16 -1.32,-1.21 -2.64,-2.41 -3.96,-3.6 -6.12,-5.52 -12.22,-10.8 -18.26,-15.85 -12.96,-10.14 -25.07,-20.03 -37.34,-28.03 -0.75,-0.5 -1.49,-1.01 -2.23,-1.51 -8.3,-4.8 -16.77,-9.27 -25.42,-13.41" class="color0f191d svgShape"></path><path fill="#a4a6a5" d="M2075.48 2990.99c-.06 0-.09.02-.11.05-.08.15 1.31 1.1 4.14 2.67 2.07 1.05 4.92 2.4 8.6 3.66 1.27.44 2.64.87 4.11 1.28-.69-.87-1.39-1.72-2.09-2.58-1.56-.4-2.99-.81-4.3-1.22-6.29-1.97-9.7-3.86-10.35-3.86M1991.79 2925.53c-.32 0-1.88 2.39-5.71 5.8-3.53 3.02-9.33 6.75-17.53 8.63.84.42 1.67.84 2.5 1.27 7.39-2.32 12.6-6.07 15.74-9.12 3.85-3.9 5.03-6.57 5.03-6.57-.01-.01-.02-.01-.03-.01M1955.46 2890.26c.22.58.44 1.1.65 1.57.86 1.95 1.52 2.97 1.73 2.97.01 0 .02 0 .02-.01.24-.08.23-.7.06-1.83-.07-.47-.17-1.03-.29-1.67-.72-.35-1.45-.69-2.17-1.03" class="colora4a6a5 svgShape"></path><path fill="#a7a9a8" d="m 1640.8,2973.13 10.44,76.45 c 0.17,-0.4 0.33,-0.8 0.48,-1.19 -0.65,-4.21 -1.27,-8.09 -1.86,-11.55 -3.76,-22.2 -5.59,-43.14 -9.06,-63.71" class="colora7a9a8 svgShape"></path><path fill="#274682" d="m 1625.96,2920.5 c -18.39,14.34 -32.84,41.33 -33.26,64.65 -0.42,23.32 5.78,46.17 11.16,68.87 4.37,18.45 8.22,37.02 11.54,55.68 9.5,-11.26 16.97,-22.46 22.47,-32.37 6.46,-11.48 10.67,-21.16 13.37,-27.75 l -10.44,-76.45 c -2.98,-17.63 -7.17,-34.99 -14.84,-52.63" class="colorba2c42 svgShape"></path><path fill="#a7a9a8" d="m 1652.35,3052.53 c -0.16,0.49 -0.33,1.01 -0.5,1.53 l 14.64,107.22 c 0.04,-0.22 0.08,-0.45 0.12,-0.67 -1.09,-9.63 -8.48,-69.7 -14.26,-108.08" class="colora7a9a8 svgShape"></path><path fill="#274682" d="m 1651.85,3054.06 c -2.2,6.58 -5.67,15.17 -10.74,25.03 -5.68,11.19 -13.87,23.99 -24.64,36.71 8.32,48.44 13.12,97.46 14.35,146.59 3.4,1.93 6.28,4.02 8.6,6.07 2.74,2.37 4.85,4.7 6.47,6.78 1.03,-5.44 2.06,-10.94 3.09,-16.48 6.48,-34.76 12.36,-67.79 17.51,-97.48 l -14.64,-107.22 m 14.51,136.83 c -3.7,21.79 -7.8,44.9 -12.25,68.83 -1.39,7.41 -2.78,14.73 -4.16,21.96 0.58,1.19 0.8,1.84 0.71,1.89 -0.01,0.01 -0.02,0.01 -0.04,0.01 -0.14,0 -0.41,-0.35 -0.85,-0.99 -1.65,8.62 -3.31,17.09 -4.96,25.4 11.98,-37.86 19.64,-76.06 21.55,-117.1 m -35.47,74.36 c 0.65,28.84 0.06,57.71 -1.76,86.5 1.32,-3.32 2.62,-6.64 3.88,-9.96 4.02,-20.34 8.25,-42.07 12.54,-64.74 -1.82,-2.08 -4.23,-4.5 -7.42,-7.03 -2.02,-1.61 -4.45,-3.24 -7.24,-4.77" class="colorba2c42 svgShape"></path><path fill="#0f191d" d="m 1666.61,3160.61 c -0.04,0.22 -0.08,0.45 -0.12,0.67 -5.15,29.69 -11.03,62.72 -17.51,97.48 -1.03,5.54 -2.06,11.04 -3.09,16.48 1.13,1.45 2.01,2.77 2.69,3.89 0.58,1.02 1.03,1.87 1.37,2.55 1.38,-7.23 2.77,-14.55 4.16,-21.96 4.45,-23.93 8.55,-47.04 12.25,-68.83 0.44,-9.5 0.57,-19.14 0.38,-28.97 0,-0.08 -0.05,-0.53 -0.13,-1.31 m -21.06,116.44 c -4.29,22.67 -8.52,44.4 -12.54,64.74 4.29,-11.28 8.24,-22.52 11.8,-33.8 1.65,-8.31 3.31,-16.78 4.96,-25.4 -0.77,-1.11 -2.08,-3.09 -4.22,-5.54" class="color0f191d svgShape"></path><path fill="#a4a6a5" d="M1630.82 3262.39c.03.95.05 1.91.07 2.86 2.79 1.53 5.22 3.16 7.24 4.77 3.19 2.53 5.6 4.95 7.42 7.03 2.14 2.45 3.45 4.43 4.22 5.54.44.64.71.99.85.99.02 0 .03 0 .04-.01.09-.05-.13-.7-.71-1.89-.34-.68-.79-1.53-1.37-2.55-.68-1.12-1.56-2.44-2.69-3.89-1.62-2.08-3.73-4.41-6.47-6.78-2.32-2.05-5.2-4.14-8.6-6.07M1651.72 3048.39c-.15.39-.31.79-.48 1.19-2.7 6.59-6.91 16.27-13.37 27.75-5.5 9.91-12.97 21.11-22.47 32.37.36 2.03.72 4.07 1.07 6.1 10.77-12.72 18.96-25.52 24.64-36.71 5.07-9.86 8.54-18.45 10.74-25.03.17-.52.34-1.04.5-1.53-.21-1.41-.42-2.79-.63-4.14" class="colora4a6a5 svgShape"></path><path fill="#274682" d="m 1629.13,3351.75 c -2.54,6.42 -5.2,12.84 -7.95,19.3 l 4.45,7.65 c 0.81,-4.01 1.63,-8.11 2.47,-12.28 0.38,-4.89 0.73,-9.77 1.03,-14.67" class="colorba2c42 svgShape"></path><path fill="#0f191d" d="m 1628.1,3366.42 c -0.84,4.17 -1.66,8.27 -2.47,12.28 l 1.24,2.15 c 0.45,-4.81 0.86,-9.62 1.23,-14.43" class="color0f191d svgShape"></path><path fill="#274682" d="m 2006.8,3456.27 c -29.97,0 -56.67,19.49 -78.27,40.51 -45.72,44.52 -80.25,100.36 -100.11,161 10.46,-23.45 23.56,-45.72 38.92,-66.31 10.64,-14.83 22.88,-29.78 36.72,-44.22 16.79,-17.61 34.5,-32.96 51.64,-45.67 l 7.55,-5.59 -3.86,8.6 c -7.95,17.72 -11.09,36.3 -11.12,52.45 -0.22,15.64 3.86,29.55 11.27,38.17 6.63,5.48 15.83,9.57 25.89,12.13 6,0.1 9.29,0.29 9.32,0.56 0.02,0.17 -1.37,0.38 -4.08,0.61 6.27,1.23 12.74,1.89 19.04,1.94 l -2.67,-2.55 v 0 0 c 0.02,-0.04 0.06,-0.06 0.15,-0.06 0.74,0 4.29,1.53 10.7,1.59 0.09,0 0.18,0 0.28,0 7.03,0 17.47,-2.19 28.49,-8.99 3.65,-2.26 7.35,-5 10.74,-8.41 0.51,-0.63 1.05,-1.32 1.64,-2.06 2.94,-3.71 5.5,-7.4 8.05,-10.9 2.93,-4.67 6.1,-9.65 10.74,-14.09 3.5,-3.44 8.39,-5.74 13.14,-7.15 4.8,-1.49 9.8,-2.52 14.97,-3.26 4.59,-0.65 9.31,-1.06 14.18,-1.06 0.62,0 1.24,0.01 1.87,0.02 5.49,0.26 11.35,0.44 17.13,4.17 l 0.65,0.43 0.24,0.99 c 3.54,15.03 6.82,30.9 11.02,47.4 4.18,16.53 7.79,33.87 10.8,51.76 2.75,16.34 4.9,32.39 6.75,47.84 0.29,0.47 0.62,0.92 1.01,1.32 1.5,1.6 3.5,2.29 5.59,2.29 3.94,0 8.23,-2.46 10.25,-6.07 3.08,-5.52 2.45,-12.27 1.73,-18.55 -6.41,-55.4 -12.82,-110.8 -19.22,-166.2 -8.88,-1.87 -17.88,-2.73 -26.91,-2.73 -22.12,0 -44.37,5.16 -65.1,13.19 -24.78,9.61 -47.76,23.16 -70.34,37.25 -2.44,6.52 -4.6,11.88 -6.29,16.05 -1.34,3.28 -2.42,5.9 -3.27,7.96 -0.75,1.75 -1.18,2.65 -1.28,2.65 0,0 0,0 0,-0.01 -0.08,-0.03 0.19,-0.99 0.79,-2.84 0.72,-2.11 1.64,-4.78 2.78,-8.13 1.35,-3.82 3.09,-8.59 5.06,-14.3 -3.27,2.05 -6.55,4.11 -9.82,6.17 -7.75,-39.57 -2.25,-81.63 15.45,-117.87 -0.74,-0.02 -1.48,-0.03 -2.21,-0.03 m -55.28,54.74 c -0.64,0.51 -1.29,1.03 -1.94,1.55 0.61,-0.42 1.22,-0.83 1.83,-1.24 0.04,-0.1 0.08,-0.2 0.11,-0.31" class="colorba2c42 svgShape"></path><path fill="#0f191d" d="m 1963.25,3495.99 -7.55,5.59 c -17.14,12.71 -34.85,28.06 -51.64,45.67 -13.84,14.44 -26.08,29.39 -36.72,44.22 22.82,-30.6 50.65,-57.48 82.24,-78.91 0.65,-0.52 1.3,-1.04 1.94,-1.55 -0.03,0.11 -0.07,0.21 -0.11,0.31 1.44,-0.96 2.88,-1.9 4.33,-2.84 -7.19,22.73 -15.35,53.21 -4.56,76.36 1.8,3.87 4.69,7.33 8.36,10.37 -7.41,-8.62 -11.49,-22.53 -11.27,-38.17 0.03,-16.15 3.17,-34.73 11.12,-52.45 l 3.86,-8.6 m 22.18,111.35 c 1.73,0.43 3.47,0.83 5.24,1.17 2.71,-0.23 4.1,-0.44 4.08,-0.61 -0.03,-0.27 -3.32,-0.46 -9.32,-0.56" class="color0f191d svgShape"></path><path fill="#274682" d="m 2007.04,3607.9 2.67,2.55 c 0.24,0 0.48,0 0.72,0 1.1,0 2.19,-0.02 3.28,-0.06 -4.56,-0.93 -6.67,-2.49 -6.67,-2.49 v 0" class="colorba2c42 svgShape"></path><path fill="#0f191d" d="M2120.12 3553.51c-4.87 0-9.59.41-14.18 1.06-5.17.74-10.17 1.77-14.97 3.26-4.75 1.41-9.64 3.71-13.14 7.15-4.64 4.44-7.81 9.42-10.74 14.09 5.67-7.75 11.33-14.49 21.18-18.12 9.5-3.51 21.85-6.09 32.14-6.09 7.47 0 13.86 1.36 17.26 4.74 11.27 48.55 17.53 92 28.8 140.56.48 2.06 1 4.2 2.11 5.96-1.85-15.45-4-31.5-6.75-47.84-3.01-17.89-6.62-35.23-10.8-51.76-4.2-16.5-7.48-32.37-11.02-47.4l-.24-.99-.65-.43c-5.78-3.73-11.64-3.91-17.13-4.17-.63-.01-1.25-.02-1.87-.02m-62.72 38.52c-3.39 3.41-7.09 6.15-10.74 8.41-11.02 6.8-21.46 8.99-28.49 8.99-.1 0-.19 0-.28 0-6.41-.06-9.96-1.59-10.7-1.59-.09 0-.13.02-.15.06v0c0 0 2.11 1.56 6.67 2.49 8.71-.3 16.91-1.81 23.53-4.62 13.15-5.59 12.48-4.09 20.16-13.74M2005.59 3566.62c-.73.46-1.47.92-2.21 1.38-1.97 5.71-3.71 10.48-5.06 14.3-1.14 3.35-2.06 6.02-2.78 8.13-.6 1.85-.87 2.81-.79 2.84 0 .01 0 .01 0 .01.1 0 .53-.9 1.28-2.65.85-2.06 1.93-4.68 3.27-7.96 1.69-4.17 3.85-9.53 6.29-16.05" class="color0f191d svgShape"></path><path fill="#274682" d="m 1828.42,3657.78 c -7.64,17.13 -13.88,34.88 -18.56,53.06 l 2.12,-0.66 c 2.33,-10.11 5.89,-24.51 12.67,-41.35 0.46,-1.2 0.93,-2.41 1.42,-3.64 0.76,-2.47 1.54,-4.95 2.35,-7.41 m -11.17,41.74 c -1.13,3.62 -2.1,6.95 -2.92,9.94 l 1.04,-0.32 c 0.59,-3.22 1.21,-6.43 1.88,-9.62" class="colorba2c42 svgShape"></path><path fill="#0f191d" d="m 1826.07,3665.19 c -0.49,1.23 -0.96,2.44 -1.42,3.64 -6.78,16.84 -10.34,31.24 -12.67,41.35 l 2.35,-0.72 c 0.82,-2.99 1.79,-6.32 2.92,-9.94 2.42,-11.57 5.37,-23.03 8.82,-34.33" class="color0f191d svgShape"></path><path fill="#a7a9a8" d="m 2422.94,3253.8 -78.94,44.99 c 0,0.05 0,0.1 0.01,0.15 l 77.87,-41.58 c 0.69,-2.31 1.06,-3.56 1.06,-3.56" class="colora7a9a8 svgShape"></path><path fill="#274682" d="m 2421.88,3257.36 -77.87,41.58 c 4.52,54.83 9.52,103.91 13.13,141.03 0.87,9.2 1.67,17.7 2.41,25.43 l 1.07,8.82 c 0.15,-9.99 53.09,-189.24 61.26,-216.86" class="colorba2c42 svgShape"></path><path fill="#0f191d" d="m 2344,3298.79 -4.4,2.5 19.95,164.11 c -0.74,-7.73 -1.54,-16.23 -2.41,-25.43 -3.61,-37.12 -8.61,-86.2 -13.13,-141.03 -0.01,-0.05 -0.01,-0.1 -0.01,-0.15" class="color0f191d svgShape"></path><path fill="#274682" d="m 2360.62,3474.22 c -0.01,0.18 0.01,0.31 0.04,0.38 l -0.04,-0.38" class="colorba2c42 svgShape"></path><path fill="#fbbc88" d="m 1843.02,4103.59 v -345.17 c 0,-19.72 6.96,-38.81 19.67,-53.89 19.48,-23.14 42.96,-42.58 69.31,-57.42 l 69.63,-39.21 57.59,51.42 c 16.94,15.12 26.98,36.48 27.88,59.18 1,25.14 0.99,50.47 0.99,50.47 0,0 97.58,7.01 106.74,103.23 4.32,45.31 5.69,138.1 5.92,223.62 0.27,97.57 -74.54,178.94 -171.78,186.98 l -2.75,0.23 c -100.69,2.44 -183.55,-78.71 -183.2,-179.44" class="colorf8a58d svgShape"></path><path fill="#2c354c" d="m 2088.09,3768.97 c 0,0 -61.01,1.47 -122.34,47.46 0,0 25.25,-73 122.08,-72.29 l 0.26,24.83" class="colorf68260 svgShape"></path><path fill="#17282f" d="M2172.26 4033.96c-.34-7.28-6.79-13-14.4-12.78-7.6.23-13.5 6.29-13.15 13.58.34 7.28 6.79 13.01 14.39 12.79 7.62-.22 13.52-6.3 13.16-13.59M2176.16 4057c-1.85-1.66-11.63 6.92-26.44 8.11-14.77 1.39-26.26-5.32-27.72-3.38-.72.87 1.29 3.96 6.29 7.02 4.95 3.04 13.16 5.71 22.38 4.92 9.22-.82 16.69-4.85 20.86-8.7 4.27-3.87 5.54-7.24 4.63-7.97M2032.65 4040.98c-.35-7.28-6.8-13-14.41-12.78-7.6.22-13.5 6.29-13.15 13.58.34 7.29 6.79 13.01 14.4 12.79 7.61-.22 13.51-6.3 13.16-13.59M2030.43 4066.28c-1.85-1.65-11.65 6.92-26.44 8.1-14.77 1.4-26.27-5.31-27.73-3.36-.71.86 1.27 3.95 6.31 7.01 4.94 3.04 13.15 5.72 22.37 4.92 9.22-.82 16.69-4.86 20.86-8.7 4.25-3.87 5.54-7.24 4.63-7.97M2075.07 3952.05c0 .86 9.33 1.68 24.4 2.35 3.81.08 7.45.53 8.3 3.06 1.12 2.66-.12 6.86-1.59 11.42-2.8 9.44-5.73 19.33-8.8 29.7-12.13 42.27-20.58 76.89-18.88 77.37 1.71.47 12.93-33.4 25.06-75.67 2.9-10.41 5.68-20.34 8.31-29.83 1.08-4.42 3.13-9.49.74-15-1.26-2.75-4.2-4.57-6.68-5.02-2.48-.54-4.61-.39-6.49-.36-15.07.44-24.38 1.14-24.37 1.98M2030.66 3945.42c2.42-.05 1.12-16.12 13.93-28.67 12.78-12.58 30.05-12.19 29.99-14.45.15-1.02-4.07-2.8-11.31-2.4-7.11.34-17.28 3.48-25.12 11.15-7.81 7.69-10.65 17.33-10.65 23.96-.05 6.77 2.07 10.6 3.16 10.41M2039.06 4123.97c-1.8-3.9-16.41-.77-33.95-1.43-17.56-.3-31.99-4.22-33.99-.43-.88 1.82 1.87 5.4 7.85 8.83 5.94 3.42 15.2 6.38 25.72 6.68 10.52.27 19.93-2.17 26.04-5.27 6.17-3.09 9.11-6.52 8.33-8.38M2174.27 4100.29c-2.88-3.15-12.8 1.18-25.04 2.37-12.21 1.6-22.83-.39-24.93 3.32-.91 1.8 1.01 5.03 5.81 7.84 4.73 2.8 12.42 4.77 20.83 3.82 8.4-.97 15.45-4.62 19.43-8.41 4.04-3.82 5.19-7.4 3.9-8.94M1956.34 4200.56l-.56-.37c-16.34-10.85-27.93-27.53-32.23-46.67l-.42-1.92c-6.05-27.16-7.68-55.17-13.98-82.27-6.3-27.1-5.14-47.81-32.29-53.92-17.12-3.85-31.69 5.68-37.8 15.36-2.36 3.74-2.41 8.44-2.39 12.87.36 66.77-13.07 92.69-7.2 162.05 1.59 18.88 11.95 35.86 28.2 45.59 15.39 9.21 34.02 18.53 49.52 9.56 15.55-9 33.92-40.93 45.37-54.77" class="color17282f svgShape"></path><path fill="#fbbc88" d="m 1871.88,4057.32 c -1.58,0.85 -64.56,25.06 -67.91,-40.97 -3.35,-66.02 63.63,-55.76 63.85,-53.88 0.21,1.89 4.06,94.85 4.06,94.85" class="colorf8a58d svgShape"></path><path fill="#2c354c" d="m 1848.92,3988.51 c -0.29,0.22 -1.2,-0.75 -3.19,-1.55 -1.94,-0.76 -5.23,-1.19 -8.6,0.27 -6.85,2.91 -12.16,14.28 -11.88,26.2 0.13,6.02 1.69,11.68 4.06,16.3 2.26,4.73 5.55,7.95 9.1,8.4 3.53,0.63 5.91,-1.6 6.62,-3.5 0.79,-1.89 0.31,-3.19 0.65,-3.32 0.18,-0.17 1.48,1.03 1.08,3.79 -0.2,1.33 -0.9,2.92 -2.39,4.27 -1.51,1.37 -3.81,2.14 -6.27,2 -5.11,-0.09 -9.93,-4.55 -12.53,-9.63 -2.89,-5.09 -4.77,-11.44 -4.93,-18.2 -0.25,-13.33 5.93,-26.12 15.34,-29.36 4.58,-1.45 8.53,-0.25 10.61,1.21 2.12,1.53 2.54,2.99 2.33,3.12" class="colorf68260 svgShape"></path><path fill="#17282f" d="m 1904.13,4250.83 c -14.04,27.69 33.52,61.84 66.87,69.39 33.34,7.56 74.84,-11.82 106.3,-25.23 19.85,-8.46 39.41,-19.58 60.97,-20.47 14.45,-0.61 28.63,3.5 42.62,7.18 13.99,3.68 28.51,7 42.82,4.83 14.3,-2.17 28.48,-11.05 32.83,-24.85 4.36,-13.8 -4.98,-31.43 -19.42,-32.24 19.05,8.51 44.32,-6.83 45.58,-27.66 1.26,-20.83 -21.97,-39.1 -41.92,-32.98 9.95,6.32 23.34,-6.59 21.21,-18.19 -2.12,-11.6 -13.43,-19.22 -24.58,-23.06 -28.46,-9.79 -60.16,-3.29 -87.79,8.63 -27.63,11.92 -52.76,29 -80.08,41.61 -27.33,12.6 -73.01,34.94 -102.12,27.31 -21.43,-5.61 -38,-29.5 -49.31,-22.99 -10.92,6.29 -17.13,18.79 -18.38,31.34 -1.25,12.54 1.58,25.09 4.4,37.38" class="color17282f svgShape"></path><path fill="#33535f" d="M2245.22 4230.6c-.52.38-3.8-4.59-11.51-11.69-7.71-6.97-20.47-15.91-38.54-20.53-17.75-4.59-41.36-4.59-62.59 7.74-21.57 11.88-39.07 33.55-59.56 54.29-20.43 20.91-45.25 37.19-71.08 41.68-25.67 4.61-50.36-2.89-64.77-16.59-14.52-13.83-18.58-30.63-18.47-41.33.03-5.47 1.07-9.62 1.84-12.34.97-2.69 1.61-4.03 1.82-3.95.62.16-1.68 5.8-1.12 16.21.64 10.14 5.25 25.68 19.03 37.99 13.62 12.16 36.64 18.71 60.59 14.1 24.08-4.52 47.59-19.97 67.54-40.39 20.11-20.28 38.17-42.54 61.27-54.94 22.97-12.92 48.31-12.34 66.72-6.92 18.81 5.44 31.7 15.41 39.1 23.16 3.67 3.95 6.27 7.24 7.7 9.69 1.53 2.39 2.22 3.7 2.03 3.82M1855.35 4061.59c.23-.25 2.99 1.57 5.91 6.59 2.94 4.94 5.6 13.26 5.26 23.6.3 21.34-16.58 45.66-16.54 75.17-.26 14.6 3.45 28.51 10.54 38.71 7.04 10.18 17.26 16.33 26.23 19.11 9.07 2.93 17.03 2.3 22.23 1.18 5.22-1.28 7.97-2.75 8.25-2.25.18.25-2.14 2.52-7.52 4.68-5.33 1.99-14.06 3.45-24.2.84-10.02-2.48-21.59-8.73-29.9-20.09-8.25-11.24-12.44-26.58-12.16-42.25.05-15.74 4.57-30.34 9.27-42.56 4.66-12.28 8.49-23.24 9.19-32.79 1.87-19.59-7.5-29.55-6.56-29.94" class="color33535f svgShape"></path><path fill="#406fbf" d="m 2126.97,2154.45 c 0,0 -5.04,-0.22 -14.88,-0.39 -9.92,-0.14 -24.53,-0.34 -43.66,-0.6 -38.37,-0.62 -94.97,-2.08 -167.78,-5.65 -72.79,-3.79 -161.79,-10.19 -264.66,-21.94 -51.39,-6.18 -106.31,-13.23 -164.22,-22.85 -57.96,-9.27 -118.95,-20.8 -182.46,-35.28 -63.5,-14.43 -129.6,-31.71 -197.18,-53.76 -67.44,-22.23 -136.81,-48.64 -204.466,-84.35 -33.82,-17.82 -66.898,-38.5 -98.055,-62.63 -30.898,-24.25 -60.078,-52.74 -80.285,-87.83 -2.433,-4.42 -5.062,-8.76 -7.363,-13.25 l -5.652,-14.11 -2.844,-7.07 c -0.785,-2.41 -1.235,-4.92 -1.867,-7.38 l -3.571,-14.84 c -2.343,-20.12 -3.097,-41.1 2.996,-61.02 9.786,-40.54 36.54,-75.48 67.204,-104.87 62.66,-58.85 142.57,-99.8 225.429,-134.15 83.344,-34.21 171.684,-60.84 262.664,-83.09 182.11,-44.37 375.14,-70.49 573.35,-84.43 198.4,-13.54 392.96,-13.44 580.1,-2.28 187.13,11.39 367.05,34.05 535.56,69.89 84.19,18.1 165.49,39.6 242.83,65.49 77.38,25.7 150.61,56.71 217.06,94.57 32.85,19.48 63.97,40.76 91.51,65.17 27.4,24.38 51.45,52.31 66.27,84.36 l 4.91,12.2 c 1.61,4.07 3.48,8.04 4.23,12.35 l 3.05,12.64 c 0.46,2.11 1.13,4.19 1.42,6.32 l 0.52,6.44 c 2.39,17.12 0.63,34.22 -3.76,50.44 -4.52,16.26 -12.51,31.09 -21.14,45.14 -9.43,13.59 -19.52,26.55 -30.97,38.03 -22.54,23.32 -47.69,42.91 -73.19,60.33 -25.56,17.41 -51.62,32.68 -77.59,46.25 -51.79,27.53 -102.99,48.81 -151.26,67.34 -96.86,36.53 -182.94,60.45 -253.59,78.18 -70.7,17.68 -126.23,28.8 -163.91,36.02 -18.82,3.76 -33.25,6.16 -42.92,8.01 -9.67,1.78 -14.6,2.83 -14.6,2.83 0,0 19.95,-2.93 57.71,-9.82 37.76,-6.87 93.37,-17.68 164.21,-35.08 70.77,-17.44 157.01,-41.08 254.12,-77.42 48.41,-18.43 99.77,-39.63 151.79,-67.13 26.08,-13.56 52.28,-28.83 78.01,-46.29 25.67,-17.46 51.03,-37.13 73.87,-60.66 11.6,-11.59 21.87,-24.72 31.47,-38.53 8.82,-14.29 17.01,-29.43 21.7,-46.15 4.55,-16.65 6.38,-34.39 3.96,-51.93 l -0.52,-6.61 c -0.31,-2.18 -0.98,-4.31 -1.45,-6.48 l -3.1,-12.97 c -0.79,-4.42 -2.68,-8.49 -4.32,-12.65 l -5.01,-12.49 c -15.1,-32.79 -39.48,-61.11 -67.12,-85.77 -27.79,-24.71 -59.1,-46.17 -92.13,-65.81 -66.77,-38.14 -140.21,-69.33 -217.76,-95.17 -77.52,-26.04 -158.97,-47.65 -243.29,-65.85 -168.76,-36.03 -348.91,-58.81 -536.25,-70.27 -187.38,-11.25 -382.13,-11.39 -580.78,2.16 -198.46,13.96 -391.73,40.14 -574.2,84.67 -91.16,22.34 -179.71,49.07 -263.344,83.45 -83.164,34.55 -163.442,75.66 -226.86,135.29 -31.019,29.8 -58.34,65.37 -68.433,107.17 -6.231,20.52 -5.493,42.21 -3.024,62.94 l 3.684,15.3 c 0.66,2.53 1.133,5.12 1.941,7.59 l 2.918,7.26 5.824,14.46 c 2.36,4.61 5.039,9.04 7.536,13.55 20.699,35.83 50.3,64.61 81.503,89.06 31.469,24.32 64.778,45.08 98.786,62.94 68.027,35.81 137.619,62.17 205.249,84.36 67.76,22 133.99,39.19 197.61,53.54 63.62,14.37 124.71,25.8 182.74,34.94 57.99,9.5 112.97,16.43 164.42,22.48 102.98,11.48 192.05,17.6 264.89,21.07 72.86,3.26 129.48,4.4 167.87,4.67 19.14,0.05 33.75,0.08 43.67,0.1 9.84,-0.01 14.88,-0.15 14.88,-0.15" class="colorf03d5f svgShape"></path><path fill="#406fbf" d="M1309.76 2912.11c0 0-5.67-1.27-16.81-3.48-11.13-2.27-27.75-5.34-49.41-9.99-43.37-9.03-107.26-22.93-188.43-45.11-80.946-22.57-179.848-52.59-288.661-102.05-27.125-12.45-54.863-26.11-82.582-41.86-27.746-15.66-55.781-32.95-82.89-53.17-27.012-20.26-53.579-43.05-76.524-70.33-22.726-27.19-42.89-58.78-51.875-95.12-9.648-35.99-6.906-75.98 8.223-111.99 14.789-36.25 39.887-68.52 69.234-96.82 59.18-56.77 134.309-99.78 214.25-136.78 161.063-73.18 345.015-122.26 540.225-158.9 195.53-36.22 403.58-58.63 619.75-68.36 216.19-9.51 440.7-6.78 669.44 11.94 228.69 19.05 451.15 52.62 660.51 107.61 104.53 27.7 205.86 60.84 300.83 103.3 47.35 21.38 93.25 44.94 135.91 72.54 42.55 27.57 82.45 58.88 114.5 96.59 31.88 37.28 55.4 83.04 56.77 131.26.54 5.98-.23 11.92-.62 17.86-.7 5.91-.3 11.96-1.89 17.72l-3.9 17.36c-1 5.87-3.87 11.18-5.7 16.78-7.76 22.41-20.87 42.28-34.31 61.32-28.71 37.08-64.35 67.38-101.45 93.71-37.3 26.24-76.71 48.01-116.12 67.88-79.25 39.06-159.51 68.92-237.82 93.35-78.33 24.51-154.76 43.94-228.18 60.2-294.31 63.49-538.32 80.74-706.09 90.06-84.04 4.36-149.39 4.55-193.68 5.67-22.1.48-38.96.85-50.39 1.1-11.36.28-17.17.55-17.17.55 0 0 5.81.08 17.17-.02 11.43-.13 28.3-.33 50.4-.58 44.3-.78 109.68-.64 193.77-4.69 167.87-8.71 412.04-25.4 706.79-88.5 73.52-16.16 150.07-35.5 228.58-59.95 78.49-24.39 158.95-54.2 238.55-93.33 39.57-19.9 79.18-41.71 116.75-68.1 37.38-26.47 73.36-56.98 102.53-94.57 13.67-19.33 27.04-39.54 35.01-62.47 1.89-5.73 4.8-11.15 5.84-17.17l4.01-17.81c1.63-5.9 1.25-12.13 1.97-18.19.4-6.1 1.19-12.21.64-18.35-.7-24.6-7.06-48.98-17.35-71.55-10.13-22.7-24.3-43.52-40.45-62.63-32.47-38.26-72.7-69.83-115.52-97.61-42.91-27.81-88.99-51.48-136.52-72.98-95.29-42.64-196.84-75.89-301.56-103.68-209.73-55.15-432.44-88.8-661.38-107.87-228.98-18.75-453.71-21.43-670.09-11.84-216.39 9.8-424.65 32.34-620.41 68.73-195.45 36.83-379.646 86.12-541.146 159.69-80.175 37.23-155.586 80.46-215.25 137.83-29.574 28.6-54.984 61.29-70.004 98.25-15.371 36.7-18.128 77.66-8.222 114.35 9.238 37.06 29.769 69.05 52.773 96.47 23.235 27.53 50.02 50.42 77.215 70.73 27.297 20.27 55.477 37.57 83.34 53.23 27.848 15.74 55.687 29.37 82.902 41.79 109.164 49.31 208.242 79.07 289.342 101.35 81.31 21.9 145.3 35.49 188.75 44.19 43.46 8.69 66.43 12.44 66.43 12.44M1660.31 1403.05c-3.43-.54-18.16-2.87-49.88-7.88-32.68-5.24-80.83-13.52-142.24-26.95-61.31-13.74-136.23-32-220.31-62.12-41.92-15.25-86.28-33.21-131-56.9-22.4-11.73-44.74-25.18-66.48-40.65-21.67-15.5-42.78-33.22-61.099-54.41-8.949-10.72-17.5-22.11-24.129-34.79-7.07-12.42-11.992-26.19-14.899-40.44-.566-3.59-1.421-7.16-1.761-10.81l-.641-11c.063-7.35.926-14.74 1.598-22.13 1.961-7.17 3.023-14.67 5.734-21.68l4.231-10.51 2.125-5.268 2.808-4.973c14.336-26.957 35.883-50.25 60.093-70.719 24.21-20.648 51.8-38 80.56-54.07 57.7-32.148 121.71-56.93 188.55-78.711 66.98-21.59 137.43-38.93 210.21-53.73 145.67-29.329 301.04-47.329 462.53-55.289 161.5-7.758 329.3-5.86 500.17 8.71 170.81 14.782 336.99 40.95 492.66 84.899 77.63 22.383 152.75 49.152 221.96 84.582 34.39 18 67.31 38.199 96.56 62.371 7.63 5.66 14.04 12.668 21.08 18.93 6.88 6.429 12.72 13.82 19.11 20.64 11.27 14.828 22.16 30.168 28.44 47.548 14.86 34.08 11.16 73.31-4.42 105.44-16.33 32.14-41.68 58.25-68.86 80.2-55.07 43.8-117.65 73.27-178.74 97.81-61.36 24.48-122.59 42.92-181.95 58.28-59.39 15.33-117.07 27.39-172.41 37.11-221.6 38.72-404.17 45.78-529.7 48.47-124.61.68-188.16 1.03-195.28 1.07 0 0 69.53.89 195.3.15 125.58-2.32 308.24-9.04 530.06-47.51 55.41-9.66 113.15-21.66 172.63-36.95 59.45-15.33 120.78-33.73 182.3-58.21 61.26-24.56 124.03-54.03 179.51-98.08 27.39-22.09 53.02-48.41 69.68-81.1 15.91-32.66 19.71-72.99 4.56-107.74-6.41-17.73-17.46-33.308-28.87-48.331-6.45-6.907-12.37-14.387-19.31-20.879-7.09-6.321-13.57-13.399-21.25-19.11-29.47-24.371-62.55-44.672-97.06-62.761-69.46-35.579-144.75-62.43-222.5-84.868-155.93-44.07-322.27-70.269-493.23-85.082-171.03-14.578-338.95-16.437-500.58-8.648-161.63 8.008-317.14 26.078-462.96 55.531-72.86 14.848-143.39 32.258-210.48 53.93-66.95 21.867-131.08 46.75-188.97 79.07-28.85 16.149-56.55 33.598-80.92 54.406-24.344 20.653-46.086 44.153-60.606 71.512l-2.839 5.039-2.161 5.361-4.285 10.69c-2.746 7.14-3.84 14.78-5.816 22.09-.68 7.53-1.547 15.07-1.602 22.55l.668 11.21c.352 3.71 1.219 7.35 1.805 11.01 2.973 14.51 8 28.49 15.18 41.08 6.738 12.83 15.394 24.32 24.437 35.13 18.519 21.36 39.779 39.15 61.559 54.69 21.86 15.52 44.3 28.97 66.78 40.69 44.86 23.69 89.32 41.61 131.32 56.8 84.26 29.99 159.27 48.1 220.65 61.65 61.49 13.26 109.68 21.35 142.4 26.4 32.73 5.06 49.98 7.25 49.98 7.25" class="colorf03d5f svgShape"></path><path fill="#406fbf" d="M2966.1 488.59c-.76-.199 1.3 13.551-8.3 36.43-9.3 22.941-34.11 51.441-73.21 77.222-78.59 51.719-209.93 95.149-375.28 121.707-82.76 13.461-174.3 22.723-272.82 26.723-98.5 4.027-204.04 2.988-314.57-5.793-55.25-4.367-111.74-10.738-169.04-19.859-57.28-9.18-115.51-20.598-173.65-36.622-29.1-7.839-58.16-16.918-86.93-27.476-28.76-10.563-57.32-22.512-84.85-37-27.45-14.512-54.1-31.531-76.91-53.231-22.7-21.211-41.2-49.929-41.65-82.011.38-32.098 18.85-60.84 41.54-82.09 22.81-21.719 49.47-38.75 76.92-53.27 27.54-14.488 56.1-26.461 84.87-37.007 28.77-10.594 57.84-19.653 86.95-27.5 58.15-16.032 116.39-27.454 173.68-36.641 57.31-9.113 113.81-15.492 169.07-19.871 110.54-8.781 216.1-9.809 314.6-5.781 98.53 4.011 190.08 13.261 272.83 26.73 165.36 26.551 296.67 69.992 375.26 121.711 39.09 25.781 63.9 54.281 73.2 77.219 9.59 22.883 7.53 36.633 8.29 36.41-.1-1.5-.27-4.039-.65-9.551 0-3.187-.95-7.027-2.07-11.59-.8-4.66-2.8-9.73-5.19-15.449-9.21-23.078-34.02-51.781-73.13-77.711-78.63-52.047-210.02-95.726-375.47-122.488-82.8-13.582-174.41-22.922-272.99-27.012-98.58-4.109-204.2-3.129-314.83 5.602-55.31 4.351-111.86 10.711-169.23 19.808-57.35 9.18-115.66 20.602-173.91 36.641-29.16 7.859-58.28 16.93-87.12 27.531-28.84 10.578-57.48 22.57-85.13 37.109-27.56 14.583-54.36 31.692-77.39 53.622-11.37 11.007-21.99 23.207-29.48 37.449-7.68 14.019-12.6 29.859-12.7 46.129.11 16.281 5.09 32.101 12.78 46.101 7.51 14.219 18.12 26.418 29.51 37.418 23.03 21.903 49.82 38.992 77.38 53.563 27.65 14.527 56.28 26.508 85.12 37.09 28.83 10.589 57.94 19.668 87.1 27.519 58.23 16.031 116.53 27.438 173.86 36.621 57.37 9.098 113.91 15.457 169.21 19.809 110.61 8.73 216.23 9.699 314.79 5.59 98.58-4.082 190.18-13.422 272.99-26.989 165.44-26.761 296.86-70.441 375.49-122.48 39.12-25.953 63.94-54.652 73.15-77.731 2.38-5.722 4.39-10.789 5.18-15.449 1.13-4.57 2.08-8.39 2.08-11.59.38-5.5.55-8.05.65-9.562M756.754 2039.6c0-17.63-14.301-31.93-31.93-31.93-17.633 0-31.926 14.3-31.926 31.93 0 17.62 14.293 31.92 31.926 31.92 17.629 0 31.93-14.3 31.93-31.92M3644.11 2017.97c0-17.64-14.29-31.93-31.92-31.93-17.63 0-31.93 14.29-31.93 31.93 0 17.62 14.3 31.92 31.93 31.92 17.63 0 31.92-14.3 31.92-31.92M2341.92 841.551c0-17.629-14.28-31.922-31.92-31.922-17.63 0-31.92 14.293-31.92 31.922 0 17.64 14.29 31.918 31.92 31.918 17.64 0 31.92-14.278 31.92-31.918M1372.42 1662c0-8.82-7.15-15.96-15.96-15.96-8.82 0-15.96 7.14-15.96 15.96 0 8.82 7.14 15.97 15.96 15.97 8.81 0 15.96-7.15 15.96-15.97M3357.56 1275.14c0-8.81-7.15-15.96-15.96-15.96-8.82 0-15.97 7.15-15.97 15.96 0 8.82 7.15 15.96 15.97 15.96 8.81 0 15.96-7.14 15.96-15.96" class="colorf03d5f svgShape"></path><path fill="#406fbf" d="M2097.39 536.84c0-8.809-7.14-15.961-15.96-15.961-8.81 0-15.96 7.152-15.96 15.961 0 8.82 7.15 15.961 15.96 15.961 8.82 0 15.96-7.141 15.96-15.961M1272.19 3331.58c0-4.43-3.59-8.02-8.02-8.02-4.43 0-8.02 3.59-8.02 8.02 0 4.43 3.59 8.02 8.02 8.02 4.43 0 8.02-3.59 8.02-8.02M2703.41 2103.56c-387.71-102.64-761.41-94.85-1168.71 0l-47.56 744.52c420.87-81.93 843.39-71.56 1216.27 17.62v-762.14" class="colorf03d5f svgShape"></path><path fill="#13135d" d="m 2137.79,2029.47 c -15.12,0 -30.25,0.15 -45.4,0.46 -1.25,0.02 -2.51,0.05 -3.76,0.08 -8.49,0.18 -17,0.41 -25.5,0.69 -1.75,0.06 -3.47,0.11 -5.22,0.18 -170.6,5.96 -343.63,30.86 -523.21,72.68 l -0.58,9.07 -0.2,3.16 -45.68,715.14 -1.1,17.15 c 193.28,-37.62 386.92,-55.78 575.92,-55.78 222.57,0 438.7,25.17 640.35,73.4 v -762.14 c -108.1,-28.62 -215.11,-48.65 -322.06,-60.6 -1.82,-0.21 -3.66,-0.41 -5.48,-0.61 -13.02,-1.42 -26.09,-2.73 -39.11,-3.91 -66.21,-6.02 -132.44,-8.97 -198.97,-8.97" class="colorfbcbd7 svgShape"></path><path fill="#406fbf" d="m 2643.31,2216.78 c 0.04,-0.08 -0.78,-0.5 -2.42,-1.22 -1.93,-0.83 -4.34,-1.84 -7.32,-3.11 -6.49,-2.58 -15.92,-6.79 -28.43,-11.25 -24.82,-9.44 -61.33,-21.65 -107.3,-33.67 -91.75,-24.49 -222.73,-44 -367.84,-41.96 -145.15,1.87 -275.42,21.83 -368.59,39.43 -46.64,8.86 -84.17,17.04 -110.01,23.05 -12.94,2.93 -22.94,5.45 -29.72,7.12 -3.14,0.82 -5.67,1.47 -7.69,2 -1.73,0.48 -2.6,0.77 -2.58,0.86 0.01,0.08 0.93,-0.03 2.7,-0.35 2.05,-0.39 4.61,-0.87 7.8,-1.49 7.23,-1.48 17.23,-3.54 29.92,-6.16 25.97,-5.39 63.58,-13.03 110.24,-21.41 93.24,-16.65 223.29,-35.97 368,-37.85 144.65,-2.01 275.16,16.83 366.86,40.33 45.95,11.53 82.53,23.17 107.52,32 12.59,4.16 22.12,8.07 28.73,10.33 3.07,1.07 5.53,1.93 7.51,2.62 1.7,0.56 2.59,0.81 2.62,0.73" class="colorf03d5f svgShape"></path><path fill="#406fbf" d="M2073.69 2186.41c-48.64-14.36-98.55-10.56-149.28 4.99v265.01c49.76 10.01 99.52 10.01 149.28 0v-270M2314.65 2202.2c-.07.04-.13.72-.21 2.03-.07 1.56-.14 3.45-.24 5.77-.15 5.4-.35 12.76-.61 22.13-.39 19.57-.93 47.44-1.63 82.29-1.06 70.32-2.54 168.73-4.26 282.81l2-2.41c-47.52 9.77-100.99 10.17-154.49-.11l2.12 2.58c.02-1.66.04-3.46.06-5.26 1.58-156.61 3.01-298.06 4.03-399.06l-1.45 1.76c23.87-4.99 45.79-7.62 65.07-7.93 19.28-.39 35.84 1.51 49.14 4.01 13.32 2.53 23.35 5.75 30.15 7.92 3.09 1.07 5.58 1.94 7.54 2.63 1.75.59 2.7.88 2.78.84.07-.05-.73-.44-2.39-1.2-1.98-.85-4.48-1.91-7.59-3.25-6.71-2.48-16.71-6.04-30.1-8.89-13.36-2.83-30.07-5.04-49.57-4.93-19.48.04-41.66 2.44-65.75 7.24l-1.43.28-.02 1.48c-1.42 100.99-3.41 242.43-5.62 399.04-.02 1.8-.04 3.6-.06 5.26l-.03 2.18 2.15.41c54.1 10.4 108.33 9.93 156.45-.11l1.98-.42.01-2c.86-114.62 1.61-213.49 2.13-284.14.1-34.67.17-62.41.22-81.88-.04-9.2-.08-16.44-.11-21.73-.05-2.24-.09-4.05-.12-5.55-.04-1.23-.09-1.83-.15-1.79M2544.07 2233.39c-39.97-21.63-92.57-24.5-149.29-21.24v437.65c50.83 10.8 100.8 12.84 149.29 0v-416.41M1836.67 2208.1c-.17.17-.33 4.08-.51 11.21-.15 7.71-.34 17.92-.58 30.6-.29 26.64-.69 63.51-1.16 107.48l1.45-2.11c-39.97 14.66-90 28.58-143.71 23.86l-.27-.02 2.36 2.59c-.13-54.61-.25-105.77-.35-149.28l-1.38 2.07c20.21-8.56 40.05-13.1 57.63-16.44 17.65-3.19 33.22-5.01 46.06-6.29 12.38-1.05 22.35-1.9 29.88-2.53 6.56-.54 10.41-1.01 10.58-1.14.17-.13-3.36-.3-10.64-.25-6.93.14-17.11.43-30.03 1.3-12.93.9-28.62 2.37-46.49 5.27-17.8 3.08-37.95 7.39-58.73 15.93l-1.38.57v1.51c-.1 43.51-.23 94.67-.35 149.28l-.01 2.41 2.37.19.27.01c54.99 4.82 105.64-9.64 145.78-24.82l1.48-.56-.02-1.55c-.47-44.58-.86-81.95-1.15-108.95-.25-12.46-.44-22.5-.59-30.08-.18-6.87-.34-10.43-.51-10.26M1906.9 2595.36c.01-.7-11.14-1.52-29.2-1.81-18.06-.28-43.02.08-70.54 1.69-27.52 1.63-52.36 4.19-70.26 6.6-17.9 2.4-28.87 4.52-28.79 5.21.1.74 11.23-.09 29.18-1.55 17.96-1.46 42.75-3.44 70.18-5.06 27.41-1.6 52.27-2.55 70.27-3.21 18-.65 29.15-1.13 29.16-1.87M1884.66 2562.78c-.04-.72-9.82-.62-25.63.11-15.8.74-37.62 2.12-61.7 3.97-24.08 1.84-45.86 3.81-61.59 5.49-15.73 1.68-25.42 3.07-25.34 3.79.07.71 9.89.61 25.69-.13 15.81-.74 37.6-2.11 61.64-3.96 24.04-1.84 45.78-3.8 61.51-5.48 15.73-1.68 25.45-3.08 25.42-3.79" class="colorf03d5f svgShape"></path><path fill="#406fbf" d="m 1939.28,2520.07 c -0.14,0.14 -0.08,3.34 0.12,9.29 0.25,6.39 0.59,14.98 1.02,25.79 1.06,22.6 2.56,54.4 4.41,93.46 l 1.9,-2.01 c -71.84,-0.92 -169.64,2.46 -276.27,15.32 -2.61,-2.18 3.52,2.97 2.89,2.42 l -0.01,-0.03 v -0.07 l -0.01,-0.13 -0.01,-0.27 -0.03,-0.53 -0.06,-1.06 -0.13,-2.1 -0.24,-4.23 -0.49,-8.41 c -0.33,-5.59 -0.65,-11.14 -0.97,-16.67 -0.65,-11.05 -1.29,-21.96 -1.93,-32.7 -1.28,-21.48 -2.52,-42.29 -3.7,-62.2 l -2.17,2.59 c 79.89,-9.84 148.92,-14.01 197.85,-15.9 24.09,-0.72 43.42,-1.31 57.27,-1.72 6.23,-0.2 11.21,-0.36 15.06,-0.48 3.49,-0.15 5.4,-0.26 5.5,-0.36 0.09,-0.1 -1.61,-0.21 -5.07,-0.36 -3.41,-0.15 -8.81,-0.38 -15.5,-0.45 -13.35,-0.19 -32.83,-0.22 -57.35,0.3 -49.02,1.03 -118.24,4.55 -198.35,14.07 l -2.3,0.27 0.13,2.32 c 1.12,19.92 2.29,40.73 3.5,62.22 0.62,10.74 1.25,21.65 1.87,32.7 0.32,5.53 0.64,11.09 0.97,16.68 l 0.48,8.4 0.24,4.22 0.13,2.12 0.06,1.06 0.03,0.52 0.01,0.27 0.01,0.13 0.01,0.07 v 0.03 c -0.64,-0.51 5.51,4.63 2.93,2.45 106.39,-12.83 203.9,-16.73 275.63,-16.69 h 2.05 l -0.14,-2.01 c -2.71,-39.48 -4.92,-71.61 -6.49,-94.45 -0.81,-10.62 -1.46,-19.06 -1.95,-25.33 -0.47,-5.74 -0.78,-8.67 -0.9,-8.54" class="colorf03d5f svgShape"></path><path fill="#406fbf" d="M1973.32 2463.92c-1.26-.71-9.55 11.4-19.23 26.69-9.71 15.37-16.06 28.76-14.81 29.46 1.26.71 9.55-11.39 19.23-26.69 9.71-15.35 16.06-28.76 14.81-29.46M353.336 3433.43L480.082 2666.7c0 0 193.434-362.23 707.498-443.88l-82.95 684.45c0 0-475.372 147.01-751.294 526.16" class="colorf03d5f svgShape"></path><path fill="#13135d" d="m 1187.58,2222.82 c -367.225,58.33 -570.822,259.82 -657.178,370.18 -0.73,0.94 -1.464,1.88 -2.175,2.8 -33.028,42.58 -48.145,70.9 -48.145,70.9 l -126.746,766.73 c 275.922,-379.15 751.294,-526.16 751.294,-526.16 l 82.95,-684.45" class="colorfbcbd7 svgShape"></path><path fill="#406fbf" d="m 1121.27,2277.47 c -0.02,-0.09 -1.13,0.18 -3.27,0.76 -2.39,0.69 -5.51,1.6 -9.45,2.75 -8.6,2.61 -20.75,6.31 -36.23,11.03 -15.66,5.04 -35.17,10.19 -56.83,19.02 -10.94,4.17 -22.615,8.62 -34.986,13.33 -12.418,4.65 -25.543,9.58 -38.813,15.98 -26.75,12.25 -56.476,24.84 -86.687,41.83 -30.945,15.57 -62.344,35.25 -95.164,56.16 -64.977,42.85 -131.57,97.92 -191.008,165.54 -26.453,30.69 -50.367,62.43 -68.906,96.12 l -0.176,0.33 -0.066,0.43 c -23.125,149.41 -43.446,280.69 -58.039,374.98 -7.024,46.77 -12.665,84.36 -16.606,110.61 -1.812,12.72 -3.226,22.68 -4.238,29.79 -0.406,3.19 -0.731,5.74 -0.985,7.73 -0.195,1.74 -0.25,2.64 -0.171,2.65 0.078,0.02 0.293,-0.86 0.64,-2.57 0.371,-1.98 0.848,-4.5 1.438,-7.66 1.218,-7.08 2.925,-16.99 5.105,-29.66 4.305,-26.19 10.461,-63.7 18.125,-110.37 15.035,-94.23 35.965,-225.4 59.785,-374.7 l -0.238,0.75 c 18.145,-32.85 42.031,-64.63 68.27,-95.03 59.05,-67.16 125.183,-122.07 189.734,-164.95 32.601,-20.92 63.789,-40.67 94.535,-56.34 30.008,-17.1 59.551,-29.84 86.133,-42.28 13.183,-6.48 26.226,-11.5 38.566,-16.27 12.293,-4.83 23.902,-9.39 34.762,-13.66 21.52,-9.08 40.91,-14.5 56.44,-19.84 15.35,-5.1 27.38,-9.11 35.91,-11.95 3.87,-1.35 6.94,-2.42 9.3,-3.24 2.09,-0.75 3.15,-1.18 3.12,-1.27" class="colorf03d5f svgShape"></path><path fill="#406fbf" d="M1076.09 2500.03c.04-.06-.55-.6-1.76-1.6-1.41-1.14-3.2-2.57-5.44-4.37-5.1-3.98-12.24-9.53-21.38-16.65-19.03-14.58-46.38-35.53-80.733-61.84l-1.269-.97-.949 1.31c-27.172 37.58-60.672 83.93-98.75 136.6l3.023-.5c-23.785-16.94-49.187-35.03-75.707-53.92l-2.523-1.79-1.079 2.91c-29.543 80.14-62.679 170.02-97.593 264.7-4.703 12.8-9.375 25.51-14.012 38.11l4.762-.27c-21.219-42.13-41.852-83.08-61.653-122.39l-2.672-5.31-1.949 5.61c-53.629 154.63-99.211 286.04-128.781 371.29l2.727.16c-8.086-34.12-14.485-61.09-18.938-79.86-2.211-8.98-3.937-15.98-5.184-21.04-.585-2.2-1.05-3.95-1.425-5.38-.344-1.2-.547-1.8-.614-1.79-.062.02.016.65.231 1.88.277 1.45.625 3.23 1.055 5.46 1.074 5.1 2.566 12.16 4.468 21.21 4.145 18.84 10.102 45.9 17.637 80.15l1.07 4.85 1.661-4.7c30.042-85.09 76.351-216.24 130.843-370.57l-4.621.3c19.754 39.33 40.328 80.31 61.5 122.47l2.692 5.36 2.074-5.63c4.637-12.6 9.308-25.31 14.015-38.11 34.754-94.74 67.743-184.68 97.157-264.86l-3.594 1.11c26.601 18.78 52.086 36.75 75.937 53.59l1.774 1.25 1.25-1.76c37.699-52.94 70.863-99.52 97.765-137.3l-2.218.33c34.722 25.82 62.363 46.38 81.613 60.68 9.35 6.84 16.65 12.18 21.87 15.99 2.35 1.66 4.22 2.99 5.7 4.04 1.29.89 1.97 1.31 2.02 1.25M1058.36 2867.76c-.11-.34-3.94.53-10.79 2.41-6.86 1.85-16.68 4.86-28.73 8.85-24.102 7.96-56.996 20.28-92.328 36.21-35.332 15.97-66.321 32.51-88.239 45.32-10.96 6.4-19.71 11.78-25.628 15.7-5.938 3.9-9.125 6.19-8.942 6.5.188.31 3.735-1.4 9.973-4.76 7.23-3.89 16.039-8.64 26.394-14.22 22.309-11.96 53.414-27.89 88.586-43.79 35.172-15.87 67.696-28.66 91.414-37.49 11.03-4.07 20.42-7.55 28.13-10.39 6.64-2.47 10.27-4 10.16-4.34M1078.77 2835.96c-.15-.67-9.68.8-24.83 4.39-15.14 3.57-35.86 9.44-58.249 17.44-22.375 8.01-42.128 16.62-56.105 23.45-13.984 6.83-22.281 11.75-21.981 12.36.333.68 9.192-3.06 23.493-9 14.3-5.94 34.125-13.95 56.351-21.91 22.221-7.94 42.631-14.32 57.461-18.79 14.82-4.48 24.04-7.21 23.86-7.94" class="colorf03d5f svgShape"></path><path fill="#406fbf" d="M876.199 2552.33c0-6.35-3.855-11.49-8.613-11.49-4.762 0-8.617 5.14-8.617 11.49 0 6.35 3.855 11.49 8.617 11.49 4.758 0 8.613-5.14 8.613-11.49M688.152 2794.72c0-6.35-3.855-11.49-8.613-11.49-4.754 0-8.613 5.14-8.613 11.49 0 6.34 3.859 11.48 8.613 11.48 4.758 0 8.613-5.14 8.613-11.48M498.25 3047.66c0-6.35-3.855-11.49-8.613-11.49-4.758 0-8.617 5.14-8.617 11.49 0 6.34 3.859 11.48 8.617 11.48 4.758 0 8.613-5.14 8.613-11.48M3706.69 3296.83l-63.51-778.98c0 0-185.39-333.12-695.96-345.81l63.09 784.31c0 0 445.39 18.06 696.38 340.48" class="colorf03d5f svgShape"></path><path fill="#406fbf" d="m 3697.25,3337.45 c -16.66,53.93 -56.99,130.77 -153.01,146.76 l -113.51,-1047.8 c 0,0 213.09,42.55 218.8,159.35 0.5,10.08 43.14,530.85 53.8,659.79 2.33,28.22 2.27,54.85 -6.08,81.9" class="colorf03d5f svgShape"></path><path fill="#13135d" d="m 2947.22,2172.04 63.09,784.31 c 0,0 259.49,10.52 493.96,158.89 l -73.54,-678.83 c 0,0 205.56,41.05 218.3,153.18 l -1.53,-18.8 -4.32,-52.94 c 0,0 -14.14,-25.41 -45.38,-62.48 -81.86,-97.11 -281.05,-274.15 -650.58,-283.33 m 702.31,423.63 c 0,0.02 0,0.06 0,0.09 0.49,9.95 42.03,517.33 53.36,654.53 l -44.31,-543.62 -0.4,-4.84 -8.65,-106.16 m 54.05,663.01 c 0.91,11.98 1.36,23.69 0.86,35.28 0.76,0.96 1.5,1.91 2.25,2.87 l -3.11,-38.15" class="colorfbcbd7 svgShape"></path><path fill="#13135d" d="m 3430.73,2436.41 73.54,678.83 c 71.78,45.42 141.25,103.8 200.17,178.72 0.5,-11.59 0.05,-23.3 -0.86,-35.28 v 0 l -0.69,-8.39 v 0 c -11.33,-137.2 -52.87,-644.58 -53.36,-654.53 0,-0.03 0,-0.07 0,-0.09 v 0 l -0.5,-6.08 v 0 c -12.74,-112.13 -218.3,-153.18 -218.3,-153.18" class="colorfbcbd7 svgShape"></path><path fill="#406fbf" d="m 3691.48,3098.25 c -50.91,-73.63 -79.6,-162.43 -81.36,-251.92 -0.52,-25.84 0.99,-52.62 -8.83,-76.51 -9.82,-23.9 -35.5,-43.86 -60.42,-37.03 -26.05,7.14 -37.69,37.92 -60.52,52.35 -20.3,12.82 -47.75,10.64 -68.5,-1.45 -20.74,-12.09 -35.41,-32.7 -44.99,-54.72 -18.56,-42.72 -19.77,-90.89 -33.44,-135.41 -13.68,-44.52 -47.21,-89.39 -93.74,-91.41 -16.99,-0.75 -33.8,4.4 -50.79,3.9 -35.94,-1.07 -67.12,-27.78 -83.89,-59.59 -16.76,-31.82 -21.78,-68.31 -26.54,-103.95 0,0 272.16,-25.92 577.73,334.85 l 35.29,420.89" class="colorf03d5f svgShape"></path><path fill="#406fbf" d="M3258.76 2625.72c0-9.66-4.78-17.49-10.67-17.49-5.9 0-10.69 7.83-10.69 17.49 0 9.66 4.79 17.5 10.69 17.5 5.89 0 10.67-7.84 10.67-17.5M3386.97 2949.59c0-9.66-4.78-17.5-10.68-17.5-5.9 0-10.68 7.84-10.68 17.5 0 9.67 4.78 17.5 10.68 17.5 5.9 0 10.68-7.83 10.68-17.5" class="colorf03d5f svgShape"></path><path fill="#406fbf" d="m 3685.36,3060.65 c 0.11,-0.05 -0.49,-1.56 -1.76,-4.43 -1.45,-3.18 -3.36,-7.36 -5.75,-12.62 -5.36,-11.37 -12.92,-27.39 -22.44,-47.58 -19.8,-41.22 -47.74,-99.42 -81.17,-169.06 l -1.1,-2.29 -2.15,1.37 c -56.58,35.79 -122.36,77.42 -192.54,121.82 l 3.8,1.22 c -2.53,-6.24 -5.26,-12.95 -7.99,-19.7 -47.65,-116.63 -91.22,-223.32 -124.35,-304.4 l -0.85,-2.08 -1.94,1.1 c -48.01,27 -87.18,48.69 -114.41,63.48 -13.62,7.37 -24.24,13.06 -31.53,16.75 -3.42,1.67 -6.16,3.01 -8.33,4.07 -1.92,0.75 -2.92,1.2 -2.91,1.29 0.34,0.98 16.32,-5.85 43.81,-20.15 27.57,-14.21 67.03,-35.38 115.29,-61.99 l -2.79,-0.98 c 32.81,81.21 75.99,188.05 123.18,304.87 2.74,6.75 5.47,13.46 8,19.69 l 1.17,2.89 2.64,-1.67 c 70.05,-44.61 135.71,-86.43 192.18,-122.39 l -3.25,-0.92 c 34.13,69.3 62.65,127.22 82.85,168.24 10,19.96 17.94,35.8 23.56,47.03 2.66,5.14 4.77,9.22 6.38,12.32 1.47,2.77 2.29,4.18 2.4,4.12" class="colorf03d5f svgShape"></path></g></svg></g></svg>