<?xml version="1.0" encoding="UTF-8" standalone="no"?>
<svg
   id="SvgjsSvg1001"
   width="61.611462mm"
   height="52.845089mm"
   version="1.1"
   sodipodi:docname="moss.svg"
   inkscape:version="1.1 (c68e22c387, 2021-05-23)"
   xmlns:inkscape="http://www.inkscape.org/namespaces/inkscape"
   xmlns:sodipodi="http://sodipodi.sourceforge.net/DTD/sodipodi-0.dtd"
   xmlns="http://www.w3.org/2000/svg"
   xmlns:svg="http://www.w3.org/2000/svg">
  <sodipodi:namedview
     id="namedview453"
     pagecolor="#ffffff"
     bordercolor="#666666"
     borderopacity="1.0"
     inkscape:pageshadow="2"
     inkscape:pageopacity="0.0"
     inkscape:pagecheckerboard="0"
     showgrid="false"
     units="mm"
     fit-margin-top="0"
     fit-margin-left="0"
     fit-margin-right="0"
     fit-margin-bottom="0"
     width="61.61146mm"
     lock-margins="true"
     height="52.84509mm"
     inkscape:zoom="2.9305556"
     inkscape:cx="211.7346"
     inkscape:cy="109.87678"
     inkscape:window-width="1920"
     inkscape:window-height="1052"
     inkscape:window-x="-8"
     inkscape:window-y="-8"
     inkscape:window-maximized="1"
     inkscape:current-layer="SvgjsSvg1001"
     inkscape:document-units="mm" />
  <defs
     id="SvgjsDefs1002" />
  <g
     id="SvgjsG1008"
     transform="matrix(0.98782876,0,0,0.96585193,-7.1658768,-8.8250916)">
    <svg
       width="288"
       height="288"
       viewBox="0 0 666.667 496.813"
       version="1.1"
       id="svg449">
      <g
         transform="matrix(0.13333,0,0,-0.13333,0,496.813)"
         fill="#000000"
         class="color000 svgShape"
         id="g447">
        <path
           fill="#eeeeee"
           d="M -449.79873,1074.7744 H 4808.5628 v 2.5 H -449.79873 Z M 3933.3506,916.31739 h 348.3349 v -2.5 h -348.3349 v 2.5 m -991.2222,-27.133 h 91.4219 v -2.5 h -91.4219 v 2.5 m 778.858,117.49201 h 201.8391 v 2.5 H 3720.9864 Z M 101.89804,989.87539 h 454.25302 v 2.5 H 101.89804 Z m 547.88973,0 h 66.6045 v 2.5 h -66.6045 z m 283.05759,-42.218 h 985.16244 v 2.5 H 932.84536 Z M 12.04526,4349.2354 c -31.652182,0 -57.402378,-24.48 -57.402378,-54.57 v -2714.321 c 0,-30.097 25.750196,-54.578 57.402378,-54.578 H 2042.8119 c 31.6448,0 57.3897,24.481 57.3897,54.578 v 2714.321 c 0,30.09 -25.7449,54.57 -57.3897,54.57 H 12.04526 M 2042.8119,1523.2664 H 12.04526 c -33.102438,0 -60.03156,25.598 -60.03156,57.078 v 2714.321 c 0,31.46 26.929122,57.07 60.03156,57.07 H 2042.8119 c 33.0856,0 60.019,-25.61 60.019,-57.07 v -2714.321 c 0,-31.48 -26.9334,-57.078 -60.019,-57.078 m 243.967,2825.969 c -31.6449,0 -57.3899,-24.48 -57.3899,-54.57 v -2714.321 c 0,-30.097 25.745,-54.578 57.3899,-54.578 H 4317.537 c 31.6553,0 57.4108,24.481 57.4108,54.578 v 2714.321 c 0,30.09 -25.7555,54.57 -57.4108,54.57 H 2286.7789 M 4317.537,1523.2664 H 2286.7789 c -33.0962,0 -60.019,25.598 -60.019,57.078 v 2714.321 c 0,31.46 26.9228,57.07 60.019,57.07 H 4317.537 c 33.1067,0 60.04,-25.61 60.04,-57.07 v -2714.321 c 0,-31.48 -26.9333,-57.078 -60.04,-57.078"
           class="coloreee svgShape"
           id="path233"
           style="stroke-width:1.02551" />
        <path
           fill="#e3e3e1"
           d="M 250.41415,1486.4154 H 4108.3478 v 2664.74 H 250.41415 Z"
           class="colore3e3e1 svgShape"
           id="path235"
           style="stroke-width:1.02551" />
        <path
           fill="#f8f8f9"
           d="M 307.40532,1541.2664 H 4061.8755 v 2560 H 307.40532 Z"
           class="colorf8f8f9 svgShape"
           id="path237"
           style="stroke-width:1.02551" />
        <path
           fill="#e9e9e8"
           d="m 307.40532,2161.2654 v -619.999 H 4061.8755 v 699.999 h -105.1673 v 210 h -63.1003 v 140 h -84.1337 v 210 h -21.0335 v -210 h -84.1338 v -140 h -63.1004 v -210 h -115.6839 v -60 h -52.5836 v -230 h -10.5167 v 330 h -31.5502 v -210 h -31.5502 v 500 h -21.0334 v -210 h -84.1338 v 70 h -31.5501 v 290 h -18.7514 -44.349 v 290 h -21.0334 v -40 h -431.1857 v 120 h -73.617 v 460 h -31.5502 v -460 h -105.1673 v -120 h -42.0669 v -600 h -220.8511 v 180 h 73.617 v 30 h -73.617 v 50 h -210.3345 v 460 h -52.5836 v 70 h -252.4014 v -70 h -31.5501 v -640 h -115.6839 v -290 h -63.1004 v 230 h -52.5836 v 60 h -115.684 v 210 h -63.1003 v 140 h -73.6171 v 210 h -31.5502 v -210 h -73.617 v -140 h -63.1004 v -210 H 959.44216 v -60 h -52.58362 v -230 h -73.61707 v 610 H 801.6913 v -210 h -94.6505 v -400 h -42.0669 v 770 h -31.55016 v 290 h -31.55017 v -104.1 l -189.30101,-84.2 v -101.7 h -84.13378 v -770 h -21.03346"
           class="colore9e9e8 svgShape"
           id="path239"
           style="stroke-width:1.02551" />
        <path
           fill="#f4f4f4"
           d="m 2908.3171,2911.5754 h 29.792 v 28.332 h -29.792 z m 0,-47.5 h 29.792 v 28.332 h -29.792 z m 29.7939,-190 h -29.7939 v 28.33 h 29.7939 v -28.33 m 0,-47.5 h -29.7939 v 28.33 h 29.7939 v -28.33 m 0,-47.5 h -29.7939 v 28.33 h 29.7939 v -28.33 m 0,-142.5 h -29.7939 v 28.33 h 29.7939 v -28.33 m 0,-47.5 h -29.7939 v 28.33 h 29.7939 v -28.33 m -47.3252,332.5 h -29.7939 v 28.33 h 29.7939 v -28.33 m 0,-47.5 h -29.7939 v 28.33 h 29.7939 v -28.33 m 0,-47.5 h -29.7939 v 28.33 h 29.7939 v -28.33 m 0,-47.5 h -29.7939 v 28.33 h 29.7939 v -28.33 m 0,-47.5 h -29.7939 v 28.33 h 29.7939 v -28.33 m 0,-95 h -29.7939 v 28.33 h 29.7939 v -28.33 m 0,-47.5 h -29.7939 v 28.33 h 29.7939 v -28.33 m -77.1192,522.5 h 29.7919 v 28.332 h -29.7919 z m 29.7939,-47.5 h -29.7939 v 28.33 h 29.7939 v -28.33 m 0,-47.5 h -29.7939 v 28.33 h 29.7939 v -28.33 m 0,-47.5 h -29.7939 v 28.33 h 29.7939 v -28.33 m 0,-47.5 h -29.7939 v 28.33 h 29.7939 v -28.33 m 0,-47.5 h -29.7939 v 28.33 h 29.7939 v -28.33 m 0,-47.5 h -29.7939 v 28.33 h 29.7939 v -28.33 m 0,-47.5 h -29.7939 v 28.33 h 29.7939 v -28.33 m 0,-47.5 h -29.7939 v 28.33 h 29.7939 v -28.33 m 0,-47.5 h -29.7939 v 28.33 h 29.7939 v -28.33 m -29.7939,-95 h 29.7919 v 28.332 h -29.7919 z m -17.5313,522.5 h -29.7939 v 28.33 h 29.7939 v -28.33 m 0,-47.5 h -29.7939 v 28.33 h 29.7939 v -28.33 m 0,-47.5 h -29.7939 v 28.33 h 29.7939 v -28.33 m 0,-47.5 h -29.7939 v 28.33 h 29.7939 v -28.33 m 0,-47.5 h -29.7939 v 28.33 h 29.7939 v -28.33 m 0,-47.5 h -29.7939 v 28.33 h 29.7939 v -28.33 m 0,-47.5 h -29.7939 v 28.33 h 29.7939 v -28.33 m -29.7939,-427.5 h 29.7919 v 28.332 h -29.7919 z m -17.5313,712.5 h -29.7939 v 28.33 h 29.7939 v -28.33 m 0,-47.5 h -29.7939 v 28.33 h 29.7939 v -28.33 m 0,-47.5 h -29.7939 v 28.33 h 29.7939 v -28.33 m 0,-47.5 h -29.7939 v 28.33 h 29.7939 v -28.33 m 0,-47.5 h -29.7939 v 28.33 h 29.7939 v -28.33 m 0,-47.5 h -29.7939 v 28.33 h 29.7939 v -28.33 m 0,-47.5 h -29.7939 v 28.33 h 29.7939 v -28.33 m 0,-47.5 h -29.7939 v 28.33 h 29.7939 v -28.33 m -29.7939,-285 h 29.7919 v 28.332 h -29.7919 z m 0,-47.5 h 29.7919 v 28.332 h -29.7919 z m 0,-47.5 h 29.7919 v 28.332 h -29.7919 z m 0,-47.5 h 29.7919 v 28.332 h -29.7919 z m 29.7939,-190 h -29.7939 v 28.33 h 29.7939 v -28.33 m -47.3254,950 h -29.7939 v 28.33 h 29.7939 v -28.33 m 0,-47.5 h -29.7939 v 28.33 h 29.7939 v -28.33 m 0,-47.5 h -29.7939 v 28.33 h 29.7939 v -28.33 m 0,-47.5 h -29.7939 v 28.33 h 29.7939 v -28.33 m 0,-47.5 h -29.7939 v 28.33 h 29.7939 v -28.33 m 0,-47.5 h -29.7939 v 28.33 h 29.7939 v -28.33 m 0,-47.5 h -29.7939 v 28.33 h 29.7939 v -28.33 m 0,-47.5 h -29.7939 v 28.33 h 29.7939 v -28.33 m 0,-47.5 h -29.7939 v 28.33 h 29.7939 v -28.33 m 0,-47.5 h -29.7939 v 28.33 h 29.7939 v -28.33 m -29.7939,-142.5 h 29.792 v 28.332 h -29.792 z m 0,-47.5 h 29.792 v 28.332 h -29.792 z m 0,-47.5 h 29.792 v 28.332 h -29.792 z m 0,-47.5 h 29.792 v 28.332 h -29.792 z m 0,-47.5 h 29.792 v 28.332 h -29.792 z m 29.7939,-190 h -29.7939 v 28.33 h 29.7939 v -28.33 m -77.1191,950 h 29.7919 v 28.332 h -29.7919 z m 0,-47.5 h 29.7919 v 28.332 h -29.7919 z m 0,-47.5 h 29.7919 v 28.332 h -29.7919 z m 0,-47.5 h 29.7919 v 28.332 h -29.7919 z m 0,-47.5 h 29.7919 v 28.332 h -29.7919 z m 0,-47.5 h 29.7919 v 28.332 h -29.7919 z m 0,-47.5 h 29.7919 v 28.332 h -29.7919 z m 0,-47.5 h 29.7919 v 28.332 h -29.7919 z m 0,-47.5 h 29.7919 v 28.332 h -29.7919 z m 0,-47.5 h 29.7919 v 28.332 h -29.7919 z m 0,-47.5 h 29.7919 v 28.332 h -29.7919 z m 0,-47.5 h 29.7919 v 28.332 h -29.7919 z m 0,-47.5 h 29.7919 v 28.332 h -29.7919 z m 0,-47.5 h 29.7919 v 28.332 h -29.7919 z m 0,-47.5 h 29.7919 v 28.332 h -29.7919 z m 0,-47.5 h 29.7919 v 28.332 h -29.7919 z m 0,-47.5 h 29.7919 v 28.332 h -29.7919 z m 29.7939,-47.5 h -29.7939 v 28.33 h 29.7939 v -28.33 m -77.1191,807.5 h 29.7919 v 28.332 h -29.7919 z m 0,-47.5 h 29.7919 v 28.332 h -29.7919 z m 0,-47.5 h 29.7919 v 28.332 h -29.7919 z m 0,-47.5 h 29.7919 v 28.332 h -29.7919 z m 0,-47.5 h 29.7919 v 28.332 h -29.7919 z m 0,-47.5 h 29.7919 v 28.332 h -29.7919 z m 0,-47.5 h 29.7919 v 28.332 h -29.7919 z m 0,-47.5 h 29.7919 v 28.332 h -29.7919 z m 0,-47.5 h 29.7919 v 28.332 h -29.7919 z m 0,-47.5 h 29.7919 v 28.332 h -29.7919 z m 0,-142.5 h 29.7919 v 28.332 h -29.7919 z m 0,-47.5 h 29.7919 v 28.332 h -29.7919 z m 0,-47.5 h 29.7919 v 28.332 h -29.7919 z m 0,-47.5 h 29.7919 v 28.332 h -29.7919 z m -47.3253,712.5 h 29.7919 v 28.332 h -29.7919 z m 0,-47.5 h 29.7919 v 28.332 h -29.7919 z m 0,-47.5 h 29.7919 v 28.332 h -29.7919 z m 0,-47.5 h 29.7919 v 28.332 h -29.7919 z m 0,-47.5 h 29.7919 v 28.332 h -29.7919 z m 0,-47.5 h 29.7919 v 28.332 h -29.7919 z m 0,-47.5 h 29.7919 v 28.332 h -29.7919 z m 0,-47.5 h 29.7919 v 28.332 h -29.7919 z m 0,-47.5 h 29.7919 v 28.332 h -29.7919 z m 0,-47.5 h 29.7919 v 28.332 h -29.7919 z m 0,-142.5 h 29.7919 v 28.332 h -29.7919 z m 0,-47.5 h 29.7919 v 28.332 h -29.7919 z m 0,-47.5 h 29.7919 v 28.332 h -29.7919 z m -532.8508,788.33 h 29.8042 v 28.3398 h -29.8042 z m 0,-47.5 h 29.8042 v 28.3398 h -29.8042 z m 0,-47.5 h 29.8042 v 28.3398 h -29.8042 z m 0,-47.5 h 29.8042 v 28.3398 h -29.8042 z m 0,-47.5 h 29.8042 v 28.3398 h -29.8042 z m 0,-47.5 h 29.8042 v 28.3398 h -29.8042 z m 0,-47.5 h 29.8042 v 28.3398 h -29.8042 z m 0,-47.5 h 29.8042 v 28.3398 h -29.8042 z m 0,-142.5 h 29.8042 v 28.3398 h -29.8042 z m 0,-47.5 h 29.8042 v 28.3398 h -29.8042 z m -47.3252,522.5 h 29.8042 v 28.3398 h -29.8042 z m 0,-47.5 h 29.8042 v 28.3398 h -29.8042 z m 0,-47.5 h 29.8042 v 28.3398 h -29.8042 z m 0,-47.5 h 29.8042 v 28.3398 h -29.8042 z m 0,-47.5 h 29.8042 v 28.3398 h -29.8042 z m 0,-47.5 h 29.8042 v 28.3398 h -29.8042 z m 0,-47.5 h 29.8042 v 28.3398 h -29.8042 z m 0,-47.5 h 29.8042 v 28.3398 h -29.8042 z m 0,-190 h 29.8042 v 28.3398 h -29.8042 z m -47.3253,522.5 h 29.8042 v 28.3398 h -29.8042 z m 0,-47.5 h 29.8042 v 28.3398 h -29.8042 z m 0,-47.5 h 29.8042 v 28.3398 h -29.8042 z m 0,-47.5 h 29.8042 v 28.3398 h -29.8042 z m 0,-47.5 h 29.8042 v 28.3398 h -29.8042 z m 0,-47.5 h 29.8042 v 28.3398 h -29.8042 z m 0,-47.5 h 29.8042 v 28.3398 h -29.8042 z m 0,-47.5 h 29.8042 v 28.3398 h -29.8042 z m -47.3252,332.5 h 29.8041 v 28.3398 h -29.8041 z m 0,-47.5 h 29.8041 v 28.3398 h -29.8041 z m 0,-47.5 h 29.8041 v 28.3398 h -29.8041 z m 0,-47.5 h 29.8041 v 28.3398 h -29.8041 z m 0,-47.5 h 29.8041 v 28.3398 h -29.8041 z m 0,-47.5 h 29.8041 v 28.3398 h -29.8041 z m 0,-95 h 29.8041 v 28.3398 h -29.8041 z m 0,-47.5 h 29.8041 v 28.3398 h -29.8041 z m 0,-142.5 h 29.8041 v 28.3398 h -29.8041 z m 0,-47.5 h 29.8041 v 28.3398 h -29.8041 z m 0,-47.5 h 29.8041 v 28.3398 h -29.8041 z m 0,-47.5 h 29.8041 v 28.3398 h -29.8041 z m 29.8043,-47.5 h -29.8043 v 28.34 h 29.8043 v -28.34 m 0,-47.5 h -29.8043 v 28.34 h 29.8043 v -28.34 m 0,-47.5 h -29.8043 v 28.34 h 29.8043 v -28.34 m -77.1295,807.5 h 29.8041 v 28.3398 h -29.8041 z m 0,-47.5 h 29.8041 v 28.3398 h -29.8041 z m 0,-47.5 h 29.8041 v 28.3398 h -29.8041 z m 0,-47.5 h 29.8041 v 28.3398 h -29.8041 z m 0,-47.5 h 29.8041 v 28.3398 h -29.8041 z m 0,-47.5 h 29.8041 v 28.3398 h -29.8041 z m 0,-142.5 h 29.8041 v 28.3398 h -29.8041 z m 0,-47.5 h 29.8041 v 28.3398 h -29.8041 z m 0,-47.5 h 29.8041 v 28.3398 h -29.8041 z m 0,-47.5 h 29.8041 v 28.3398 h -29.8041 z m 0,-47.5 h 29.8041 v 28.3398 h -29.8041 z m 0,-47.5 h 29.8041 v 28.3398 h -29.8041 z m 0,-47.5 h 29.8041 v 28.3398 h -29.8041 z m 29.8043,-47.5 h -29.8043 v 28.34 h 29.8043 v -28.34 m 0,-47.5 h -29.8043 v 28.34 h 29.8043 v -28.34 m 0,-47.5 h -29.8043 v 28.34 h 29.8043 v -28.34 m 0,-47.5 h -29.8043 v 28.34 h 29.8043 v -28.34 m 0,-95 h -29.8043 v 28.34 h 29.8043 v -28.34 m -77.1297,950 h 29.8043 v 28.3398 h -29.8043 z m 0,-47.5 h 29.8043 v 28.3398 h -29.8043 z m 0,-47.5 h 29.8043 v 28.3398 h -29.8043 z m 0,-47.5 h 29.8043 v 28.3398 h -29.8043 z m 0,-47.5 h 29.8043 v 28.3398 h -29.8043 z m 0,-47.5 h 29.8043 v 28.3398 h -29.8043 z m 0,-142.5 h 29.8043 v 28.3398 h -29.8043 z m 0,-47.5 h 29.8043 v 28.3398 h -29.8043 z m 0,-47.5 h 29.8043 v 28.3398 h -29.8043 z m 0,-47.5 h 29.8043 v 28.3398 h -29.8043 z m 0,-142.5 h 29.8043 v 28.3398 h -29.8043 z m 29.8045,-47.5 h -29.8045 v 28.34 h 29.8045 v -28.34 m 0,-47.5 h -29.8045 v 28.34 h 29.8045 v -28.34 m 0,-47.5 h -29.8045 v 28.34 h 29.8045 v -28.34 m 0,-47.5 h -29.8045 v 28.34 h 29.8045 v -28.34 m 0,-95 h -29.8045 v 28.34 h 29.8045 v -28.34 m 0,-47.5 h -29.8045 v 28.34 h 29.8045 v -28.34 m -459.2338,555.84 h 29.7919 v 28.3281 h -29.7919 z m 0,-47.5 h 29.7919 v 28.3281 h -29.7919 z m 0,-47.5 h 29.7919 v 28.3281 h -29.7919 z m 0,-47.5 h 29.7919 v 28.3281 h -29.7919 z m 0,-47.5 h 29.7919 v 28.3281 h -29.7919 z m 29.7939,-47.5 h -29.7939 v 28.33 h 29.7939 v -28.33 m 0,-47.5 h -29.7939 v 28.33 h 29.7939 v -28.33 m 0,-142.5 h -29.7939 v 28.33 h 29.7939 v -28.33 m 0,-47.5 h -29.7939 v 28.33 h 29.7939 v -28.33 m 0,-47.5 h -29.7939 v 28.33 h 29.7939 v -28.33 m -77.1191,522.5 h 29.7918 v 28.3281 h -29.7918 z m 0,-47.5 h 29.7918 v 28.3281 h -29.7918 z m 0,-47.5 h 29.7918 v 28.3281 h -29.7918 z m 0,-47.5 h 29.7918 v 28.3281 h -29.7918 z m 0,-47.5 h 29.7918 v 28.3281 h -29.7918 z m 29.7938,-47.5 h -29.7938 v 28.33 h 29.7938 v -28.33 m 0,-47.5 h -29.7938 v 28.33 h 29.7938 v -28.33 m -77.1191,285 h 29.7919 v 28.3281 h -29.7919 z m 0,-47.5 h 29.7919 v 28.3281 h -29.7919 z m 0,-47.5 h 29.7919 v 28.3281 h -29.7919 z m 0,-47.5 h 29.7919 v 28.3281 h -29.7919 z m 0,-47.5 h 29.7919 v 28.3281 h -29.7919 z m 29.7939,-47.5 h -29.7939 v 28.33 h 29.7939 v -28.33 m 0,-47.5 h -29.7939 v 28.33 h 29.7939 v -28.33 m -77.1191,285 h 29.7919 v 28.3281 h -29.7919 z m 0,-47.5 h 29.7919 v 28.3281 h -29.7919 z m 0,-47.5 h 29.7919 v 28.3281 h -29.7919 z m 0,-47.5 h 29.7919 v 28.3281 h -29.7919 z m 0,-47.5 h 29.7919 v 28.3281 h -29.7919 z m 29.7939,-47.5 h -29.7939 v 28.33 h 29.7939 v -28.33 m 0,-47.5 h -29.7939 v 28.33 h 29.7939 v -28.33 m 0,-47.5 h -29.7939 v 28.33 h 29.7939 v -28.33 m 0,-47.5 h -29.7939 v 28.33 h 29.7939 v -28.33 m 0,-47.5 h -29.7939 v 28.33 h 29.7939 v -28.33 m 0,-47.5 h -29.7939 v 28.33 h 29.7939 v -28.33 m -77.1192,475 h 29.7918 v 28.3281 h -29.7918 z m 0,-47.5 h 29.7918 v 28.3281 h -29.7918 z m 0,-47.5 h 29.7918 v 28.3281 h -29.7918 z m 0,-47.5 h 29.7918 v 28.3281 h -29.7918 z m 0,-47.5 h 29.7918 v 28.3281 h -29.7918 z m 29.7938,-47.5 h -29.7938 v 28.33 h 29.7938 v -28.33 m 0,-47.5 h -29.7938 v 28.33 h 29.7938 v -28.33 m 0,-47.5 h -29.7938 v 28.33 h 29.7938 v -28.33 m 0,-47.5 h -29.7938 v 28.33 h 29.7938 v -28.33 m 0,-47.5 h -29.7938 v 28.33 h 29.7938 v -28.33 m 0,-47.5 h -29.7938 v 28.33 h 29.7938 v -28.33 m 0,-47.5 h -29.7938 v 28.33 h 29.7938 v -28.33 m 0,-142.5 h -29.7938 v 28.33 h 29.7938 v -28.33 m 0,-47.5 h -29.7938 v 28.33 h 29.7938 v -28.33 m -47.3252,712.5 h -29.7939 v 28.33 h 29.7939 v -28.33 m 0,-47.5 h -29.7939 v 28.33 h 29.7939 v -28.33 m 0,-47.5 h -29.7939 v 28.33 h 29.7939 v -28.33 m 0,-142.5 h -29.7939 v 28.33 h 29.7939 v -28.33 m 0,-47.5 h -29.7939 v 28.33 h 29.7939 v -28.33 m 0,-47.5 h -29.7939 v 28.33 h 29.7939 v -28.33 m 0,-47.5 h -29.7939 v 28.33 h 29.7939 v -28.33 m 0,-47.5 h -29.7939 v 28.33 h 29.7939 v -28.33 m 0,-47.5 h -29.7939 v 28.33 h 29.7939 v -28.33 m 0,-47.5 h -29.7939 v 28.33 h 29.7939 v -28.33 m -29.7939,-142.5 h 29.7919 v 28.3281 h -29.7919 z m 0,-47.5 h 29.7919 v 28.3281 h -29.7919 z m 0,-47.5 h 29.7919 v 28.3281 h -29.7919 z m -496.04332,1045 h 29.80419 v 28.3281 h -29.80419 z m 0,-47.5 h 29.80419 v 28.3281 h -29.80419 z m 0,-47.5 h 29.80419 v 28.3281 h -29.80419 z m 29.80545,-47.5 h -29.80545 v 28.33 h 29.80545 v -28.33 m 0,-47.5 h -29.80545 v 28.33 h 29.80545 v -28.33 m 0,-47.5 h -29.80545 v 28.33 h 29.80545 v -28.33 m -29.80545,-47.5 h 29.80419 v 28.3281 h -29.80419 z m 0,-47.5 h 29.80419 v 28.3281 h -29.80419 z m 0,-47.5 h 29.80419 v 28.3281 h -29.80419 z m 0,-47.5 h 29.80419 v 28.3281 h -29.80419 z m 0,-47.5 h 29.80419 v 28.3281 h -29.80419 z m 0,-47.5 h 29.80419 v 28.3281 h -29.80419 z m 0,-47.5 h 29.80419 v 28.3281 h -29.80419 z m 0,-47.5 h 29.80419 v 28.3281 h -29.80419 z m 0,-47.5 h 29.80419 v 28.3281 h -29.80419 z m 0,-47.5 h 29.80419 v 28.3281 h -29.80419 z m 0,-47.5 h 29.80419 v 28.3281 h -29.80419 z m 0,-47.5 h 29.80419 v 28.3281 h -29.80419 z m 0,-47.5 h 29.80419 v 28.3281 h -29.80419 z m 0,-47.5 h 29.80419 v 28.3281 h -29.80419 z m 0,-47.5 h 29.80419 v 28.3281 h -29.80419 z m 0,-47.5 h 29.80419 v 28.3281 h -29.80419 z m 0,-47.5 h 29.80419 v 28.3281 h -29.80419 z m -47.32104,1045 h 29.79598 v 28.3281 h -29.79598 z m 0,-47.5 h 29.79598 v 28.3281 h -29.79598 z m 0,-47.5 h 29.79598 v 28.3281 h -29.79598 z m 29.79598,-47.5 h -29.80019 v 28.33 h 29.80019 v -28.33 m 0,-47.5 h -29.80019 v 28.33 h 29.80019 v -28.33 m 0,-47.5 h -29.80019 v 28.33 h 29.80019 v -28.33 m -29.79598,-47.5 h 29.79598 v 28.3281 h -29.79598 z m 0,-47.5 h 29.79598 v 28.3281 h -29.79598 z m 0,-47.5 h 29.79598 v 28.3281 h -29.79598 z m 0,-47.5 h 29.79598 v 28.3281 h -29.79598 z m 0,-47.5 h 29.79598 v 28.3281 h -29.79598 z m 0,-47.5 h 29.79598 v 28.3281 h -29.79598 z m 0,-47.5 h 29.79598 v 28.3281 h -29.79598 z m 0,-47.5 h 29.79598 v 28.3281 h -29.79598 z m 0,-47.5 h 29.79598 v 28.3281 h -29.79598 z m 0,-47.5 h 29.79598 v 28.3281 h -29.79598 z m 0,-47.5 h 29.79598 v 28.3281 h -29.79598 z m 0,-47.5 h 29.79598 v 28.3281 h -29.79598 z m 0,-47.5 h 29.79598 v 28.3281 h -29.79598 z m -47.32946,855 h 29.80008 v 28.3281 h -29.80008 z m 0,-47.5 h 29.80008 v 28.3281 h -29.80008 z m 29.80018,-47.5 h -29.80018 v 28.33 h 29.80018 v -28.33 m 0,-47.5 h -29.80018 v 28.33 h 29.80018 v -28.33 m 0,-47.5 h -29.80018 v 28.33 h 29.80018 v -28.33 m 0,-47.5 h -29.80018 v 28.33 h 29.80018 v -28.33 m 0,-47.5 h -29.80018 v 28.33 h 29.80018 v -28.33 m 0,-47.5 h -29.80018 v 28.33 h 29.80018 v -28.33 m 0,-47.5 h -29.80018 v 28.33 h 29.80018 v -28.33 m 0,-47.5 h -29.80018 v 28.33 h 29.80018 v -28.33 m 0,-47.5 h -29.80018 v 28.33 h 29.80018 v -28.33 m 0,-47.5 h -29.80018 v 28.33 h 29.80018 v -28.33 m 0,-47.5 h -29.80018 v 28.33 h 29.80018 v -28.33 m 0,-47.5 h -29.80018 v 28.33 h 29.80018 v -28.33 m 0,-47.5 h -29.80018 v 28.33 h 29.80018 v -28.33 m 0,-47.5 h -29.80018 v 28.33 h 29.80018 v -28.33 m 0,-47.5 h -29.80018 v 28.33 h 29.80018 v -28.33 m 0,-47.5 h -29.80018 v 28.33 h 29.80018 v -28.33 m 0,-47.5 h -29.80018 v 28.33 h 29.80018 v -28.33 m -77.12544,855 h 29.80008 v 28.3281 h -29.80008 z m 29.80019,-47.5 h -29.80019 v 28.33 h 29.80019 v -28.33 m 0,-47.5 h -29.80019 v 28.33 h 29.80019 v -28.33 m 0,-47.5 h -29.80019 v 28.33 h 29.80019 v -28.33 m 0,-47.5 h -29.80019 v 28.33 h 29.80019 v -28.33 m 0,-47.5 h -29.80019 v 28.33 h 29.80019 v -28.33 m 0,-47.5 h -29.80019 v 28.33 h 29.80019 v -28.33 m 0,-47.5 h -29.80019 v 28.33 h 29.80019 v -28.33 m 0,-47.5 h -29.80019 v 28.33 h 29.80019 v -28.33 m 0,-47.5 h -29.80019 v 28.33 h 29.80019 v -28.33 m 0,-47.5 h -29.80019 v 28.33 h 29.80019 v -28.33 m 0,-47.5 h -29.80019 v 28.33 h 29.80019 v -28.33 m 0,-47.5 h -29.80019 v 28.33 h 29.80019 v -28.33 m 0,-47.5 h -29.80019 v 28.33 h 29.80019 v -28.33 m 0,-47.5 h -29.80019 v 28.33 h 29.80019 v -28.33 m -47.32525,665 h -29.80019 v 28.33 h 29.80019 v -28.33 m 0,-47.5 h -29.80019 v 28.33 h 29.80019 v -28.33 m 0,-47.5 h -29.80019 v 28.33 h 29.80019 v -28.33 m 0,-47.5 h -29.80019 v 28.33 h 29.80019 v -28.33 m 0,-47.5 h -29.80019 v 28.33 h 29.80019 v -28.33 m 0,-47.5 h -29.80019 v 28.33 h 29.80019 v -28.33 m 0,-47.5 h -29.80019 v 28.33 h 29.80019 v -28.33 m 0,-47.5 h -29.80019 v 28.33 h 29.80019 v -28.33 m 0,-47.5 h -29.80019 v 28.33 h 29.80019 v -28.33 m 0,-47.5 h -29.80019 v 28.33 h 29.80019 v -28.33 m 0,-47.5 h -29.80019 v 28.33 h 29.80019 v -28.33 m 0,-47.5 h -29.80019 v 28.33 h 29.80019 v -28.33 m 0,-47.5 h -29.80019 v 28.33 h 29.80019 v -28.33 m -47.32525,598.33 v -28.33 h -29.80019 v 28.33 h 29.80019 m 0,-75.83 h -29.80019 v 28.33 h 29.80019 v -28.33 m 0,-47.5 h -29.80019 v 28.33 h 29.80019 v -28.33 m 0,-47.5 h -29.80019 v 28.33 h 29.80019 v -28.33 m 0,-47.5 h -29.80019 v 28.33 h 29.80019 v -28.33 m 0,-47.5 h -29.80019 v 28.33 h 29.80019 v -28.33 m 0,-47.5 h -29.80019 v 28.33 h 29.80019 v -28.33 m 0,-47.5 h -29.80019 v 28.33 h 29.80019 v -28.33 m 0,-47.5 h -29.80019 v 28.33 h 29.80019 v -28.33 m 0,-47.5 h -29.80019 v 28.33 h 29.80019 v -28.33 m 0,-47.5 h -29.80019 v 28.33 h 29.80019 v -28.33 m 0,-47.5 h -29.80019 v 28.33 h 29.80019 v -28.33 m 3447.73409,175.83 h 29.7919 v 28.332 h -29.7919 z m 0,-47.5 h 29.7919 v 28.332 h -29.7919 z m 0,-47.5 h 29.7919 v 28.332 h -29.7919 z m 29.7939,-47.5 h -29.7939 v 28.33 h 29.7939 v -28.33 m 0,-47.5 h -29.7939 v 28.33 h 29.7939 v -28.33 m 0,-47.5 h -29.7939 v 28.33 h 29.7939 v -28.33 m 0,-47.5 h -29.7939 v 28.33 h 29.7939 v -28.33 m 0,-47.5 h -29.7939 v 28.33 h 29.7939 v -28.33 m 0,-47.5 h -29.7939 v 28.33 h 29.7939 v -28.33 m 0,-47.5 h -29.7939 v 28.33 h 29.7939 v -28.33 m 0,-47.5 h -29.7939 v 28.33 h 29.7939 v -28.33 m 0,-47.5 h -29.7939 v 28.33 h 29.7939 v -28.33 m 0,-47.5 h -29.7939 v 28.33 h 29.7939 v -28.33 m 0,-47.5 h -29.7939 v 28.33 h 29.7939 v -28.33 m 0,-47.5 h -29.7939 v 28.33 h 29.7939 v -28.33 m 0,-47.5 h -29.7939 v 28.33 h 29.7939 v -28.33 m 0,-47.5 h -29.7939 v 28.33 h 29.7939 v -28.33 m 0,-47.5 h -29.7939 v 28.33 h 29.7939 v -28.33 m 0,-47.5 h -29.7939 v 28.33 h 29.7939 v -28.33 m 0,-47.5 h -29.7939 v 28.33 h 29.7939 v -28.33 m -77.1191,902.5 h 29.7919 v 28.332 h -29.7919 z m 0,-47.5 h 29.7919 v 28.332 h -29.7919 z m 0,-47.5 h 29.7919 v 28.332 h -29.7919 z m 0,-47.5 h 29.7919 v 28.332 h -29.7919 z m 29.7939,-47.5 h -29.7939 v 28.33 h 29.7939 v -28.33 m 0,-47.5 h -29.7939 v 28.33 h 29.7939 v -28.33 m 0,-47.5 h -29.7939 v 28.33 h 29.7939 v -28.33 m 0,-47.5 h -29.7939 v 28.33 h 29.7939 v -28.33 m 0,-47.5 h -29.7939 v 28.33 h 29.7939 v -28.33 m 0,-47.5 h -29.7939 v 28.33 h 29.7939 v -28.33 m 0,-47.5 h -29.7939 v 28.33 h 29.7939 v -28.33 m 0,-47.5 h -29.7939 v 28.33 h 29.7939 v -28.33 m 0,-47.5 h -29.7939 v 28.33 h 29.7939 v -28.33 m 0,-47.5 h -29.7939 v 28.33 h 29.7939 v -28.33 m 0,-47.5 h -29.7939 v 28.33 h 29.7939 v -28.33 m 0,-47.5 h -29.7939 v 28.33 h 29.7939 v -28.33 m 0,-47.5 h -29.7939 v 28.33 h 29.7939 v -28.33 m 0,-47.5 h -29.7939 v 28.33 h 29.7939 v -28.33 m -77.1191,807.5 h 29.7918 v 28.332 h -29.7918 z m 0,-47.5 h 29.7918 v 28.332 h -29.7918 z m 0,-47.5 h 29.7918 v 28.332 h -29.7918 z m 0,-47.5 h 29.7918 v 28.332 h -29.7918 z m 29.7938,-47.5 h -29.7938 v 28.33 h 29.7938 v -28.33 m 0,-47.5 h -29.7938 v 28.33 h 29.7938 v -28.33 m 0,-47.5 h -29.7938 v 28.33 h 29.7938 v -28.33 m 0,-47.5 h -29.7938 v 28.33 h 29.7938 v -28.33 m 0,-47.5 h -29.7938 v 28.33 h 29.7938 v -28.33 m 0,-47.5 h -29.7938 v 28.33 h 29.7938 v -28.33 m 0,-47.5 h -29.7938 v 28.33 h 29.7938 v -28.33 m 0,-47.5 h -29.7938 v 28.33 h 29.7938 v -28.33 m 0,-47.5 h -29.7938 v 28.33 h 29.7938 v -28.33 m 0,-47.5 h -29.7938 v 28.33 h 29.7938 v -28.33 m 0,-47.5 h -29.7938 v 28.33 h 29.7938 v -28.33 m 0,-47.5 h -29.7938 v 28.33 h 29.7938 v -28.33 m 0,-47.5 h -29.7938 v 28.33 h 29.7938 v -28.33 m 0,-47.5 h -29.7938 v 28.33 h 29.7938 v -28.33 m 271.689,460.83 h -29.8044 v 28.34 h 29.8044 v -28.34 m 0,-47.5 h -29.8044 v 28.34 h 29.8044 v -28.34 m 0,-47.5 h -29.8044 v 28.34 h 29.8044 v -28.34 m 0,-47.5 h -29.8044 v 28.34 h 29.8044 v -28.34 m 0,-47.5 h -29.8044 v 28.34 h 29.8044 v -28.34 m 0,-47.5 h -29.8044 v 28.34 h 29.8044 v -28.34 m 0,-47.5 h -29.8044 v 28.34 h 29.8044 v -28.34 m 0,-47.5 h -29.8044 v 28.34 h 29.8044 v -28.34 m 0,-47.5 h -29.8044 v 28.34 h 29.8044 v -28.34 m 0,-47.5 h -29.8044 v 28.34 h 29.8044 v -28.34 m 0,-47.5 h -29.8044 v 28.34 h 29.8044 v -28.34 m 0,-47.5 h -29.8044 v 28.34 h 29.8044 v -28.34 m 0,-47.498 h -29.8044 v 28.338 h 29.8044 v -28.338 m -47.3252,569.998 h -29.8044 v 28.34 h 29.8044 v -28.34 m 0,-47.5 h -29.8044 v 28.34 h 29.8044 v -28.34 m 0,-47.5 h -29.8044 v 28.34 h 29.8044 v -28.34 m 0,-47.5 h -29.8044 v 28.34 h 29.8044 v -28.34 m 0,-47.5 h -29.8044 v 28.34 h 29.8044 v -28.34 m 0,-47.5 h -29.8044 v 28.34 h 29.8044 v -28.34 m 0,-47.5 h -29.8044 v 28.34 h 29.8044 v -28.34 m 0,-47.5 h -29.8044 v 28.34 h 29.8044 v -28.34 m 0,-47.5 h -29.8044 v 28.34 h 29.8044 v -28.34 m 0,-47.5 h -29.8044 v 28.34 h 29.8044 v -28.34 m 0,-47.5 h -29.8044 v 28.34 h 29.8044 v -28.34 m 0,-47.5 h -29.8044 v 28.34 h 29.8044 v -28.34 m 0,-47.498 h -29.8044 v 28.338 h 29.8044 v -28.338 m -47.3253,569.998 h -29.8043 v 28.34 h 29.8043 v -28.34 m 0,-47.5 h -29.8043 v 28.34 h 29.8043 v -28.34 m 0,-47.5 h -29.8043 v 28.34 h 29.8043 v -28.34 m 0,-47.5 h -29.8043 v 28.34 h 29.8043 v -28.34 m 0,-47.5 h -29.8043 v 28.34 h 29.8043 v -28.34 m 0,-47.5 h -29.8043 v 28.34 h 29.8043 v -28.34 m 0,-47.5 h -29.8043 v 28.34 h 29.8043 v -28.34 m 0,-47.5 h -29.8043 v 28.34 h 29.8043 v -28.34 m 0,-47.5 h -29.8043 v 28.34 h 29.8043 v -28.34 m 0,-47.5 h -29.8043 v 28.34 h 29.8043 v -28.34 m 0,-47.5 h -29.8043 v 28.34 h 29.8043 v -28.34 m 0,-47.5 h -29.8043 v 28.34 h 29.8043 v -28.34 m 0,-47.498 h -29.8043 v 28.338 h 29.8043 v -28.338 m 0,-47.5 h -29.8043 v 28.34 h 29.8043 v -28.34 m -262.9181,603.338 h -29.8043 v 28.33 h 29.8043 v -28.33 m 0,-47.5 h -29.8043 v 28.33 h 29.8043 v -28.33 m 0,-47.5 h -29.8043 v 28.33 h 29.8043 v -28.33 m 0,-47.5 h -29.8043 v 28.33 h 29.8043 v -28.33 m 0,-47.5 h -29.8043 v 28.33 h 29.8043 v -28.33 m 0,-47.5 h -29.8043 v 28.33 h 29.8043 v -28.33 m 0,-47.5 h -29.8043 v 28.33 h 29.8043 v -28.33 m 0,-47.5 h -29.8043 v 28.33 h 29.8043 v -28.33 m 0,-47.5 h -29.8043 v 28.33 h 29.8043 v -28.33 m 0,-47.5 h -29.8043 v 28.33 h 29.8043 v -28.33 m 0,-142.498 h -29.8043 v 28.328 h 29.8043 v -28.328 m -47.3252,569.998 h -29.8044 v 28.33 h 29.8044 v -28.33 m 0,-47.5 h -29.8044 v 28.33 h 29.8044 v -28.33 m 0,-47.5 h -29.8044 v 28.33 h 29.8044 v -28.33 m 0,-47.5 h -29.8044 v 28.33 h 29.8044 v -28.33 m 0,-47.5 h -29.8044 v 28.33 h 29.8044 v -28.33 m 0,-47.5 h -29.8044 v 28.33 h 29.8044 v -28.33 m 0,-47.5 h -29.8044 v 28.33 h 29.8044 v -28.33 m 0,-47.5 h -29.8044 v 28.33 h 29.8044 v -28.33 m 0,-47.5 h -29.8044 v 28.33 h 29.8044 v -28.33 m 0,-142.5 h -29.8044 v 28.33 h 29.8044 v -28.33 m 0,-47.498 h -29.8044 v 28.328 h 29.8044 v -28.328 m -47.3252,569.998 h -29.8045 v 28.33 h 29.8045 v -28.33 m 0,-47.5 h -29.8045 v 28.33 h 29.8045 v -28.33 m 0,-47.5 h -29.8045 v 28.33 h 29.8045 v -28.33 m 0,-47.5 h -29.8045 v 28.33 h 29.8045 v -28.33 m 0,-47.5 h -29.8045 v 28.33 h 29.8045 v -28.33 m 0,-47.5 h -29.8045 v 28.33 h 29.8045 v -28.33 m 0,-47.5 h -29.8045 v 28.33 h 29.8045 v -28.33 m 0,-47.5 h -29.8045 v 28.33 h 29.8045 v -28.33 m 0,-142.5 h -29.8045 v 28.33 h 29.8045 v -28.33 m 0,-47.5 h -29.8045 v 28.33 h 29.8045 v -28.33 m 0,-47.498 h -29.8045 v 28.328 h 29.8045 v -28.328 M 3123.91,2892.4054 h 29.7919 v 28.3398 H 3123.91 Z m 29.7939,-47.5 H 3123.91 v 28.34 h 29.7939 v -28.34 m 0,-47.5 H 3123.91 v 28.34 h 29.7939 v -28.34 m 0,-47.5 H 3123.91 v 28.34 h 29.7939 v -28.34 m 0,-47.5 H 3123.91 v 28.34 h 29.7939 v -28.34 m 0,-47.5 H 3123.91 v 28.34 h 29.7939 v -28.34 m 0,-47.5 H 3123.91 v 28.34 h 29.7939 v -28.34 m 0,-47.5 H 3123.91 v 28.34 h 29.7939 v -28.34 m 0,-47.5 H 3123.91 v 28.34 h 29.7939 v -28.34 m 0,-47.5 H 3123.91 v 28.34 h 29.7939 v -28.34 m 0,-47.5 H 3123.91 v 28.34 h 29.7939 v -28.34 m 0,-47.5 H 3123.91 v 28.34 h 29.7939 v -28.34 m 0,-47.5 H 3123.91 v 28.34 h 29.7939 v -28.34 m 0,-47.5 H 3123.91 v 28.34 h 29.7939 v -28.34 m 0,-47.5 H 3123.91 v 28.34 h 29.7939 v -28.34 m 0,-47.5 H 3123.91 v 28.34 h 29.7939 v -28.34 m -29.7939,-47.5 h 29.7919 v 28.3398 H 3123.91 Z m 29.7939,-95 H 3123.91 v 28.34 h 29.7939 v -28.34 m 0,-47.5 H 3123.91 v 28.34 h 29.7939 v -28.34 m 0,-47.5 H 3123.91 v 28.34 h 29.7939 v -28.34 m 0,-47.5 H 3123.91 v 28.34 h 29.7939 v -28.34 m 0,-47.5 H 3123.91 v 28.34 h 29.7939 v -28.34 m -77.1192,1045 h 29.7919 v 28.3398 h -29.7919 z m 0,-47.5 h 29.7919 v 28.3398 h -29.7919 z m 29.7939,-47.5 h -29.7939 v 28.34 h 29.7939 v -28.34 m 0,-47.5 h -29.7939 v 28.34 h 29.7939 v -28.34 m 0,-47.5 h -29.7939 v 28.34 h 29.7939 v -28.34 m 0,-47.5 h -29.7939 v 28.34 h 29.7939 v -28.34 m 0,-47.5 h -29.7939 v 28.34 h 29.7939 v -28.34 m 0,-47.5 h -29.7939 v 28.34 h 29.7939 v -28.34 m 0,-47.5 h -29.7939 v 28.34 h 29.7939 v -28.34 m 0,-47.5 h -29.7939 v 28.34 h 29.7939 v -28.34 m 0,-47.5 h -29.7939 v 28.34 h 29.7939 v -28.34 m 0,-47.5 h -29.7939 v 28.34 h 29.7939 v -28.34 m 0,-47.5 h -29.7939 v 28.34 h 29.7939 v -28.34 m 0,-47.5 h -29.7939 v 28.34 h 29.7939 v -28.34 m 0,-47.5 h -29.7939 v 28.34 h 29.7939 v -28.34 m -29.7939,-47.5 h 29.7919 v 28.3398 h -29.7919 z m 29.7939,-285 h -29.7939 v 28.34 h 29.7939 v -28.34 m 0,-47.5 h -29.7939 v 28.34 h 29.7939 v -28.34 m -77.1191,1045 h 29.7919 v 28.3398 h -29.7919 z m 0,-47.5 h 29.7919 v 28.3398 h -29.7919 z m 29.7939,-47.5 h -29.7939 v 28.34 h 29.7939 v -28.34 m 0,-47.5 h -29.7939 v 28.34 h 29.7939 v -28.34 m 0,-47.5 h -29.7939 v 28.34 h 29.7939 v -28.34 m 0,-47.5 h -29.7939 v 28.34 h 29.7939 v -28.34 m 0,-47.5 h -29.7939 v 28.34 h 29.7939 v -28.34 m 0,-47.5 h -29.7939 v 28.34 h 29.7939 v -28.34 m 0,-47.5 h -29.7939 v 28.34 h 29.7939 v -28.34 m 0,-47.5 h -29.7939 v 28.34 h 29.7939 v -28.34 m 0,-47.5 h -29.7939 v 28.34 h 29.7939 v -28.34 m 0,-47.5 h -29.7939 v 28.34 h 29.7939 v -28.34 m 0,-47.5 h -29.7939 v 28.34 h 29.7939 v -28.34 m 0,-47.5 h -29.7939 v 28.34 h 29.7939 v -28.34 m 0,-47.5 h -29.7939 v 28.34 h 29.7939 v -28.34 m -29.7939,-47.5 h 29.7919 v 28.3398 h -29.7919 z m 29.7939,-95 h -29.7939 v 28.34 h 29.7939 v -28.34 m 0,-47.5 h -29.7939 v 28.34 h 29.7939 v -28.34 m 0,-47.5 h -29.7939 v 28.34 h 29.7939 v -28.34 m 0,-47.5 h -29.7939 v 28.34 h 29.7939 v -28.34 m 0,-95 h -29.7939 v 28.34 h 29.7939 v -28.34 m 266.4306,446.67 h -29.8043 v 28.33 h 29.8043 v -28.33 m 0,-47.5 h -29.8043 v 28.33 h 29.8043 v -28.33 m 0,-47.5 h -29.8043 v 28.33 h 29.8043 v -28.33 m 0,-47.5 h -29.8043 v 28.33 h 29.8043 v -28.33 m 0,-47.5 h -29.8043 v 28.33 h 29.8043 v -28.33 m 0,-47.5 h -29.8043 v 28.33 h 29.8043 v -28.33 m 0,-47.5 h -29.8043 v 28.33 h 29.8043 v -28.33 m 0,-95 h -29.8043 v 28.33 h 29.8043 v -28.33 m 0,-47.5 h -29.8043 v 28.33 h 29.8043 v -28.33 m 0,-47.5 h -29.8043 v 28.33 h 29.8043 v -28.33 m 0,-47.5 h -29.8043 v 28.33 h 29.8043 v -28.33 m 0,-47.5 h -29.8043 v 28.33 h 29.8043 v -28.33 m 0,-47.5 h -29.8043 v 28.33 h 29.8043 v -28.33 m 0,-47.5 h -29.8043 v 28.33 h 29.8043 v -28.33 m 0,-47.5 h -29.8043 v 28.332 h 29.8043 v -28.332 m -47.3252,712.5 h -29.8045 v 28.33 h 29.8045 v -28.33 m 0,-47.5 h -29.8045 v 28.33 h 29.8045 v -28.33 m 0,-47.5 h -29.8045 v 28.33 h 29.8045 v -28.33 m 0,-47.5 h -29.8045 v 28.33 h 29.8045 v -28.33 m 0,-47.5 h -29.8045 v 28.33 h 29.8045 v -28.33 m 0,-47.5 h -29.8045 v 28.33 h 29.8045 v -28.33 m 0,-142.5 h -29.8045 v 28.33 h 29.8045 v -28.33 m 0,-47.5 h -29.8045 v 28.33 h 29.8045 v -28.33 m 0,-47.5 h -29.8045 v 28.33 h 29.8045 v -28.33 m 0,-47.5 h -29.8045 v 28.33 h 29.8045 v -28.33 m 0,-47.5 h -29.8045 v 28.33 h 29.8045 v -28.33 m 0,-47.5 h -29.8045 v 28.33 h 29.8045 v -28.33 m 0,-47.5 h -29.8045 v 28.33 h 29.8045 v -28.33 m 0,-47.5 h -29.8045 v 28.332 h 29.8045 v -28.332 m -47.3252,712.5 h -29.8045 v 28.33 h 29.8045 v -28.33 m 0,-47.5 h -29.8045 v 28.33 h 29.8045 v -28.33 m 0,-47.5 h -29.8045 v 28.33 h 29.8045 v -28.33 m 0,-47.5 h -29.8045 v 28.33 h 29.8045 v -28.33 m 0,-47.5 h -29.8045 v 28.33 h 29.8045 v -28.33 m 0,-47.5 h -29.8045 v 28.33 h 29.8045 v -28.33 m 0,-95 h -29.8045 v 28.33 h 29.8045 v -28.33 m 0,-47.5 h -29.8045 v 28.33 h 29.8045 v -28.33 m 0,-47.5 h -29.8045 v 28.33 h 29.8045 v -28.33 m 0,-47.5 h -29.8045 v 28.33 h 29.8045 v -28.33 m 0,-47.5 h -29.8045 v 28.33 h 29.8045 v -28.33 m 0,-47.5 h -29.8045 v 28.33 h 29.8045 v -28.33 m 0,-47.5 h -29.8045 v 28.33 h 29.8045 v -28.33 m 0,-47.5 h -29.8045 v 28.33 h 29.8045 v -28.33 m 0,-47.5 h -29.8045 v 28.332 h 29.8045 v -28.332 m -1027.1368,978.33 h 29.7918 v 28.3398 h -29.7918 z m 0,-47.5 h 29.7918 v 28.3398 h -29.7918 z m 0,-47.5 h 29.7918 v 28.3398 h -29.7918 z m 0,-47.5 h 29.7918 v 28.3398 h -29.7918 z m 0,-47.5 h 29.7918 v 28.3398 h -29.7918 z m 0,-47.5 h 29.7918 v 28.3398 h -29.7918 z m 0,-47.5 h 29.7918 v 28.3398 h -29.7918 z m 0,-47.5 h 29.7918 v 28.3398 h -29.7918 z m 0,-47.5 h 29.7918 v 28.3398 h -29.7918 z m 29.7937,-47.5 h -29.7937 v 28.34 h 29.7937 v -28.34 m 0,-47.5 h -29.7937 v 28.34 h 29.7937 v -28.34 m 0,-47.5 h -29.7937 v 28.34 h 29.7937 v -28.34 m 0,-47.5 h -29.7937 v 28.34 h 29.7937 v -28.34 m 0,-95 h -29.7937 v 28.34 h 29.7937 v -28.34 m 0,-47.5 h -29.7937 v 28.34 h 29.7937 v -28.34 m 0,-47.5 h -29.7937 v 28.34 h 29.7937 v -28.34 m 0,-47.5 h -29.7937 v 28.34 h 29.7937 v -28.34 m 0,-95 h -29.7937 v 28.34 h 29.7937 v -28.34 m 0,-47.498 h -29.7937 v 28.338 h 29.7937 v -28.338 m 0,-47.5 h -29.7937 v 28.34 h 29.7937 v -28.34 m -77.1191,997.498 h 29.7919 v 28.3398 h -29.7919 z m 0,-47.5 h 29.7919 v 28.3398 h -29.7919 z m 0,-47.5 h 29.7919 v 28.3398 h -29.7919 z m 0,-47.5 h 29.7919 v 28.3398 h -29.7919 z m 0,-47.5 h 29.7919 v 28.3398 h -29.7919 z m 0,-47.5 h 29.7919 v 28.3398 h -29.7919 z m 0,-47.5 h 29.7919 v 28.3398 h -29.7919 z m 0,-47.5 h 29.7919 v 28.3398 h -29.7919 z m 0,-47.5 h 29.7919 v 28.3398 h -29.7919 z m 29.7939,-47.5 h -29.7939 v 28.34 h 29.7939 v -28.34 m 0,-47.5 h -29.7939 v 28.34 h 29.7939 v -28.34 m 0,-47.5 h -29.7939 v 28.34 h 29.7939 v -28.34 m 0,-47.5 h -29.7939 v 28.34 h 29.7939 v -28.34 m 0,-142.5 h -29.7939 v 28.34 h 29.7939 v -28.34 m 0,-47.5 h -29.7939 v 28.34 h 29.7939 v -28.34 m 0,-95 h -29.7939 v 28.34 h 29.7939 v -28.34 m 0,-47.5 h -29.7939 v 28.34 h 29.7939 v -28.34 m 0,-47.498 h -29.7939 v 28.338 h 29.7939 v -28.338 m 0,-47.5 h -29.7939 v 28.34 h 29.7939 v -28.34 m -77.1191,997.498 h 29.7919 v 28.3398 h -29.7919 z m 0,-47.5 h 29.7919 v 28.3398 h -29.7919 z m 0,-47.5 h 29.7919 v 28.3398 h -29.7919 z m 0,-47.5 h 29.7919 v 28.3398 h -29.7919 z m 0,-47.5 h 29.7919 v 28.3398 h -29.7919 z m 29.7939,-47.5 h -29.7939 v 28.34 h 29.7939 v -28.34 m 0,-47.5 h -29.7939 v 28.34 h 29.7939 v -28.34 m 0,-47.5 h -29.7939 v 28.34 h 29.7939 v -28.34 m 0,-47.5 h -29.7939 v 28.34 h 29.7939 v -28.34 m 0,-47.5 h -29.7939 v 28.34 h 29.7939 v -28.34 m 0,-47.5 h -29.7939 v 28.34 h 29.7939 v -28.34 m 0,-47.5 h -29.7939 v 28.34 h 29.7939 v -28.34 m 0,-47.5 h -29.7939 v 28.34 h 29.7939 v -28.34 m 0,-47.5 h -29.7939 v 28.34 h 29.7939 v -28.34 m 0,-95 h -29.7939 v 28.34 h 29.7939 v -28.34 m 0,-95 h -29.7939 v 28.34 h 29.7939 v -28.34 m 0,-47.5 h -29.7939 v 28.34 h 29.7939 v -28.34 m 0,-47.5 h -29.7939 v 28.34 h 29.7939 v -28.34 m 0,-47.498 h -29.7939 v 28.338 h 29.7939 v -28.338 m 0,-47.5 h -29.7939 v 28.34 h 29.7939 v -28.34 m 257.6597,726.668 h 29.8042 v 28.332 h -29.8042 z m 0,-47.5 h 29.8042 v 28.332 h -29.8042 z m 0,-47.5 h 29.8042 v 28.332 h -29.8042 z m 0,-47.5 h 29.8042 v 28.332 h -29.8042 z m 29.8044,-47.5 h -29.8044 v 28.33 h 29.8044 v -28.33 m 0,-47.5 h -29.8044 v 28.33 h 29.8044 v -28.33 m 0,-142.5 h -29.8044 v 28.33 h 29.8044 v -28.33 m 0,-47.5 h -29.8044 v 28.33 h 29.8044 v -28.33 m -29.8044,-47.5 h 29.8042 v 28.332 h -29.8042 z m 0,-47.5 h 29.8042 v 28.332 h -29.8042 z m 0,-47.5 h 29.8042 v 28.332 h -29.8042 z m 0,-47.5 h 29.8042 v 28.332 h -29.8042 z m 0,-47.5 h 29.8042 v 28.332 h -29.8042 z m -47.3253,665 h 29.8043 v 28.332 h -29.8043 z m 0,-47.5 h 29.8043 v 28.332 h -29.8043 z m 0,-47.5 h 29.8043 v 28.332 h -29.8043 z m 29.8045,-47.5 h -29.8045 v 28.33 h 29.8045 v -28.33 m 0,-47.5 h -29.8045 v 28.33 h 29.8045 v -28.33 m 0,-47.5 h -29.8045 v 28.33 h 29.8045 v -28.33 m 0,-142.5 h -29.8045 v 28.33 h 29.8045 v -28.33 m 0,-47.5 h -29.8045 v 28.33 h 29.8045 v -28.33 m 0,-47.5 h -29.8045 v 28.33 h 29.8045 v -28.33 m 0,-47.5 h -29.8045 v 28.33 h 29.8045 v -28.33 m 0,-47.5 h -29.8045 v 28.33 h 29.8045 v -28.33 m 0,-47.5 h -29.8045 v 28.33 h 29.8045 v -28.33 m 0,-95 h -29.8045 v 28.332 h 29.8045 v -28.332 m -1602.05457,921.67 h 29.80418 v 28.3281 h -29.80418 z m 0,-47.5 h 29.80418 v 28.3281 h -29.80418 z m 0,-47.5 h 29.80418 v 28.3281 h -29.80418 z m 0,-47.5 h 29.80418 v 28.3281 h -29.80418 z m 0,-47.5 h 29.80418 v 28.3281 h -29.80418 z m 0,-47.5 h 29.80418 v 28.3281 h -29.80418 z m 0,-47.5 h 29.80418 v 28.3281 h -29.80418 z m 0,-47.5 h 29.80418 v 28.3281 h -29.80418 z m 0,-47.5 h 29.80418 v 28.3281 h -29.80418 z m 0,-47.5 h 29.80418 v 28.3281 h -29.80418 z m 0,-47.5 h 29.80418 v 28.3281 h -29.80418 z m 0,-95 h 29.80418 v 28.3281 h -29.80418 z m 0,-47.5 h 29.80418 v 28.3281 h -29.80418 z m 0,-47.5 h 29.80418 v 28.3281 h -29.80418 z m 0,-47.5 h 29.80418 v 28.3281 h -29.80418 z m 0,-47.5 h 29.80418 v 28.3281 h -29.80418 z m 0,-47.5 h 29.80418 v 28.3281 h -29.80418 z m 29.80439,-47.5 h -29.80439 v 28.33 h 29.80439 v -28.33 m 0,-47.498 h -29.80439 v 28.328 h 29.80439 v -28.328 m -77.12965,902.498 h 29.80419 v 28.3281 h -29.80419 z m 0,-47.5 h 29.80419 v 28.3281 h -29.80419 z m 0,-47.5 h 29.80419 v 28.3281 h -29.80419 z m 0,-47.5 h 29.80419 v 28.3281 h -29.80419 z m 0,-47.5 h 29.80419 v 28.3281 h -29.80419 z m 0,-47.5 h 29.80419 v 28.3281 h -29.80419 z m 0,-47.5 h 29.80419 v 28.3281 h -29.80419 z m 0,-47.5 h 29.80419 v 28.3281 h -29.80419 z m 0,-47.5 h 29.80419 v 28.3281 h -29.80419 z m 0,-47.5 h 29.80419 v 28.3281 h -29.80419 z m 0,-47.5 h 29.80419 v 28.3281 h -29.80419 z m 0,-47.5 h 29.80419 v 28.3281 h -29.80419 z m 0,-47.5 h 29.80419 v 28.3281 h -29.80419 z m 0,-47.5 h 29.80419 v 28.3281 h -29.80419 z m 0,-47.5 h 29.80419 v 28.3281 h -29.80419 z m 0,-47.5 h 29.80419 v 28.3281 h -29.80419 z m 0,-47.5 h 29.80419 v 28.3281 h -29.80419 z m 0,-47.5 h 29.80419 v 28.3281 h -29.80419 z m 0,-47.5 h 29.80419 v 28.3281 h -29.80419 z m 0,-47.498 h 29.80419 v 28.3281 h -29.80419 z m 280.44943,717.498 h 29.7919 v 28.3281 h -29.7919 z m 0,-47.5 h 29.7919 v 28.3281 h -29.7919 z m 0,-47.5 h 29.7919 v 28.3281 h -29.7919 z m 0,-47.5 h 29.7919 v 28.3281 h -29.7919 z m 0,-47.5 h 29.7919 v 28.3281 h -29.7919 z m 0,-47.5 h 29.7919 v 28.3281 h -29.7919 z m 0,-47.5 h 29.7919 v 28.3281 h -29.7919 z m 0,-47.5 h 29.7919 v 28.3281 h -29.7919 z m 0,-47.5 h 29.7919 v 28.3281 h -29.7919 z m 0,-47.5 h 29.7919 v 28.3281 h -29.7919 z m -47.32523,427.5 h 29.79192 v 28.3281 h -29.79192 z m 0,-47.5 h 29.79192 v 28.3281 h -29.79192 z m 0,-47.5 h 29.79192 v 28.3281 h -29.79192 z m 0,-47.5 h 29.79192 v 28.3281 h -29.79192 z m 0,-47.5 h 29.79192 v 28.3281 h -29.79192 z m 0,-47.5 h 29.79192 v 28.3281 h -29.79192 z m 0,-47.5 h 29.79192 v 28.3281 h -29.79192 z m 0,-47.5 h 29.79192 v 28.3281 h -29.79192 z m 0,-47.5 h 29.79192 v 28.3281 h -29.79192 z"
           class="colorf4f4f4 svgShape"
           id="path241"
           style="stroke-width:1.02551" />
        <path
           fill="#e3e3e1"
           d="m 3095.1678,1478.5434 h 50.0202 v 2665.66 h -50.0202 z m -940.7945,0 h 50.0202 v 2665.66 h -50.0202 z m -940.7945,0 h 50.0202 v 2665.66 h -50.0202 z"
           class="colore3e3e1 svgShape"
           id="path243"
           style="stroke-width:1.02551" />
        <path
           fill="#f8f8f9"
           d="m 4218.459,738.88339 c 0,-62.5388 -912.9252,-113.238 -2039.077,-113.238 -1126.1517,0 -2039.07794,50.6992 -2039.07794,113.238 0,62.532 912.92624,113.231 2039.07794,113.231 1126.1518,0 2039.077,-50.699 2039.077,-113.231"
           class="colorf8f8f9 svgShape"
           id="path245"
           style="stroke-width:1.02551" />
        <path
           fill="#1d2a30"
           d="M 2798.47,2214.6154 H 1000.9832 c -14.76547,0 -26.7335,11.38 -26.7335,25.42 v 1357.54 c 0,14.04 11.96803,25.42 26.7335,25.42 H 2798.47 c 14.7549,0 26.723,-11.38 26.723,-25.42 v -1357.54 c 0,-14.04 -11.9681,-25.42 -26.723,-25.42"
           class="color1d2a30 svgShape"
           id="path247"
           style="stroke-width:1.02551" />
        <path
           fill="#44555d"
           d="M 2663.1513,2391.2654 H 1211.8435 v 10 h 49.1552 v -9.99 h 87.6359 v 9.99 h 70.1149 v -9.99 h 87.6359 v 9.99 h 70.115 v -9.99 h 87.6359 v 9.99 h 70.1149 v -9.99 h 87.6359 v 9.99 h 70.1149 v -9.99 h 87.636 v 9.99 h 70.1149 v -9.99 h 87.6359 v 9.99 h 70.1149 v -9.99 h 87.6359 v 9.99 h 70.115 v -9.99 h 87.6359 v 9.99 h 70.1149 v -9.99 h 87.6359 v 9.99 h 52.51 v -10 m 0,50 h -52.51 v 10 h 52.51 v -10 m -140.1459,0 h -70.1149 v 10 h 70.1149 v -10 m -157.7508,0 h -70.115 v 10 h 70.115 v -10 m -157.7509,0 h -70.1149 v 10 h 70.1149 v -10 m -157.7508,0 h -70.1149 v 10 h 70.1149 v -10 m -157.7509,0 h -70.1149 v 10 h 70.1149 v -10 m -157.7508,0 h -70.1149 v 10 h 70.1149 v -10 m -157.7508,0 h -70.115 v 10 h 70.115 v -10 m -157.7509,0 h -70.1149 v 10 h 70.1149 v -10 m -157.7508,0 h -49.1552 v 10 h 49.1552 v -10 m 1402.1526,50 h -52.51 v 10 h 52.51 v -10 m -140.1459,0 h -70.1149 v 10 h 70.1149 v -10 m -157.7508,0 h -70.115 v 10 h 70.115 v -10 m -157.7509,0 h -70.1149 v 10 h 70.1149 v -10 m -157.7508,0 h -70.1149 v 10 h 70.1149 v -10 m -157.7509,0 h -70.1149 v 10 h 70.1149 v -10 m -157.7508,0 h -70.1149 v 10 h 70.1149 v -10 m -157.7508,0 h -70.115 v 10 h 70.115 v -10 m -157.7509,0 h -206.906 v 10 h 206.906 v -10 m 1244.4018,50 h -52.51 v 10 h 52.51 v -10 m -140.1459,0 h -70.1149 v 10 h 70.1149 v -10 m -157.7508,0 h -70.115 v 10 h 70.115 v -10 m -157.7509,0 h -70.1149 v 10 h 70.1149 v -10 m -157.7508,0 h -70.1149 v 10 h 70.1149 v -10 m -157.7509,0 h -70.1149 v 10 h 70.1149 v -10 m -157.7508,0 h -70.1149 v 10 h 70.1149 v -10 m -157.7508,0 h -70.115 v 10 h 70.115 v -10 m -157.7509,0 h -206.906 v 10 h 206.906 v -10 m 1244.4018,50 h -52.51 v 10 h 52.51 v -10 m -140.1459,0 h -70.1149 v 10 h 70.1149 v -10 m -157.7508,0 h -70.115 v 10 h 70.115 v -10 m -157.7509,0 h -70.1149 v 10 h 70.1149 v -10 m -157.7508,0 h -70.1149 v 10 h 70.1149 v -10 m -157.7509,0 h -70.1149 v 10 h 70.1149 v -10 m -157.7508,0 h -70.1149 v 10 h 70.1149 v -10 m -157.7508,0 h -70.115 v 10 h 70.115 v -10 m -157.7509,0 h -206.906 v 10 h 206.906 v -10 m 1244.4018,50 h -52.51 v 10 h 52.51 v -10 m -140.1459,0 h -70.1149 v 10 h 70.1149 v -10 m -157.7508,0 h -70.115 v 10 h 70.115 v -10 m -157.7509,0 h -70.1149 v 10 h 70.1149 v -10 m -157.7508,0 h -70.1149 v 4.09 5.91 h 70.1149 v -10 m -157.7509,0 h -70.1149 v 10 h 70.1149 v -10 m -157.7508,0 h -70.1149 v 10 h 70.1149 v -10 m -157.7508,0 h -70.115 v 4.09 5.91 h 70.115 v -10 m -157.7509,0 h -206.906 v 10 h 206.906 v -10 m 1244.4018,50 h -52.51 v 10 h 52.51 v -10 m -140.1459,0 h -70.1149 v 10 h 70.1149 v -10 m -157.7508,0 h -70.115 v 10 h 70.115 v -10 m -157.7509,0 h -70.1149 v 10 h 70.1149 v -10 m -157.7508,0 h -70.1149 v 10 h 70.1149 v -10 m -157.7509,0 h -70.1149 v 10 h 70.1149 v -10 m -157.7508,0 h -70.1149 v 10 h 70.1149 v -10 m -157.7508,0 h -70.115 v 10 h 70.115 v -10 m -157.7509,0 h -206.906 v 10 h 206.906 v -10 m 1244.4018,50 h -52.51 v 10 h 52.51 v -10 m -140.1459,0 h -70.1149 v 10 h 70.1149 v -10 m -157.7508,0 h -70.115 v 10 h 70.115 v -10 m -157.7509,0 h -70.1149 v 10 h 70.1149 v -10 m -157.7508,0 h -70.1149 v 10 h 70.1149 v -10 m -157.7509,0 h -70.1149 v 10 h 70.1149 v -10 m -157.7508,0 h -70.1149 v 10 h 70.1149 v -10 m -157.7508,0 h -70.115 v 10 h 70.115 v -10 m -157.7509,0 h -206.906 v 10 h 206.906 v -10 m 1244.4018,50 h -52.51 v 0.01 h -87.6359 v -0.01 h -70.1149 v 10 h 210.2608 v -10 m -297.8967,0 h -70.115 v 10 h 70.115 v -10 m -157.7509,0 h -70.1149 v 10 h 70.1149 v -10 m -157.7508,0 h -70.1149 v 0.01 h -87.636 v -0.01 h -70.1149 v 10 h 227.8658 v -10 m -315.5017,0 h -70.1149 v 10 h 70.1149 v -10 m -157.7508,0 h -70.115 v 0.01 h -87.6359 v -0.01 h -206.906 v 10 h 364.6569 v -10 m 1086.6509,50 h -210.2608 v 10 h 210.2608 v -10 m -297.8967,0 h -70.115 v 10 h 70.115 v -10 m -157.7509,0 h -70.1149 v 10 h 70.1149 v -10 m -157.7508,0 h -227.8658 v 10 h 227.8658 v -10 m -315.5017,0 h -70.1149 v 10 h 70.1149 v -10 m -157.7508,0 h -364.6569 v 10 h 364.6569 v -10 m 1086.6509,50 h -210.2608 v 10 h 210.2608 v -10 m -297.8967,0 h -70.115 v 8.32 1.68 h 70.115 v -10 m -157.7509,0 h -70.1149 v 10 h 70.1149 v -10 m -157.7508,0 h -227.8658 v 10 h 227.8658 v -10 m -315.5017,0 h -70.1149 v 10 h 70.1149 v -10 m -157.7508,0 h -364.6569 v 10 h 364.6569 v -10 m 1086.6509,50 h -210.2608 v 10 h 210.2608 v -10 m -297.8967,0 h -70.115 v 10 h 70.115 v -10 m -157.7509,0 h -70.1149 v 10 h 70.1149 v -10 m -157.7508,0 h -385.6166 v 10 h 385.6166 v -10 m -473.2525,0 h -364.6569 v 10 h 364.6569 v -10 m 1086.6509,50 h -210.2608 v 10 h 210.2608 v -10 m -297.8967,0 h -70.115 v 10 h 70.115 v -10 m -157.7509,0 h -70.1149 v 0.14 h -87.6359 v -0.14 h -385.6166 v 0.14 h -87.6359 v -0.14 h -364.6569 v 10 h 995.6602 v -10 m 455.6476,50 h -210.2608 v 10 h 210.2608 v -10 m -297.8967,0 h -70.115 v 10 h 70.115 v -10 m -157.7509,0 h -995.6602 v 10 h 995.6602 v -10 m 448.675,50 h -203.2882 v 10 h 208.5781 l -5.2899,-10 m -290.9241,0 h -70.115 v 10 h 70.115 v -10 m -157.7509,0 h -995.6602 v 10 h 995.6602 v -10 m 409.5633,50 h -164.1765 v 10 h 140.4718 c 10.2223,-2.97 17.2054,-5 17.2054,-5 l 6.4993,-5 m -251.8124,0 h -70.115 v 10 h 70.115 v -10 m -157.7509,0 h -995.6602 v 10 h 995.6602 v -10 m 455.6476,50 h -12.273 c 0,0 -1.1779,4.03 -3.0288,10 h 15.3018 v -10 m -155.0901,0 h -55.1707 v 10 h 54.0033 c 0.3366,-3.58 0.7257,-6.94 1.1674,-10 m -142.8066,0 h -70.115 v 0.27 h -87.6359 v -0.27 h -995.6602 v 10 h 1153.4111 v -10 m 297.8967,50 h -29.4678 c -2.1139,4.75 -4.0595,8.26 -5.5845,9.47 -0.1997,0.15 -0.4626,0.33 -0.7992,0.53 h 35.8515 v -10 m -157.4143,0 h -52.8465 v 0.3 h -87.6359 v -0.3 H 1211.8435 v 10 h 1294.3247 c -0.1894,-3.24 -0.3365,-6.59 -0.4312,-10 m -1293.8935,50 h 1451.3078 v 10 H 1211.8435 Z m 0,50 h 1451.3078 v 10 H 1211.8435 Z"
           class="color44555d svgShape"
           id="path249"
           style="stroke-width:1.02551" />
        <path
           fill="#4870c0"
           d="m 1260.9987,2391.2754 h 87.638 v 99.8125 h -87.638 z m 157.7508,0 h 87.638 v 400 h -87.638 z m 157.7509,0 h 87.638 v 600.133 h -87.638 z m 157.7508,0 h 87.638 v 540.09 h -87.638 z m 157.7508,0 h 87.6381 v 400 h -87.6381 z m 157.7509,0 h 87.638 v 600.133 h -87.638 z m 157.7508,0 h 87.6381 v 800.262 h -87.6381 z m 157.7509,0 h 87.6339 v 850.293 h -87.6339 z m 157.7508,0 h 87.6339 v 400 h -87.6339 z"
           class="color4870c0 svgShape"
           id="path251"
           style="stroke-width:1.02551" />
        <path
           fill="#b4caec"
           d="m 1348.6346,2391.2754 h -87.6359 v 63.4 h 87.6359 v -3.41 -10 -49.99 m 157.7508,0 h -87.6359 v 254.08 h 87.6359 v -4.09 -40 -10 -40 -10 -40 -10 -40 -10 -49.99 m 157.7509,0 h -87.6359 v 381.19 h 87.6359 v -21.2 -10 -40 -10 -40 -10 -40 -10 -40 -10 -40 -10 -40 -10 -49.99 m 157.7508,0 h -87.6359 v 343.06 h 87.6359 v -33.07 -10 -40 -10 -40 -10 -40 -10 -40 -10 -40 -10 -49.99 m 157.7509,0 h -87.636 v 254.08 h 87.636 v -4.09 -40 -10 -40 -10 -40 -10 -40 -10 -49.99 m 157.7508,0 h -87.6359 v 381.19 h 87.6359 v -21.2 -10 -40 -10 -40 -10 -40 -10 -40 -10 -40 -10 -40 -10 -49.99 m 70.1149,0 v 0 508.31 h 87.6359 v -8.32 -40 -10 -39.78 h -87.6359 v -410.21 m 157.7509,0 v 0 540.09 h 87.6359 v -30.1 -10 -40 -10 -14.13 h -87.6359 v -435.86 m 157.7508,0 v 0 254.08 h 87.6359 v -4.09 -44.95 h -87.6359 v -205.04"
           class="colorb4caec svgShape"
           id="path253"
           style="stroke-width:1.02551" />
        <path
           fill="#ffffff"
           d="m 1348.6346,2442.4454 h -87.6359 v -51.17 h 87.6359 v 51.17 m 157.7508,153.87 h -87.6359 v -205.04 h 87.6359 v 205.04 m 157.7509,102.59 h -87.6359 v -307.63 h 87.6359 v 307.63 m 157.7508,-30.78 h -87.6359 v -276.85 h 87.6359 v 276.85 m 157.7509,-71.81 h -87.636 v -205.04 h 87.636 v 205.04 m 157.7508,102.59 h -87.6359 v -307.63 h 87.6359 v 307.63 m 70.1149,-307.63 h 87.6381 v 410.211 h -87.6381 z m 157.7509,0 h 87.6339 v 435.859 h -87.6339 z m 157.7508,0 h 87.6339 v 205.043 h -87.6339 z"
           class="colorfff svgShape"
           id="path255"
           style="stroke-width:1.02551" />
        <path
           fill="#44555d"
           d="m 1175.1507,2391.2754 h -25.6713 c -7.4353,0 -13.4509,5.73 -13.4509,12.79 0,7.07 6.0156,12.79 13.4509,12.79 h 25.6713 c 7.4353,0 13.4614,-5.72 13.4614,-12.79 0,-7.06 -6.0261,-12.79 -13.4614,-12.79 m 0,50 h -25.6713 c -7.4353,0 -13.4509,5.73 -13.4509,12.79 0,7.07 6.0156,12.79 13.4509,12.79 h 25.6713 c 7.4353,0 13.4614,-5.72 13.4614,-12.79 0,-7.06 -6.0261,-12.79 -13.4614,-12.79 m 0,50 h -25.6713 c -7.4353,0 -13.4509,5.73 -13.4509,12.79 0,7.07 6.0156,12.8 13.4509,12.8 h 25.6713 c 7.4353,0 13.4614,-5.73 13.4614,-12.8 0,-7.06 -6.0261,-12.79 -13.4614,-12.79 m 0,50 h -25.6713 c -7.4353,0 -13.4509,5.73 -13.4509,12.79 0,7.07 6.0156,12.79 13.4509,12.79 h 25.6713 c 7.4353,0 13.4614,-5.72 13.4614,-12.79 0,-7.06 -6.0261,-12.79 -13.4614,-12.79 m 0,50 h -25.6713 c -7.4353,0 -13.4509,5.73 -13.4509,12.79 0,7.07 6.0156,12.79 13.4509,12.79 h 25.6713 c 7.4353,0 13.4614,-5.72 13.4614,-12.79 0,-7.06 -6.0261,-12.79 -13.4614,-12.79 m 0,50 h -25.6713 c -7.4353,0 -13.4509,5.73 -13.4509,12.79 0,7.07 6.0156,12.79 13.4509,12.79 h 25.6713 c 7.4353,0 13.4614,-5.72 13.4614,-12.79 0,-7.06 -6.0261,-12.79 -13.4614,-12.79 m 0,50 h -25.6713 c -7.4353,0 -13.4509,5.73 -13.4509,12.79 0,7.07 6.0156,12.8 13.4509,12.8 h 25.6713 c 7.4353,0 13.4614,-5.73 13.4614,-12.8 0,-7.06 -6.0261,-12.79 -13.4614,-12.79 m 0,50 h -25.6713 c -7.4353,0 -13.4509,5.73 -13.4509,12.79 0,7.07 6.0156,12.79 13.4509,12.79 h 25.6713 c 7.4353,0 13.4614,-5.72 13.4614,-12.79 0,-7.06 -6.0261,-12.79 -13.4614,-12.79 m 0,50 h -25.6713 c -7.4353,0 -13.4509,5.73 -13.4509,12.79 0,7.07 6.0156,12.79 13.4509,12.79 h 25.6713 c 7.4353,0 13.4614,-5.72 13.4614,-12.79 0,-7.06 -6.0261,-12.79 -13.4614,-12.79 m 0,50 h -25.6713 c -7.4353,0 -13.4509,5.73 -13.4509,12.79 0,2.22 0.5889,4.3 1.6301,6.12 4.4065,-0.95 7.7298,-1.5 9.4756,-1.5 2.6501,0 6.983,3.18 12.0836,8.17 h 15.9329 c 7.4353,0 13.4614,-5.72 13.4614,-12.79 0,-7.06 -6.0261,-12.79 -13.4614,-12.79 m 5.8157,51.26 c 2.6607,3.54 5.2268,7.09 7.5931,10.51 -0.3786,-4.65 -3.3758,-8.59 -7.5931,-10.51 m -1.3882,149.45 c -3.2707,8.09 -6.8989,16.38 -10.8637,24.87 h 6.4362 c 7.4353,0 13.4614,-5.72 13.4614,-12.79 0,-5.59 -3.7755,-10.34 -9.0339,-12.08 m -4.4275,49.29 h -18.4148 c -4.1226,8.05 -8.4659,16.18 -12.9776,24.37 1.7352,0.78 3.6703,1.21 5.7211,1.21 h 25.6713 c 7.4353,0 13.4614,-5.72 13.4614,-12.79 0,-7.06 -6.0261,-12.79 -13.4614,-12.79 m 0,50 h -25.6713 c -7.4353,0 -13.4509,5.73 -13.4509,12.79 0,7.07 6.0156,12.79 13.4509,12.79 h 25.6713 c 7.4353,0 13.4614,-5.72 13.4614,-12.79 0,-7.06 -6.0261,-12.79 -13.4614,-12.79 m 0,50 h -25.6713 c -7.4353,0 -13.4509,5.73 -13.4509,12.79 0,7.07 6.0156,12.79 13.4509,12.79 h 25.6713 c 7.4353,0 13.4614,-5.72 13.4614,-12.79 0,-7.06 -6.0261,-12.79 -13.4614,-12.79 m 0,50 h -25.6713 c -7.4353,0 -13.4509,5.73 -13.4509,12.79 0,7.07 6.0156,12.79 13.4509,12.79 h 25.6713 c 7.4353,0 13.4614,-5.72 13.4614,-12.79 0,-7.06 -6.0261,-12.79 -13.4614,-12.79 m 0,50 h -25.6713 c -7.4353,0 -13.4509,5.73 -13.4509,12.79 0,7.07 6.0156,12.79 13.4509,12.79 h 25.6713 c 7.4353,0 13.4614,-5.72 13.4614,-12.79 0,-7.06 -6.0261,-12.79 -13.4614,-12.79 m 0,50 h -25.6713 c -7.4353,0 -13.4509,5.73 -13.4509,12.79 0,7.07 6.0156,12.79 13.4509,12.79 h 25.6713 c 7.4353,0 13.4614,-5.72 13.4614,-12.79 0,-7.06 -6.0261,-12.79 -13.4614,-12.79"
           class="color44555d svgShape"
           id="path257"
           style="stroke-width:1.02551" />
        <path
           fill="#ffffff"
           d="m 1291.9809,2366.2554 h 25.6819 c 7.4248,0 13.4509,-5.73 13.4509,-12.79 0,-7.07 -6.0261,-12.79 -13.4509,-12.79 h -25.6819 c -7.4353,0 -13.4508,5.72 -13.4508,12.79 0,7.06 6.0155,12.79 13.4508,12.79 m 157.7509,0 h 25.6819 c 7.4248,0 13.4509,-5.73 13.4509,-12.79 0,-7.07 -6.0261,-12.79 -13.4509,-12.79 h -25.6819 c -7.4354,0 -13.4508,5.72 -13.4508,12.79 0,7.06 6.0154,12.79 13.4508,12.79 m 157.7508,0 h 25.6819 c 7.4248,0 13.4509,-5.73 13.4509,-12.79 0,-7.07 -6.0261,-12.79 -13.4509,-12.79 h -25.6819 c -7.4352,0 -13.4508,5.72 -13.4508,12.79 0,7.06 6.0156,12.79 13.4508,12.79 m 157.751,0 h 25.6817 c 7.4249,0 13.4509,-5.73 13.4509,-12.79 0,-7.07 -6.026,-12.79 -13.4509,-12.79 h -25.6817 c -7.4354,0 -13.4509,5.72 -13.4509,12.79 0,7.06 6.0155,12.79 13.4509,12.79 m 157.7508,0 h 25.6818 c 7.4248,0 13.4509,-5.73 13.4509,-12.79 0,-7.07 -6.0261,-12.79 -13.4509,-12.79 h -25.6818 c -7.4353,0 -13.4509,5.72 -13.4509,12.79 0,7.06 6.0156,12.79 13.4509,12.79 m 157.7508,0 h 25.6818 c 7.4249,0 13.4509,-5.73 13.4509,-12.79 0,-7.07 -6.026,-12.79 -13.4509,-12.79 h -25.6818 c -7.4353,0 -13.4509,5.72 -13.4509,12.79 0,7.06 6.0156,12.79 13.4509,12.79 m 157.7509,0 h 25.6818 c 7.4248,0 13.4509,-5.73 13.4509,-12.79 0,-7.07 -6.0261,-12.79 -13.4509,-12.79 h -25.6818 c -7.4353,0 -13.4509,5.72 -13.4509,12.79 0,7.06 6.0156,12.79 13.4509,12.79 m 157.7508,0 h 25.6818 c 7.4249,0 13.4509,-5.73 13.4509,-12.79 0,-7.07 -6.026,-12.79 -13.4509,-12.79 h -25.6818 c -7.4353,0 -13.4509,5.72 -13.4509,12.79 0,7.06 6.0156,12.79 13.4509,12.79 m 157.7509,0 h 25.6818 c 7.4248,0 13.4508,-5.73 13.4508,-12.79 0,-7.07 -6.026,-12.79 -13.4508,-12.79 h -25.6818 c -7.4354,0 -13.4509,5.72 -13.4509,12.79 0,7.06 6.0155,12.79 13.4509,12.79"
           class="colorfff svgShape"
           id="path259"
           style="stroke-width:1.02551" />
        <path
           fill="#44555d"
           d="m 2252.9991,3480.6654 h -769.8872 c -12.4623,0 -22.5584,9.6 -22.5584,21.44 0,11.85 10.0961,21.45 22.5584,21.45 h 769.8872 v -42.89"
           class="color44555d svgShape"
           id="path261"
           style="stroke-width:1.02551" />
        <path
           fill="#182124"
           d="m 2820.9021,3371.2654 h -540.7383 c -14.7655,0 -27.1647,15.79 -27.1647,29.83 v 79.57 h 63.3423 c 12.4518,0 22.5583,9.6 22.5583,21.44 0,11.85 -10.1065,21.45 -22.5583,21.45 h -63.3423 v 97.71 h 161.7262 v -105.59 c 0,-14.04 11.968,-25.42 26.7335,-25.42 h 379.4433 v -118.99"
           class="color182124 svgShape"
           id="path263"
           style="stroke-width:1.02551" />
        <path
           fill="#364147"
           d="m 2316.3414,3480.6654 h -63.3423 v 42.89 h 63.3423 c 12.4518,0 22.5583,-9.6 22.5583,-21.45 0,-11.84 -10.1065,-21.44 -22.5583,-21.44"
           class="color364147 svgShape"
           id="path265"
           style="stroke-width:1.02551" />
        <path
           fill="#b8b8b6"
           d="m 2272.6233,2211.2654 h -68.2325 v 3.35 h 68.2325 v -3.35 m -118.25,0 h -6.5414 v 3.35 h 6.5414 v -3.35"
           class="colorb8b8b6 svgShape"
           id="path267"
           style="stroke-width:1.02551" />
        <path
           fill="#b3b2b1"
           d="m 2154.3733,2211.2654 h 50.0202 v 3.3477 h -50.0202 z"
           class="colorb3b2b1 svgShape"
           id="path269"
           style="stroke-width:1.02551" />
        <path
           fill="#182124"
           d="m 2272.6233,2214.6154 h -124.7914 v 150.5 c 0,14.03 15.7435,26.15 30.509,26.15 h 642.5612 v -103.95 h -521.5453 c -14.7655,0 -26.7335,-11.38 -26.7335,-25.41 v -47.29 m 281.3645,151.64 c -7.4354,0 -13.4509,-5.73 -13.4509,-12.79 0,-7.07 6.0155,-12.79 13.4509,-12.79 h 25.6818 c 7.4248,0 13.4508,5.72 13.4508,12.79 0,7.06 -6.026,12.79 -13.4508,12.79 h -25.6818 m -157.7509,0 c -7.4353,0 -13.4509,-5.73 -13.4509,-12.79 0,-7.07 6.0156,-12.79 13.4509,-12.79 h 25.6818 c 7.4249,0 13.4509,5.72 13.4509,12.79 0,7.06 -6.026,12.79 -13.4509,12.79 h -25.6818 m -157.7508,0 c -7.4353,0 -13.4509,-5.73 -13.4509,-12.79 0,-7.07 6.0156,-12.79 13.4509,-12.79 h 25.6818 c 7.4248,0 13.4509,5.72 13.4509,12.79 0,7.06 -6.0261,12.79 -13.4509,12.79 h -25.6818"
           class="color182124 svgShape"
           id="path271"
           style="stroke-width:1.02551" />
        <path
           fill="#cecdcb"
           d="m 2264.1679,2340.6754 h -25.6818 c -7.4353,0 -13.4509,5.72 -13.4509,12.79 0,7.06 6.0156,12.79 13.4509,12.79 h 25.6818 c 7.4248,0 13.4509,-5.73 13.4509,-12.79 0,-7.07 -6.0261,-12.79 -13.4509,-12.79 m 157.7508,0 h -25.6818 c -7.4353,0 -13.4509,5.72 -13.4509,12.79 0,7.06 6.0156,12.79 13.4509,12.79 h 25.6818 c 7.4249,0 13.4509,-5.73 13.4509,-12.79 0,-7.07 -6.026,-12.79 -13.4509,-12.79 m 157.7509,0 h -25.6818 c -7.4354,0 -13.4509,5.72 -13.4509,12.79 0,7.06 6.0155,12.79 13.4509,12.79 h 25.6818 c 7.4248,0 13.4508,-5.73 13.4508,-12.79 0,-7.07 -6.026,-12.79 -13.4508,-12.79"
           class="colorcecdcb svgShape"
           id="path273"
           style="stroke-width:1.02551" />
        <path
           fill="#1d2a30"
           d="m 3244.4421,1379.2544 h -945.0853 c -14.7655,0 -26.7335,11.383 -26.7335,25.422 v 857.229 c 0,14.03 11.968,25.41 26.7335,25.41 h 945.0853 c 14.7655,0 26.7336,-11.38 26.7336,-25.41 v -857.229 c 0,-14.039 -11.9681,-25.422 -26.7336,-25.422"
           class="color1d2a30 svgShape"
           id="path275"
           style="stroke-width:1.02551" />
        <path
           fill="#4870c0"
           d="m 2959.5126,1744.8054 c 0,-144.058 -122.8143,-260.851 -274.3288,-260.851 -151.5038,0 -274.3287,116.793 -274.3287,260.851 0,144.07 122.8249,260.85 274.3287,260.85 151.5145,0 274.3288,-116.78 274.3288,-260.85"
           class="color4870c0 svgShape"
           id="path277"
           style="stroke-width:1.02551" />
        <path
           fill="#44555d"
           d="m 2959.5126,1744.8054 c 0,0.12 0,0.26 0,0.38 0,-0.13 0,-0.25 0,-0.38 m -548.6575,0 c 0,0.13 0,0.25 0,0.38 0,-0.13 0,-0.26 0,-0.38 m 0,0.52 c 0,0.07 0,0.15 0,0.23 0,-0.07 0,-0.16 0,-0.23 m 548.6575,0.01 c 0,0.07 0,0.14 0,0.21 0,-0.07 0,-0.14 0,-0.21 m -548.6575,0.4 c 0,0.04 0,0.09 0,0.13 0,-0.04 0,-0.09 0,-0.13 m 548.6575,0.03 c 0,0.03 0,0.07 0,0.11 0,-0.04 0,-0.08 0,-0.11"
           class="color44555d svgShape"
           id="path279"
           style="stroke-width:1.02551" />
        <path
           fill="#658acf"
           d="m 2685.1838,1483.9544 v 0 c -150.4943,0 -274.3287,117.75 -274.3287,260.851 v 0 0 c 0,0.12 0,0.25 0,0.38 0,0.05 0,0.09 0,0.14 0,0.07 0,0.16 0,0.23 0,0.06 0,0.12 0,0.18 0,0.04 0,0.09 0,0.13 0.4733,110.24 74.4059,208.88 183.948,245.23 l 90.3807,-246.29 218.9792,157.13 c 35.6832,-44.97 55.1077,-99.74 55.3496,-156.06 0,-0.04 0,-0.08 0,-0.11 0,-0.08 0,-0.14 0,-0.22 0,-0.07 0,-0.14 0,-0.21 0,-0.05 0,-0.1 0,-0.15 0,-0.12 0,-0.26 0,-0.38 v 0 0 c 0,-143.101 -123.8344,-260.851 -274.3288,-260.851 v 0"
           class="color658acf svgShape"
           id="path281"
           style="stroke-width:1.02551" />
        <path
           fill="#ffffff"
           d="m 2685.1838,1744.8054 212.5746,164.88 c 39.9319,-46.54 61.7542,-104.81 61.7542,-164.88 0,-143.101 -123.8344,-260.851 -274.3288,-260.851 -150.4943,0 -274.3287,117.75 -274.3287,260.851 0,55.1 18.3622,108.8 52.4259,153.37 l 221.9028,-153.37"
           class="colorfff svgShape"
           id="path283"
           style="stroke-width:1.02551" />
        <path
           fill="#4870c0"
           d="m 3118.7673,1872.9854 h -59.4931 c -7.8245,0 -14.1766,6.03 -14.1766,13.48 v 56.57 c 0,7.44 6.3521,13.48 14.1766,13.48 h 59.4931 c 7.8349,0 14.1766,-6.04 14.1766,-13.48 v -56.57 c 0,-7.45 -6.3417,-13.48 -14.1766,-13.48 m 0,-161.89 h -59.4931 c -7.8245,0 -14.1766,6.04 -14.1766,13.48 v 56.57 c 0,7.44 6.3521,13.48 14.1766,13.48 h 59.4931 c 7.8349,0 14.1766,-6.04 14.1766,-13.48 v -56.57 c 0,-7.44 -6.3417,-13.48 -14.1766,-13.48"
           class="color4870c0 svgShape"
           id="path285"
           style="stroke-width:1.02551" />
        <path
           fill="#ffffff"
           d="m 3118.7673,1549.2044 h -59.4931 c -7.8245,0 -14.1766,6.043 -14.1766,13.48 v 56.57 c 0,7.441 6.3521,13.481 14.1766,13.481 h 59.4931 c 7.8349,0 14.1766,-6.04 14.1766,-13.481 v -56.57 c 0,-7.437 -6.3417,-13.48 -14.1766,-13.48"
           class="colorfff svgShape"
           id="path287"
           style="stroke-width:1.02551" />
        <path
           fill="#658acf"
           d="m 3118.7673,1711.0954 h -59.4931 c -7.8245,0 -14.1766,6.04 -14.1766,13.48 v 56.57 c 0,7.44 6.3521,13.48 14.1766,13.48 h 59.4931 c 7.8349,0 14.1766,-6.04 14.1766,-13.48 v -56.57 c 0,-7.44 -6.3417,-13.48 -14.1766,-13.48"
           class="color658acf svgShape"
           id="path289"
           style="stroke-width:1.02551" />
        <path
           fill="#44555d"
           d="M 3099.0695,2138.1654 H 2444.74 c -12.4623,0 -22.5584,9.6 -22.5584,21.45 0,11.85 10.0961,21.45 22.5584,21.45 h 654.3295 c 12.4517,0 22.5583,-9.6 22.5583,-21.45 0,-11.85 -10.1066,-21.45 -22.5583,-21.45"
           class="color44555d svgShape"
           id="path291"
           style="stroke-width:1.02551" />
        <path
           fill="#1d2a30"
           d="m 3102.4138,3490.2554 h -660.955 c -14.7655,0 -26.7335,11.38 -26.7335,25.42 v 496.99 c 0,14.04 11.968,25.42 26.7335,25.42 h 660.955 c 14.7655,0 26.7335,-11.38 26.7335,-25.42 v -496.99 c 0,-14.04 -11.968,-25.42 -26.7335,-25.42"
           class="color1d2a30 svgShape"
           id="path293"
           style="stroke-width:1.02551" />
        <path
           fill="#44555d"
           d="m 3061.3354,3551.2654 h 1.4503 v 10 h -1.4503 z m 0,50 h 1.4503 v 10 h -1.4503 z m 1.4514,50 h -1.4514 v 10 h 1.4514 v -10 m -578.4198,1.36 v 8.64 h 9.0865 l -9.0865,-8.64 m 578.4198,48.64 h -1.4514 v 10 h 1.4514 v -10 m -212.1749,0 h -152.9026 c -11.0531,5.15 -23.0211,7.7 -34.9576,7.7 -12.0312,0 -24.0202,-2.59 -34.9997,-7.7 h -143.385 v 10 h 375.9728 l -9.7279,-10 m 212.1749,50 h -1.4514 v 10 h 1.4514 v -10 m -31.6659,0 H 2484.367 v 10 h 558.8482 l -12.0943,-10 m -546.7539,50 h 578.4198 v 10 H 2484.367 Z m 0,50 h 578.4198 v 10 H 2484.367 Z"
           class="color44555d svgShape"
           id="path295"
           style="stroke-width:1.02551" />
        <path
           fill="#4870c0"
           d="m 2482.9158,3551.2454 v 100 l 41.4989,39.46 c 11.926,11.34 31.2767,11.34 43.2027,0 11.4737,-10.92 29.9306,-11.39 42.0038,-1.08 27.4381,23.41 68.201,25.82 98.4786,5.82 l 12.6411,-8.35 c 40.521,-26.77 95.597,-21.06 129.1033,13.37 l 28.5949,29.4 c 18.1204,18.62 48.2928,20.77 69.1264,4.92 19.1931,-14.6 46.6207,-14.07 65.1722,1.27 l 48.5977,40.19 v -225 h -578.4196"
           class="color4870c0 svgShape"
           id="path297"
           style="stroke-width:1.02551" />
        <path
           fill="#658acf"
           d="m 3061.3354,3551.2454 h -578.4196 v 100 l 41.4989,39.46 c 5.963,5.67 13.7874,8.51 21.6013,8.51 7.814,0 15.6384,-2.84 21.6014,-8.51 5.9525,-5.66 13.7664,-8.51 21.6014,-8.51 7.288,0 14.5867,2.46 20.4024,7.43 15.0179,12.81 34.0321,19.34 53.1305,19.34 15.7961,0 31.6448,-4.46 45.3481,-13.52 l 12.6411,-8.35 c 17.1107,-11.31 36.8295,-16.82 56.4222,-16.82 26.7861,0 53.3304,10.3 72.6811,30.19 l 28.5949,29.4 c 9.991,10.26 23.6416,15.52 37.3659,15.52 11.1793,0 22.4112,-3.49 31.7605,-10.6 9.3074,-7.08 20.5497,-10.6 31.7816,-10.6 11.926,0 23.8309,3.97 33.3906,11.87 l 48.5977,40.19 v -14.98 -10 -40 -10 -40 -10 -40 -10 -40 -10 -0.02"
           class="color658acf svgShape"
           id="path299"
           style="stroke-width:1.02551" />
        <path
           fill="#4870c0"
           d="m 2482.9158,3551.2454 105.2092,94.7 c 13.4299,12.37 35.0418,11.46 47.2832,-1.99 v 0 c 12.0942,-13.3 33.3906,-14.37 46.8836,-2.35 l 49.4601,44.07 c 21.9589,19.57 55.5703,21.18 79.4854,3.83 v 0 c 24.3988,-17.7 58.778,-15.63 80.6212,4.85 l 2.4925,2.33 c 12.5569,11.78 32.707,11.9 45.4217,0.27 v 0 c 14.0187,-12.81 35.8515,-13.74 51.0166,-2.17 l 70.5461,52.01 v -195.55 h -578.4196"
           class="color4870c0 svgShape"
           id="path301"
           style="stroke-width:1.02551" />
        <path
           fill="#44555d"
           d="m 2935.9867,3929.4154 h -328.1008 c -12.4623,0 -22.5584,9.6 -22.5584,21.44 0,11.85 10.0961,21.45 22.5584,21.45 h 328.1008 c 12.4623,0 22.5583,-9.6 22.5583,-21.45 0,-11.84 -10.096,-21.44 -22.5583,-21.44"
           class="color44555d svgShape"
           id="path303"
           style="stroke-width:1.02551" />
        <path
           fill="#fbbc88"
           d="m 2754.3733,3122.9254 -103.495,68.34 c 0,0 -15.7751,53.93 -22.7793,59.47 -7.0146,5.53 -101.6651,38.86 -113.9381,33.86 -12.2625,-5 -10.5167,-107.9 0,-110.62 10.5167,-2.71 96.4068,-27.71 96.4068,-27.71 l 110.4256,-85 33.38,61.66"
           class="colorf47272 svgShape"
           id="path305"
           style="stroke-width:1.02551" />
        <path
           fill="#4870c0"
           d="m 3396.6927,3101.2654 c 0,0 -4.6273,-4.1 -12.3045,-11.4 -18.0888,-16.8 -58.6834,-50.7 -100.7503,-87 v -0.1 c -84.1337,-65.6 -187.9338,-138.9 -252.7168,-133.3 -115.6839,10 -368.1379,204.9 -368.1379,204.9 l 47.6092,83 c 0,0 184.0848,-116.1 294.5104,-140.5 110.4255,-24.4 289.2309,289.4 375.0473,311.3 l 16.7426,-226.9"
           class="color4870c0 svgShape"
           id="path307"
           style="stroke-width:1.02551" />
        <path
           fill="#b4caec"
           d="m 3038.104,2869.1554 c -2.4399,0 -4.8377,0.1 -7.1829,0.31 -98.6153,8.52 -296.6031,151.39 -352.8886,193.38 l 45.5689,86.37 c 44.0861,-26.82 188.6279,-111.88 281.3014,-132.35 4.1225,-0.92 8.3502,-1.36 12.662,-1.36 111.0041,0 279.7765,291.57 362.3853,312.66 -16.0696,-57.18 -27.1647,-124.74 -34.6947,-195.23 -20.5391,-29.45 -48.5346,-76.64 -60.8287,-129.39 -0.2629,-0.23 -0.5258,-0.46 -0.7888,-0.68 v -0.1 c -43.5918,-33.99 -92.463,-70.05 -138.4526,-96.13 -17.2159,-9.76 -34.0322,-18.13 -50.0175,-24.46 -20.7285,-8.22 -40.0583,-13.02 -57.0638,-13.02"
           class="colorb4caec svgShape"
           id="path309"
           style="stroke-width:1.02551" />
        <path
           fill="#4870c0"
           d="m 2729.7537,3160.8754 -57.8419,-109.61 -21.0335,30 49.0815,92.71 29.7939,-13.1"
           class="color4870c0 svgShape"
           id="path311"
           style="stroke-width:1.02551" />
        <path
           fill="#c7d9f2"
           d="m 2671.9118,3051.2654 -21.0335,30 49.0815,92.71 29.7939,-13.1 -6.1523,-11.66 -45.5689,-86.37 -6.1207,-11.58"
           class="colorc7d9f2 svgShape"
           id="path313"
           style="stroke-width:1.02551" />
        <path
           fill="#c5c4c2"
           d="m 3284.2689,3002.8654 c 0.053,0.22 0.1052,0.45 0.1578,0.68 18.7935,16.21 37.2713,31.92 53.5407,45.82 -0.032,-0.53 -0.074,-1.03 -0.1052,-1.57 -15.7646,-13.7 -33.948,-29.09 -53.5933,-44.93"
           class="colorc5c4c2 svgShape"
           id="path315"
           style="stroke-width:1.02551" />
        <path
           fill="#8aa1d4"
           d="m 3284.4267,3003.5454 c 12.2941,52.75 40.2896,99.94 60.8287,129.39 -2.9447,-27.55 -5.3425,-55.56 -7.288,-83.57 -16.2694,-13.9 -34.7472,-29.61 -53.5407,-45.82"
           class="color8aa1d4 svgShape"
           id="path317"
           style="stroke-width:1.02551" />
        <path
           fill="#fbbc88"
           d="m 3393.8637,820.98539 -85.3221,-8.57 -16.0065,174.96 85.3117,8.571 16.0169,-174.961 m 425.7065,5.91 h -82.6615 l -6.8358,182.10201 h 82.7666 l 6.7307,-182.10201"
           class="colorf47272 svgShape"
           id="path319"
           style="stroke-width:1.02551" />
        <path
           fill="#252d32"
           d="m 3725.4456,835.99739 h 100.4346 c 3.3864,-0.02 6.31,-2.262 7.0462,-5.403 l 16.301,-70 c 1.3987,-6.269 -2.8186,-12.429 -9.4126,-13.75 l -2.6817,-0.25 c -32.4966,0.5 -56.1593,2.403 -96.9642,2.403 -25.135,0 -100.9606,-2.5 -135.6658,-2.5 -34.7051,0 -39.2273,32.597 -25.0297,35.597 63.7313,13.199 111.6876,31.5 132.09,48.903 3.786,3.296 8.7499,5.089 13.8822,5"
           class="color252d32 svgShape"
           id="path321"
           style="stroke-width:1.02551" />
        <path
           fill="#4870c0"
           d="m 3685.7975,838.49739 -2.5241,-0.5 c -0.5258,0 -1.1568,-0.704 -1.262,-2.204 -0.3365,-2.507 0.6521,-5.019 2.6292,-6.699 9.2758,-4 19.803,-4.5 29.4468,-1.398 -8.6132,5.281 -18.2149,8.949 -28.2899,10.801 z m 12.3045,-16.301 c -5.6159,-0.43 -11.2213,0.98 -15.8803,4 -3.1024,2.429 -4.6483,6.211 -4.1015,10 -0.053,2.211 1.262,4.25 3.3654,5.199 9.1496,4.5 35.862,-11.102 38.8067,-12.898 l 0.9465,-1.801 -1.4724,-1.602 c -7.0882,-1.73 -14.3553,-2.699 -21.6644,-2.898"
           class="color4870c0 svgShape"
           id="path323"
           style="stroke-width:1.02551" />
        <path
           fill="#4870c0"
           d="m 3702.6242,856.89539 h -0.9465 c -2.524,0 -2.7343,-1.398 -2.8395,-1.898 -1.0517,-5.102 9.465,-18.204 17.9836,-24.301 -0.5468,8.949 -3.9649,17.527 -9.7806,24.597 -1.2199,1.024 -2.7869,1.594 -4.417,1.602 z m 16.6164,-31.898 h -0.9465 c -8.5185,4.398 -25.0297,21.699 -23.3471,30 0.5995,2.847 3.2496,4.91 6.31,4.898 3.0078,0.371 6.0367,-0.5 8.3082,-2.398 9.5702,-7.403 11.5684,-30 11.6736,-31.102 l -0.9465,-1.699 -1.0517,0.301"
           class="color4870c0 svgShape"
           id="path325"
           style="stroke-width:1.02551" />
        <path
           fill="#252d32"
           d="m 3299.5183,838.49739 h 100.4346 c 3.3864,-0.02 6.31,-2.262 7.0462,-5.403 l 16.301,-70 c 1.3987,-6.269 -2.8185,-12.429 -9.4125,-13.75 l -2.6817,-0.25 c -32.4967,0.5 -56.1594,2.403 -96.9643,2.403 -25.135,0 -100.9606,-2.5 -135.6657,-2.5 -34.7051,0 -39.2273,32.597 -25.0298,35.597 63.7314,13.199 111.6876,31.5 132.09,48.903 3.786,3.296 8.7499,5.089 13.8822,5"
           class="color252d32 svgShape"
           id="path327"
           style="stroke-width:1.02551" />
        <path
           fill="#4870c0"
           d="m 3259.8702,840.99739 -2.524,-0.5 c -0.5258,0 -1.1568,-0.704 -1.262,-2.204 -0.3366,-2.507 0.652,-5.019 2.6292,-6.699 9.2757,-4 19.8029,-4.5 29.4467,-1.398 -8.6131,5.281 -18.2149,8.949 -28.2899,10.801 z m 12.3045,-16.301 c -5.6159,-0.43 -11.2213,0.98 -15.8802,4 -3.1025,2.429 -4.6484,6.211 -4.1016,10 -0.053,2.211 1.262,4.25 3.3655,5.199 9.1495,4.5 35.8619,-11.102 38.8067,-12.898 l 0.9465,-1.801 -1.4724,-1.602 c -7.0883,-1.73 -14.3554,-2.699 -21.6645,-2.898"
           class="color4870c0 svgShape"
           id="path329"
           style="stroke-width:1.02551" />
        <path
           fill="#4870c0"
           d="m 3276.6969,859.39539 h -0.9465 c -2.524,0 -2.7343,-1.398 -2.8395,-1.898 -1.0517,-5.102 9.465,-18.204 17.9836,-24.301 -0.5468,8.949 -3.9648,17.527 -9.7806,24.597 -1.2199,1.024 -2.7869,1.594 -4.417,1.602 z m 16.6165,-31.898 h -0.9466 c -8.5185,4.398 -25.0297,21.699 -23.3471,30 0.5995,2.847 3.2497,4.91 6.3101,4.898 3.0078,0.371 6.0366,-0.5 8.3081,-2.398 9.5703,-7.403 11.5685,-30 11.6737,-31.102 l -0.9465,-1.699 -1.0517,0.301"
           class="color4870c0 svgShape"
           id="path331"
           style="stroke-width:1.02551" />
        <path
           fill="#cecdcb"
           d="m 3386.1129,905.69639 -1.935,21.168 h 0.053 l 1.9561,-21.16 -0.074,-0.008"
           class="colorcecdcb svgShape"
           id="path333"
           style="stroke-width:1.02551" />
        <path
           fill="#fbbc88"
           d="m 3300.8644,897.13739 -1.6407,17.707 84.9542,12.02 1.935,-21.168 -85.2485,-8.559"
           class="colorcc5b58 svgShape"
           id="path335"
           style="stroke-width:1.02551" />
        <path
           fill="#cecdcb"
           d="m 3816.4152,914.99739 h -0.094 l -0.5574,15.097 h 0.084 l 0.568,-15.097"
           class="colorcecdcb svgShape"
           id="path337"
           style="stroke-width:1.02551" />
        <path
           fill="#fbbc88"
           d="m 3816.3205,914.99739 h -82.6719 l -0.5784,15.097 h 82.6929 l 0.5574,-15.097"
           class="colorcc5b58 svgShape"
           id="path339"
           style="stroke-width:1.02551" />
        <path
           fill="#4870c0"
           d="m 3778.7127,2606.2654 h -438.7998 c -41.7303,-216.64 -172.3164,-983.241 -78.6229,-1666.28001 l 148.5486,17.512 c 0,0 -13.7558,906.76801 117.4087,1241.99801 15.081,-179.41 32.991,-370.3 48.5453,-471.87 38.1757,-250 119.8906,-796.35901 119.8906,-796.35901 h 151.2305 c 0,0 -30.9192,522.96101 -45.222,768.65901 -15.6278,266.75 -22.3795,851.56 -22.979,906.34"
           class="color4870c0 svgShape"
           id="path341"
           style="stroke-width:1.02551" />
        <path
           fill="#395eb4"
           d="m 3478.1973,2018.9654 c -12.273,159.64 36.8086,328.96 36.8086,328.96 l 12.1993,-148.46 c -19.3507,-49.4 -35.4412,-111.1 -49.0079,-180.5"
           class="color395eb4 svgShape"
           id="path343"
           style="stroke-width:1.02551" />
        <path
           fill="#4870c0"
           d="m 3244.3054,907.07539 183.8534,26.011 -5.6264,48.411 -191.2572,-23.872 13.0302,-50.55"
           class="color4870c0 svgShape"
           id="path345"
           style="stroke-width:1.02551" />
        <path
           fill="#b4caec"
           d="m 3244.3054,907.07539 -13.0302,50.55 191.2572,23.872 5.6264,-48.411 -43.9809,-6.222 -84.9542,-12.02 -0.053,-0.008 -54.8657,-7.761"
           class="colorb4caec svgShape"
           id="path347"
           style="stroke-width:1.02551" />
        <path
           fill="#4870c0"
           d="m 3677.4892,930.09439 h 178.3637 v 50.699 l -185.0944,3.301 6.7307,-54"
           class="color4870c0 svgShape"
           id="path349"
           style="stroke-width:1.02551" />
        <path
           fill="#b4caec"
           d="m 3855.8529,930.09439 h -178.3637 l -6.7307,54 185.0944,-3.301 v -50.699"
           class="colorb4caec svgShape"
           id="path351"
           style="stroke-width:1.02551" />
        <path
           fill="#1d2a30"
           d="m 3336.2216,2601.2654 h 441.7024 v -50 l -447.3289,5.16 5.6265,44.84"
           class="color1d2a30 svgShape"
           id="path353"
           style="stroke-width:1.02551" />
        <path
           fill="#4870c0"
           d="m 3620.1731,2535.0154 h 15.7751 v 88.75 h -15.7751 z m -223.4804,0 h 15.7752 v 88.75 h -15.7752 z"
           class="color4870c0 svgShape"
           id="path355"
           style="stroke-width:1.02551" />
        <path
           fill="#ffffff"
           d="m 3455.8493,2554.0354 h 81.6936 v 55.9805 h -81.6936 z"
           class="colorfff svgShape"
           id="path357"
           style="stroke-width:1.02551" />
        <path
           fill="#4870c0"
           d="m 3379.9501,3328.1654 c 0,0 279.1243,12.5 487.0715,-37.41 0,0 -91.8004,-439.49 -88.3089,-689.49 h -442.4911 c 0,0 -28.7632,468.89 43.7285,726.9"
           class="color4870c0 svgShape"
           id="path359"
           style="stroke-width:1.02551" />
        <path
           fill="#fdfdfe"
           d="m 3867.0006,3290.7554 c -42.7294,10.26 -88.4667,17.88 -134.1514,23.51 v 0 c 45.7058,-5.63 91.422,-13.25 134.1514,-23.5 0,0 0,0 0,-0.01 m -357.842,38.34 c -17.7207,0.33 -34.1373,0.46 -48.9344,0.46 h 0.011 c 14.7865,0 31.2137,-0.13 48.9238,-0.46 v 0"
           class="colorfdfdfe svgShape"
           id="path361"
           style="stroke-width:1.02551" />
        <path
           fill="#b4caec"
           d="m 3778.6601,2601.2654 h -442.4385 c 0,0 0,0 0,0.01 -0.1683,2.73 -28.5003,469.64 43.7496,726.89 0,0 31.0979,1.39 80.253,1.39 14.7971,0 31.2137,-0.13 48.9344,-0.46 -5.5213,-6.01 -8.7184,-13.83 -8.6973,-22.1 0,-1.13 0.063,-2.27 0.1893,-3.42 l 4.8376,-43.98 24.9983,13 7.0567,-33 c 0,0 -67.2334,-266.67 -81.6939,-405 l 24.4935,-23.33 38.5542,23.33 c 0,0 3.4496,281.67 37.4606,400 l 31.5187,24.54 6.2468,-8.4 138.7261,63.53 c 45.6847,-5.63 91.422,-13.25 134.1514,-23.51 0,0 0,-0.01 -0.011,-0.03 -1.1148,-0.89 -31.6658,-25.67 -54.8868,-89.46 -11.0216,-30.28 -14.0608,-62.72 -14.1555,-88.75 -1.7668,-3.89 -38.4386,-86.92 8.6868,-171.75 -16.3009,-117.2 -29.3416,-242.6 -27.9745,-339.5"
           class="colorb4caec svgShape"
           id="path363"
           style="stroke-width:1.02551" />
        <path
           fill="#4870c0"
           d="m 3525.7961,3294.5054 11.7471,-54.91 c 0,0 -67.2334,-266.67 -81.6939,-405 l 24.4935,-23.33 38.5542,23.33 c 0,0 3.4496,281.67 37.4606,400 l 60.9654,47.47 -47.9773,14.76 -43.5496,-2.32"
           class="color4870c0 svgShape"
           id="path365"
           style="stroke-width:1.02551" />
        <path
           fill="#252d32"
           d="m 3465.7246,3686.2654 c 0,0 -17.3212,-108.33 43.15,-150 60.4711,-41.67 60.4711,160 60.4711,160 l -103.6211,-10"
           class="color252d32 svgShape"
           id="path367"
           style="stroke-width:1.02551" />
        <path
           fill="#fbbc88"
           d="m 3708.3032,3318.7654 c -40.279,-34.8 -138.9575,-21.94 -138.9575,-21.94 0,0 -61.5964,16.04 -48.6608,34.34 36.2827,5.7 53.8457,21.8 61.1022,42.4 4.2067,12 4.8377,25.5 3.6808,39.4 -0.5258,7.3 -1.6826,14.7 -3.0498,22 l 121.994,85.89 c -15.9854,-56.69 -35.5466,-161 3.8911,-202.09"
           class="colorf47272 svgShape"
           id="path369"
           style="stroke-width:1.02551" />
        <path
           fill="#fbbc88"
           d="m 3581.7871,3373.5654 c 3.0288,8.62 4.1962,18.02 4.1962,27.79 -0.011,3.82 -0.1894,7.7 -0.5154,11.61 l 90.7593,53.3 c -4.8377,-69.6 -64.9933,-88.8 -94.4401,-92.7"
           class="colorcc5b58 svgShape"
           id="path371"
           style="stroke-width:1.02551" />
        <path
           fill="#fbbc88"
           d="m 3684.4302,3450.1654 c -29.3415,-40.1 -77.1926,-50.6 -118.7338,-38.1 -26.7124,8 -50.7957,25.6 -65.7294,50.9 -1.9982,3.3 -3.786,6.8 -5.4687,10.39 -29.7623,66.21 -39.2274,182 34.3897,225.41 52.2681,31.3 121.4681,16.4 154.3854,-33.41 9.4651,-14.09 15.1441,-30.19 16.8268,-46.89 9.0444,-77.4 18.1939,-122.5 -15.67,-168.3"
           class="colorf47272 svgShape"
           id="path373"
           style="stroke-width:1.02551" />
        <path
           fill="#252d32"
           d="m 3581.44,3577.1054 c 1.567,-6.12 -1.3988,-11.85 -5.7737,-12.55 -4.3644,-0.7 -8.6658,3.86 -9.8331,10.07 -1.1568,6.22 1.5144,11.88 5.7736,12.56 4.2594,0.67 8.6448,-3.77 9.8332,-10.08 m -74.3006,-12.06 c 1.5669,-6.12 -1.5039,-11.88 -5.7737,-12.56 -4.2593,-0.68 -8.6763,3.86 -9.8331,10.08 -1.1569,6.21 1.5038,11.87 5.7737,12.55 4.2592,0.68 8.7499,-4.15 9.8331,-10.07"
           class="color252d32 svgShape"
           id="path375"
           style="stroke-width:1.02551" />
        <path
           fill="#fbbc88"
           d="m 3531.2963,3565.8054 c -4.396,-20.39 -11.7262,-40.1 -21.8012,-58.57 10.2643,-4.73 22.1903,-4.91 32.6018,-0.48 l -10.8006,59.05"
           class="colorf03d4c svgShape"
           id="path377"
           style="stroke-width:1.02551" />
        <path
           fill="#252d32"
           d="m 3600.3807,3603.7254 c -1.3882,-0.42 -2.9132,-0.11 -3.9965,0.83 -7.0987,6.64 -17.0685,9.71 -26.9122,8.27 -2.0823,-0.48 -4.1962,0.73 -4.7115,2.71 -0.5048,1.99 0.7677,3.99 2.85,4.48 l 0.021,0.01 c 12.3888,2.1 25.0929,-1.63 34.0638,-10.02 1.609,-1.36 1.7562,-3.7 0.3364,-5.23 l -0.063,-0.06 -1.588,-0.99 m -41.8041,-127.6 v 0 c 19.5822,0.35 37.7551,9.75 48.6925,25.2 0.5679,0.94 0.2419,2.14 -0.7362,2.7 l -2.7553,-0.57 -0.084,-0.13 c -10.4221,-14.09 -27.2173,-22.68 -45.3271,-23.2 -1.0937,0 -1.9982,-0.84 -2.0087,-1.89 l 0.011,-0.21 c 0,-1.05 0.8834,-1.9 1.9877,-1.91 l 0.2208,0.01 m -87.741,108.09 -2.2506,-0.52 c -2.0717,0.54 -3.2917,2.58 -2.7237,4.55 l 0.021,0.08 c 3.2497,11.61 12.2415,20.98 24.0939,25.13 2.0508,0.59 4.2277,-0.51 4.8482,-2.47 v 0 c 0.5679,-1.96 -0.5784,-3.99 -2.6081,-4.63 -9.2547,-3.53 -16.2063,-11.02 -18.7409,-20.19 -0.5363,-0.98 -1.5039,-1.7 -2.6397,-1.95 m 152.8396,120.38 v -34.57 c 12.5148,-4.6 21.2227,-16.38 17.5313,-30.43 -7.8875,-30 14.9128,-72.46 40.3107,-87.5 0,0 -0.873,12.5 10.5167,10.84 11.4001,-1.67 16.6585,-66.67 -0.8729,-100 0,0 28.9209,31.66 38.5648,101.66 8.9076,64.74 4.3119,117.29 -12.3782,140 h -93.6724"
           class="color252d32 svgShape"
           id="path379"
           style="stroke-width:1.02551" />
        <path
           fill="#252d32"
           d="m 3717.3476,3694.5954 c 0,0 27.2699,58.34 -74.3848,71.67 -101.6651,13.33 -208.5887,-25 -208.5887,-25 0,0 -5.2583,-92.55 80.8001,-91.67 84.0916,0.86 202.1734,45 202.1734,45"
           class="color252d32 svgShape"
           id="path381"
           style="stroke-width:1.02551" />
        <path
           fill="#fbbc88"
           d="m 3746.6682,3561.2554 c -5.8367,-18.82 -19.2876,-34.67 -37.3974,-44.08 -24.0623,-12.29 -42.0564,6.84 -40.4263,31.42 1.6722,21.84 15.9539,55.22 42.6137,57.14 26.66,1.91 42.0669,-21.29 35.21,-44.48"
           class="colorf47272 svgShape"
           id="path383"
           style="stroke-width:1.02551" />
        <path
           fill="#4870c0"
           d="m 3690.3197,3362.9354 -116.6095,-50.01 -6.8359,40.08 -42.8661,-14.34 c -15.386,-5.14 -25.0509,-19.66 -23.3576,-35.09 l 4.8376,-43.98 59.1671,30.79 29.4678,-39.65 140.0724,64.15 -43.8758,48.05"
           class="color4870c0 svgShape"
           id="path385"
           style="stroke-width:1.02551" />
        <path
           fill="#c7d9f2"
           d="m 3594.1231,3250.7354 -6.2468,8.4 -23.221,31.25 -34.1688,-17.79 -24.9983,-13 -4.8376,43.98 c -0.1263,1.15 -0.1893,2.29 -0.1893,3.42 -0.042,14.12 9.2967,26.91 23.5469,31.67 l 42.8661,14.34 6.8359,-40.08 116.6095,50.01 43.8758,-48.05 -140.0724,-64.15"
           class="colorc7d9f2 svgShape"
           id="path387"
           style="stroke-width:1.02551" />
        <path
           fill="#8aa1d4"
           d="m 3806.6346,2940.7654 c -47.1254,84.83 -10.4536,167.86 -8.6868,171.75 0,-0.44 0,-0.87 0,-1.31 0,-29.16 3.6387,-49.94 3.6387,-49.94 0,0 7.467,-11.58 18.5095,-30.49 -4.5853,-28.99 -9.139,-59.22 -13.4614,-90.01 v 0"
           class="color8aa1d4 svgShape"
           id="path389"
           style="stroke-width:1.02551" />
        <path
           fill="#4870c0"
           d="m 3867.0216,3290.7554 c 50.2489,-21.99 213.5316,-333.54 202.7414,-509.39 -10.5167,-171.35 -291.839,-385.1 -291.839,-385.1 0,0 -60.9234,46.95 -69.4104,87.38 0,0 198.2402,195.34 203.4985,297.72 5.1638,100.6 -110.4256,279.9 -110.4256,279.9 0,0 -13.1458,75 10.5168,140 23.6626,65 54.9183,89.49 54.9183,89.49"
           class="color4870c0 svgShape"
           id="path391"
           style="stroke-width:1.02551" />
        <path
           fill="#b4caec"
           d="m 3777.924,2396.2654 c 0,0 -60.9234,46.95 -69.4104,87.38 0,0 198.2402,195.34 203.4985,297.72 0.1158,2.16 0.1684,4.36 0.1684,6.59 0.063,75.25 -60.5869,188.89 -92.0845,242.82 -11.0425,18.91 -18.5095,30.49 -18.5095,30.49 0,0 -3.6387,20.78 -3.6387,49.94 0,26.24 2.9447,59.27 14.1555,90.06 23.6626,65 54.9183,89.49 54.9183,89.49 48.6504,-21.3 203.2883,-314.05 203.2567,-492.25 -0.01,-5.84 -0.1682,-11.56 -0.5153,-17.14 -6.8043,-110.86 -126.9579,-239.47 -210.955,-316.46 -6.8463,-6.28 -13.4718,-12.23 -19.7609,-17.78 -13.2721,-11.73 -25.1034,-21.74 -34.7367,-29.72 -4.764,-3.93 -8.9918,-7.38 -12.5885,-10.27 -8.7604,-7.04 -13.7979,-10.87 -13.7979,-10.87"
           class="colorb4caec svgShape"
           id="path393"
           style="stroke-width:1.02551" />
        <path
           fill="#4870c0"
           d="m 3708.5136,2525.2654 c 0,0 45.8213,-97.79 83.9024,-117.57 0,0 8.2977,-33.1 -25.0087,-78.1 -33.3065,-45 -161.6,109.67 -58.8937,195.67"
           class="color4870c0 svgShape"
           id="path395"
           style="stroke-width:1.02551" />
        <path
           fill="#fbbc88"
           d="m 959.27389,820.98539 85.32221,-8.57 16.0064,174.96 -85.31164,8.571 -16.01697,-174.961 m -425.70539,5.91 h 82.6604 l 6.83587,182.10201 H 540.2971 l -6.7286,-182.10201"
           class="colorf47272 svgShape"
           id="path397"
           style="stroke-width:1.02551" />
        <path
           fill="#252d32"
           d="M 627.69213,835.99739 H 527.25848 c -3.38954,-0.02 -6.31004,-2.262 -7.04936,-5.403 l -16.29672,-70 c -1.39767,-6.269 2.81322,-12.429 9.40721,-13.75 l 2.68282,-0.25 c 32.49877,0.5 56.1614,2.403 96.96628,2.403 25.13498,0 100.96055,-2.5 135.66573,-2.5 34.70519,0 39.22738,32.597 25.0298,35.597 -63.73134,13.199 -111.68759,31.5 -132.09004,48.903 -3.78602,3.296 -8.74992,5.089 -13.88207,5 m 425.92727,2.5 H 953.1847 c -3.38638,-0.02 -6.31003,-2.262 -7.0462,-5.403 l -16.30092,-70 c -1.39872,-6.269 2.81848,-12.429 9.41246,-13.75 l 2.68177,-0.25 c 32.49667,0.5 56.15928,2.403 96.96419,2.403 25.135,0 100.9606,-2.5 135.6657,-2.5 34.7052,0 39.2274,32.597 25.0298,35.597 -63.7313,13.199 -111.6876,31.5 -132.09,48.903 -3.786,3.296 -8.7499,5.089 -13.8821,5"
           class="color252d32 svgShape"
           id="path399"
           style="stroke-width:1.02551" />
        <path
           fill="#1d2a30"
           d="M 1068.3954,871.26639 H 947.13758 c 0,0 9.88573,992.54901 -121.2578,1327.74901 -9.25473,-110.8 -19.66628,-225.78 -29.8675,-321.58 -6.41521,-59.3 -12.72523,-110.24 -18.71977,-149.04 -38.17571,-250 -134.50888,-867.12901 -134.50888,-867.12901 H 522.99815 c 0,0 14.19758,591.34801 28.39515,837.04901 15.66782,266.7 22.40168,852.95 23.03373,902.95 h 438.75557 c 41.7514,-210 148.8117,-1049.999 55.2128,-1729.99901"
           class="color1d2a30 svgShape"
           id="path401"
           style="stroke-width:1.02551" />
        <path
           fill="#304047"
           d="M 642.78363,861.26639 H 522.99815 c 0,0 14.19758,591.34801 28.39515,837.04901 10.80804,183.99 17.36522,520.04 20.60226,727.21 38.27036,-4.5 90.6857,-6.92 148.99042,-6.92 102.74838,0 223.74328,7.5 317.91002,24.31 30.4564,-217.36 66.7602,-579.72 66.7917,-961.969 0.011,-133.91 -4.4275,-270.262 -15.123,-403.672 -0.074,-0.809 -0.1368,-1.68 -0.1998,-2.5 -3.3969,-41.918 -7.3932,-83.44901 -12.0733,-124.61701 -0.094,-0.801 -0.1892,-1.703 -0.2838,-2.5 -2.9342,-25.684 -6.1314,-51.121 -9.6124,-76.391 h -18.4148 -86.10039 -16.74263 c 0,0 0.16828,16.988 0.16828,47.289 0,0.051 0,0.11 0,0.172 0,0.047 0,0.109 0,0.168 0,0.051 0,0.109 0,0.172 0,0.058 0,0.109 0,0.168 -0.0105,197.85901 -7.24602,954.44001 -114.06439,1259.86001 -2.40832,6.87 -4.85872,13.51 -7.36169,19.92 -6.82536,-81.66 -14.2712,-165.59 -21.80118,-242.44 -0.93598,-9.56 -1.87198,-19.01 -2.80796,-28.33 -0.65204,-6.46 -1.30407,-12.84 -1.95611,-19.17 -0.97806,-9.61 -1.96663,-19.06 -2.9552,-28.33 -0.11568,-1.11 -0.23137,-2.21 -0.34705,-3.31 -0.57842,-5.36 -1.15684,-10.64 -1.73527,-15.86 -1.0727,-9.7 -2.1454,-19.15 -3.20759,-28.33 -0.75721,-6.53 -1.51441,-12.92 -2.2611,-19.17 -1.17787,-9.79 -2.35575,-19.25 -3.51258,-28.33 -0.84134,-6.59 -1.68268,-12.98 -2.51349,-19.17 -1.34615,-9.98 -2.68177,-19.44 -3.99636,-28.33 -0.50481,-3.37 -0.9991,-6.65 -1.49338,-9.85 -5.05854,-33.14 -11.14773,-72.76 -17.88894,-116.508 -0.83083,-5.344 -1.65113,-10.691 -2.49247,-16.14 -2.71332,-17.59 -5.53179,-35.84 -8.41337,-54.481 -2.76591,-17.91 -5.60542,-36.223 -8.487,-54.851 -21.11758,-136.379 -44.83279,-288.899 -63.55256,-409.141 -0.13672,-0.84 -0.26292,-1.66 -0.38912,-2.5 -4.62736,-29.719 -8.94973,-57.43 -12.84092,-82.39901 -0.1262,-0.839 -0.2524,-1.671 -0.38911,-2.5 -12.15734,-78.05 -20.05539,-128.609 -20.05539,-128.609 m 55.73863,1543.19901 c 0,0 -47.11492,-133.4 0,-205 47.11491,-71.5 64.25717,-84.9 64.25717,-84.9 0,0 18.2991,-98.6 33.23285,-236.9 10.20122,95.8 20.61277,211 29.8675,321.8 0,0 -128.82986,81 -127.35752,205"
           class="color304047 svgShape"
           id="path403"
           style="stroke-width:1.02551" />
        <path
           fill="#fbbc88"
           d="m 955.49839,3222.1454 -98.95186,153.23 c 0,0 -25.60821,4.41 -40.8154,24.87 -15.20718,20.47 -24.75636,99.8 -17.54189,103.38 7.20395,3.58 83.955,-5 89.32904,-14.78 5.37405,-9.78 20.52864,-90.99 20.52864,-90.99 l 114.03288,-127.06 -66.58141,-48.65"
           class="colorf47272 svgShape"
           id="path405"
           style="stroke-width:1.02551" />
        <path
           fill="#fbbc88"
           d="m 893.03957,3326.8054 c -1.80888,0.19 -3.63879,0.37 -5.47922,0.55 l -31.01382,48.02 c 0,0 -25.60821,4.41 -40.8154,24.87 -3.21811,4.34 -6.18383,11.31 -8.79197,19.65 18.77234,9.48 35.12585,24.12 46.28409,43.07 1.99818,3.3 3.78602,6.8 5.4687,10.39 3.28122,7.31 6.32055,15.22 9.02334,23.56 10.40105,-2.39 18.21497,-5.18 19.80299,-8.07 5.37405,-9.78 20.52864,-90.99 20.52864,-90.99 l 33.21182,-37 -48.21917,-34.05"
           class="colorcc5b58 svgShape"
           id="path407"
           style="stroke-width:1.02551" />
        <path
           fill="#4870c0"
           d="m 983.18892,3348.1354 -25.42944,24.38 -84.96461,-60 7.99272,-31.25 102.40133,66.87"
           class="color4870c0 svgShape"
           id="path409"
           style="stroke-width:1.02551" />
        <path
           fill="#b4caec"
           d="m 925.44159,3321.6254 c -5.07958,1.58 -10.35898,2.7 -15.79612,3.34 -5.27939,0.62 -10.84274,1.24 -16.6059,1.84 l 64.71991,45.71 20.70742,-19.85 -53.02531,-31.04"
           class="colorb4caec svgShape"
           id="path411"
           style="stroke-width:1.02551" />
        <path
           fill="#4870c0"
           d="m 916.50238,3316.3954 66.68654,39.03 c 0,0 189.53238,-243.33 212.16438,-364.16 22.6215,-120.84 -232.40908,140.83 -232.40908,140.83 l -46.44184,184.3 m -416.74829,-26.01 c 0,0 -39.7122,-21.5 -45.48063,-126.62 -5.20051,-94.77 26.92492,-296.48 89.39215,-340.56 99.85418,-70.46 462.73369,26.69 462.73369,26.69 l -13.98722,101.74 c 0,0 -274.6968,-34.62 -340.11082,0 -65.41823,34.63 -84.97302,212.13 -84.97302,212.13 0,0 -27.34768,115.73 -67.57415,126.62"
           class="color4870c0 svgShape"
           id="path413"
           style="stroke-width:1.02551" />
        <path
           fill="#395eb4"
           d="m 568.40515,2810.7454 c -9.40826,3.38 -17.71858,7.51 -24.73954,12.46 -3.55675,2.51 -7.01675,5.53 -10.37685,9.01 -6.8895,7.15 -13.36359,16.24 -19.4023,26.86 -39.09276,68.69 -60.14619,201.19 -60.15881,283.2 0,7.63 0.18089,14.82 0.54581,21.49 5.2426,95.59 38.56273,122.03 44.55726,126.04 24.09381,-84.37 41.52423,-170.41 52.1966,-257.34 3.46736,-26.8 6.31003,-53.1 8.62371,-78.6 3.05195,-32.4 5.15109,-63.6 6.83587,-93.2 0.87499,-15.64 1.49864,-32.46 1.91825,-49.92"
           class="color395eb4 svgShape"
           id="path415"
           style="stroke-width:1.02551" />
        <path
           fill="#fbbc88"
           d="m 858.69195,3473.3554 c -1.68268,-3.59 -3.47052,-7.09 -5.4687,-10.39 -11.77873,-20 -29.34166,-35.2 -49.4286,-44.6 -5.25835,-2.51 -10.72706,-4.6 -16.30092,-6.3 -29.44682,-8.9 -62.04866,-6.21 -88.97147,10.5 -11.04257,6.7 -21.24378,15.9 -29.76233,27.6 -33.86385,45.8 -24.7143,90.9 -15.66992,168.3 1.68268,16.7 7.36171,32.8 16.82676,46.9 32.91734,49.8 102.11738,64.7 154.38549,33.4 73.61706,-43.4 64.15201,-159.2 34.38969,-225.41"
           class="colorf47272 svgShape"
           id="path417"
           style="stroke-width:1.02551" />
        <path
           fill="#fbbc88"
           d="m 767.33318,3407.8554 c 0.0841,1.69 0.19982,3.4 0.33653,5.11 0.52584,7.3 1.68267,14.7 3.04984,22 l -2.25057,1.58 c 11.77873,-4.1 24.13588,-9.92 35.32567,-18.18 -5.25835,-2.51 -10.72706,-4.6 -16.30092,-6.3 -6.59398,-2 -13.35624,-3.41 -20.16055,-4.21"
           class="colorcc5b58 svgShape"
           id="path419"
           style="stroke-width:1.02551" />
        <path
           fill="#fbbc88"
           d="m 644.83438,3318.7654 c 40.27906,-34.8 138.95747,-21.94 138.95747,-21.94 0,0 61.59644,16.04 48.66087,34.34 -36.28269,5.7 -53.84562,21.8 -61.10215,42.4 -4.20669,12 -4.8377,25.49 -3.68086,39.4 0.52584,7.3 1.68267,14.7 3.04984,22 l -121.99398,85.89 c 15.98542,-56.69 35.54652,-161 -3.89119,-202.09"
           class="colorf47272 svgShape"
           id="path421"
           style="stroke-width:1.02551" />
        <path
           fill="#252d32"
           d="m 847.26027,3642.9354 c 0,0 22.83181,-73.18 -56.06465,-125.76 0,0 -33.18026,-67.58 -51.65815,-75.91 -18.47787,-8.33 -60.28185,-3.33 -74.43737,0 -14.14498,3.33 -86.88916,60.83 -65.85571,195.83 21.03345,135 140.29308,92.3 140.29308,92.3 0,0 40.73127,33.54 116.49374,-8.13 63.18447,-34.76 50.82733,-100 -8.77094,-78.33"
           class="color252d32 svgShape"
           id="path423"
           style="stroke-width:1.02551" />
        <path
           fill="#fbbc88"
           d="m 780.46856,3552.1054 c 1.85094,-17.45 9.32833,-31.25 20.77053,-38.37 15.24925,-9.27 29.94111,10.99 31.67637,34.42 1.38821,20.78 -4.61684,51.33 -22.86336,50.37 -18.25703,-0.98 -31.62379,-24.88 -29.58354,-46.42"
           class="colorf47272 svgShape"
           id="path425"
           style="stroke-width:1.02551" />
        <path
           fill="#4870c0"
           d="m 644.83438,3343.7654 12.25198,45 c 0,0 120.66888,15.32 176.0184,-35.46 l -14.32377,-53.29 -173.94661,43.75"
           class="color4870c0 svgShape"
           id="path427"
           style="stroke-width:1.02551" />
        <path
           fill="#b4caec"
           d="m 831.29588,3346.5454 c -35.92512,21.3 -79.1804,26.96 -114.97932,26.96 -29.44683,0 -53.86666,-3.83 -64.99336,-5.92 l 5.76316,21.18 c 0,0 17.1002,2.17 41.36228,2.17 40.21594,0 100.14024,-5.96 134.65612,-37.63 l -1.80888,-6.76"
           class="colorb4caec svgShape"
           id="path429"
           style="stroke-width:1.02551" />
        <path
           fill="#4870c0"
           d="m 609.60336,3313.4654 35.23102,52.8 c 0,0 150.8624,35.26 222.21836,-49.87 71.35597,-85.13 -257.44938,-2.93 -257.44938,-2.93"
           class="color4870c0 svgShape"
           id="path431"
           style="stroke-width:1.02551" />
        <path
           fill="#395eb4"
           d="m 609.60336,3313.4654 v 0 l 35.23102,52.8 c 0,0 30.97175,7.24 71.48218,7.24 43.78111,0 98.69944,-8.46 137.73752,-43.64 -7.13034,0.08 -14.2712,0.7 -21.49619,0.8 -62.78484,-0.7 -125.35934,-4.8 -187.61834,-12.4 -11.77873,-1.3 -23.7678,-3 -35.33619,-4.8"
           class="color395eb4 svgShape"
           id="path433"
           style="stroke-width:1.02551" />
        <path
           fill="#fbbc88"
           d="m 867.05274,2924.8954 188.64906,12.44 c 0,0 15.9643,19.54 42.0878,22.88 26.1236,3.33 104.4837,-25.36 104.4837,-33.09 0,-7.73 -43.5287,-68.44 -55.1391,-68.44 -11.6105,0 -94.3351,24.83 -94.3351,24.83 l -171.23328,-37.25 -14.51308,78.63"
           class="colorf47272 svgShape"
           id="path435"
           style="stroke-width:1.02551" />
        <path
           fill="#4870c0"
           d="m 498.44371,3291.1654 c 24.29573,-84.8 41.85339,-171.3 52.58361,-258.7 3.46736,-26.8 6.31003,-53.1 8.62371,-78.6 3.05195,-32.4 5.15109,-63.6 6.83587,-93.2 2.10335,-37.5 2.7312,-81.8 2.62918,-125.4 -0.21454,-100.2 -35.60121,-303.39 -35.60121,-303.39 84.13378,-20 354.9394,-19.07 523.12283,14.39 17.2475,128.3 -13.1144,348.7 -19.6347,459.1 -5.2584,92.6 -16.0906,174.6 -27.8694,239.3 -10.3063,56.7 -21.24371,100 -29.65709,125.2 -9.99089,29.8 -37.2292,51.3 -69.83104,55.1 -16.09058,1.9 -34.70519,3.8 -54.26629,4.9 -7.57204,0 -15.14408,0.7 -22.82129,0.8 -62.78484,-0.7 -125.35934,-4.8 -187.61834,-12.4 -11.77873,-1.3 -23.7678,-3 -35.33619,-4.8 -59.20809,-8.6 -111.15965,-22.3 -111.15965,-22.3"
           class="color4870c0 svgShape"
           id="path437"
           style="stroke-width:1.02551" />
        <path
           fill="#4870c0"
           d="m 938.48232,3316.3954 c 99.46718,-7.63 295.13088,-316.96 258.32228,-384.18 -36.8085,-67.23 -98.5207,-98.45 -204.92886,91.55 -106.41873,190 -53.39342,292.63 -53.39342,292.63"
           class="color4870c0 svgShape"
           id="path439"
           style="stroke-width:1.02551" />
        <path
           fill="#395eb4"
           d="m 1132.3161,2880.1654 c -26.4496,0 -58.9148,21.01 -98.9098,77.11 -13.0303,18.28 -26.8597,40.28 -41.53056,66.49 -53.3198,95.18 -66.61294,168.44 -66.60242,217.85 0.0105,49.22 13.209,74.78 13.209,74.78 91.11688,-6.99 262.94968,-267.13 262.87598,-362.44 -0.011,-8.74 -1.4617,-16.1 -4.5537,-21.74 -16.1431,-29.49 -37.0819,-52.05 -64.4885,-52.05"
           class="color395eb4 svgShape"
           id="path441"
           style="stroke-width:1.02551" />
        <path
           fill="#263136"
           d="m 796.01228,1877.6654 c -14.93375,138.3 -33.23285,236.9 -33.23285,236.9 0,0 -17.14226,13.4 -64.25717,84.9 -47.11492,71.6 0,205 0,205 -1.47234,-124 127.35752,-205 127.35752,-205 -9.25473,-110.8 -19.66628,-226 -29.8675,-321.8"
           class="color263136 svgShape"
           id="path443"
           style="stroke-width:1.02551" />
        <path
           fill="#395eb4"
           d="m 715.80123,2566.8554 c 0,0 -2.30316,47.14 -5.75265,117.84 -1.65112,35.35 -4.30133,76.54 -6.89897,120.67 -2.72382,44.12 -6.20486,91.14 -10.89533,138.02 -1.15683,11.72 -2.30315,23.44 -3.45999,35.11 -1.38821,11.64 -2.77642,23.24 -4.15411,34.74 -1.68267,11.42 -3.35483,22.75 -4.99544,33.95 -1.84043,11.19 -4.17514,22.26 -6.18383,33.14 -2.0087,10.74 -4.37496,21.63 -6.05764,32.17 -1.29355,10.65 -3.16553,20.99 -3.9017,31.18 -2.02973,20.32 -2.7028,39.64 -2.27161,57.44 0.38912,17.8 1.95611,34.09 4.40651,48.36 2.19799,14.31 5.353,26.57 8.24511,36.55 5.99452,19.97 12.12578,30.37 12.12578,30.37 0,0 -5.2794,-10.78 -10.14864,-30.85 -2.37678,-10.03 -4.9008,-22.31 -6.3521,-36.55 -1.70371,-14.22 -2.40833,-30.36 -2.3873,-47.93 0.1262,-17.58 1.36717,-36.62 3.97532,-56.61 1.03064,-10.02 3.18657,-20.2 4.78511,-30.65 2.1349,-10.41 4.31185,-21.05 6.53089,-31.87 2.12437,-10.89 4.55374,-21.86 6.52037,-33.13 1.78784,-11.34 3.59671,-22.81 5.41611,-34.37 1.50388,-11.55 3.0183,-23.2 4.54322,-34.9 1.27252,-11.71 2.54505,-23.47 3.82809,-35.23 4.2803,-47.11 7.25654,-94.26 9.53867,-138.49 2.26109,-44.22 2.91313,-85.54 3.70188,-120.94 0.72566,-35.4 0.34706,-64.91 0.34706,-85.56 -0.31551,-20.65 -0.50481,-32.46 -0.50481,-32.46"
           class="color395eb4 svgShape"
           id="path445"
           style="stroke-width:1.02551" />
      </g>
    </svg>
  </g>
</svg>
