<svg id="SvgjsSvg1001" width="288" height="288" xmlns="http://www.w3.org/2000/svg" version="1.1" xmlns:xlink="http://www.w3.org/1999/xlink" xmlns:svgjs="http://svgjs.com/svgjs"><defs id="SvgjsDefs1002"></defs><g id="SvgjsG1008" transform="matrix(1,0,0,1,0,0)"><svg xmlns="http://www.w3.org/2000/svg" width="288" height="288" viewBox="0 0 639.347 620.053"><defs><clipPath id="a" clipPathUnits="userSpaceOnUse"><path d="m 2103.81,2169.84 -207.23,-119.65 -127.37,-73.48 c -4.11,-2.11 -8.11,-4.42 -12.01,-6.95 -47.48,-29.26 -80.95,-81.37 -80.95,-145.27 l -0.11,-595.51 c 0,-57.9 -27.58,-106.32 -68.32,-136.64 -29.37,-22 -65.58,-34.63 -103.06,-34.63 -28.42,0 -57.58,7.26 -85.16,23.16 -158.75,91.69 -256.55,261.07 -256.55,444.35 v 617.71 c 0,91.7 -24.43,179.92 -68.75,256.55 -44.31,76.75 -108.425,142.02 -187.8,187.81 l 940.75,543.16 c 79.48,-45.9 143.6,-111.38 187.92,-188.02 44.32,-76.74 68.74,-164.85 68.74,-256.55 v -269.07 c 0,-76.96 -0.1,-246.97 -0.1,-246.97" fill="#000000" class="color000 svgShape"></path></clipPath></defs><g transform="matrix(.13333 0 0 -.13333 0 620.053)" fill="#000000" class="color000 svgShape"><path fill="#ecedeb" d="M 4092.89,2363.04 C 5029.2,1822.47 5029.19,946.02 4092.88,405.441 3156.57,-135.141 1638.53,-135.141 702.223,405.43 c -936.297,540.582 -936.297,1417.03 0.011,1957.6 936.306,540.58 2454.356,540.58 3390.656,0.01" class="colorededeb svgShape"></path><path fill="#d9dbd8" d="M3521.81 1585.83c-170.24-98.29-170.24-257.63 0-355.91 170.22-98.28 446.22-98.28 616.45 0 170.23 98.28 170.23 257.62 0 355.9-170.23 98.29-446.23 98.29-616.45.01M1047.57 1229.49L2997.35 103.742 3891.01 619.691 1940.81 1745.67 1047.57 1229.49" class="colordadbd8 svgShape"></path><path fill="#d9dbd8" d="m 700.957,1007.47 -403.523,232.97 c -11.957,6.9 -11.957,18.1 0,25 l 1419.036,819.28 c 11.96,6.91 31.34,6.91 43.3,0 l 403.51,-232.98 c 11.96,-6.9 11.96,-18.09 0,-25 L 744.258,1007.47 c -11.957,-6.91 -31.348,-6.91 -43.301,0" class="colordadbd8 svgShape"></path><path fill="#274447" d="m 1957.42,2083.62 c 0,-23.75 -16.67,-38.89 -37.33,-50.77 L 831.078,1404.14 c -20.555,-11.88 -37.336,-2.29 -37.336,21.58 v 2115.84 c 0,23.86 16.781,52.75 37.336,64.74 l 1089.012,628.61 c 20.66,11.98 37.33,2.28 37.33,-21.47 V 2083.62 m 19.19,2477.29 -1197.712,-691.4 c -23.98,-13.94 -43.507,-47.74 -43.507,-75.48 V 1092.97 c 0,-27.74 19.527,-39.04 43.507,-25.11 l 1197.712,691.4 c 23.98,13.93 43.5,47.73 43.5,75.48 v 2701.05 c 0,27.75 -19.52,39.05 -43.5,25.12" class="color273e47 svgShape"></path><path fill="#172d2f" d="m 773.473,1065.11 c -24.157,-11.1 -59.313,-10.13 -81.739,2.7 l -49.82,28.79 c -24.152,13.91 -43.672,47.55 -43.672,75.48 v 2700.88 c 0,10.56 2.809,21.78 7.551,32.56 1.508,3.56 3.234,7.01 5.176,10.46 l 0.105,0.11 137.059,-79.15 h 0.105 c -2.91,-5.18 -5.5,-10.57 -7.547,-15.96 -3.339,-9.05 -5.285,-18.33 -5.285,-26.96 V 1092.93 c 0,-25.55 16.606,-37.2 38.067,-27.82" class="color17282f svgShape"></path><path fill="#406fbf" d="m 1388.11,1650.92 c 37.98,21.92 68.76,4.15 68.76,-39.7 0,-43.85 -30.78,-97.18 -68.76,-119.1 -37.98,-21.92 -68.76,-4.15 -68.76,39.7 0,43.85 30.78,97.17 68.76,119.1" class="color26b6a6 svgShape"></path><path fill="#040606" d="M1377.75 4156.96c16.13 9.31 29.2 1.76 29.2-16.86 0-18.62-13.07-41.27-29.2-50.58-16.12-9.31-29.19-1.76-29.19 16.86 0 18.62 13.07 41.26 29.19 50.58M1265.04 3979.36l225.43 130.15c13.46 7.77 24.36 2.25 24.36-12.32 0-14.57-10.9-32.67-24.35-40.44l-225.45-130.16c-13.45-7.76-24.36-2.25-24.35 12.32 0 14.57 10.91 32.68 24.36 40.45" class="color040606 svgShape"></path><path fill="#406fbf" d="m 1957.42,2085.84 c 0,-23.75 -16.67,-38.89 -37.33,-50.76 L 831.078,1406.36 c -20.555,-11.87 -37.336,-2.28 -37.336,21.58 v 2115.84 c 0,23.87 16.781,52.76 37.336,64.74 l 1089.012,628.61 c 20.66,11.99 37.33,2.28 37.33,-21.47 V 2085.84" class="color26b6a6 svgShape"></path><path fill="#ffffff" d="m 1957.42,2085.84 h -5 c -0.03,-10.68 -3.63,-19.11 -9.78,-26.67 -6.16,-7.52 -14.99,-13.99 -25.04,-19.76 h -0.01 L 828.582,1410.69 c -5.394,-3.12 -10.23,-4.43 -14.152,-4.42 -4.801,0.05 -8.266,1.73 -11.032,5.11 -2.738,3.4 -4.66,8.91 -4.656,16.56 v 2115.84 c -0.023,10.76 3.871,23.26 10.289,34.33 6.387,11.08 15.274,20.7 24.567,26.1 l -0.02,-0.02 1089.012,628.61 h 0.01 c 5.43,3.16 10.29,4.48 14.22,4.47 4.78,-0.05 8.22,-1.73 10.98,-5.11 2.72,-3.39 4.63,-8.89 4.62,-16.5 V 2085.84 h 5 5 v 2129.82 c 0,9.23 -2.28,17.04 -6.8,22.73 -4.49,5.72 -11.36,8.93 -18.8,8.88 -6.14,0 -12.64,-1.99 -19.24,-5.82 l -1088.998,-628.59 -0.019,-0.02 c -11.266,-6.59 -21.047,-17.4 -28.192,-29.73 -7.113,-12.34 -11.609,-26.22 -11.629,-39.33 V 1427.94 c 0,-9.27 2.301,-17.1 6.848,-22.8 4.515,-5.73 11.39,-8.92 18.84,-8.87 6.113,0.01 12.59,1.97 19.148,5.76 l 1089.012,628.72 -0.01,-0.01 c 10.62,6.11 20.45,13.15 27.79,22.1 7.35,8.91 12.08,19.93 12.05,33 h -5" class="colorfff svgShape"></path><path fill="#335b5f" d="m 2019.69,4542.71 c -3.13,22.64 -21.25,30.83 -43.02,18.22 L 778.863,3869.51 c -11.972,-6.91 -22.859,-18.88 -30.73,-32.57 l -137.059,79.15 c 7.981,13.7 18.766,25.45 30.84,32.35 L 1839.5,4639.96 c 23.94,13.92 62.98,13.92 87.13,0 l 50.04,-28.67 c 21.99,-12.84 40.22,-42.28 43.02,-68.58" class="color33535f svgShape"></path><path fill="#ffffff" d="M1153.88 3163.41c-1.09 31.38-13.38 40.29-36.89 26.72l-27.64-15.97v-158.65l29.01 16.75c22.77 13.15 34.62 35.98 35.52 68.51.17 5.96.27 11.5.27 16.66 0 5.14 0 10.16 0 15.02 0 4.88 0 9.82 0 14.82 0 5.02-.1 10.4-.27 16.14zm-35.52 94.31c12.47 7.2 23.87 10.92 34.17 11.18 10.29.23 19.2-2.64 26.71-8.6 7.5-5.97 13.38-14.9 17.63-26.78 4.24-11.88 6.64-26.15 7.17-42.81.2-5.74.29-11.05.29-15.92 0-4.87 0-9.54 0-13.99 0-4.45 0-9.04 0-13.78 0-4.74-.09-9.94-.29-15.6-.53-17.58-2.89-34.65-7.04-51.25-4.16-16.6-9.9-32.17-17.21-46.68-7.33-14.54-16.06-27.58-26.19-39.13-10.11-11.55-21.41-20.92-33.89-28.12l-73.22-42.29c-1.99-1.14-3.71-1.01-5.15.38-1.45 1.38-2.17 3.61-2.17 6.68v269.72c0 3.06.72 6.12 2.17 9.18 1.44 3.07 3.16 5.17 5.15 6.31l71.87 41.5M1286.76 3172.49l43.93 25.36-21.96 87.53zm43.93 207.82c3.62 2.08 6.37 2.14 8.28.19 1.89-1.97 3.2-4.28 3.93-6.92l59.11-228.9c.73-2.38 1.09-4.26 1.09-5.65 0-2.5-.59-5-1.76-7.48-1.17-2.5-2.58-4.21-4.2-5.14l-34.17-19.73c-3.62-2.09-6.2-2.39-7.73-.92-1.54 1.48-2.49 3.22-2.85 5.25l-7.59 30.27-72.13-41.65-7.6-39.03c-.36-2.45-1.31-5.3-2.85-8.54-1.55-3.26-4.11-5.92-7.74-8.01l-34.16-19.72c-1.63-.94-3.02-.86-4.21.28-1.17 1.12-1.75 2.95-1.75 5.46 0 1.38.36 3.68 1.08 6.88l59.12 297.17c.71 3.47 2.03 7.3 3.93 11.46 1.9 4.16 4.66 7.28 8.27 9.37l43.93 25.36M1545.48 3504.32c1.98 1.14 3.7 1.02 5.16-.37 1.43-1.39 2.16-3.62 2.16-6.67v-44.26c0-3.07-.73-6.14-2.16-9.19-1.46-3.07-3.18-5.17-5.16-6.32l-47.73-27.56v-214.18c0-3.07-.73-6.13-2.17-9.19-1.45-3.06-3.17-5.16-5.15-6.32l-35.53-20.5c-1.99-1.16-3.71-1.03-5.15.37-1.45 1.38-2.16 3.61-2.16 6.68v214.18l-47.74-27.56c-1.99-1.15-3.71-1.02-5.15.37-1.46 1.39-2.17 3.61-2.17 6.68v44.26c0 3.06.71 6.12 2.17 9.19 1.44 3.05 3.16 5.16 5.15 6.31l145.63 84.08M1614.63 3361.79l43.94 25.36-21.97 87.53zm43.94 207.82c3.61 2.08 6.36 2.14 8.27.18 1.89-1.97 3.2-4.27 3.93-6.91l59.11-228.91c.73-2.37 1.09-4.25 1.09-5.64 0-2.5-.58-5-1.76-7.48-1.17-2.5-2.58-4.21-4.2-5.15l-34.17-19.72c-3.62-2.09-6.2-2.4-7.73-.92-1.54 1.47-2.48 3.22-2.85 5.24l-7.59 30.28-72.13-41.65-7.6-39.04c-.36-2.44-1.31-5.29-2.85-8.53-1.54-3.26-4.11-5.92-7.73-8.01l-34.17-19.73c-1.63-.93-3.02-.86-4.2.29-1.18 1.12-1.76 2.95-1.76 5.45 0 1.39.36 3.69 1.08 6.89l59.12 297.17c.72 3.46 2.03 7.29 3.93 11.45 1.9 4.16 4.66 7.29 8.27 9.38l43.94 25.36" class="colorfff svgShape"></path><path fill="#fbbc88" d="m 3771.5,3533.03 c -63.51,-2.98 -85.29,-15.09 -118.53,-54.25 -32.45,-38.23 -189.11,-328.54 -189.11,-328.54 0,0 29.38,-82.4 93.71,-75.39 l 120.27,193.94 93.66,264.24" class="colorf6879f svgShape"></path><path fill="#d9dbd8" d="m 3779.91,3532.9 c 0,0 -45.6,5.95 -78.14,-5.82 -32.54,-11.77 -48.8,-35.32 -71.21,-69.54 -17.35,-26.47 -78.08,-136.4 -78.08,-136.4 0,0 29.59,-82.28 113.72,-82.28 l 113.71,294.04" class="colordadbd8 svgShape"></path><path fill="#172d2f" d="m 3997.52,1468.47 v 13.77 c -5.42,-16.15 -30.61,-85.65 -68.79,-120.49 -30.36,-27.69 -71.78,-59.67 -82.3,-90.54 -10.96,-32.11 57.62,-42.89 85.99,-37.88 32.95,5.84 75.59,24.54 98.8,53.06 16.32,20.05 26.71,43.81 38.36,59.57 11.65,15.77 38.52,33.37 44.82,51.62 3.45,10.02 -0.66,31.98 -5.52,50.53 -4.47,17.01 -9.3,35.72 -15.11,34.13 -0.01,-2.08 0,-10.5 0,-10.5 -6.98,-7.74 -26.32,-15.43 -48.11,-16.26 -14.09,-0.54 -48.25,2.25 -48.14,12.99" class="color17282f svgShape"></path><path fill="#fbbc88" d="m 3901.25,1337.4 c 9.41,8.4 18.89,16.61 27.48,24.45 26.68,24.34 47.01,65.61 58.7,93.77 6.67,16.08 10.1,33.25 10.1,50.65 v 54.86 h 96.25 v -89.29 0 -0.01 -2.39 l -0.49,-0.24 c -4.63,-20 -48.8,-73.2 -73.89,-107.89 -16.82,-23.26 -48.79,-52.84 -86.98,-57.94 -36.2,-4.84 -54.69,6.58 -31.17,34.03" class="colorf6879f svgShape"></path><path fill="#172d2f" d="m 3657.78,1563.35 v 13.76 c -5.42,-16.14 -30.6,-85.64 -68.78,-120.48 -30.37,-27.69 -71.78,-59.67 -82.31,-90.54 -10.96,-32.11 57.63,-42.9 86,-37.87 32.95,5.83 75.59,24.53 98.8,53.04 16.31,20.05 26.7,43.82 38.35,59.58 11.66,15.77 38.52,33.37 44.82,51.62 3.46,10.02 -0.66,31.97 -5.52,50.52 -4.45,17.02 -9.3,35.73 -15.11,34.13 -0.01,-2.07 0,-10.48 0,-10.48 -6.98,-7.75 -26.31,-15.44 -48.11,-16.27 -14.08,-0.55 -48.25,2.25 -48.14,12.99" class="color17282f svgShape"></path><path fill="#fbbc88" d="m 3561.51,1432.27 c 9.42,8.41 18.89,16.62 27.49,24.46 26.67,24.34 47.01,65.61 58.7,93.77 6.67,16.08 10.09,33.24 10.09,50.65 v 54.86 h 96.25 v -89.29 -0.02 -2.37 l -0.48,-0.25 c -4.63,-20 -48.8,-73.21 -73.9,-107.89 -16.82,-23.26 -48.79,-52.85 -86.97,-57.94 -36.2,-4.84 -54.7,6.58 -31.18,34.02" class="colorf6879f svgShape"></path><path fill="#335b5f" d="m 4074.62,2964.27 c 74.62,-162.97 -2.69,-737.06 -2.69,-737.06 2.24,-26.45 32.48,-78.49 43.74,-194.88 13.31,-137.54 -20.87,-482.87 -20.87,-482.87 0,0 -44.57,-29.14 -97.28,-3.86 0,0 -91.73,520.1 -108.97,656.84 -15.05,119.34 -43.95,381.74 -43.95,381.74 l -46.43,-381.09 c 0,0 21.08,-66.86 26.01,-117.79 7.79,-80.44 -70.14,-454.92 -70.14,-454.92 0,0 -33.21,-12.19 -96.25,-2.9 0,0 -27.56,496.96 -34.83,593.86 -12.2,162.72 -4.67,670.46 25.18,766.78 l 426.48,-23.85" class="color33535f svgShape"></path><path fill="#274447" d="m 3844.6,2584.18 -24.23,151.37 c 0,0 -102.48,21.23 -148.96,64.92 0,0 48.76,-60.66 121.19,-80.52 l 27.22,-116.54 -18.55,-374.92 43.33,355.69" class="color273e47 svgShape"></path><path fill="#ecedeb" d="m 3943,3530.45 h 0.01 c 28.37,-1.95 37.85,-1.26 58.43,-3.37 41.14,-4.22 51.04,-64.39 67.88,-99.93 18.22,-38.47 18.43,-83.07 4.52,-123.3 L 4007.17,3111 c 0,0 31.22,-75.44 67.45,-146.73 -167.29,-93.37 -376.18,-44.29 -426.48,23.85 -2.13,14.45 10.8,127.44 18.76,201.24 -29.47,73.92 -37.24,120.77 -24.81,169.62 23.08,90.69 105.74,174.13 129.41,174.05 l 171.5,-2.58" class="colorededeb svgShape"></path><path fill="#335b5f" d="m 4086.01,3896.52 -34.62,3.01 c 4.16,2.38 7.79,5.8 10.29,10.35 7.5,13.62 2.53,31.22 -11.1,39.32 l -22.34,-40.53 c -36.9,63.29 -106.92,104.28 -185.12,100.12 l -17.86,-0.95 c -111.35,-5.93 -196.82,-101 -190.89,-212.36 6.12,-115.04 12.9,-243.73 12.9,-243.73 l 207.74,11.06 c 117.84,6.28 208.28,106.89 202,224.73 l -1.53,30.36 c -1.04,19.42 -4.93,37.99 -11.01,55.49 3.05,-1.57 6.42,-2.63 10.07,-2.94 15.49,-1.35 29.58,10.32 31.47,26.07" class="color33535f svgShape"></path><path fill="#fbbc88" d="m 3671.65,3781.97 c -1.43,-23.02 -0.62,-35.62 1.71,-66.16 7.92,-103.52 42.88,-127.33 60.14,-133.81 17.25,-6.49 49.56,-0.27 80.91,6.69 l -0.01,-61.21 c 0,0 -37.69,-54.09 -33.42,-82.47 4.27,-28.38 64.99,-31.9 104.41,-1.86 39.43,30.04 55.41,81.14 55.41,81.14 l -0.02,143.07 c 0,0 22.87,-27.38 56.56,-2.32 33.7,25.05 31.96,82.52 10.56,102.05 -21.4,19.54 -65.63,11.25 -72.27,-17.66 0,0 -72.93,6.12 -82.21,126.24 -67.76,-88.37 -177.46,-24.63 -181.77,-93.7" class="colorf6879f svgShape"></path><path fill="#335b5f" d="m 3935.21,3757.45 2.72,-51.29 c -19.28,-1.03 -35.73,13.77 -36.77,33.05 l -3.04,57.24 37.09,-39" class="color33535f svgShape"></path><path fill="#172d2f" d="m 3801.35,3751.2 c 0.02,-7.49 5.89,-13.52 13.08,-13.49 7.22,0.05 13.04,6.15 13.02,13.64 -0.03,7.49 -5.89,13.53 -13.09,13.49 -7.21,-0.04 -13.03,-6.15 -13.01,-13.64" class="color17282f svgShape"></path><path fill="#406fbf" d="m 3800.48,3659.35 -34.9,-13.21 c 3.48,-10.01 14.13,-15.16 23.77,-11.52 9.64,3.66 14.62,14.73 11.13,24.73" class="colorf47089 svgShape"></path><path fill="#335b5f" d="m 3815.62,3809.73 30.57,-9.87 c 3.07,8.41 -1.29,17.44 -9.73,20.16 -8.45,2.72 -17.78,-1.89 -20.84,-10.29" class="color33535f svgShape"></path><path fill="#172d2f" d="m 3689.32,3745.55 c 0.02,-7.48 5.89,-13.52 13.09,-13.48 7.21,0.05 13.03,6.15 13.01,13.64 -0.02,7.49 -5.89,13.52 -13.09,13.49 -7.21,-0.04 -13.03,-6.15 -13.01,-13.65" class="color17282f svgShape"></path><path fill="#406fbf" d="M3765.46 3756.62l2.11-78.57-41.98 10.59zM3814.41 3588.69c33.09 6.15 100.62 29.5 109.87 57.17 0 0-2.66-17.22-22.21-35.87-19.55-18.65-87.66-42.05-87.66-42.05v20.75" class="colorf47089 svgShape"></path><path fill="#e1e2e0" d="m 3900.22,2946.18 c 54.95,13.01 65.4,33.71 50.87,88.28 -0.54,2.07 -1.12,3.85 -1.7,5.26 -10.76,25.87 -53.69,10.49 -53.69,10.49 0,0 17.56,21.9 37.29,49.8 19.72,27.91 28.54,74.08 31.18,106.46 2.64,32.39 7.92,97.26 7.92,97.26 0,0 42.74,25.58 26.07,72.38 l 66,40.55 c 0,0 4.84,-3.35 12.42,-8.63 10.49,-33.68 8.92,-70.45 -2.74,-104.18 L 4007.17,3111 c 0,0 39.38,-69.35 67.45,-146.73 -123.29,-68.81 -269.1,-60.22 -357.45,-23.68 69.79,-10.82 134.45,-5.92 183.05,5.59" class="colore2e2e0 svgShape"></path><path fill="#172d2f" d="m 3832.51,3717.45 -6.5,-0.35 c -19.31,-1.03 -35.85,13.84 -36.89,33.15 -1.02,19.32 13.85,35.86 33.16,36.89 l 6.5,0.34 c 19.31,1.04 35.87,-13.84 36.89,-33.15 1.03,-19.31 -13.85,-35.86 -33.16,-36.88 z m -128.44,-6.84 -6.51,-0.35 c -19.31,-1.03 -35.85,13.85 -36.88,33.16 -1.02,19.31 13.85,35.85 33.16,36.88 l 6.5,0.34 c 19.31,1.04 35.86,-13.84 36.89,-33.15 1.03,-19.31 -13.85,-35.85 -33.16,-36.88 z m 242.9,56.73 -75.57,-4.03 c -5.02,18.88 -22.74,32.36 -42.99,31.28 l -6.51,-0.35 c -17.54,-0.93 -32.02,-12.53 -37.52,-28.15 -6.09,5.82 -15.15,9.41 -25.16,9.39 -8.74,-0.02 -16.19,-2.81 -21.39,-7.64 -7.88,12.59 -22.02,20.75 -37.87,19.91 l -6.5,-0.34 c -23.22,-1.24 -41.12,-21.14 -39.88,-44.37 1.24,-23.23 21.14,-41.12 44.36,-39.88 l 6.5,0.34 c 23.24,1.24 41.13,21.14 39.9,44.37 -0.26,4.7 -1.45,9.09 -3.1,13.23 3.78,4.51 10.33,7.26 18,7.27 9.65,0.02 18.62,-3.97 22.86,-10.15 l 0.34,0.23 c -0.43,-2.79 -0.57,-5.65 -0.42,-8.57 1.23,-23.23 21.14,-41.12 44.37,-39.88 l 6.5,0.34 c 23.23,1.24 41.12,21.14 39.88,44.37 l -0.23,1.54 67.59,3.59 c 2.73,3.89 5.35,6.33 6.84,7.5" class="color17282f svgShape"></path><path fill="#406fbf" d="m 3325.33,3211.59 337.86,-88.99 92.99,-382.26 -321.21,93.29 -109.64,377.96" class="color26b6a6 svgShape"></path><path fill="#66ccff" d="m 3756.18,2740.34 -321.21,93.29 -109.64,377.96 337.86,-88.99 61.64,-253.37 -171.85,26.63 c 2.16,-20.68 16.65,-44.62 58.86,-64.78 19.93,-9.52 48.79,-12.03 73.7,-12.03 27.83,-0.01 50.73,3.13 50.73,3.13 l -5.01,20.6 24.92,-102.44 m -278.19,200.55 -65.63,-29.3 3.42,-11.79 c 43.94,3.53 59.08,32.52 62.21,41.09 m 93.04,172.66 v 0 l -2.79,12.89 c -1.54,7.11 -23.86,18.35 -49.86,25.09 l -49.78,12.91 c -12.53,3.25 -23.63,4.86 -31.59,4.86 -8.55,0 -13.49,-1.86 -12.69,-5.54 1.54,-7.12 2.79,-12.89 2.79,-12.89 l 143.92,-37.32" class="color0cad96 svgShape"></path><path fill="#264548" d="m 3731.26,2842.78 -6.43,26.45 v 0 l 6.43,-26.45" class="color263f48 svgShape"></path><path fill="#406fbf" d="M3685.54 2819.05c-24.91 0-53.77 2.51-73.7 12.03-42.21 20.16-56.7 44.1-58.86 64.78l171.85-26.63 6.43-26.45 5.01-20.6c0 0-22.9-3.14-50.73-3.13M3415.78 2899.8l-3.42 11.79 65.63 29.3c-3.13-8.57-18.27-37.56-62.21-41.09" class="color08917d svgShape"></path><path fill="#406fbf" d="m 3571.03,3113.55 -143.92,37.32 c 0,0 -1.25,5.77 -2.79,12.89 -0.8,3.68 4.14,5.54 12.69,5.54 7.96,0 19.06,-1.61 31.59,-4.86 l 49.78,-12.91 c 26,-6.74 48.32,-17.98 49.86,-25.09 l 2.79,-12.89" class="color05a58d svgShape"></path><path fill="#274447" d="m 3401.16,3199.31 c -0.98,4.44 7.05,5.61 17.94,2.6 l 19.72,-5.44 c 0,0 -5.88,27.87 37.86,18.12 43.74,-9.73 53.3,-41.38 53.3,-41.38 0,0 9.43,-2.67 21.05,-5.97 11.62,-3.3 22.15,-9.57 23.52,-14 l 2.49,-8.02 -174.03,45.82 c 0,0 -0.87,3.82 -1.85,8.27" class="color273e47 svgShape"></path><path fill="#274447" d="m 3425.13,3185.56 c 15.95,-3.84 22.58,-5.96 24.95,-16.93 2.72,-12.53 3.84,-21.73 3.84,-21.73 l 77.02,-20.35 c 0,0 -3.72,15.86 -4.9,22.05 -1.2,6.18 1.42,9.91 13.68,6.66 l 1.04,4.91 -120.7,30.73 5.07,-5.34" class="color273e47 svgShape"></path><path fill="#274447" d="m 3422.48,3149.66 c 0,0 -1.25,5.76 -2.79,12.88 -1.53,7.12 18.29,7.43 44.29,0.69 l 49.77,-12.91 c 26,-6.75 48.32,-17.98 49.86,-25.1 l 2.79,-12.89 -143.92,37.33" class="color273e47 svgShape"></path><path fill="#fbbc88" d="M3360.94 3088.87c0 0 12.64-43.22 15.52-53.52 2.89-10.3 40.75-28.82 65.58-35.64 24.84-6.83 51.99-14.92 40.25-49.64-10.84-32.02-51.71-39.32-72.51-38.42-20.81.9-49.3 20.79-60.52 52.85-14.31 40.89-6.6 84.56-12.29 108.44-5.68 23.89 11.52 30.17 23.97 15.93M3993.78 3527.78c43.81-2.77 89.1-26.5 95.97-79.12 6.87-52.62 49.48-329.6 32.76-360.78-38.67-72.1-293.68-209.23-319.02-220.96-25.33-11.73-67.45-31-117.66-31.55-39.76-.45-92.68.86-119.43 36.81-23.74 31.91-37.16 90.79 16.48 80.66 53.64-10.13 122.92-5.4 122.92-5.4l-6.25 25.68c0 0 14.18 1.27 40.94-6.68 26.76-7.95 51.08 15.03 98.33 44.23 60.94 37.65 153.68 117.25 153.68 117.25l-37.82 231.27c0 0-1.26 99.97 39.1 168.59" class="colorf6879f svgShape"></path><path fill="#d9dbd8" d="m 3985.85,3527.78 c 0,0 23.45,5.39 49.2,-4.41 25.74,-9.81 48.6,-22.86 59.3,-74.71 10.68,-51.85 31.83,-241.42 31.83,-241.42 0,0 -56.1,-40.57 -147.47,-21.3 l -32.83,172.02 c 0,0 -25.57,120.41 39.97,169.82" class="colordadbd8 svgShape"></path><path fill="#335b5f" d="m 863.727,2611.99 1069.043,617.21 0.01,-148.13 -1069.057,-617.22 0.004,148.14" class="color33535f svgShape"></path><path fill="#172d2f" d="m 906.5,2587.29 v -49.36 l 983.52,567.83 v 49.38 L 906.5,2587.29" class="color17282f svgShape"></path><path fill="#274447" d="m 863.727,2611.99 -42.762,24.69 1069.055,617.22 42.75,-24.7 -1069.043,-617.21" class="color273e47 svgShape"></path><path fill="#172d2f" d="m 820.965,2636.68 42.762,-24.69 -0.004,-148.14 -42.75,24.7 -0.008,148.13" class="color17282f svgShape"></path><path fill="#274447" d="M 3942.64,685.98 3001.77,143.129 v 24.109 l 940.76,542.84 0.11,-24.098" class="color273e47 svgShape"></path><path fill="#f2f3f1" d="m 2103.81,2169.84 -207.23,-119.65 -127.37,-73.48 c -4.11,-2.11 -8.11,-4.42 -12.01,-6.95 -47.48,-29.26 -80.95,-81.37 -80.95,-145.27 l -0.11,-595.51 c 0,-57.9 -27.58,-106.32 -68.32,-136.64 -29.37,-22 -65.58,-34.63 -103.06,-34.63 -28.42,0 -57.58,7.26 -85.16,23.16 -158.75,91.69 -256.55,261.07 -256.55,444.35 v 617.71 c 0,91.7 -24.43,179.92 -68.75,256.55 -44.31,76.75 -108.425,142.02 -187.8,187.81 l 940.75,543.16 c 79.48,-45.9 143.6,-111.38 187.92,-188.02 44.32,-76.74 68.74,-164.85 68.74,-256.55 v -269.07 c 0,-76.96 -0.1,-246.97 -0.1,-246.97" class="colorf3f2f1 svgShape"></path><path fill="#335b5f" d="m 2445.95,488.238 c -158.76,91.59 -256.55,260.973 -256.55,444.25 l -0.06,595.872 c 0,69.69 -14.1,137.17 -40.32,199.28 -8.31,19.68 -17.79,38.74 -28.42,57.27 -44.32,76.63 -108.43,141.9 -187.8,187.7 h -0.01 c -114.03,65.77 -256.51,-16.58 -256.44,-148.23 l 0.03,-60.69 -0.13,60.8 -0.11,-595.51 0.03,123.91 v -123.68 c 0,-131.67 -142.46,-214.04 -256.57,-148.34 -158.75,91.69 -256.55,261.07 -256.55,444.35 v 617.71 c 0,91.7 -24.43,179.92 -68.75,256.55 -44.31,76.75 -108.425,142.02 -187.8,187.81 v -24.63 c 145.59,-89.07 235.49,-248.55 235.49,-419.73 v -617.71 c 0,-190.23 102.33,-367.4 267.08,-462.56 60.11,-34.75 131.9,-34.75 192.12,0 3.68,2.1 7.26,4.31 10.84,6.73 l 0.32,0.21 c 53.37,35.69 84.85,94.43 84.85,159.38 l 0.11,595.51 c 0,54.22 27.99,102.85 74.95,129.9 46.95,27.16 103.06,27.16 150.01,0 94.85,-54.74 167.28,-139.06 208.23,-237.38 24.53,-58.96 37.79,-122.96 37.79,-188.65 l 0.01,-138.26 0.04,-457.612 c 0,-190.117 102.32,-367.398 267.08,-462.566 l 566.35,-326.801 v 24.109 l -555.82,321.008" class="color33535f svgShape"></path><path fill="#f9faf9" d="m 3942.53,710.078 -940.76,-542.84 -555.82,321 c -158.76,91.59 -256.55,260.973 -256.55,444.25 l -0.05,595.872 c 0,69.69 -14.11,137.17 -40.33,199.28 -8.31,19.68 -17.78,38.74 -28.42,57.27 -44.31,76.63 -108.43,141.9 -187.8,187.7 -54.22,31.36 -114.85,29.16 -163.59,4.1 l 127.37,73.48 256.28,147.97 548.58,316.66 1.36,0.84 c 49.8,28.74 113.8,32.74 170.76,-0.1 79.37,-45.8 143.48,-111.07 187.8,-187.81 44.32,-76.74 68.74,-164.96 68.74,-256.55 l 0.06,-595.76 c 0,-183.28 97.79,-352.67 256.54,-444.36 l 555.83,-321.002" class="colorfafaf9 svgShape"></path><path fill="#d9dbd8" d="m 2168.29,1528.36 c 0,65.69 -13.26,129.69 -37.79,188.65 -40.95,98.32 -113.38,182.64 -208.23,237.38 -46.95,27.16 -103.06,27.16 -150.01,0 -46.96,-27.05 -74.95,-75.68 -74.95,-129.9 l -0.11,-595.51 c 0,-64.95 -31.48,-123.69 -84.85,-159.38 l -0.32,-0.21 c -3.58,-2.42 -7.16,-4.63 -10.84,-6.73 l 567.11,327.44 -0.01,138.26" class="colordadbd8 svgShape"></path><path fill="#b4b6b5" d="m 1601.19,1062.66 1.5,0.86 c -0.5,-0.29 -1,-0.58 -1.5,-0.86 m 1.5,0.86 c 3.16,1.85 6.25,3.78 9.34,5.87 l 0.32,0.21 c 53.37,35.69 84.85,94.43 84.85,159.38 l 0.11,595.51 c 0,54.22 27.99,102.85 74.95,129.9 23.47,13.58 49.24,20.37 75,20.37 25.77,0 51.54,-6.79 75.01,-20.37 94.85,-54.74 167.28,-139.06 208.23,-237.38 24.53,-58.96 37.79,-122.96 37.79,-188.65 l 0.01,-138.26 -565.61,-326.58" class="colorb4b6b4 svgShape"></path><g clip-path="url(#a)" fill="#000000" class="color000 svgShape"><path fill="#406fbf" d="m 1073.59,2584.33 c 19.8,-16.93 54.7,-20.56 79.88,-6.02 l 671.3,387.58 c 25.17,14.54 31.12,41.73 11.42,58.71 -19.7,16.98 -57.44,17.27 -82.62,2.73 l -671.63,-387.77 c -25.18,-14.54 -28.15,-38.31 -8.35,-55.23" class="color26b6a6 svgShape"></path><path fill="#858989" d="M1614.82 2730.93c-2.57 0-5.08 1.33-6.46 3.73-2.07 3.56-.85 8.13 2.73 10.18l313.87 181.23c1.18.68 2.46 1 3.73 1 2.58 0 5.09-1.33 6.46-3.73 2.06-3.56.84-8.13-2.73-10.18l-313.87-181.23c-1.17-.68-2.46-1-3.73-1M1639.05 2690.52c-2.58 0-5.09 1.34-6.47 3.73-2.07 3.57-.84 8.14 2.72 10.19l313.88 181.22c1.17.68 2.45 1 3.72 1 2.58 0 5.09-1.34 6.47-3.73 2.06-3.56.84-8.13-2.73-10.19l-313.87-181.21c-1.17-.68-2.46-1.01-3.72-1.01M1659.4 2648.42c-2.58 0-5.09 1.34-6.47 3.74-2.06 3.56-.83 8.13 2.73 10.18l313.87 181.23c1.18.68 2.47 1 3.74 1 2.58 0 5.08-1.33 6.45-3.73 2.07-3.56.85-8.12-2.72-10.18l-313.87-181.23c-1.18-.67-2.46-1.01-3.73-1.01M1675.75 2604.66c-2.58 0-5.09 1.34-6.47 3.73-2.06 3.57-.84 8.13 2.73 10.19l313.86 181.21c1.18.68 2.47 1 3.73 1 2.58 0 5.08-1.33 6.46-3.72 2.07-3.57.84-8.13-2.72-10.19l-313.87-181.21c-1.17-.68-2.46-1.01-3.72-1.01M1687.7 2561.76c-2.59 0-5.09 1.34-6.47 3.73-2.07 3.57-.84 8.13 2.72 10.19l313.86 181.21c1.18.68 2.47 1 3.73 1 2.58 0 5.09-1.33 6.46-3.72 2.07-3.57.85-8.13-2.72-10.19l-313.86-181.21c-1.17-.68-2.46-1.01-3.72-1.01M1695.77 2515.65c-2.59 0-5.1 1.34-6.47 3.73-2.07 3.57-.84 8.13 2.72 10.19l313.87 181.23c1.17.67 2.46.99 3.72.99 2.59 0 5.09-1.33 6.47-3.72 2.06-3.56.84-8.13-2.73-10.18l-313.86-181.23c-1.17-.68-2.46-1.01-3.72-1.01M1700.15 2466.45c-2.58 0-5.09 1.34-6.46 3.73-2.07 3.57-.84 8.14 2.72 10.19l313.87 181.21c1.18.68 2.47 1 3.73 1 2.58 0 5.09-1.33 6.46-3.72 2.07-3.57.85-8.13-2.72-10.19l-313.87-181.21c-1.17-.68-2.46-1.01-3.73-1.01M1252.65 2115.6c-1.81 0-3.59.94-4.56 2.63-1.46 2.52-.59 5.73 1.93 7.18l761.57 439.71c.83.48 1.74.71 2.64.71 1.81 0 3.58-.94 4.54-2.63 1.47-2.52.61-5.74-1.91-7.18l-761.58-439.71-2.63-.71M1252.65 2068.58c-1.81 0-3.59.95-4.56 2.64-1.46 2.51-.59 5.73 1.93 7.18l761.57 439.72c.83.49 1.74.72 2.64.72 1.81 0 3.58-.95 4.54-2.64 1.47-2.52.61-5.74-1.91-7.19l-761.58-439.71-2.63-.72M1252.65 2021.58c-1.81 0-3.59.95-4.56 2.63-1.46 2.52-.59 5.74 1.93 7.19l761.57 439.71c.83.48 1.74.71 2.63.71 1.82 0 3.59-.95 4.55-2.64 1.47-2.52.61-5.73-1.91-7.18l-761.58-439.71-2.63-.71M1252.65 1974.57c-1.81 0-3.59.95-4.56 2.63-1.46 2.52-.59 5.74 1.93 7.19l761.57 439.7c.83.49 1.74.72 2.63.72 1.82 0 3.59-.95 4.55-2.64 1.47-2.52.61-5.73-1.91-7.18l-761.58-439.71-2.63-.71M1252.65 2183.94c-1.81 0-3.59.95-4.56 2.63-1.46 2.52-.59 5.74 1.93 7.19l403.18 232.8c.83.48 1.74.71 2.64.71 1.81 0 3.58-.94 4.55-2.63 1.46-2.52.6-5.74-1.92-7.19l-403.19-232.8-2.63-.71" class="color858889 svgShape"></path><path fill="#406fbf" d="M1241.28 2453.86c15.97-31.88 29.04-63.66 37.33-95.28 9.06-28.98 14.33-64.73 17.47-104.29.57-7.25 6.05-10.18 12.34-6.55l22.43 12.95c6.29 3.64 11.08 12.46 10.53 19.71-2.79 36.73-8.89 72.56-18.86 107.32-10.83 34.66-22.6 66.23-36.09 92.21-3.35 6.45-11.42 8.59-17.71 4.96l-22.05-12.73c-6.29-3.63-8.65-11.8-5.39-18.3M1307.78 2546.92c20.48-31.83 38.52-70.02 53.95-115.01 12.44-36.14 20.61-77.9 24.08-125.87.52-7.25 5.93-10.2 12.22-6.56l22.41 12.94c6.29 3.63 11.15 12.48 10.63 19.72-3.06 42.76-11.42 84.61-24.51 125.65-14.03 42.25-32.02 80.2-53.6 114.26-3.89 6.13-12.33 8.14-18.69 4.61l-22.3-12.4c-6.35-3.53-8.13-11.22-4.19-17.34M1484.76 2502.94l-22.03-12.72c-6.3-3.63-9.46-12.14-7.33-19.09 10.16-33.18 16.93-70.83 20.01-113.37.52-7.25 5.92-10.18 12.22-6.55l22.41 12.94c6.29 3.63 11.14 12.48 10.62 19.73-2.73 38.39-9.76 76.05-20.64 113.05-2.06 6.97-8.97 9.64-15.26 6.01M1574.4 2592.37c-2.69 6.76-10.15 9.26-16.46 5.66l-22.2-12.63c-6.32-3.59-9.12-11.92-6.42-18.67 4.02-10.06 7.89-20.51 11.61-31.36 12.43-36.14 20.61-77.89 24.08-125.87.52-7.25 5.92-10.19 12.22-6.56l22.41 12.94c6.29 3.64 11.14 12.48 10.62 19.73-3.05 42.75-11.41 84.6-24.51 125.64-3.53 10.64-7.32 21.02-11.35 31.12" class="color26b6a6 svgShape"></path><path fill="#858989" d="m 1256.27,2206.94 c -1.98,0 -3.63,1.54 -3.72,3.53 -0.85,16.18 -2.37,32.14 -4.55,47.87 l -14.42,-8.33 -1.87,-0.5 c -1.28,0 -2.53,0.67 -3.22,1.87 -1.03,1.78 -0.43,4.06 1.36,5.09 l 16.89,9.75 c -1.99,12.97 -4.33,25.83 -7.22,38.46 l -13.78,-7.95 -1.86,-0.5 c -1.28,0 -2.54,0.66 -3.23,1.87 -1.03,1.77 -0.42,4.06 1.37,5.08 l 15.6,9.01 c -3.11,12.72 -6.58,25.3 -10.61,37.63 l -14.54,-8.39 -1.86,-0.51 c -1.29,0 -2.54,0.67 -3.23,1.88 -1.03,1.78 -0.42,4.06 1.37,5.09 l 15.74,9.08 c -4.22,12.3 -8.8,24.43 -13.94,36.3 l -0.07,0.14 -14.71,-8.49 -1.86,-0.51 c -1.28,0 -2.54,0.67 -3.22,1.87 -1.04,1.78 -0.43,4.06 1.36,5.09 l 15.39,8.88 c -5.2,11.73 -10.95,23.4 -17.27,34.98 l -14.76,-8.53 -1.86,-0.5 c -1.29,0 -2.54,0.67 -3.23,1.87 -1.03,1.78 -0.42,4.06 1.37,5.09 l 14.87,8.59 c -6.32,11.17 -13.19,22.24 -20.54,33.22 l -13.26,-7.66 -1.86,-0.5 c -1.28,0 -2.54,0.67 -3.23,1.87 -1.03,1.78 -0.42,4.06 1.37,5.09 l 12.8,7.39 c -7.71,11.18 -15.89,22.26 -24.63,33.19 -1.29,1.61 -1.03,3.96 0.57,5.24 0.69,0.55 1.52,0.82 2.34,0.82 1.1,0 2.18,-0.48 2.9,-1.4 8.99,-11.22 17.39,-22.61 25.29,-34.12 l 13.89,8.02 c 0.58,0.34 1.23,0.51 1.86,0.51 1.29,0 2.55,-0.67 3.24,-1.88 1.02,-1.77 0.42,-4.05 -1.37,-5.08 l -13.43,-7.75 c 7.34,-10.98 14.2,-22.06 20.52,-33.23 l 11.83,6.83 c 0.58,0.34 1.22,0.51 1.85,0.51 1.29,0 2.54,-0.67 3.24,-1.87 1.03,-1.78 0.42,-4.07 -1.37,-5.09 l -11.94,-6.9 c 6.33,-11.58 12.09,-23.23 17.31,-34.96 l 11.29,6.52 c 0.58,0.35 1.23,0.51 1.87,0.51 1.28,0 2.53,-0.67 3.21,-1.88 1.03,-1.77 0.43,-4.05 -1.36,-5.08 l -11.97,-6.91 0.42,-0.95 c 5.03,-11.6 9.5,-23.45 13.66,-35.44 l 10.86,6.27 c 0.59,0.34 1.23,0.5 1.87,0.5 1.28,0 2.53,-0.66 3.22,-1.87 1.03,-1.78 0.42,-4.06 -1.36,-5.09 l -12.07,-6.96 c 4.07,-12.32 7.59,-24.86 10.76,-37.55 l 10.86,6.27 c 0.57,0.34 1.21,0.51 1.85,0.51 1.28,0 2.55,-0.68 3.23,-1.88 1.03,-1.78 0.42,-4.06 -1.36,-5.09 l -12.68,-7.32 c 2.95,-12.6 5.36,-25.41 7.41,-38.35 l 9.38,5.41 c 0.58,0.35 1.23,0.51 1.86,0.51 1.29,0 2.54,-0.67 3.23,-1.87 1.03,-1.78 0.42,-4.06 -1.37,-5.09 l -11.83,-6.84 c 2.43,-16.91 4.16,-34.06 5.07,-51.46 0.11,-2.06 -1.47,-3.82 -3.53,-3.92 l -0.19,-0.01" class="color858889 svgShape"></path><path fill="#7da6dd" d="M1500.11 1752.12c-27.55 0-36.71 42.77-45.87 85.55-.54 2.53-1.08 5.06-1.63 7.57.01.01.02.01.02.01 1.99.45 3.89.68 5.64.68 18.31 0 27.65-28.97 36.68-56.99 3.96-12.29 8.06-25 13.09-35.74-2.8-.73-5.44-1.08-7.93-1.08M1731.47 1950.39c-9.91 19.32-21.18 37.92-42.86 37.92-5.92 0-12.61-1.39-20.26-4.52.24 1.19.38 2.36.38 3.49 0 2.34-.57 4.21-1.57 5.56 10.32 23.67 22.91 39.34 38.75 48.52 6.19 3.57 11.57 5.38 15.98 5.38 18.93 0 27.68-40.76 35.36-76.93-2.14-1.32-4.24-2.69-6.33-4.1-6.83-4.63-13.33-9.75-19.45-15.32" class="colorc3eae0 svgShape"></path><path fill="#2a6b71" d="m 1750.92,1965.71 v 0 c 2.09,1.41 4.19,2.78 6.33,4.1 v -0.01 c -0.01,-0.01 -0.03,-0.02 -0.05,-0.04 -2.12,-1.3 -4.21,-2.66 -6.28,-4.05" class="color2a6d71 svgShape"></path><path fill="#c7c9c8" d="M1302.01 1534.84l10.31 5.95h.01l-10.32-5.95m-4.06 48.55c-.66 15.02-.76 30.21-.28 45.58 0 0 .01.05.04.15v-.15c-.45-15.52-.38-30.66.24-45.58m210.09 169.81c-5.03 10.74-9.13 23.45-13.09 35.74-9.03 28.02-18.37 56.99-36.68 56.99-1.75 0-3.65-.23-5.64-.68 0 0-.01 0-.02-.01-.75 3.45-1.5 6.89-2.27 10.28 2.79.63 5.43.94 7.93.94 36.2 0 42.3-63.1 59.61-99.44-3.49-1.76-6.76-3.02-9.84-3.82M1757.25 1969.81c-7.68 36.17-16.43 76.93-35.36 76.93-4.41 0-9.79-1.81-15.98-5.38-15.84-9.18-28.43-24.85-38.75-48.52-1.18 1.59-2.96 2.44-5.12 2.44-1.8 0-3.86-.59-6.05-1.82 10.31 24.87 24.26 45.2 44.67 57.02 8.11 4.68 15.12 6.79 21.23 6.79 26.7 0 36.07-40.28 44.92-81.82-3.02-1.62-5.98-3.36-8.88-5.22-.23-.14-.45-.28-.68-.42" class="colorc7c9c7 svgShape"></path><path fill="#294b4e" d="m 1757.25,1969.8 v 0.01 c 0.23,0.14 0.45,0.28 0.68,0.42 v 0 c -0.23,-0.14 -0.45,-0.29 -0.68,-0.43" class="color29444e svgShape"></path><path fill="#7da6dd" d="M1302.01 1534.84c-2.04 16.05-3.39 32.16-4.06 48.55.71-16.38 2.08-32.56 4.06-48.55v0M1312.32 1540.79c-.31 1.72-.62 3.32-.93 5.52l364.85 210.66v-6.07l-363.92-210.11M1297.71 1629.12v47.51c-.25 56.58-.27 175.34 76.53 231.43.65-3.78 3.12-5.88 6.52-5.88.8 0 1.66.12 2.55.36 0-.03 0-.05 0-.08l-.01-7.46c0-2.06 1.68-3.73 3.73-3.73 2.06 0 3.73 1.67 3.73 3.73l.01 7.46c0 1.28-.65 2.41-1.63 3.09 5.14 3.89 9.25 10.39 10.39 16.35 3.15.9 6.08 1.32 8.84 1.32 23.69 0 33.78-31.63 41.97-67.7-.01 0-.01 0-.02 0-5.37-1.16-11.37-3.58-18-7.47-87.56-50.92-133.09-213.45-134.61-218.93m249.26 102.95c-13.32 0-22.11 10.27-29.07 24.91-.01.02-.01.03-.02.04 1.16.59 2.35 1.23 3.56 1.93 85.1 49.13 48.95 155.49 121.89 210.37.51-1.86 1.52-3.23 2.89-4.05-24.48-83.57-24.61-195.87-78.94-226.81-7.79-4.42-14.48-6.39-20.31-6.39M1841.73 2018.55c13.57 55.86 26.84 118.57 70.06 152.53.4-4.33 2.98-6.76 6.63-6.76 1.84 0 3.95.62 6.2 1.92 6.79 3.92 12.35 12.63 12.86 19.92 8.46 3.47 15.98 5.01 22.68 5.01 35.89 0 47.96-44.41 52.01-74.24l-.38-.22c-4.58 2.08-9.57 3.25-15.01 3.25-7.98 0-16.9-2.51-26.84-8.32-16.67-9.7-28.04-23.77-36.77-40.32l-36.59-21.13-54.85-31.64" class="color81d4c7 svgShape"></path><path fill="#7da6dd" d="M1311.39 1546.31c-.22 1.53-.45 3.35-.69 5.7-2.42 25.01-3.28 50.28-2.54 75.35 4.22 14.75 48.87 164.72 129.49 211.61 5.43 3.19 10.44 5.3 14.96 6.27.55-2.51 1.09-5.04 1.63-7.57 9.16-42.78 18.32-85.55 45.87-85.55 2.49 0 5.13.35 7.93 1.08.12-.25.23-.49.35-.73 3.64-7.65 14.69-30.93 38.58-30.93 7.97 0 16.31 2.54 25.52 7.77 42.29 24.09 54.05 87.24 66.51 154.1 4.42 23.75 8.97 48.14 14.97 70.53.55-.32 1.19-.5 1.87-.5 2.05 0 3.73 1.68 3.73 3.74v7.46c0 1.27-.64 2.4-1.62 3.07 5.09 3.82 9.17 10.18 10.4 16.08 7.65 3.13 14.34 4.52 20.26 4.52 21.68 0 32.95-18.6 42.86-37.92-33.4-30.4-55.22-74.31-55.22-125.9l-.01-67.52-364.85-210.66M1952.94 2082.73c6.13 7.9 13.4 14.64 22.31 19.82 7.81 4.57 15.05 6.88 21.53 6.88.76 0 1.51-.03 2.25-.09l-46.09-26.61" class="color6dcec1 svgShape"></path><path fill="#7da6dd" d="M1302.01 1534.84c-1.98 15.99-3.35 32.17-4.06 48.55-.62 14.92-.69 30.06-.24 45.58v.15c1.52 5.48 47.05 168.01 134.61 218.93 6.63 3.89 12.63 6.31 18 7.47.01 0 .01 0 .02 0 .77-3.39 1.52-6.83 2.27-10.28-4.52-.97-9.53-3.08-14.96-6.27-80.62-46.89-125.27-196.86-129.49-211.61-.74-25.07.12-50.34 2.54-75.35.24-2.35.47-4.17.69-5.7.31-2.2.62-3.8.93-5.52l-10.31-5.95m244.96 186.7c-23.89 0-34.94 23.28-38.58 30.93-.12.24-.23.48-.35.73 3.08.8 6.35 2.06 9.84 3.82.01-.01.01-.02.02-.04 6.96-14.64 15.75-24.91 29.07-24.91 5.83 0 12.52 1.97 20.31 6.39 54.33 30.94 54.46 143.24 78.94 226.81.97-.58 2.12-.88 3.41-.88.78 0 1.61.11 2.48.34 0-.03 0-.06 0-.09v-7.46c0-1.38.75-2.59 1.86-3.24-6-22.39-10.55-46.78-14.97-70.53-12.46-66.86-24.22-130.01-66.51-154.1-9.21-5.23-17.55-7.77-25.52-7.77M1933.17 2071.32c8.73 16.55 20.1 30.62 36.77 40.32 9.94 5.81 18.86 8.32 26.84 8.32 5.44 0 10.43-1.17 15.01-3.25l-12.76-7.37c-.74.06-1.49.09-2.25.09-6.48 0-13.72-2.31-21.53-6.88-8.91-5.18-16.18-11.92-22.31-19.82l-.66-.38-19.11-11.03" class="color6bccba svgShape"></path><path fill="#858989" d="m 1264.89,1462.09 c -1.3,0 -2.55,0.68 -3.24,1.88 -1.01,1.79 -0.4,4.06 1.39,5.09 l 413.19,236.59 v -8.6 l -409.49,-234.47 -1.85,-0.49" class="color858889 svgShape"></path><path fill="#ffffff" d="M1387.03 1891.27c-2.05 0-3.73 1.67-3.73 3.73l.01 7.46c0 2.06 1.68 3.74 3.73 3.74 2.06 0 3.73-1.68 3.73-3.74l-.01-7.46c0-2.06-1.67-3.73-3.73-3.73M1387 1862.56c-2.05 0-3.73 1.68-3.73 3.73l.02 14.31c.01 2.05 1.68 3.75 3.73 3.75h.01c2.06-.01 3.72-1.65 3.72-3.71l-.02-14.35c0-2.05-1.67-3.73-3.73-3.73zm-.02-28.68h-.01c-2.06.01-3.72 1.68-3.72 3.74l.01 14.34c0 2.06 1.67 3.74 3.73 3.74 2.06 0 3.73-1.68 3.73-3.74l-.01-14.36c-.01-2.05-1.68-3.72-3.73-3.72zm-.02-28.68h-.01c-2.06.01-3.72 1.67-3.72 3.74l.01 14.33c0 2.06 1.67 3.73 3.73 3.73 2.05 0 3.73-1.67 3.73-3.73l-.01-14.35c-.01-2.06-1.68-3.72-3.73-3.72zm0-28.69c-2.06 0-3.73 1.67-3.73 3.73v14.34c0 2.06 1.67 3.73 3.73 3.73 2.05 0 3.73-1.67 3.73-3.73v-14.34c0-2.06-1.68-3.73-3.73-3.73zm0-28.69c-2.06 0-3.73 1.68-3.73 3.74v14.34c0 2.05 1.67 3.73 3.73 3.73 2.05 0 3.73-1.68 3.73-3.73v-14.34c0-2.06-1.68-3.74-3.73-3.74zm.03-28.69c-2.06 0-3.73 1.68-3.73 3.73l-.01 14.34c0 2.06 1.67 3.74 3.73 3.74 2.05 0 3.73-1.68 3.73-3.74l.01-14.34c0-2.05-1.67-3.73-3.73-3.73zm.06-28.69c-2.05 0-3.72 1.66-3.73 3.72l-.03 14.34c0 2.07 1.67 3.73 3.72 3.74h.01c2.06 0 3.72-1.66 3.73-3.72l.03-14.34c0-2.07-1.66-3.73-3.72-3.74zm.14-28.69c-2.05 0-3.71 1.65-3.74 3.71l-.07 14.36c0 2.05 1.66 3.73 3.73 3.74h.01c2.05 0 3.72-1.67 3.73-3.72l.07-14.34c.01-2.06-1.65-3.73-3.71-3.75zm.24-28.69c-2.03 0-3.7 1.64-3.73 3.68-.06 4.13-.11 8.95-.15 14.38-.01 2.06 1.64 3.74 3.7 3.76 2.24.4 3.74-1.65 3.76-3.7.04-5.41.09-10.2.15-14.33.04-2.06-1.61-3.75-3.67-3.79zm1.75-28.61c-1.91 0-3.53 1.46-3.71 3.4-.44 4.75-.81 9.57-1.11 14.39-.14 2.05 1.43 3.83 3.48 3.96 2.44.25 3.84-1.44 3.96-3.49.3-4.76.67-9.49 1.09-14.19.2-2.06-1.31-3.86-3.37-4.05l-.34-.02M1391.61 1582.84c-1.84 0-3.45 1.37-3.7 3.24-.34 2.48-.65 4.96-.94 7.45-.25 2.05 1.22 3.9 3.27 4.14 2.06.21 3.91-1.23 4.13-3.27.29-2.45.61-4.89.94-7.33.27-2.04-1.16-3.92-3.21-4.19l-.49-.04M1924.71 2168.57c-2.05 0-3.73 1.68-3.73 3.74l.01 7.48c.01 2.05 1.68 3.71 3.73 3.71h.01c2.07-.01 3.73-1.69 3.72-3.74l-.01-7.45c0-2.06-1.67-3.74-3.73-3.74M1924.68 2139.87h-.01c-2.06.01-3.72 1.68-3.72 3.74l.01 14.34c0 2.06 1.67 3.73 3.73 3.73 2.05 0 3.73-1.67 3.73-3.73l-.01-14.36c-.01-2.05-1.68-3.72-3.73-3.72zm-.03-28.68h-.01c-2.06.01-3.72 1.67-3.72 3.74l.01 14.34c0 2.06 1.67 3.73 3.73 3.73 2.05 0 3.73-1.67 3.73-3.73l-.01-14.36c-.01-2.06-1.67-3.72-3.73-3.72zm-.01-28.69h-.01c-2.06.01-3.72 1.68-3.72 3.74l.01 14.34c0 2.05 1.67 3.73 3.73 3.73 2.06 0 3.73-1.68 3.73-3.73l-.01-14.35c-.01-2.06-1.67-3.73-3.73-3.73zm0-28.7c-2.06 0-3.73 1.68-3.73 3.73v14.34c0 2.06 1.67 3.74 3.73 3.74 2.06 0 3.73-1.68 3.73-3.74v-14.34c0-2.05-1.67-3.73-3.73-3.73zm0-28.67c-2.06 0-3.73 1.68-3.73 3.73v14.34c0 2.06 1.67 3.73 3.73 3.73 2.06 0 3.73-1.67 3.73-3.73v-14.34c0-2.05-1.67-3.73-3.73-3.73zm.03-28.69c-2.06 0-3.73 1.67-3.73 3.73l-.01 14.34c0 2.06 1.67 3.73 3.73 3.73 2.05 0 3.73-1.67 3.73-3.73l.01-14.34c0-2.06-1.68-3.73-3.73-3.73zm.06-28.69c-2.05 0-3.72 1.67-3.73 3.72l-.03 14.35c0 2.06 1.66 3.73 3.72 3.74h.01c2.06 0 3.72-1.66 3.73-3.72l.03-14.35c0-2.06-1.66-3.73-3.72-3.74zm.12-28.69c-2.04 0-3.71 1.66-3.73 3.71l-.07 14.36c-.01 2.06 1.66 3.73 3.72 3.75h.01c2.06 0 3.73-1.67 3.74-3.73l.07-14.34c.01-2.05-1.65-3.73-3.72-3.75zm.26-28.7c-2.03 0-3.7 1.63-3.73 3.68-.06 4.13-.11 8.94-.15 14.37-.01 2.07 1.64 3.74 3.7 3.76h.03c2.04 0 3.71-1.65 3.73-3.7.04-5.4.09-10.2.15-14.33.03-2.06-1.61-3.75-3.68-3.78zm1.75-28.6c-1.91 0-3.54 1.46-3.71 3.39-.44 4.76-.82 9.57-1.11 14.39-.13 2.06 1.43 3.84 3.48 3.96 2.32.12 3.83-1.45 3.96-3.49.3-4.76.67-9.48 1.09-14.18.2-2.06-1.32-3.87-3.37-4.05l-.34-.02M1929.29 1860.15c-1.84 0-3.45 1.36-3.7 3.24-.34 2.46-.65 4.95-.95 7.43-.25 2.05 1.21 3.91 3.25 4.15 2.19.3 3.9-1.21 4.15-3.25.3-2.45.62-4.9.95-7.35.26-2.03-1.16-3.91-3.21-4.19l-.49-.03M1655.84 1953.44c-2.06 0-3.73 1.68-3.73 3.74v7.46c0 2.05 1.67 3.73 3.73 3.73 2.05 0 3.73-1.68 3.73-3.73v-7.46c0-2.06-1.68-3.74-3.73-3.74M1655.82 1925.47h-.01c-2.06.01-3.72 1.67-3.72 3.74l.01 13.98c0 2.06 1.67 3.73 3.73 3.73 2.05 0 3.73-1.67 3.73-3.73l-.01-14c-.01-2.06-1.68-3.72-3.73-3.72zm-.02-27.99h-.02c-2.05.02-3.72 1.68-3.72 3.75l.01 13.98c0 2.06 1.68 3.73 3.74 3.73 2.05 0 3.73-1.67 3.73-3.73l-.01-14c-.01-2.06-1.68-3.73-3.73-3.73zm0-27.98c-2.06 0-3.74 1.68-3.74 3.74v14c0 2.05 1.68 3.73 3.74 3.73 2.05 0 3.73-1.68 3.73-3.73v-14c0-2.06-1.68-3.74-3.73-3.74zm.04-27.97c-2.06 0-3.72 1.67-3.73 3.72l-.04 13.99c0 2.07 1.67 3.73 3.73 3.74h.01c2.05 0 3.72-1.66 3.73-3.72l.03-13.99c0-2.06-1.67-3.73-3.72-3.74zm.11-28c-2.05 0-3.71 1.66-3.73 3.72l-.08 14c-.01 2.07 1.66 3.74 3.72 3.75h.01c2.06 0 3.73-1.67 3.74-3.71l.07-14c.01-2.06-1.65-3.74-3.71-3.76zm.28-27.94c-2.04 0-3.7 1.64-3.73 3.68l-.17 14c-.02 2.06 1.64 3.75 3.69 3.77h.04c2.05 0 3.71-1.64 3.74-3.69l.16-13.99c.02-2.06-1.62-3.75-3.69-3.77zm1.76-27.95c-1.91 0-3.53 1.45-3.71 3.38-.44 4.67-.8 9.35-1.1 14.07-.13 2.05 1.43 3.82 3.49 3.96 2.39.16 3.83-1.44 3.96-3.49.29-4.64.66-9.25 1.08-13.84.19-2.05-1.32-3.87-3.36-4.06l-.36-.02M1660.4 1736.34c-1.84 0-3.44 1.37-3.7 3.24-.33 2.47-.65 4.96-.95 7.45-.24 2.05 1.22 3.9 3.26 4.15 2.01.3 3.9-1.22 4.15-3.27.29-2.45.61-4.9.94-7.34.27-2.04-1.16-3.92-3.21-4.2l-.49-.03" class="colorfff svgShape"></path><path fill="#858989" d="m 1374.24,1908.06 c -0.12,0.66 -0.18,1.37 -0.18,2.12 0,7.48 5.78,16.87 12.9,20.98 2.25,1.3 4.36,1.91 6.2,1.91 3.99,0 6.69,-2.89 6.69,-8 0,-1.03 -0.11,-2.09 -0.32,-3.17 -3.85,-1.1 -8,-2.91 -12.49,-5.5 -4.49,-2.6 -8.75,-5.38 -12.8,-8.34" class="color858889 svgShape"></path><path fill="#498b91" d="m 1380.76,1902.18 c -3.4,0 -5.87,2.1 -6.52,5.88 4.05,2.96 8.31,5.74 12.8,8.34 4.49,2.59 8.64,4.4 12.49,5.5 -1.14,-5.96 -5.25,-12.46 -10.39,-16.35 -0.6,0.41 -1.32,0.65 -2.1,0.65 -2.03,0 -3.68,-1.64 -3.73,-3.66 -0.89,-0.24 -1.75,-0.36 -2.55,-0.36" class="color499184 svgShape"></path><path fill="#8c8f8f" d="m 1383.31,1902.54 c 0.05,2.02 1.7,3.66 3.73,3.66 0.78,0 1.5,-0.24 2.1,-0.65 -0.71,-0.54 -1.44,-1.02 -2.18,-1.45 -1.27,-0.73 -2.49,-1.25 -3.65,-1.56" class="color8c8f8f svgShape"></path><path fill="#858989" d="m 1643.33,1969.32 c -0.26,0.91 -0.39,1.94 -0.39,3.07 0,7.47 5.77,16.86 12.89,20.97 0.05,0.03 0.11,0.07 0.16,0.1 -2.69,-6.51 -5.14,-13.33 -7.39,-20.39 -1.82,-1.22 -3.58,-2.47 -5.27,-3.75" class="color858889 svgShape"></path><path fill="#6c888b" d="m 1662.48,1981.14 c 1.51,4.1 3.07,8 4.68,11.7 1,-1.35 1.57,-3.22 1.57,-5.56 0,-1.13 -0.14,-2.3 -0.38,-3.49 -1.9,-0.77 -3.85,-1.66 -5.87,-2.65" class="color6c8b86 svgShape"></path><path fill="#6d7273" d="m 1648.6,1973.07 c 2.25,7.06 4.7,13.88 7.39,20.39 2.19,1.23 4.25,1.82 6.05,1.82 2.16,0 3.94,-0.85 5.12,-2.44 -1.61,-3.7 -3.17,-7.6 -4.68,-11.7 -2.14,-1.06 -4.36,-2.25 -6.65,-3.57 -2.51,-1.45 -4.92,-2.95 -7.23,-4.5" class="color6d7173 svgShape"></path><path fill="#498b91" d="m 1646.22,1965.27 c -1.37,0.82 -2.38,2.19 -2.89,4.05 1.69,1.28 3.45,2.53 5.27,3.75 -0.02,-0.06 -0.04,-0.12 -0.05,-0.18 -0.81,-2.51 -1.58,-5.05 -2.33,-7.62" class="color499184 svgShape"></path><path fill="#3b8b92" d="m 1657.95,1967.71 v 0 c 0.2,0.67 0.41,1.34 0.63,2 1.26,3.97 2.56,7.78 3.9,11.43 2.02,0.99 3.97,1.88 5.87,2.65 -1.23,-5.9 -5.31,-12.26 -10.4,-16.08" class="color3b9283 svgShape"></path><path fill="#3b7c82" d="m 1649.63,1964.39 c -1.29,0 -2.44,0.3 -3.41,0.88 0.75,2.57 1.52,5.11 2.33,7.62 0.01,0.06 0.03,0.12 0.05,0.18 2.31,1.55 4.72,3.05 7.23,4.5 2.29,1.32 4.51,2.51 6.65,3.57 -1.34,-3.65 -2.64,-7.46 -3.9,-11.43 -0.22,-0.66 -0.43,-1.33 -0.63,-2 -0.6,0.42 -1.33,0.66 -2.11,0.66 -2.03,0 -3.69,-1.63 -3.73,-3.64 -0.87,-0.23 -1.7,-0.34 -2.48,-0.34" class="color3b8278 svgShape"></path><path fill="#8c8f8f" d="m 1652.11,1964.73 c 0.04,2.01 1.7,3.64 3.73,3.64 0.78,0 1.51,-0.24 2.11,-0.66 v 0 c -0.69,-0.52 -1.4,-0.99 -2.12,-1.41 -1.29,-0.74 -2.54,-1.26 -3.72,-1.57" class="color8c8f8f svgShape"></path><path fill="#858989" d="m 1911.79,2171.08 c -0.04,0.4 -0.06,0.82 -0.06,1.25 0,7.47 5.77,16.86 12.89,20.97 2.25,1.3 4.37,1.92 6.21,1.92 3.99,0 6.69,-2.89 6.69,-8 0,-0.35 -0.02,-0.71 -0.04,-1.06 -3.05,-1.26 -6.23,-2.76 -9.52,-4.53 -0.64,1.11 -1.85,1.86 -3.23,1.87 h -0.01 c -2.05,0 -3.72,-1.66 -3.73,-3.71 l -0.01,-2.22 c -3.2,-2.02 -6.27,-4.19 -9.19,-6.49" class="color858889 svgShape"></path><path fill="#498b91" d="m 1918.42,2164.32 c -3.65,0 -6.23,2.43 -6.63,6.76 2.92,2.3 5.99,4.47 9.19,6.49 v -5.26 c 0,-2.06 1.68,-3.74 3.73,-3.74 2.06,0 3.73,1.68 3.73,3.74 l 0.01,7.45 c 0.01,0.68 -0.17,1.32 -0.49,1.87 3.29,1.77 6.47,3.27 9.52,4.53 -0.51,-7.29 -6.07,-16 -12.86,-19.92 -2.25,-1.3 -4.36,-1.92 -6.2,-1.92" class="color499184 svgShape"></path><path fill="#8c8f8f" d="m 1924.71,2168.57 c -2.05,0 -3.73,1.68 -3.73,3.74 v 5.26 l 0.01,2.22 c 0.01,2.05 1.68,3.71 3.73,3.71 h 0.01 c 1.38,-0.01 2.59,-0.76 3.23,-1.87 0.32,-0.55 0.5,-1.19 0.49,-1.87 l -0.01,-7.45 c 0,-2.06 -1.67,-3.74 -3.73,-3.74" class="color8c8f8f svgShape"></path><path fill="#858989" d="m 1257.19,1505.23 c -1.85,0 -3.46,1.37 -3.7,3.25 -1.75,13.72 -2.94,27.64 -3.75,41.64 l -10.69,-6.17 -1.86,-0.5 c -1.28,0 -2.54,0.67 -3.22,1.87 -1.03,1.78 -0.42,4.06 1.36,5.09 l 13.95,8.05 c -0.55,12.69 -0.67,25.46 -0.44,38.24 l -9.78,-5.65 -1.86,-0.5 c -1.28,0 -2.54,0.67 -3.22,1.87 -1.03,1.78 -0.42,4.06 1.36,5.09 l 13.57,7.84 v 38.49 l -9.84,-5.68 -1.85,-0.5 c -1.29,0 -2.54,0.66 -3.24,1.87 -1.02,1.78 -0.41,4.06 1.37,5.09 l 13.56,7.83 v 38.5 l -9.82,-5.67 -1.86,-0.51 c -1.29,0 -2.55,0.67 -3.23,1.88 -1.03,1.77 -0.42,4.06 1.36,5.08 l 13.55,7.82 v 38.5 l -9.81,-5.67 -1.87,-0.5 c -1.28,0 -2.54,0.67 -3.22,1.87 -1.03,1.78 -0.43,4.06 1.37,5.09 l 13.53,7.81 v 38.5 l -9.8,-5.66 -1.86,-0.51 c -1.29,0 -2.54,0.67 -3.23,1.87 -1.03,1.78 -0.43,4.07 1.37,5.09 l 13.52,7.81 v 38.51 l -9.79,-5.66 -1.86,-0.5 c -1.29,0 -2.54,0.67 -3.24,1.87 -1.02,1.78 -0.42,4.06 1.38,5.09 l 13.51,7.8 v 38.5 l -9.78,-5.65 -1.86,-0.51 c -1.29,0 -2.54,0.67 -3.23,1.88 -1.03,1.78 -0.43,4.06 1.37,5.09 l 13.5,7.79 v 44.86 c 0,2.06 1.68,3.73 3.73,3.73 2.06,0 3.74,-1.67 3.74,-3.73 v -40.54 l 9.75,5.63 c 0.58,0.34 1.22,0.51 1.86,0.51 1.28,0 2.54,-0.67 3.23,-1.88 1.03,-1.78 0.42,-4.06 -1.37,-5.09 l -13.47,-7.78 v -38.5 l 9.74,5.62 c 0.59,0.35 1.23,0.51 1.86,0.51 1.28,0 2.54,-0.67 3.23,-1.88 1.03,-1.77 0.43,-4.05 -1.36,-5.08 l -13.47,-7.78 v -38.49 l 9.73,5.62 c 0.59,0.34 1.24,0.5 1.87,0.5 1.28,0 2.53,-0.66 3.22,-1.87 1.03,-1.78 0.42,-4.06 -1.36,-5.09 l -13.46,-7.77 v -38.49 l 9.72,5.61 c 0.58,0.34 1.23,0.51 1.86,0.51 1.28,0 2.54,-0.67 3.23,-1.88 1.03,-1.77 0.42,-4.05 -1.36,-5.08 l -13.45,-7.77 v -38.5 l 9.71,5.61 c 0.59,0.34 1.22,0.5 1.86,0.5 1.28,0 2.54,-0.67 3.23,-1.87 1.03,-1.78 0.42,-4.06 -1.36,-5.09 l -13.44,-7.75 v -38.5 l 9.7,5.6 c 0.59,0.34 1.23,0.51 1.86,0.51 1.28,0 2.54,-0.67 3.23,-1.87 1.03,-1.78 0.42,-4.07 -1.36,-5.09 l -13.43,-7.76 v -38.49 l 9.69,5.6 c 0.58,0.34 1.22,0.5 1.86,0.5 1.28,0 2.54,-0.66 3.23,-1.87 1.03,-1.78 0.42,-4.06 -1.36,-5.09 l -13.45,-7.76 c -0.32,-12.83 -0.19,-25.62 0.28,-38.34 l 9.43,5.44 c 0.58,0.34 1.22,0.5 1.86,0.5 1.28,0 2.54,-0.66 3.23,-1.87 1.03,-1.77 0.42,-4.05 -1.37,-5.09 l -12.84,-7.4 c 0.78,-15.11 2.07,-30.1 3.95,-44.85 0.26,-2.05 -1.18,-3.92 -3.23,-4.18 l -0.47,-0.02" class="color858889 svgShape"></path><path fill="#406fbf" d="m 2204.2,1613.38 -716.26,-413.54 c -25.18,-14.53 -61.67,-12.8 -79.71,5.75 -18.04,18.55 -10.66,46.85 14.52,61.38 l 716.05,413.43 c 25.18,14.53 58.66,9.83 76.75,-8.69 18.09,-18.52 13.82,-43.79 -11.35,-58.33" class="color26b6a6 svgShape"></path><path fill="#858989" d="M1278.14 1412.22c-1.81 0-3.59.94-4.55 2.63-1.46 2.52-.6 5.74 1.92 7.19l400.71 231.35v-12.15l-395.45-228.32-2.63-.7M1294.63 1368.6c-1.81 0-3.58.95-4.56 2.63-1.45 2.52-.59 5.74 1.93 7.19l384.21 221.83v-12.15l-378.95-218.79-2.63-.71M1314.99 1326.78c-1.81 0-3.59.94-4.56 2.63-1.46 2.52-.59 5.74 1.92 7.19l363.85 210.07v-12.15l-358.58-207.04-2.63-.7M1339.02 1286.97c-1.81 0-3.58.95-4.55 2.63-1.46 2.52-.6 5.74 1.92 7.19l339.8 196.19v-12.15l-334.53-193.15-2.64-.71" class="color858889 svgShape"></path></g><path fill="#406fbf" d="m 2043.37,2058.57 663.88,383.23 c 25.17,14.54 65.28,23.17 87.85,14.05 22.57,-9.11 18.25,-32.7 -6.92,-47.23 l -671.62,-387.69 c -25.18,-14.53 -60.99,-16.06 -81.05,-5.23 -20.05,10.82 -17.31,28.34 7.86,42.87" class="color26b6a6 svgShape"></path><path fill="#898c8c" d="M2120.36 1953.2c-1.81 0-3.59.94-4.55 2.63-1.46 2.52-.6 5.73 1.92 7.18l765.2 441.72c.83.48 1.73.71 2.63.71 1.82 0 3.59-.95 4.56-2.64 1.46-2.52.59-5.73-1.93-7.18l-765.2-441.71-2.63-.71M2152.05 1918.98c-1.8 0-3.58.95-4.55 2.64-1.46 2.52-.59 5.73 1.92 7.18l766.39 442.38c.83.48 1.74.71 2.64.71 1.82 0 3.58-.94 4.55-2.63 1.45-2.52.59-5.74-1.92-7.19l-766.4-442.38-2.63-.71M2278.95 1527.76h-.01c-2.06.01-3.72 1.67-3.72 3.74l.14 40.6c.12 30.58.12 30.58-.76 51.24l-.16 3.42c-2.91 49.54-12.08 96.11-27.26 138.37-13.34 40.14-35.89 79.54-68.98 120.52-1.3 1.61-1.05 3.95.55 5.25.69.55 1.53.82 2.35.82 1.09 0 2.17-.47 2.9-1.38 33.68-41.7 56.64-81.86 70.22-122.78 15.39-42.84 24.72-90.1 27.68-140.42l.15-3.48c.89-20.84.89-20.84.76-51.59l-.13-40.59c-.01-2.06-1.68-3.72-3.73-3.72" class="color898b8c svgShape"></path><path fill="#406fbf" d="M2271.26 1847.12c-3.4 5.99-7.08 11.86-11 17.65-4.07 6.03-2.5 13.69 3.8 17.32l292.4 168.8c6.29 3.64 14.83 1.8 18.62-4.41 3.52-5.76 6.85-11.8 10.11-18.14 3.32-6.47.74-14.74-5.56-18.37L2288.85 1842.1c-6.29-3.63-13.99-1.29-17.59 5.02M2299.72 1779.78c2.19-6.72 4.2-13.37 6.02-19.95 1.94-7 8.42-9.79 14.71-6.15l693.74 400.44c6.29 3.63 9.98 12.3 8.06 19.31-1.91 6.95-3.88 13.61-5.92 20.01-2.22 6.93-9.29 9.53-15.59 5.9l-693.85-400.52c-6.3-3.63-9.42-12.14-7.17-19.04" class="color26b6a6 svgShape"></path><path fill="#7da6dd" d="m 2314.9,1752.08 c -4.2,0 -7.8,2.84 -9.16,7.75 -1.82,6.58 -3.83,13.23 -6.02,19.95 -0.49,1.51 -0.73,3.09 -0.73,4.69 0,5.7 2.98,11.51 7.9,14.35 l 693.85,400.52 c 1.93,1.11 3.92,1.63 5.83,1.63 4.34,0 8.22,-2.72 9.76,-7.53 2.04,-6.4 4.01,-13.06 5.92,-20.01 0.34,-1.26 0.51,-2.57 0.51,-3.9 0,-6.06 -3.41,-12.43 -8.57,-15.41 l -693.74,-400.44 c -1.87,-1.08 -3.77,-1.6 -5.55,-1.6" class="colora1dfd6 svgShape"></path><path fill="#406fbf" d="m 2319.92,1687.45 c 0.9,-7.38 1.65,-14.58 2.22,-21.55 0.58,-7.24 5.94,-10.19 12.23,-6.55 l 469.96,271.27 c 6.3,3.63 11.09,12.47 10.51,19.71 -0.59,7.21 -1.33,14.37 -2.22,21.48 -0.89,7.21 -6.89,10.09 -13.18,6.46 l -469.83,-271.2 c -6.29,-3.64 -10.58,-12.41 -9.69,-19.62" class="color26b6a6 svgShape"></path><path fill="#406fbf" d="m 2329.21,1657.79 c -3.84,0 -6.66,2.97 -7.07,8.11 -0.57,6.97 -1.32,14.17 -2.22,21.55 -0.08,0.62 -0.12,1.25 -0.12,1.89 -0.01,6.79 4.06,14.4 9.81,17.73 l 469.83,271.2 c 1.85,1.07 3.67,1.57 5.34,1.57 4.03,0 7.21,-2.93 7.84,-8.03 0.89,-7.11 1.63,-14.27 2.22,-21.48 0.03,-0.39 0.04,-0.79 0.04,-1.2 0.01,-6.99 -4.6,-15.08 -10.55,-18.51 l -469.96,-271.27 c -1.83,-1.06 -3.58,-1.56 -5.16,-1.56" class="color19b19d svgShape"></path><path fill="#406fbf" d="m 2323.74,1591.63 v -21.14 c 0,-7.26 5.11,-10.21 11.4,-6.57 l 201.2,116.14 c 6.29,3.63 11.4,12.46 11.4,19.73 v 21.14 c 0,7.27 -5.11,10.22 -11.4,6.58 l -201.2,-116.14 c -6.3,-3.64 -11.4,-12.48 -11.4,-19.74" class="color26b6a6 svgShape"></path><path fill="#7da6dd" d="m 2330.05,1562.36 c -3.74,0 -6.31,2.98 -6.31,8.13 v 21.14 c 0,7.26 5.1,16.1 11.4,19.74 l 201.2,116.14 c 1.83,1.06 3.55,1.56 5.09,1.56 3.74,0 6.31,-2.98 6.31,-8.14 v -21.14 c 0,-7.27 -5.11,-16.1 -11.4,-19.73 l -201.2,-116.14 c -1.83,-1.06 -3.56,-1.56 -5.09,-1.56" class="color70cec3 svgShape"></path><path fill="#898c8c" d="m 2320.13,1482.2 c -1.29,0 -2.54,0.67 -3.23,1.87 -1.02,1.77 -0.42,4.06 1.37,5.08 l 46.54,26.87 v 15.43 c 0,2.06 1.68,3.73 3.73,3.73 2.06,0 3.73,-1.67 3.73,-3.73 v -11.12 l 53.64,30.95 v 15.68 c 0,2.05 1.67,3.73 3.73,3.73 2.05,0 3.73,-1.68 3.73,-3.73 v -11.37 l 53.62,30.95 v 15.92 c 0,2.05 1.67,3.73 3.73,3.73 2.06,0 3.73,-1.68 3.73,-3.73 v -11.61 l 53.63,30.95 v 16.16 c 0,2.05 1.68,3.73 3.73,3.73 2.06,0 3.73,-1.68 3.73,-3.73 v -11.85 l 53.62,30.95 v 16.41 c 0,2.05 1.68,3.73 3.74,3.73 2.05,0 3.73,-1.68 3.73,-3.73 v -12.1 l 53.62,30.95 v 16.65 c 0,2.05 1.68,3.73 3.73,3.73 2.06,0 3.74,-1.68 3.74,-3.73 v -12.34 l 53.62,30.95 v 16.88 c 0,2.06 1.67,3.73 3.73,3.73 2.06,0 3.73,-1.67 3.73,-3.73 v -12.57 l 53.62,30.95 v 17.12 c 0,2.06 1.68,3.73 3.73,3.73 2.06,0 3.73,-1.67 3.73,-3.73 v -12.81 l 53.65,30.96 v 17.36 c 0,2.05 1.67,3.73 3.73,3.73 2.05,0 3.73,-1.68 3.73,-3.73 v -13.06 l 53.62,30.95 v 17.61 c 0,2.05 1.68,3.73 3.73,3.73 2.06,0 3.73,-1.68 3.73,-3.73 v -13.3 l 53.62,30.95 v 17.85 c 0,2.05 1.68,3.73 3.74,3.73 2.05,0 3.73,-1.68 3.73,-3.73 v -13.54 l 53.62,30.95 v 18.09 c 0,2.06 1.68,3.74 3.73,3.74 2.06,0 3.74,-1.68 3.74,-3.74 v -39.18 c 0,-2.06 -1.68,-3.74 -3.74,-3.74 -2.05,0 -3.73,1.68 -3.73,3.74 v 12.49 l -53.62,-30.95 v -17.06 c 0,-2.05 -1.68,-3.73 -3.73,-3.73 -2.06,0 -3.74,1.68 -3.74,3.73 v 12.75 l -53.62,-30.95 v -17.29 c 0,-2.06 -1.67,-3.73 -3.73,-3.73 -2.05,0 -3.73,1.67 -3.73,3.73 v 12.98 l -53.62,-30.95 v -17.53 c 0,-2.06 -1.68,-3.73 -3.73,-3.73 -2.06,0 -3.73,1.67 -3.73,3.73 v 13.22 l -53.65,-30.96 v -17.76 c 0,-2.05 -1.67,-3.73 -3.73,-3.73 -2.05,0 -3.73,1.68 -3.73,3.73 v 13.45 l -53.62,-30.94 v -18.02 c 0,-2.05 -1.67,-3.73 -3.73,-3.73 -2.06,0 -3.73,1.68 -3.73,3.73 v 13.7 l -53.62,-30.95 v -18.25 c 0,-2.05 -1.68,-3.73 -3.74,-3.73 -2.05,0 -3.73,1.68 -3.73,3.73 v 13.95 l -53.62,-30.96 v -18.48 c 0,-2.06 -1.68,-3.74 -3.73,-3.74 -2.06,0 -3.74,1.68 -3.74,3.74 v 14.18 l -53.62,-30.96 v -18.74 c 0,-2.05 -1.67,-3.73 -3.73,-3.73 -2.05,0 -3.73,1.68 -3.73,3.73 v 14.44 l -53.63,-30.95 v -18.98 c 0,-2.06 -1.67,-3.73 -3.73,-3.73 -2.06,0 -3.73,1.67 -3.73,3.73 v 14.67 l -53.62,-30.95 v -19.22 c 0,-2.06 -1.68,-3.73 -3.73,-3.73 -2.06,0 -3.73,1.67 -3.73,3.73 v 14.91 l -53.64,-30.96 v -19.45 c 0,-2.05 -1.67,-3.73 -3.73,-3.73 -2.05,0 -3.73,1.68 -3.73,3.73 v 15.15 l -42.82,-24.72 -1.86,-0.5" class="color898b8c svgShape"></path><path fill="#406fbf" d="m 2452.51,1433.8 c -12.32,-2.63 -25.48,-7.79 -39.06,-15.79 -74.22,-43.58 -134.33,-152.64 -134.33,-243.6 0,-2.42 0,-4.74 0.11,-7.06 l 134.11,61.38 39.17,205.07" class="color26b6a6 svgShape"></path><path fill="#406fbf" d="m 2452.51,1433.8 -39.17,-205.07 132.97,77.16 c 0.95,8.32 1.46,16.63 1.46,24.85 0,74.85 -40.1,114.64 -95.26,103.06" class="color26b6a6 svgShape"></path><path fill="#406fbf" d="M2529.46 1236.73c8.53 22.84 14.43 46.32 16.85 69.16l-132.97-77.16 116.12 8M2279.23 1167.35c3.05-86 62.01-121.9 134.22-80.21 49.59 28.63 92.85 86.74 116.01 149.59l-116.12-8-134.11-61.38" class="color26b6a6 svgShape"></path><path fill="#7da6dd" d="m 2413.34,1228.73 39.17,205.07 c 6.34,1.33 12.46,1.98 18.36,1.98 45.47,0 76.9,-38.79 76.9,-105.04 0,-8.22 -0.51,-16.53 -1.46,-24.85 l -132.97,-77.16" class="colora1dfd6 svgShape"></path><path fill="#406fbf" d="m 2413.34,1228.73 132.97,77.16 c -2.42,-22.84 -8.32,-46.32 -16.85,-69.16 l -116.12,-8" class="color19b19d svgShape"></path><path fill="#7da6dd" d="m 2356.32,1069.76 c -43.96,0 -74.9,35.91 -77.09,97.59 l 134.11,61.38 116.12,8 c -23.16,-62.85 -66.42,-120.96 -116.01,-149.59 -20.43,-11.79 -39.79,-17.38 -57.13,-17.38" class="color70cec3 svgShape"></path><path fill="#ffffff" d="m 2452.51,1433.8 -1.1,5.15 c -12.95,-2.77 -26.62,-8.15 -40.63,-16.41 v 0.01 c -38.21,-22.47 -72.24,-61.29 -96.93,-106.03 -24.66,-44.76 -39.97,-95.48 -39.99,-142.11 0,-2.42 0,-4.82 0.11,-7.3 0.08,-1.74 1.03,-3.34 2.52,-4.25 1.49,-0.91 3.35,-1.02 4.93,-0.29 l 134.11,61.37 c 1.55,0.71 2.66,2.13 2.98,3.8 l 39.17,205.07 c 0.33,1.73 -0.23,3.52 -1.49,4.75 -1.26,1.23 -3.06,1.75 -4.78,1.39 l 1.1,-5.15 -5.17,0.99 -38.66,-202.4 -131.64,-60.25 2.19,-4.79 5.26,0.25 c -0.1,2.15 -0.1,4.39 -0.1,6.81 -0.02,44.32 14.72,93.62 38.67,137.02 23.92,43.43 57.05,80.93 93.05,102.04 h 0.01 c 13.16,7.75 25.79,12.68 37.49,15.18 l -1.1,5.15 -5.17,0.99 5.17,-0.99" class="colorfff svgShape"></path><path fill="#ffffff" d="m 2452.51,1433.8 -5.17,0.99 -39.17,-205.07 c -0.39,-2.03 0.44,-4.09 2.13,-5.28 1.68,-1.2 3.9,-1.3 5.68,-0.26 l 132.97,77.16 c 1.45,0.84 2.4,2.3 2.59,3.96 0.97,8.49 1.5,17 1.5,25.44 -0.01,33.94 -8.02,61.34 -22.46,80.53 -14.39,19.21 -35.46,29.84 -59.7,29.77 -6.29,0 -12.79,-0.69 -19.45,-2.09 -2.08,-0.44 -3.69,-2.07 -4.09,-4.16 l 5.17,-0.99 1.08,-5.15 c 6,1.26 11.78,1.87 17.29,1.87 21.22,-0.07 38.6,-8.83 51.29,-25.58 12.65,-16.77 20.35,-41.89 20.34,-74.2 0,-7.99 -0.5,-16.11 -1.43,-24.25 l 5.23,-0.6 -2.64,4.56 -123,-71.38 37.01,193.74 -5.17,0.99 1.08,-5.15 -1.08,5.15" class="colorfff svgShape"></path><path fill="#ffffff" d="m 2529.46,1236.73 4.94,-1.84 c 8.65,23.21 14.67,47.09 17.14,70.45 0.21,1.97 -0.7,3.89 -2.37,4.97 -1.66,1.08 -3.79,1.13 -5.5,0.14 l -132.97,-77.17 c -2.12,-1.23 -3.11,-3.75 -2.39,-6.09 0.72,-2.34 2.95,-3.88 5.39,-3.71 l 116.13,8 c 2.05,0.14 3.84,1.47 4.57,3.41 l -4.94,1.84 -0.36,5.25 -93.54,-6.44 113.39,65.8 -2.64,4.55 -5.23,0.56 c -2.37,-22.33 -8.16,-45.4 -16.55,-67.88 l 4.93,-1.84 -0.36,5.25 0.36,-5.25" class="colorfff svgShape"></path><path fill="#ffffff" d="m 2279.23,1167.35 -5.26,-0.18 c 1.13,-31.67 9.62,-57.21 24.05,-75.05 14.39,-17.87 34.88,-27.67 58.3,-27.62 18.48,0 38.72,5.94 59.76,18.08 51.06,29.56 94.74,88.5 118.32,152.33 0.62,1.67 0.34,3.55 -0.72,4.98 -1.07,1.42 -2.8,2.21 -4.58,2.09 l -116.12,-8 -1.83,-0.46 -134.11,-61.38 c -1.94,-0.89 -3.15,-2.85 -3.07,-4.97 l 5.26,0.18 2.19,-4.78 133.24,60.98 115.17,7.93 -0.37,5.25 -4.93,1.82 c -22.75,-61.87 -65.6,-119.15 -113.71,-146.85 -19.81,-11.44 -38.3,-16.68 -54.5,-16.67 -20.54,0.05 -37.49,8.2 -50.12,23.71 -12.58,15.53 -20.65,38.78 -21.71,68.8 l -5.26,-0.19 2.19,-4.78 -2.19,4.78" class="colorfff svgShape"></path><path fill="#406fbf" d="M2845.38 1650.77c-43.68-52.64-73.58-126.12-73.58-190.76 0-29.37 6.21-53.48 16.95-71.16l117.37 148.85-60.74 113.07M2966.76 1721.19c-18.21.85-38.84-4.63-60.64-17.26-21.89-12.64-42.52-31.06-60.74-53.16l60.74-113.07 60.64 183.49" class="color26b6a6 svgShape"></path><path fill="#406fbf" d="m 3028.03,1678.24 c -12.74,26.53 -34.43,41.69 -61.27,42.95 l -60.64,-183.49 121.91,140.54" class="color26b6a6 svgShape"></path><path fill="#406fbf" d="M 3028.03,1678.24 2906.12,1537.7 2788.75,1388.85 c 23.05,-37.48 66.94,-46.53 117.37,-17.37 74.22,42.85 134.44,152.01 134.44,243.92 0,25.05 -4.52,46.21 -12.53,62.84" class="color26b6a6 svgShape"></path><path fill="#7da6dd" d="m 2906.12,1537.7 v 0 l -60.74,113.07 c 18.22,22.1 38.85,40.52 60.74,53.16 20.35,11.79 39.67,17.35 56.97,17.35 1.23,0 2.46,-0.03 3.67,-0.09 l -60.64,-183.49" class="colora1dfd6 svgShape"></path><path fill="#406fbf" d="m 2906.12,1537.7 60.64,183.49 c 26.84,-1.26 48.53,-16.42 61.27,-42.95 L 2906.12,1537.7" class="color19b19d svgShape"></path><path fill="#7da6dd" d="m 2849.37,1354.2 c -25.62,0 -46.84,12.25 -60.62,34.65 l 117.37,148.85 121.91,140.54 c 8.01,-16.63 12.53,-37.79 12.53,-62.84 0,-91.91 -60.22,-201.07 -134.44,-243.92 -20.28,-11.73 -39.51,-17.28 -56.75,-17.28" class="color70cec3 svgShape"></path><path fill="#ffffff" d="m 2845.38,1650.77 -4.05,3.36 c -44.41,-53.6 -74.73,-127.87 -74.8,-194.12 0.01,-30.1 6.35,-55.15 17.72,-73.9 0.9,-1.47 2.46,-2.41 4.18,-2.52 1.72,-0.1 3.39,0.64 4.45,2 l 117.38,148.86 c 1.3,1.64 1.49,3.9 0.5,5.75 l -60.74,113.06 c -0.83,1.53 -2.38,2.57 -4.11,2.74 -1.74,0.18 -3.47,-0.53 -4.58,-1.87 l 4.05,-3.36 -4.63,-2.49 59.1,-110.03 -115.23,-146.14 4.13,-3.26 4.5,2.73 c -10.11,16.63 -16.19,39.79 -16.19,68.43 -0.06,63.03 29.42,135.72 72.37,187.4 l -4.05,3.36 -4.63,-2.49 4.63,2.49" class="colorfff svgShape"></path><path fill="#ffffff" d="m 2966.76,1721.19 0.24,5.26 c -1.29,0.06 -2.6,0.09 -3.91,0.09 -18.43,-0.01 -38.64,-5.9 -59.61,-18.06 h 0.01 c -22.57,-13.02 -43.63,-31.87 -62.17,-54.37 -1.35,-1.64 -1.58,-3.96 -0.57,-5.83 l 60.74,-113.07 c 0.99,-1.84 3,-2.93 5.09,-2.75 2.09,0.18 3.88,1.6 4.54,3.59 l 60.64,183.49 c 0.52,1.57 0.27,3.27 -0.66,4.63 -0.94,1.37 -2.45,2.2 -4.1,2.28 l -0.24,-5.26 -5,1.65 -56.79,-171.86 -54.95,102.28 -4.64,-2.49 4.06,-3.35 c 17.89,21.71 38.1,39.71 59.31,51.95 h 0.01 c 19.73,11.44 38.17,16.65 54.33,16.64 1.15,0 2.29,-0.02 3.42,-0.08 l 0.25,5.26 -5,1.65 5,-1.65" class="colorfff svgShape"></path><path fill="#ffffff" d="m 3028.03,1678.24 4.74,2.28 c -13.29,27.95 -37,44.67 -65.76,45.93 -2.37,0.11 -4.51,-1.36 -5.25,-3.61 l -60.63,-183.48 c -0.79,-2.39 0.21,-4.99 2.39,-6.23 2.19,-1.24 4.94,-0.77 6.58,1.13 l 121.9,140.53 c 1.38,1.59 1.68,3.84 0.77,5.73 l -4.74,-2.28 -3.98,3.45 -104.68,-120.68 52.39,158.53 -5,1.65 -0.25,-5.26 c 24.93,-1.27 44.6,-14.86 56.77,-39.97 l 4.75,2.28 -3.98,3.45 3.98,-3.45" class="colorfff svgShape"></path><path fill="#ffffff" d="m 3028.03,1678.24 -3.98,3.45 -121.9,-140.54 -0.16,-0.19 -117.37,-148.85 c -1.37,-1.74 -1.51,-4.14 -0.35,-6.02 14.51,-23.77 37.77,-37.24 65.1,-37.15 18.38,0 38.48,5.9 59.39,17.98 38.23,22.11 72.3,60.78 97.02,105.58 24.69,44.81 40.02,95.8 40.04,142.9 0,25.68 -4.62,47.61 -13.05,65.12 -0.77,1.61 -2.28,2.7 -4.04,2.94 -1.77,0.23 -3.51,-0.43 -4.68,-1.77 l 3.98,-3.45 -4.74,-2.28 c 7.59,-15.76 12.01,-36.14 12,-60.56 0.02,-44.81 -14.75,-94.36 -38.73,-137.82 -23.94,-43.47 -57.08,-80.8 -93.07,-101.54 -19.67,-11.38 -38.02,-16.58 -54.12,-16.57 -23.9,0.08 -43.1,11.11 -56.14,32.13 l -4.48,-2.75 4.13,-3.26 117.3,148.76 121.82,140.44 -3.97,3.45 -4.74,-2.28 4.74,2.28" class="colorfff svgShape"></path><path fill="#406fbf" d="M2603.97 1529.11l22.01 12.7c6.29 3.63 11.39.68 11.39-6.59v-21.13c0-7.27-5.09-16.11-11.39-19.73l-22-12.71c-6.3-3.63-11.4-.68-11.4 6.58l-.01 21.14c0 7.27 5.11 16.1 11.4 19.74M2603.97 1434.27l22.01 12.7c6.29 3.64 11.39.69 11.39-6.58v-21.13c0-7.27-5.09-16.11-11.39-19.74l-22-12.7c-6.3-3.63-11.4-.69-11.4 6.58l-.01 21.14c0 7.27 5.11 16.1 11.4 19.73" class="color26b6a6 svgShape"></path><path fill="#7da6dd" d="m 2598.88,1385.27 c -3.74,0 -6.3,2.98 -6.3,8.13 l -0.01,21.14 c 0,7.27 5.11,16.1 11.4,19.73 l 22.01,12.7 c 1.83,1.06 3.55,1.56 5.09,1.56 3.73,0 6.3,-2.98 6.3,-8.14 v -21.13 c 0,-7.27 -5.09,-16.11 -11.39,-19.74 l -22,-12.7 c -1.83,-1.05 -3.56,-1.55 -5.1,-1.55" class="colora1dfd6 svgShape"></path><path fill="#406fbf" d="m 2603.97,1339.44 22.01,12.7 c 6.29,3.64 11.39,0.69 11.39,-6.58 v -21.14 c 0,-7.26 -5.09,-16.1 -11.39,-19.73 l -22,-12.7 c -6.3,-3.64 -11.4,-0.69 -11.4,6.58 l -0.01,21.14 c 0,7.26 5.11,16.1 11.4,19.73" class="color26b6a6 svgShape"></path><path fill="#406fbf" d="m 2598.89,1290.43 c -3.75,0 -6.31,2.98 -6.31,8.14 l -0.01,21.14 c 0,7.26 5.11,16.1 11.4,19.73 l 22.01,12.7 c 1.82,1.06 3.55,1.56 5.08,1.56 3.74,0 6.31,-2.98 6.31,-8.14 v -21.14 c 0,-7.26 -5.09,-16.1 -11.39,-19.73 l -22,-12.7 c -1.83,-1.06 -3.56,-1.56 -5.09,-1.56" class="color19b19d svgShape"></path><path fill="#406fbf" d="m 2603.97,1244.61 22.01,12.7 c 6.29,3.63 11.39,0.69 11.39,-6.58 v -21.14 c 0,-7.27 -5.09,-16.1 -11.39,-19.74 l -22,-12.69 c -6.3,-3.64 -11.4,-0.69 -11.4,6.58 l -0.01,21.13 c 0,7.27 5.11,16.11 11.4,19.74" class="color26b6a6 svgShape"></path><path fill="#7da6dd" d="m 2598.88,1195.6 c -3.74,0 -6.3,2.98 -6.3,8.14 l -0.01,21.13 c 0,7.27 5.11,16.11 11.4,19.74 l 22.01,12.7 c 1.83,1.05 3.55,1.56 5.09,1.56 3.73,0 6.3,-2.99 6.3,-8.14 v -21.14 c 0,-7.27 -5.09,-16.1 -11.39,-19.74 l -22,-12.69 c -1.83,-1.06 -3.56,-1.56 -5.1,-1.56" class="color70cec3 svgShape"></path><path fill="#898c8c" d="M2659.98 1531.28c-2.58 0-5.09 1.34-6.46 3.74-2.07 3.56-.84 8.13 2.72 10.18l66.96 38.66c1.18.68 2.47 1 3.74 1 2.58 0 5.08-1.33 6.46-3.72 2.06-3.57.84-8.14-2.73-10.19l-66.97-38.66c-1.17-.67-2.46-1.01-3.72-1.01M2658.96 1435.5c-2.58 0-5.09 1.34-6.47 3.73-2.07 3.57-.85 8.14 2.73 10.19l66.96 38.66c1.18.67 2.46 1 3.73 1 2.58 0 5.09-1.34 6.45-3.73 2.08-3.56.85-8.13-2.72-10.18l-66.96-38.66c-1.18-.68-2.46-1.01-3.72-1.01M2657.92 1339.72c-2.58 0-5.09 1.33-6.46 3.73-2.06 3.57-.84 8.13 2.72 10.19l66.97 38.65c1.18.68 2.47 1 3.73 1 2.58 0 5.08-1.33 6.46-3.72 2.07-3.57.84-8.13-2.73-10.19l-66.96-38.65c-1.18-.68-2.46-1.01-3.73-1.01M2656.89 1243.95c-2.58 0-5.09 1.33-6.48 3.73-2.06 3.57-.83 8.13 2.74 10.2l66.96 38.64c1.18.66 2.47.98 3.74.98 2.58 0 5.07-1.32 6.46-3.71 2.05-3.57.83-8.14-2.73-10.2l-66.97-38.65c-1.19-.66-2.45-.99-3.72-.99M2287.48 906.969c-2.58 0-5.09 1.34-6.47 3.73-2.06 3.571-.84 8.141 2.73 10.199l313.59 180.982c1.18.67 2.47 1 3.73 1 2.58 0 5.07-1.33 6.46-3.73 2.06-3.56.83-8.12-2.73-10.19L2291.2 907.969c-1.18-.668-2.46-1-3.72-1M2297.58 860.551c-2.57 0-5.08 1.328-6.47 3.73-2.06 3.571-.84 8.129 2.73 10.199l313.58 180.97c1.19.68 2.48 1 3.75 1 2.58 0 5.07-1.33 6.45-3.72 2.06-3.57.84-8.13-2.73-10.2L2301.3 861.539c-1.18-.668-2.45-.988-3.72-.988M2312.03 815.641c-2.58 0-5.09 1.339-6.47 3.73-2.06 3.57-.84 8.129 2.73 10.199l313.59 180.98c1.18.67 2.47 1 3.74 1 2.58 0 5.06-1.33 6.45-3.72 2.05-3.57.83-8.139-2.73-10.201L2315.75 816.641c-1.18-.672-2.46-1-3.72-1M2779.7 1191.03c-2.58 0-5.09 1.34-6.48 3.73-2.06 3.57-.84 8.14 2.74 10.2l313.58 180.99c1.19.67 2.47.99 3.74.99 2.58 0 5.08-1.33 6.45-3.72 2.07-3.57.84-8.14-2.73-10.2l-313.58-180.98c-1.18-.68-2.46-1.01-3.72-1.01M2789.8 1144.62c-2.59 0-5.09 1.33-6.48 3.73-2.06 3.56-.84 8.13 2.73 10.19l313.59 180.99c1.19.67 2.48 1 3.74 1 2.58 0 5.07-1.34 6.45-3.73 2.06-3.57.84-8.13-2.73-10.2l-313.58-180.99c-1.18-.66-2.46-.99-3.72-.99M2804.25 1099.71c-2.58 0-5.09 1.34-6.48 3.73-2.06 3.57-.84 8.14 2.74 10.2l313.58 180.98c1.19.68 2.48 1 3.74 1 2.58 0 5.08-1.34 6.45-3.73 2.07-3.56.84-8.13-2.73-10.19l-313.58-180.99c-1.18-.67-2.46-1-3.72-1" class="color898b8c svgShape"></path><path fill="#406fbf" d="m 2398.11,764.75 714.92,412.58 c 25.17,14.53 56.26,8.11 71.62,-12.83 15.35,-20.95 9.07,-48.38 -16.1,-62.91 L 2453.38,688.871 c -25.18,-14.531 -59.81,-10.723 -75.1,10.27 -15.3,20.98 -5.35,51.07 19.83,65.609" class="color26b6a6 svgShape"></path><path fill="#898c8c" d="M2516.07 562.57c-2.58 0-5.09 1.34-6.48 3.731-2.06 3.57-.84 8.129 2.73 10.199l313.56 180.961c1.18.66 2.47.98 3.73.98 2.59 0 5.09-1.332 6.46-3.722 2.07-3.571.84-8.129-2.73-10.199L2519.79 563.559c-1.19-.661-2.46-.989-3.72-.989M2476.84 590.238c-2.58 0-5.09 1.344-6.48 3.731-2.06 3.57-.84 8.133 2.74 10.203l313.55 180.949c1.18.66 2.47.981 3.73.981 2.58 0 5.08-1.321 6.47-3.723 2.05-3.559.83-8.129-2.74-10.188L2480.56 591.238c-1.18-.668-2.46-1-3.72-1M2557.3 538.172c-2.58 0-5.09 1.34-6.48 3.726-2.05 3.571-.83 8.133 2.74 10.204l313.56 180.957c1.18.66 2.47.98 3.73.98 2.58 0 5.08-1.328 6.47-3.719 2.06-3.558.84-8.129-2.73-10.191L2561.03 539.172c-1.2-.672-2.46-1-3.73-1M2963.76 820.93c-2.58 0-5.09 1.332-6.47 3.73-2.06 3.559-.84 8.129 2.73 10.192l313.56 180.958c1.19.67 2.48.99 3.74.99 2.58 0 5.07-1.33 6.46-3.72 2.06-3.57.83-8.13-2.73-10.2L2967.48 821.922c-1.18-.66-2.46-.992-3.72-.992M2924.53 848.602c-2.59 0-5.09 1.339-6.48 3.726-2.05 3.57-.83 8.133 2.73 10.203l313.56 180.949c1.18.66 2.47.98 3.73.98 2.59 0 5.08-1.32 6.47-3.72 2.05-3.56.83-8.13-2.73-10.19L2928.25 849.602c-1.18-.672-2.46-1-3.72-1M3004.99 796.531c-2.58 0-5.09 1.34-6.47 3.731-2.05 3.566-.83 8.129 2.73 10.199l313.57 180.961c1.18.656 2.46.976 3.73.976 2.58 0 5.08-1.328 6.46-3.718 2.06-3.559.84-8.129-2.73-10.2L3008.71 797.52c-1.18-.661-2.45-.989-3.72-.989" class="color898b8c svgShape"></path><path fill="#406fbf" d="m 2963.37,442.512 c -53.01,-30.59 -135.41,-32.621 -184.04,-4.543 -48.64,28.09 -45.08,75.652 7.94,106.25 53.01,30.59 135.41,32.633 184.04,4.543 48.63,-28.09 45.08,-75.653 -7.94,-106.25 m 46.34,128.41 c -68.09,39.316 -183.45,36.469 -257.67,-6.363 -74.22,-42.829 -79.19,-109.43 -11.11,-148.739 68.08,-39.332 183.45,-36.48 257.66,6.352 74.22,42.828 79.2,109.43 11.12,148.75" class="color26b6a6 svgShape"></path><path fill="#406fbf" d="m 2822.49,523.879 c 31.81,18.351 81.25,19.57 110.42,2.723 29.18,-16.852 27.05,-45.391 -4.76,-63.75 -31.81,-18.352 -81.25,-19.571 -110.42,-2.723 -29.18,16.851 -27.04,45.391 4.76,63.75" class="color26b6a6 svgShape"></path><path fill="#7da6dd" d="m 2868.6,448.25 c -18.82,0 -37.1,3.922 -50.87,11.879 -13.8,7.961 -20.59,18.543 -20.56,29.422 0.03,12.129 8.55,24.64 25.32,34.328 16.79,9.691 38.51,14.601 59.55,14.601 18.82,0 37.1,-3.929 50.87,-11.878 13.79,-7.961 20.59,-18.543 20.57,-29.422 -0.03,-12.129 -8.55,-24.649 -25.33,-34.328 -16.79,-9.692 -38.51,-14.602 -59.55,-14.602" class="color0b7465 svgShape"></path><path fill="#406fbf" d="m 2859.64,388.09 c -43.9,0 -86.58,9.172 -118.71,27.73 -32.11,18.539 -47.97,43.149 -47.97,68.481 -0.01,28.371 19.87,57.629 59.08,80.258 39.19,22.613 89.85,34.082 138.96,34.082 43.9,0 86.57,-9.161 118.71,-27.719 32.11,-18.551 47.97,-43.16 47.98,-68.492 0,-28.371 -19.88,-57.629 -59.1,-80.258 -39.18,-22.613 -89.83,-34.082 -138.95,-34.082 M 2745.06,487 c -0.05,-18.129 11.28,-35.758 34.27,-49.031 22.95,-13.258 53.43,-19.797 84.79,-19.797 35.08,0 71.26,8.187 99.25,24.34 27.96,16.136 42.16,36.988 42.21,57.218 0.04,18.129 -11.28,35.75 -34.27,49.032 -12.66,7.308 -27.61,12.578 -43.73,15.84 l 20.96,28.41 v 0 c -18.33,3.699 -37.73,5.539 -57.37,5.539 -23.59,0 -47.54,-2.653 -70.43,-7.91 v 0 0 l 15.52,-27.719 c -17.68,-4.063 -34.44,-10.313 -48.99,-18.703 C 2759.31,528.082 2745.1,507.23 2745.06,487" class="color19b19d svgShape"></path><path fill="#406fbf" d="m 2820.74,590.641 15.56,-27.801 c 29.94,6.879 62.43,7.531 91.24,1.711 l 21,28.461 c -40.35,8.16 -85.85,7.269 -127.8,-2.371" class="color26b6a6 svgShape"></path><path fill="#7da6dd" d="m 2836.3,562.84 -0.04,0.082 -15.52,27.719 c 22.89,5.257 46.84,7.91 70.43,7.91 19.64,0 39.04,-1.84 57.37,-5.539 l -20.96,-28.41 -0.04,-0.051 c -13.07,2.64 -26.9,3.949 -40.9,3.949 -16.86,0 -33.98,-1.898 -50.34,-5.66" class="colora1dfd6 svgShape"></path><path fill="#898c8c" d="m 2884.65,604.41 -0.45,0.02 c -4.11,0.242 -7.25,3.769 -7,7.879 l 2.02,34.25 137.86,79.57 c 1.19,0.66 2.48,0.98 3.74,0.98 2.58,0 5.08,-1.32 6.47,-3.718 2.05,-3.563 0.83,-8.129 -2.74,-10.192 l -130.92,-75.539 -1.55,-26.23 c -0.22,-3.961 -3.51,-7.02 -7.43,-7.02" class="color898b8c svgShape"></path><path fill="#406fbf" d="m 3366.43,675.012 c -53.01,-30.59 -135.41,-32.621 -184.05,-4.543 -48.62,28.09 -45.06,75.66 7.94,106.25 53.02,30.59 135.42,32.633 184.05,4.543 48.63,-28.082 45.07,-75.653 -7.94,-106.25 m 46.33,128.41 c -68.08,39.316 -183.43,36.469 -257.66,-6.363 -74.22,-42.829 -79.19,-109.418 -11.11,-148.739 68.08,-39.32 183.44,-36.468 257.66,6.36 74.22,42.82 79.2,109.422 11.11,148.742" class="color26b6a6 svgShape"></path><path fill="#406fbf" d="m 3225.55,756.379 c 31.81,18.359 81.25,19.582 110.43,2.73 29.17,-16.847 27.04,-45.39 -4.77,-63.75 -31.8,-18.359 -81.25,-19.578 -110.43,-2.73 -29.18,16.851 -27.04,45.391 4.77,63.75" class="color26b6a6 svgShape"></path><path fill="#7da6dd" d="m 3271.66,680.75 c -18.82,0 -37.1,3.93 -50.88,11.879 -13.79,7.973 -20.59,18.543 -20.56,29.422 0.03,12.14 8.55,24.648 25.33,34.328 16.79,9.691 38.51,14.609 59.55,14.609 18.82,0 37.1,-3.929 50.88,-11.879 13.79,-7.968 20.58,-18.539 20.55,-29.418 -0.02,-12.14 -8.54,-24.652 -25.32,-34.332 -16.79,-9.687 -38.5,-14.609 -59.55,-14.609" class="color0b7465 svgShape"></path><path fill="#406fbf" d="m 3262.69,620.59 c -43.9,0 -86.57,9.172 -118.7,27.73 -32.11,18.539 -47.97,43.16 -47.98,68.489 -0.01,28.363 19.88,57.632 59.09,80.25 39.19,22.621 89.85,34.082 138.96,34.082 41.67,0 82.24,-8.25 113.73,-24.969 -31.43,16.68 -71.88,24.906 -113.45,24.906 -34.75,0 -70.28,-5.746 -102,-17.109 v 0 0 l 24.53,-25.078 c -9.4,-3.371 -18.33,-7.422 -26.55,-12.172 -27.95,-16.129 -42.15,-36.989 -42.2,-57.207 -0.04,-18.133 11.28,-35.762 34.26,-49.043 22.96,-13.25 53.44,-19.797 84.8,-19.797 35.08,0 71.26,8.187 99.25,24.34 27.95,16.136 42.16,36.988 42.21,57.218 0.03,12.2 -5.1,24.18 -15.46,34.75 l 45.75,16.36 v 0 c -7.05,7.199 -15.63,13.988 -26.17,20.082 v 0 0 c 32.12,-18.543 47.98,-43.16 47.98,-68.492 0.01,-28.371 -19.88,-57.629 -59.09,-80.25 -39.19,-22.621 -89.84,-34.09 -138.96,-34.09 m 112.19,160.379 c -0.07,0.043 -0.14,0.082 -0.21,0.121 0.07,-0.039 0.14,-0.078 0.21,-0.121 m -0.26,0.14 c -0.08,0.051 -0.17,0.102 -0.25,0.153 0.08,-0.051 0.17,-0.102 0.25,-0.153 m 33.56,24.86 c -0.04,0.019 -0.07,0.043 -0.11,0.062 0.04,-0.019 0.07,-0.043 0.11,-0.062" class="color19b19d svgShape"></path><path fill="#406fbf" d="m 3412.76,803.422 c -57.52,33.226 -148.73,36.219 -220.42,10.547 l 24.6,-25.16 c 51.21,18.332 116.34,16.191 157.43,-7.547 7.52,-4.34 13.64,-9.192 18.67,-14.332 l 45.89,16.41 c -7.05,7.199 -15.63,13.988 -26.17,20.082" class="color26b6a6 svgShape"></path><path fill="#7da6dd" d="m 3393.04,766.93 c -5.03,5.14 -11.15,9.992 -18.67,14.332 -22.92,13.238 -53.3,19.758 -84.59,19.758 -24.81,0 -50.18,-4.098 -72.84,-12.211 l -0.07,0.082 -24.53,25.078 c 31.72,11.363 67.25,17.109 102,17.109 43.79,0 86.35,-9.129 118.42,-27.656 10.54,-6.094 19.12,-12.883 26.17,-20.082 l -45.75,-16.36 -0.14,-0.05" class="colora1dfd6 svgShape"></path><path fill="#898c8c" d="M3288.85 837.66l-.45.02c-4.11.242-7.25 3.769-7 7.89l2.03 34.25 137.86 79.559c1.19.672 2.47.98 3.74.98 2.58 0 5.08-1.32 6.46-3.711 2.06-3.566.83-8.128-2.74-10.199l-130.91-75.527-1.56-26.242c-.23-3.95-3.52-7.02-7.43-7.02M2927.12 324.59c-2.58 0-5.09 1.34-6.47 3.73-2.06 3.571-.83 8.141 2.73 10.2l761.54 439.449c1.19.672 2.48.992 3.74.992 2.59 0 5.08-1.332 6.46-3.723 2.06-3.566.84-8.129-2.74-10.199L2930.84 325.59c-1.18-.668-2.46-1-3.72-1M2968.3 300.922c-2.58 0-5.09 1.34-6.47 3.726-2.06 3.571-.83 8.133 2.73 10.204l761.54 439.449c1.19.66 2.48.98 3.75.98 2.58 0 5.07-1.32 6.46-3.722 2.05-3.559.83-8.129-2.74-10.188L2972.02 301.91c-1.18-.66-2.45-.988-3.72-.988M3009.4 277.191c-2.57 0-5.08 1.329-6.47 3.731-2.06 3.566-.84 8.129 2.74 10.199l761.54 439.449c1.19.668 2.47.989 3.74.989 2.58 0 5.07-1.329 6.45-3.719 2.06-3.57.84-8.141-2.73-10.199l-761.54-439.45c-1.19-.671-2.46-1-3.73-1" class="color898b8c svgShape"></path></g></svg></g></svg>