<svg height="512" viewBox="0 0 52 56" width="512" xmlns="http://www.w3.org/2000/svg"><g id="Page-1" fill="none" fill-rule="evenodd"><g id="055---Pipe" fill="rgb(0,0,0)" fill-rule="nonzero"><rect id="Rectangle-path" height="4" rx="1" width="22.001"/><path id="Shape" d="m32 40v10h18v-14c-.010471-9.3845001-7.6154999-16.989529-17-17h-10c-1.6568542 0-3-1.3431458-3-3v-10h-18v14c.01047101 9.3845001 7.61549991 16.989529 17 17h10c1.6568542 0 3 1.3431458 3 3zm3 0h12c.5522847 0 1 .4477153 1 1s-.4477153 1-1 1h-12c-.5522847 0-1-.4477153-1-1s.4477153-1 1-1zm-18-24h-12c-.55228475 0-1-.4477153-1-1s.44771525-1 1-1h12c.5522847 0 1 .4477153 1 1s-.4477153 1-1 1zm10 18c0 .5522847-.4477153 1-1 1s-1-.4477153-1-1v-12c0-.5522847.4477153-1 1-1s1 .4477153 1 1z"/><rect id="Rectangle-path" height="4" rx="1" width="22.001" x="30" y="52"/></g></g></svg>